<svg aria-hidden="true" style="position: absolute; width: 0; height: 0; overflow: hidden;" version="1.1" xmlns="http://www.w3.org/2000/svg" xmlns:xlink="http://www.w3.org/1999/xlink">
<defs>
<symbol id="icon-info" viewBox="0 0 24 24">
<title>info</title>
<path d="M12.984 9v-2.016h-1.969v2.016h1.969zM12.984 17.016v-6h-1.969v6h1.969zM12 2.016c5.531 0 9.984 4.453 9.984 9.984s-4.453 9.984-9.984 9.984-9.984-4.453-9.984-9.984 4.453-9.984 9.984-9.984z"></path>
</symbol>
<symbol id="icon-menu" viewBox="0 0 24 24">
<title>menu</title>
<path d="M3 6h18v2.016h-18v-2.016zM3 12.984v-1.969h18v1.969h-18zM3 18v-2.016h18v2.016h-18z"></path>
</symbol>
<symbol id="icon-widgets" viewBox="0 0 24 24">
<title>widgets</title>
<path d="M16.641 1.688l5.672 5.672-5.672 5.625h4.359v8.016h-8.016v-8.016h3.656l-5.625-5.625v3.656h-8.016v-8.016h8.016v4.359zM3 21v-8.016h8.016v8.016h-8.016z"></path>
</symbol>
<symbol id="icon-facebook" viewBox="0 0 24 24">
<title>facebook</title>
<path d="M18 7c0.6 0 1-0.4 1-1v-4c0-0.6-0.4-1-1-1h-3c-3.3 0-6 2.7-6 6v2h-2c-0.6 0-1 0.4-1 1v4c0 0.6 0.4 1 1 1h2v7c0 0.6 0.4 1 1 1h4c0.6 0 1-0.4 1-1v-7h2c0.5 0 0.9-0.3 1-0.8l1-4c0.1-0.3 0-0.6-0.2-0.9s-0.5-0.3-0.8-0.3h-3v-2h3zM14 11h2.7l-0.5 2h-2.2c-0.6 0-1 0.4-1 1v7h-2v-7c0-0.6-0.4-1-1-1h-2v-2h2c0.6 0 1-0.4 1-1v-3c0-2.2 1.8-4 4-4h2v2h-2c-1.1 0-2 0.9-2 2v3c0 0.6 0.4 1 1 1z"></path>
</symbol>
<symbol id="icon-twitter" viewBox="0 0 24 24">
<title>twitter</title>
<path d="M23.6 2.2c-0.3-0.2-0.8-0.2-1.1 0-0.7 0.5-1.5 0.9-2.3 1.2-2-1.8-5.1-1.9-7.2-0.1-1.3 1.1-2 2.6-2 4.2-2.9-0.2-5.5-1.7-7.2-4.1-0.2-0.3-0.5-0.4-0.9-0.4s-0.7 0.3-0.8 0.6c-0.1 0.1-1.1 2.5-1 5.4 0.1 2.5 1.1 5.7 4.8 8-1.5 0.7-3.2 1-4.9 1-0.4 0-0.9 0.3-1 0.7s0.1 0.9 0.5 1.1c2.5 1.4 5.2 2.1 7.7 2.1s4.9-0.6 7.1-1.9c4.3-2.4 6.7-7 6.7-12.5 0-0.2 0-0.3 0-0.5 1-1.1 1.7-2.4 2-3.8 0.1-0.4-0.1-0.8-0.4-1zM20.2 6c-0.2 0.2-0.3 0.6-0.3 0.9 0.1 0.2 0.1 0.4 0.1 0.6 0 4.8-2.1 8.7-5.7 10.8-2.8 1.6-6.1 2-9.4 1.2 1.3-0.4 2.5-0.9 3.6-1.7 0.4-0.2 0.5-0.5 0.5-0.9s-0.3-0.7-0.6-0.8c-5.8-2.6-5.6-7.5-5-10 2.2 2.2 5.3 3.5 8.6 3.4 0.5 0 1-0.5 1-1v-1c0-1 0.4-2 1.2-2.7 1.4-1.3 3.7-1.1 4.9 0.3 0.3 0.3 0.7 0.4 1 0.3 0.2-0.1 0.5-0.1 0.7-0.2-0.2 0.3-0.4 0.5-0.6 0.8z"></path>
</symbol>
<symbol id="icon-arrow_back" viewBox="0 0 24 24">
<title>arrow_back</title>
<path d="M20.016 11.016v1.969h-12.188l5.578 5.625-1.406 1.406-8.016-8.016 8.016-8.016 1.406 1.406-5.578 5.625h12.188z"></path>
</symbol>
<symbol id="icon-arrow_forward" viewBox="0 0 24 24">
<title>arrow_forward</title>
<path d="M12 3.984l8.016 8.016-8.016 8.016-1.406-1.406 5.578-5.625h-12.188v-1.969h12.188l-5.578-5.625z"></path>
</symbol>
<symbol id="icon-instagram" viewBox="0 0 21 24">
<title>instagram</title>
<path d="M13.714 12c0-1.888-1.54-3.429-3.429-3.429s-3.429 1.54-3.429 3.429 1.54 3.429 3.429 3.429 3.429-1.54 3.429-3.429zM15.563 12c0 2.92-2.357 5.277-5.277 5.277s-5.277-2.357-5.277-5.277 2.357-5.277 5.277-5.277 5.277 2.357 5.277 5.277zM17.009 6.509c0 0.683-0.549 1.232-1.232 1.232s-1.232-0.549-1.232-1.232 0.549-1.232 1.232-1.232 1.232 0.549 1.232 1.232zM10.286 3.563c-1.5 0-4.714-0.121-6.067 0.415-0.469 0.188-0.817 0.415-1.179 0.777s-0.589 0.71-0.777 1.179c-0.536 1.353-0.415 4.567-0.415 6.067s-0.121 4.714 0.415 6.067c0.188 0.469 0.415 0.817 0.777 1.179s0.71 0.589 1.179 0.777c1.353 0.536 4.567 0.415 6.067 0.415s4.714 0.121 6.067-0.415c0.469-0.188 0.817-0.415 1.179-0.777s0.589-0.71 0.777-1.179c0.536-1.353 0.415-4.567 0.415-6.067s0.121-4.714-0.415-6.067c-0.188-0.469-0.415-0.817-0.777-1.179s-0.71-0.589-1.179-0.777c-1.353-0.536-4.567-0.415-6.067-0.415zM20.571 12c0 1.42 0.013 2.826-0.067 4.246-0.080 1.647-0.455 3.107-1.661 4.313s-2.665 1.58-4.313 1.661c-1.42 0.080-2.826 0.067-4.246 0.067s-2.826 0.013-4.246-0.067c-1.647-0.080-3.107-0.455-4.313-1.661s-1.58-2.665-1.661-4.313c-0.080-1.42-0.067-2.826-0.067-4.246s-0.013-2.826 0.067-4.246c0.080-1.647 0.455-3.107 1.661-4.313s2.665-1.58 4.313-1.661c1.42-0.080 2.826-0.067 4.246-0.067s2.826-0.013 4.246 0.067c1.647 0.080 3.107 0.455 4.313 1.661s1.58 2.665 1.661 4.313c0.080 1.42 0.067 2.826 0.067 4.246z"></path>
</symbol>
<symbol id="icon-festivals" viewBox="0 0 24 24">
<title>festivals</title>
<path d="M8.807 10.679c0-0.785-0.278-1.455-0.833-2.010s-1.226-0.833-2.011-0.833c0-0.37 0-0.696 0-0.979 0-0.291 0-0.538 0-0.74 0-0.168 0-0.312 0-0.437 0-0.123 0-0.229 0-0.317 0-0.361 0-0.568 0-0.622s0-0.282 0-0.688c0.749 0 1.868 0 3.359 0 0 0.114 0 0.291 0 0.529-0.626 0-1.569 0-2.829 0 0 0.617 0 1.543 0 2.777 0.802 0.124 1.472 0.499 2.010 1.123 0.547 0.626 0.82 1.358 0.82 2.195 0 0.327-0.045 0.639-0.132 0.938-0.088 0.299-0.211 0.577-0.37 0.833-0.3 0.477-0.701 0.86-1.203 1.151-0.503 0.291-1.054 0.437-1.654 0.437v-0.529c0.785 0 1.455-0.273 2.010-0.82 0.556-0.555 0.834-1.225 0.834-2.010z"></path>
<path d="M17.494 8.353c-0.97 1.984-2.42 4.963-4.35 8.938-0.132 0-0.327 0-0.581 0 1.014-2.107 2.543-5.263 4.588-9.467-1.146 0-2.874 0-5.183 0 0-0.114 0-0.286 0-0.516 1.084 0 2.706 0 4.865 0 0.265 0 0.652 0 1.164 0-0.114 0.23-0.282 0.578-0.502 1.045z"></path>
<path d="M6.003 18.314h0.872v0.17h-0.682v0.548h0.637v0.17h-0.637v0.716h-0.19v-1.604z"></path>
<path d="M7.417 18.314h0.872v0.17h-0.682v0.525h0.625v0.17h-0.625v0.57h0.693v0.17h-0.884v-1.605z"></path>
<path d="M9.597 19.51c0-0.064-0.020-0.117-0.058-0.157s-0.086-0.076-0.143-0.108c-0.058-0.032-0.12-0.061-0.186-0.088-0.068-0.027-0.13-0.061-0.186-0.1-0.058-0.039-0.105-0.087-0.143-0.145s-0.058-0.131-0.058-0.219c0-0.125 0.044-0.224 0.131-0.297s0.211-0.11 0.371-0.11c0.094 0 0.177 0.007 0.254 0.021s0.136 0.032 0.179 0.052l-0.058 0.17c-0.035-0.017-0.087-0.034-0.155-0.050-0.068-0.015-0.145-0.024-0.23-0.024-0.101 0-0.176 0.023-0.226 0.068s-0.075 0.098-0.075 0.159c0 0.060 0.020 0.109 0.058 0.149 0.038 0.039 0.086 0.075 0.143 0.107 0.058 0.032 0.12 0.062 0.186 0.093 0.067 0.030 0.13 0.066 0.186 0.107 0.058 0.040 0.105 0.089 0.143 0.146s0.058 0.126 0.058 0.211c0 0.069-0.012 0.131-0.037 0.185-0.024 0.054-0.060 0.102-0.108 0.142-0.047 0.039-0.105 0.071-0.172 0.091-0.068 0.022-0.144 0.032-0.229 0.032-0.114 0-0.209-0.009-0.284-0.026s-0.133-0.037-0.174-0.059l0.064-0.17c0.035 0.020 0.087 0.038 0.156 0.057s0.146 0.028 0.231 0.028c0.050 0 0.098-0.005 0.142-0.015 0.045-0.010 0.083-0.026 0.114-0.048s0.058-0.050 0.076-0.084c0.021-0.030 0.030-0.071 0.030-0.117z"></path>
<path d="M11.353 18.484h-0.499v1.434h-0.19v-1.434h-0.499v-0.17h1.189v0.17z"></path>
<path d="M11.862 18.314h0.191v1.604h-0.191v-1.604z"></path>
<path d="M13.131 19.416l0.056 0.243h0.002l0.060-0.247 0.385-1.097h0.191l-0.606 1.629h-0.085l-0.618-1.629h0.208l0.408 1.102z"></path>
<path d="M14.902 19.473h-0.588l-0.16 0.444h-0.191l0.606-1.629h0.087l0.61 1.629h-0.201l-0.163-0.444zM14.376 19.308h0.469l-0.177-0.488-0.057-0.243h-0.002l-0.057 0.247-0.176 0.483z"></path>
<path d="M16.657 19.917h-0.948v-1.603h0.191v1.434h0.758v0.169z"></path>
<path d="M17.846 19.51c0-0.064-0.020-0.117-0.058-0.157s-0.086-0.076-0.143-0.108c-0.058-0.032-0.12-0.061-0.186-0.088-0.067-0.027-0.13-0.061-0.186-0.1-0.058-0.039-0.105-0.087-0.143-0.145s-0.058-0.131-0.058-0.219c0-0.125 0.044-0.224 0.131-0.297s0.211-0.11 0.371-0.11c0.094 0 0.177 0.007 0.255 0.021 0.076 0.014 0.136 0.032 0.179 0.052l-0.058 0.17c-0.035-0.017-0.087-0.034-0.155-0.050-0.067-0.015-0.145-0.024-0.23-0.024-0.101 0-0.176 0.023-0.226 0.068s-0.075 0.098-0.075 0.159c0 0.060 0.020 0.109 0.058 0.149 0.038 0.039 0.086 0.075 0.143 0.107 0.058 0.032 0.12 0.062 0.186 0.093 0.067 0.030 0.13 0.066 0.186 0.107 0.058 0.040 0.105 0.089 0.143 0.146s0.058 0.126 0.058 0.211c0 0.069-0.012 0.131-0.037 0.185-0.024 0.054-0.060 0.102-0.108 0.142-0.047 0.039-0.105 0.071-0.172 0.091-0.067 0.022-0.144 0.032-0.229 0.032-0.114 0-0.209-0.009-0.284-0.026s-0.133-0.037-0.174-0.059l0.064-0.17c0.035 0.020 0.087 0.038 0.156 0.057s0.146 0.028 0.231 0.028c0.050 0 0.098-0.005 0.142-0.015 0.045-0.010 0.083-0.026 0.114-0.048s0.058-0.050 0.076-0.084c0.020-0.030 0.029-0.071 0.029-0.117z"></path>
</symbol>
<symbol id="icon-b24" viewBox="0 0 24 24">
<title>b24</title>
<path d="M2.25 15.75h19.449v-7.5h-19.449v7.5zM6.468 13.076c0 0.808-0.565 1.678-1.817 1.678h-1.41v-5.512h1.41c0.772 0 1.21 0.335 1.435 0.608 0.243 0.292 0.383 0.687 0.383 1.075 0 0.377-0.122 0.766-0.383 1.075 0.243 0.292 0.383 0.687 0.383 1.075h-0.001zM10.461 14.753h-3.494c0-1.465 0.431-2.377 1.392-3.076 0.59-0.425 0.815-0.717 0.815-0.991 0-0.249-0.188-0.389-0.389-0.389-0.158 0-0.395 0.139-0.468 0.449l-1.131-0.432c0.268-0.711 0.899-1.173 1.599-1.173 0.869 0 1.574 0.693 1.574 1.543 0 0.985-0.809 1.513-1.289 1.86-0.346 0.249-0.613 0.577-0.766 1.105h2.158v1.1zM14.497 13.653h-0.37v1.1h-1.21v-1.1h-1.915v-1.1l1.915-3.312h1.21v3.312h0.37v1.1zM15.621 14.747h-0.638l1.617-5.506h0.638l-1.617 5.506zM20.708 10.347h-0.006c-0.826 1.508-1.149 2.158-1.149 4.4h-1.21c0-2.146 0.443-3.076 1.154-4.4h-1.739v-1.106h2.948v1.106zM12.917 11.331v1.222h-0.705l0.705-1.222zM5.259 13.094v0.018c-0.006 0.305-0.2 0.535-0.595 0.541h-0.212v-1.1h0.212c0.395 0 0.59 0.237 0.596 0.541v0.001zM5.259 10.888v0.018c-0.006 0.304-0.2 0.541-0.595 0.541h-0.212v-1.1h0.212c0.395 0.006 0.59 0.237 0.596 0.541v0z"></path>
</symbol>
<symbol id="icon-bristol-city-council" viewBox="0 0 24 24">
<title>bristol-city-council</title>
<path d="M11.919 7.151c-2.675 0-4.85 2.176-4.85 4.85s2.176 4.85 4.85 4.85c2.674 0 4.85-2.176 4.85-4.85s-2.177-4.85-4.85-4.85v0zM15.33 12.107c0.015 0.020 0.002 0.056-0.028 0.076s-0.067 0.024-0.082 0.003c-0.015-0.020-0.002-0.055 0.028-0.076s0.067-0.023 0.082-0.003v0zM15.259 12.004c0.015 0.021 0.002 0.055-0.028 0.077s-0.068 0.023-0.082 0.003c-0.014-0.020-0.001-0.056 0.028-0.077s0.067-0.023 0.082-0.003v0zM15.189 11.901c0.015 0.020 0.002 0.056-0.029 0.077s-0.067 0.023-0.082 0.002c-0.015-0.020-0.002-0.055 0.028-0.076s0.067-0.024 0.082-0.003v0zM15.090 11.875c-0.032 0.023-0.067 0.024-0.082 0.003s-0.003-0.055 0.028-0.076c0.031-0.023 0.067-0.024 0.082-0.003s0.002 0.056-0.028 0.076v0zM14.739 13.855l-0.023-0.023c-0.068-0.063-0.143-0.13-0.222-0.196l-0.013-0.010-0.017-0.014c0.782-0.173 1.218-0.467 1.224-0.472l0.021 0.020-0.214 0.387c-0.247 0.124-0.499 0.226-0.758 0.307v0.001zM15.429 13.672l-0.027 0.043c0 0-0.131 0.209-0.307 0.459l-0.017-0.002-0.032-0.003-0.010-0.011-0.206-0.215-0.012-0.012c0.149-0.053 0.332-0.127 0.565-0.238l0.046-0.022zM14.633 13.858l0.013 0.012 0.012 0.011 0.094 0.089 0.012 0.012 0.172 0.177 0.010 0.010 0.005 0.005 0.011 0.012 0.113 0.129 0.002 0.002v0.001l0.008 0.010c-0.069 0.044-0.261 0.14-0.578 0.107l-0.003-0.005-0.002-0.002-0.002-0.002-0.064-0.096-0.008-0.011-0.002-0.002-0.008-0.011-0.134-0.191-0.019-0.026-0.070-0.096-0.009-0.012-0.010-0.014-0.184-0.241-0.010-0.014-0.012-0.015-0.080-0.098-0.012-0.014-0.011-0.014c-0.083-0.1-0.168-0.193-0.248-0.271l-0.014-0.013-0.014-0.014c-0.059-0.056-0.116-0.103-0.167-0.136 0.020-0.008 0.080-0.008 0.14 0.003 0.082 0.035 0.16 0.073 0.238 0.114l0.025 0.013 0.021 0.011c0.132 0.073 0.256 0.155 0.373 0.241l0.016 0.012 0.015 0.011 0.135 0.104 0.014 0.012c0.085 0.067 0.162 0.134 0.232 0.2l0.001-0.001zM10.022 11.242l0.199-0.014c0.014 1.808 0.714 2.863 0.721 2.874l0.020 0.029-0.187-0.036c-0.838-1.228-0.754-2.837-0.753-2.853h0.001zM11.333 12.283c0.032 0.019 0.048 0.052 0.035 0.074s-0.050 0.024-0.082 0.005c-0.032-0.020-0.048-0.053-0.034-0.074s0.050-0.024 0.082-0.005v0zM11.32 12.188c0.013-0.021 0.050-0.023 0.082-0.005s0.048 0.053 0.035 0.074c-0.013 0.022-0.050 0.023-0.082 0.005s-0.047-0.053-0.034-0.074v0zM11.264 12.383c0.031 0.020 0.048 0.053 0.034 0.074s-0.050 0.023-0.082 0.005c-0.031-0.019-0.048-0.053-0.034-0.074s0.050-0.023 0.082-0.005v0zM10.792 12.507c-0.030-0.023-0.042-0.057-0.027-0.077s0.052-0.018 0.082 0.005 0.042 0.057 0.027 0.078c-0.015 0.019-0.052 0.017-0.082-0.005v0zM10.795 12.604c-0.015 0.020-0.052 0.018-0.082-0.005s-0.042-0.057-0.027-0.077c0.015-0.020 0.051-0.018 0.081 0.005s0.042 0.057 0.027 0.077v0zM10.87 12.415c-0.030-0.023-0.043-0.057-0.027-0.077s0.051-0.018 0.082 0.005c0.030 0.023 0.042 0.058 0.027 0.078s-0.051 0.018-0.082-0.005v0zM10.949 12.322c-0.030-0.023-0.042-0.057-0.027-0.077s0.052-0.018 0.082 0.005c0.030 0.023 0.042 0.057 0.027 0.077s-0.052 0.018-0.082-0.005v0zM10.976 12.686c0.013-0.022 0.050-0.023 0.082-0.005s0.048 0.053 0.034 0.074-0.050 0.023-0.082 0.005c-0.032-0.019-0.048-0.053-0.034-0.074v0zM11.080 12.66c-0.032-0.020-0.048-0.053-0.035-0.073s0.050-0.024 0.082-0.005 0.048 0.052 0.034 0.074c-0.013 0.022-0.050 0.024-0.082 0.004v0zM11.149 12.561c-0.032-0.019-0.048-0.052-0.034-0.074s0.050-0.023 0.082-0.005c0.032 0.020 0.047 0.053 0.034 0.074s-0.050 0.023-0.082 0.004v0zM11.189 12.144c-0.015 0.020-0.052 0.018-0.082-0.005s-0.042-0.057-0.027-0.077 0.052-0.018 0.082 0.005c0.030 0.022 0.042 0.057 0.027 0.077v0zM11.084 12.159c0.030 0.023 0.042 0.057 0.027 0.077s-0.052 0.018-0.082-0.005c-0.030-0.023-0.042-0.057-0.027-0.077s0.052-0.017 0.082 0.005v0zM11.058 11.846c-0.017 0.020-0.053 0.017-0.082-0.007s-0.040-0.059-0.024-0.079c0.016-0.019 0.053-0.017 0.081 0.007s0.040 0.059 0.024 0.079v0.001zM10.951 11.857c0.029 0.023 0.040 0.058 0.025 0.078s-0.053 0.016-0.082-0.007c-0.029-0.024-0.040-0.059-0.024-0.079s0.052-0.016 0.081 0.008v0zM10.87 11.947c0.029 0.023 0.040 0.059 0.025 0.078s-0.053 0.016-0.082-0.008c-0.029-0.023-0.040-0.059-0.024-0.078s0.053-0.017 0.081 0.007v0zM10.788 12.036c0.029 0.023 0.040 0.059 0.024 0.078s-0.053 0.017-0.082-0.008c-0.028-0.024-0.040-0.058-0.024-0.078s0.052-0.016 0.081 0.008v0zM10.705 12.125c0.029 0.024 0.040 0.058 0.024 0.078s-0.053 0.016-0.081-0.008c-0.029-0.023-0.040-0.059-0.024-0.078s0.052-0.016 0.081 0.008v0zM10.624 12.214c0.029 0.024 0.040 0.058 0.024 0.079s-0.052 0.016-0.081-0.008c-0.029-0.024-0.040-0.059-0.024-0.079 0.015-0.019 0.052-0.016 0.081 0.008v0zM10.541 12.303c0.029 0.024 0.040 0.058 0.024 0.078s-0.052 0.016-0.082-0.007c-0.029-0.023-0.040-0.059-0.025-0.078 0.017-0.020 0.053-0.017 0.082 0.007v0zM10.453 12.574c0.944 0.472 1.884 0.712 2.795 0.712l0.24-0.007 0.017 0.014 0.016 0.014c0.081 0.073 0.169 0.168 0.257 0.271l0.013 0.015 0.010 0.012c-0.184 0.019-0.37 0.031-0.559 0.031-1.516 0-2.667-0.614-2.679-0.62l-0.139-0.457 0.029 0.016h-0.001zM13.061 12.936l-0.203-0.291 0.056-2.264 0.232-0.29 0.002 0.038c0.048 0.964 0.071 2.14 0.061 3.070v0.014l-0.014-0.001c-0.181-0.003-0.326-0.023-0.332-0.024-0.013-0.021-0.005-0.211-0.005-0.211l0.217 0.002v-0.003l-0.014-0.040zM14.735 11.362c-0.031 0.022-0.068 0.023-0.082 0.003s-0.002-0.056 0.029-0.077c0.031-0.022 0.067-0.024 0.082-0.003s0.002 0.056-0.028 0.077v0zM14.833 11.388c0.014 0.021 0.002 0.056-0.028 0.077s-0.067 0.023-0.082 0.003c-0.014-0.021-0.002-0.055 0.028-0.077 0.032-0.022 0.068-0.023 0.082-0.003v0zM14.664 11.26c-0.031 0.022-0.068 0.023-0.082 0.003s-0.002-0.055 0.028-0.077c0.032-0.022 0.067-0.023 0.082-0.003s0.002 0.055-0.028 0.077v0zM14.593 11.157c-0.031 0.022-0.068 0.024-0.082 0.003s-0.002-0.055 0.029-0.077 0.067-0.023 0.082-0.003c0.015 0.020 0.002 0.055-0.028 0.077v0zM14.522 11.054c-0.031 0.023-0.067 0.023-0.082 0.003s-0.002-0.055 0.028-0.076c0.031-0.023 0.067-0.024 0.082-0.003s0.002 0.055-0.028 0.076v0zM14.451 10.951c-0.031 0.022-0.067 0.023-0.082 0.003s-0.002-0.055 0.028-0.077 0.067-0.023 0.082-0.003c0.014 0.021 0.002 0.056-0.028 0.077v0zM14.38 10.849c-0.031 0.022-0.067 0.023-0.082 0.003s-0.002-0.055 0.028-0.077 0.067-0.023 0.082-0.003c0.015 0.020 0.003 0.055-0.029 0.077v0zM14.309 10.746c-0.031 0.023-0.068 0.023-0.082 0.003s-0.002-0.055 0.028-0.077c0.031-0.022 0.068-0.023 0.082-0.003s0.002 0.056-0.028 0.077v0zM14.239 10.643c-0.031 0.022-0.067 0.023-0.082 0.003s-0.002-0.055 0.028-0.077 0.067-0.023 0.082-0.003c0.014 0.021 0.002 0.055-0.028 0.077v0zM14.168 10.541c-0.031 0.022-0.067 0.023-0.082 0.002s-0.002-0.055 0.028-0.077 0.067-0.023 0.082-0.003c0.014 0.020 0.002 0.056-0.028 0.077v0zM14.096 10.438c-0.031 0.022-0.067 0.023-0.082 0.003s-0.002-0.056 0.028-0.077 0.067-0.023 0.082-0.003c0.015 0.021 0.002 0.056-0.028 0.077v0zM14.026 10.336c-0.031 0.022-0.068 0.023-0.082 0.003s-0.002-0.055 0.028-0.077c0.031-0.022 0.067-0.023 0.082-0.003s0.002 0.055-0.028 0.077v0zM13.536 10.171c0.035-0.015 0.070-0.010 0.080 0.012s-0.008 0.051-0.042 0.066-0.070 0.010-0.080-0.012c-0.010-0.022 0.008-0.051 0.042-0.066v0zM13.442 10.121c-0.011-0.022 0.008-0.051 0.042-0.066s0.070-0.010 0.080 0.012c0.010 0.022-0.008 0.052-0.042 0.066-0.033 0.016-0.070 0.010-0.080-0.012v0zM13.59 10.287c0.034-0.015 0.069-0.010 0.080 0.012s-0.008 0.051-0.042 0.066c-0.034 0.014-0.070 0.010-0.080-0.013-0.010-0.021 0.008-0.051 0.042-0.066v0zM13.643 10.403c0.034-0.015 0.070-0.010 0.080 0.012s-0.008 0.051-0.042 0.066-0.070 0.010-0.080-0.012c-0.010-0.022 0.008-0.051 0.042-0.066v0zM13.697 10.52c0.034-0.015 0.070-0.010 0.080 0.012s-0.008 0.051-0.042 0.066-0.070 0.010-0.080-0.012c-0.011-0.021 0.008-0.051 0.042-0.066v0zM13.75 10.635c0.034-0.015 0.070-0.010 0.080 0.012s-0.009 0.051-0.043 0.066c-0.033 0.015-0.070 0.010-0.080-0.012s0.009-0.051 0.043-0.066v0zM13.804 10.751c0.033-0.015 0.069-0.010 0.080 0.012s-0.008 0.051-0.042 0.066-0.070 0.010-0.080-0.012c-0.010-0.022 0.009-0.051 0.043-0.066v0zM13.856 10.867c0.034-0.015 0.070-0.010 0.080 0.012s-0.008 0.051-0.042 0.066-0.070 0.010-0.080-0.012c-0.011-0.022 0.008-0.051 0.042-0.066v0zM13.91 10.983c0.034-0.015 0.070-0.010 0.080 0.013 0.010 0.021-0.008 0.051-0.042 0.066s-0.069 0.010-0.080-0.012c-0.010-0.022 0.009-0.051 0.043-0.067v0zM13.955 10.233c-0.031 0.022-0.067 0.024-0.082 0.003s-0.002-0.055 0.029-0.077c0.031-0.022 0.067-0.024 0.082-0.003s0.002 0.055-0.028 0.076v0zM13.884 10.13c-0.031 0.022-0.067 0.023-0.082 0.003s-0.002-0.055 0.028-0.077c0.031-0.022 0.067-0.023 0.082-0.003s0.002 0.055-0.028 0.077v0zM13.813 10.027c-0.031 0.022-0.067 0.024-0.082 0.004s-0.002-0.056 0.028-0.077 0.067-0.023 0.082-0.003c0.015 0.021 0.002 0.056-0.029 0.077v0zM13.742 9.925c-0.031 0.023-0.068 0.024-0.082 0.003s-0.002-0.055 0.029-0.077c0.031-0.022 0.067-0.024 0.082-0.003s0.002 0.055-0.028 0.077v0zM13.671 9.823c-0.031 0.023-0.068 0.024-0.082 0.003s-0.003-0.056 0.028-0.077 0.067-0.023 0.082-0.003c0.014 0.021 0.002 0.056-0.029 0.077v0zM13.6 9.719c-0.031 0.022-0.067 0.024-0.082 0.003s-0.002-0.055 0.029-0.076c0.031-0.023 0.067-0.024 0.082-0.003s0.002 0.056-0.029 0.077v0zM13.468 10.017c-0.034 0.015-0.070 0.009-0.080-0.012s0.008-0.052 0.042-0.066 0.070-0.010 0.080 0.012c0.011 0.022-0.008 0.051-0.042 0.066v0zM13.415 9.901c-0.034 0.015-0.070 0.010-0.080-0.012s0.008-0.052 0.042-0.067 0.070-0.010 0.080 0.012c0.010 0.022-0.008 0.051-0.042 0.066v0zM11.028 14.179l-0.016-0.005-0.021-0.074-0.005-0.027 0.025 0.012c0.003 0.001 0.341 0.157 1.019 0.324v0.008l-0.016 0.003c-0.068 0.016-0.146 0.025-0.219 0.015-0.002 0-0.165-0.022-0.327-0.091l-0.054-0.023c-0.078-0.034-0.217-0.095-0.387-0.142v-0.001zM10.974 14.001l-0.194-0.359 0.040 0.019c0.007 0.004 0.737 0.35 1.864 0.506l0.001 0.010-0.011 0.003c-0.097 0.023-0.239 0.070-0.438 0.166l-0.043 0.020-0.023 0.009c-0.156-0.038-0.79-0.197-1.194-0.373v0zM10.75 13.526l-0.145-0.373 0.031 0.013c0.915 0.38 1.816 0.572 2.676 0.572 0.203 0 0.392-0.012 0.572-0.030l0.021 0.027 0.201 0.261 0.010 0.014c-0.294 0.052-0.594 0.078-0.9 0.078-1.403 0-2.455-0.554-2.465-0.56v0zM13.189 14.204c0.007-0.001 0.633-0.040 0.995-0.102l0.010 0.013 0.009 0.013 0.143 0.203 0.006 0.009-0.071 0.029-0.017 0.008-0.101 0.035c-0.060 0.016-0.139 0.032-0.227 0.032l-0.022-0.001-0.121-0.010-0.008-0.002-0.131-0.038-0.466-0.179v-0.009h0.001zM13.963 11.099c0.033-0.015 0.070-0.010 0.080 0.012s-0.009 0.051-0.042 0.066-0.070 0.009-0.080-0.012c-0.011-0.022 0.008-0.051 0.042-0.066v0zM14.017 11.216c0.033-0.015 0.070-0.010 0.080 0.012s-0.008 0.051-0.042 0.066-0.070 0.010-0.080-0.012c-0.010-0.022 0.009-0.051 0.043-0.066v0zM14.070 11.332c0.034-0.015 0.069-0.010 0.080 0.012s-0.008 0.051-0.042 0.066c-0.034 0.015-0.070 0.009-0.080-0.012s0.008-0.051 0.042-0.066v0zM14.124 11.448c0.033-0.015 0.070-0.010 0.080 0.012s-0.008 0.051-0.042 0.066-0.070 0.010-0.080-0.012c-0.010-0.022 0.008-0.052 0.042-0.066v0zM14.177 11.564c0.034-0.015 0.070-0.010 0.080 0.012s-0.008 0.052-0.042 0.067-0.070 0.009-0.080-0.012c-0.011-0.022 0.008-0.051 0.042-0.066v0zM14.23 11.681c0.034-0.015 0.070-0.010 0.080 0.012s-0.009 0.051-0.042 0.066c-0.034 0.015-0.070 0.009-0.080-0.012s0.008-0.051 0.042-0.066v0zM14.284 11.797c0.033-0.015 0.070-0.010 0.080 0.012s-0.008 0.051-0.042 0.066-0.070 0.009-0.080-0.012c-0.010-0.022 0.008-0.052 0.042-0.066v0zM14.337 11.912c0.034-0.015 0.069-0.010 0.080 0.012s-0.008 0.051-0.042 0.066-0.070 0.010-0.080-0.012c-0.010-0.021 0.008-0.051 0.042-0.066v0zM14.39 12.029c0.033-0.015 0.070-0.010 0.080 0.012s-0.008 0.051-0.042 0.067c-0.034 0.015-0.070 0.009-0.080-0.013s0.008-0.051 0.042-0.066v0zM14.444 12.145c0.034-0.015 0.070-0.010 0.081 0.012s-0.009 0.051-0.042 0.066c-0.034 0.015-0.070 0.009-0.080-0.012s0.008-0.051 0.042-0.066v0zM14.497 12.261c0.034-0.015 0.070-0.010 0.080 0.012s-0.008 0.051-0.042 0.066c-0.034 0.014-0.070 0.010-0.080-0.012s0.008-0.051 0.042-0.066v0zM14.551 12.377c0.033-0.015 0.070-0.010 0.080 0.012s-0.008 0.051-0.042 0.066c-0.033 0.015-0.070 0.009-0.080-0.012s0.009-0.052 0.043-0.066v0zM14.604 12.494c0.034-0.015 0.070-0.010 0.080 0.012s-0.008 0.051-0.042 0.066-0.070 0.010-0.080-0.012c-0.010-0.021 0.008-0.051 0.042-0.066v0zM14.657 12.61c0.034-0.015 0.070-0.010 0.080 0.012s-0.008 0.051-0.042 0.066-0.070 0.010-0.080-0.012c-0.011-0.021 0.008-0.051 0.042-0.066v0zM14.711 12.725c0.033-0.015 0.069-0.010 0.080 0.012s-0.009 0.051-0.042 0.066-0.070 0.010-0.080-0.012c-0.011-0.021 0.008-0.051 0.043-0.066v0zM14.764 12.841c0.033-0.015 0.070-0.010 0.080 0.012s-0.008 0.051-0.042 0.066c-0.034 0.015-0.070 0.010-0.080-0.012s0.008-0.051 0.042-0.066v0zM14.795 11.571c-0.015-0.020-0.002-0.055 0.028-0.077 0.032-0.022 0.067-0.023 0.082-0.003s0.002 0.055-0.028 0.077c-0.032 0.022-0.068 0.023-0.082 0.003v0zM14.893 11.596c0.031-0.022 0.067-0.024 0.082-0.003s0.002 0.055-0.028 0.076c-0.032 0.022-0.067 0.024-0.082 0.003s-0.003-0.055 0.028-0.077v0zM14.965 11.699c0.031-0.022 0.067-0.023 0.082-0.003s0.002 0.055-0.029 0.077c-0.031 0.022-0.067 0.023-0.082 0.002s-0.002-0.054 0.028-0.076v0zM15.091 8.619c-0.25 0.112-0.476 0.226-0.682 0.342l-0.035 0.019c-0.099 0.056-0.194 0.112-0.284 0.169l-0.047 0.031-0.19 0.127-0.106 0.077-0.11 0.083-0.11 0.088-0.080 0.070-0.112 0.1-0.017 0.017c-0.149 0.142-0.278 0.287-0.389 0.437l-0.014 0.019-0.101 0.149-0.008 0.012c-0.133 0.216-0.227 0.44-0.282 0.672-0.241 1.027 0.413 1.838 0.421 1.847l0.005 0.005-0.007-0.001c-0.351-0.040-0.661-0.131-0.932-0.265l-0.012-0.005-0.167-0.094-0.027-0.017-0.148-0.103-0.023-0.018c-0.138-0.11-0.261-0.235-0.369-0.377l0.002 0.048c-0.015 0.020-0.052 0.019-0.082-0.005s-0.042-0.057-0.027-0.077c0.015-0.020 0.052-0.018 0.082 0.005l0.010 0.009-0.029-0.039-0.087-0.142-0.021-0.036-0.055-0.017c-0.029-0.023-0.040-0.059-0.024-0.078l0.023-0.008-0.005-0.010c-0.051-0.102-0.095-0.206-0.131-0.313l-0.013-0.035-0.045-0.147-0.016-0.059c-0.024-0.092-0.043-0.184-0.060-0.277l-0.007-0.039-0.019-0.134-0.010-0.079-0.013-0.127-0.004-0.056-0.010-0.253-0.001-0.046c-0.004-0.634 0.11-1.13 0.113-1.139l4.251-0.332zM12.992 7.531l0.073-0.006 0.036 1.181h-0.134l0.024-1.175zM9.947 8.063c0 0 0.273-0.089 0.463 0.125 0.265 0.177 0.265-0.139 0.277-0.265 0.29-0.921 2.209-0.279 2.209-0.279v0.421c0 0-2.032-0.784-2.065 0.264-0.005 0.479-0.346 0.277-0.346 0.277s-0.569-0.454-1.326 0.253c0.29-0.72 0.788-0.795 0.788-0.795v0.001zM7.849 11.135l-0.003-0.091 2.009-0.003 0.003 0.094-2.008 0.001zM9.773 12.359h-0.22c-0.092-0.648-0.694-0.682-0.7-0.683-0.646 0.041-0.696 0.673-0.697 0.68l-0.223 0.003-0.003-1.139 1.839-0.003 0.003 1.142zM7.363 10.724l0.384-0.002 0.003 0.466 0.070-0.003 0.003 0.082h-0.577c0.029-0.184 0.067-0.366 0.117-0.543v0zM7.234 11.343l0.586-0.002 0.003 0.451h-0.628c0.006-0.152 0.019-0.301 0.040-0.449h-0.001zM7.189 11.867l0.631-0.003 0.003 0.129h-0.639l0.006-0.126zM7.186 12.066l0.634-0.003 0.003 0.062h-0.634l-0.003-0.059zM7.193 12.207h0.009l0.617-0.003 0.003 0.149-0.091 0.003 0.003 0.223 0.022 0.062h-0.525c-0.020-0.143-0.032-0.287-0.038-0.434v0zM7.244 12.731h0.021l0.53-0.002 0.043 0.092 0.001 0.406h-0.49c-0.043-0.162-0.078-0.327-0.104-0.495v0zM7.568 13.87h0.034l0.235-0.003 0.002 0.529c-0.1-0.169-0.193-0.344-0.272-0.526v0zM7.533 13.783c-0.062-0.152-0.115-0.307-0.16-0.466h0.085l0.38-0.003 0.003 0.468h-0.307zM7.929 14.543l-0.001-1.665 0.481-0.003 0.003 2.298c-0.178-0.197-0.339-0.407-0.482-0.631v0zM8.411 12.796h-0.479l-0.091-0.178-0.001-0.174 0.659-0.003 0.002 0.176-0.091 0.178zM8.853 11.924c-0.431 0-0.437 0.429-0.437 0.433l-0.132 0.003 0.001-0.003 0.009-0.064 0.005-0.035 0.007-0.027 0.016-0.062 0.002-0.003c0.13-0.376 0.526-0.381 0.529-0.381 0.562 0.041 0.569 0.566 0.569 0.572v0.002h-0.133c-0.043-0.431-0.433-0.436-0.436-0.436v0zM9.288 15.938l-0.002-3.060 0.481-0.003 0.002 3.342c-0.166-0.085-0.328-0.176-0.482-0.279v0zM9.769 12.796h-0.479l-0.091-0.178-0.001-0.174 0.659-0.003 0.003 0.176-0.092 0.178zM7.849 10.96l-0.003-0.832 0.422-0.002 0.003 0.395 0.363-0.003-0.003-0.389 0.442-0.003 0.003 0.395 0.363-0.003-0.003-0.389 0.421-0.003 0.003 0.834-2.012 0.001zM11.919 16.738c-0.647 0-1.263-0.13-1.826-0.367 0.271-0.058 0.468-0.066 0.47-0.067 0.091 0.002 0.181 0.012 0.265 0.027l0.119 0.025 0.029 0.007c0.129 0.033 0.242 0.073 0.326 0.107l0.096 0.039 0.068 0.027c0.138 0.060 0.243 0.081 0.294 0.089l0.011 0.001 0.005 0.001 0.020 0.002 0.073 0.005 0.007-0.001 0.029-0.002 0.049-0.004 0.029-0.005 0.042-0.008 0.028-0.008 0.035-0.011 0.026-0.008 0.028-0.011 0.024-0.010 0.017-0.008 0.023-0.011 0.002-0.001 0.029-0.015c0.374-0.177 0.533-0.181 0.605-0.184 0.214 0 0.323 0.047 0.324 0.047l0.013 0.005 0.217 0.095c-0.466 0.153-0.962 0.239-1.478 0.239h0.001zM13.78 16.355l-0.126-0.034-0.486-0.187-0.102-0.027c-0.102-0.019-0.198-0.021-0.229-0.021-0.218 0-0.599 0.186-0.603 0.188l-0.050 0.024c-0.062 0.028-0.174 0.067-0.302 0.073l-0.084-0.002-0.027-0.006c-0.039-0.007-0.118-0.022-0.301-0.088-0.239-0.115-0.464-0.173-0.631-0.203s-0.273-0.032-0.275-0.032l-0.098 0.006-0.009 0.001-0.086 0.011-0.077 0.012-0.010 0.002c-0.181 0.031-0.355 0.074-0.391 0.085l-0.002-0.411c0.197-0.050 0.341-0.078 0.449-0.095l0.224-0.023c0.325 0.010 0.609 0.112 0.769 0.177l0.084 0.036 0.051 0.021 0.089 0.034 0.012 0.004 0.095 0.028 0.070 0.016 0.063 0.010 0.075 0.005h0.005l0.074-0.005 0.040-0.006 0.028-0.006 0.042-0.011 0.020-0.005 0.040-0.014 0.013-0.005 0.037-0.014 0.007-0.003 0.029-0.014 0.001-0.002 0.029-0.015c0.095-0.043 0.173-0.075 0.242-0.101 0.276-0.103 0.361-0.083 0.364-0.083l0.031-0.001c0.178 0 0.292 0.047 0.293 0.047l0.486 0.184c0.084 0.034 0.176 0.050 0.273 0.050h0.001c0.2 0 0.357-0.073 0.358-0.074l0.368-0.137 0.041-0.014 0.124-0.033 0.059-0.012 0.003-0.001 0.008-0.001c-0.335 0.271-0.706 0.497-1.106 0.669v0zM15.168 15.438l-0.019-0.005-0.007-0.001-0.014-0.001c-0.098-0.020-0.184-0.016-0.241-0.007l-0.044 0.008h-0.001l-0.029 0.005c-0.2 0.053-0.456 0.156-0.519 0.181l-0.014 0.006c-0.112 0.049-0.229 0.073-0.348 0.073-0.166 0-0.278-0.050-0.279-0.050l-0.486-0.188c-0.116-0.046-0.335-0.047-0.338-0.047-0.244 0.009-0.592 0.186-0.596 0.188-0.246 0.121-0.436 0.093-0.438 0.093-0.122-0.010-0.279-0.073-0.318-0.089l-0.009-0.004c-0.512-0.227-0.861-0.235-0.906-0.235h-0.001l-0.175 0.019-0.026 0.003c-0.264 0.035-0.454 0.088-0.469 0.095l-0.002-0.436 0.003-0.001v0.001c0.33-0.089 0.67-0.117 0.673-0.117l0.189 0.020c0.421 0.062 0.708 0.218 0.712 0.22l0.092 0.032c0.112 0.035 0.222 0.056 0.233 0.059l0.003 0.001 0.058 0.002 0.011-0.001 0.050-0.002 0.026-0.002 0.053-0.008 0.016-0.003 0.053-0.012 0.009-0.002 0.053-0.016 0.114-0.047c0.376-0.191 0.595-0.193 0.604-0.193l0.084 0.004c0.178 0.012 0.239 0.045 0.241 0.046l0.486 0.188c0.081 0.033 0.171 0.050 0.265 0.050 0.202 0 0.364-0.074 0.366-0.075 0.407-0.165 0.531-0.187 0.532-0.187 0.053-0.010 0.108-0.016 0.164-0.016 0.186 0 0.322 0.062 0.324 0.063l0.181 0.059c-0.099 0.114-0.206 0.223-0.317 0.329l-0.001 0.001zM15.67 14.881c-0.195-0.058-0.364-0.117-0.364-0.117l-0.108-0.032h-0.001l-0.051-0.009h-0.001l-0.070-0.012h-0.002l-0.010-0.001-0.086-0.008h-0.005l-0.152 0.012c-0.018 0-0.341 0.105-0.535 0.191-0.070 0.032-0.144 0.050-0.217 0.062l-0.116 0.012-0.040-0.001-0.043-0.003c-0.070-0.006-0.128-0.018-0.172-0.033l-0.077-0.028c-0.008-0.005-0.406-0.156-0.451-0.173l-0.032-0.012c-0.103-0.035-0.283-0.042-0.294-0.035h-0.001l-0.030 0.001-0.055 0.005c-0.205 0.023-0.521 0.181-0.523 0.183-0.237 0.099-0.362 0.101-0.412 0.095l-0.026-0.005c-0.002 0-0.166-0.022-0.327-0.091-0.226-0.109-0.438-0.167-0.601-0.199-0.098-0.019-0.177-0.028-0.23-0.032l-0.076-0.004-0.090 0.005-0.035 0.005-0.064 0.008-0.053 0.009-0.050 0.008-0.079 0.015-0.018 0.004c-0.143 0.029-0.263 0.061-0.281 0.066l-0.002-0.391c0.433-0.115 0.671-0.117 0.673-0.117l0.139 0.007 0.117 0.016c0.268 0.045 0.494 0.145 0.595 0.19l0.054 0.023c0.163 0.070 0.327 0.091 0.329 0.091h0.002c0.207 0.026 0.437-0.090 0.439-0.091 0.366-0.175 0.54-0.185 0.604-0.188 0.228 0 0.323 0.047 0.324 0.047l0.486 0.188c0.087 0.034 0.181 0.052 0.278 0.052 0.2 0 0.352-0.075 0.354-0.076l0.148-0.058 0.023 0.033 0.009 0.014 0.017 0.002 0.16 0.010c0.346 0 0.515-0.147 0.523-0.153l0.027-0.024-0.002-0.002 0.070 0.023 0.045 0.013 0.175 0.059 0.060 0.019 0.084 0.026 0.050 0.014 0.067 0.017 0.034 0.008 0.060 0.012 0.016 0.003 0.055 0.008h0.001l0.005 0.001c-0.074 0.117-0.154 0.231-0.24 0.341v0zM16.511 11.041l-0.001 0.014h0.001l-0.002 0.057c0.012 1.756-1.118 3.088-1.13 3.101l-0.005 0.006-0.194-0.032 0.014-0.019c1.004-1.337 1.112-3.093 1.113-3.111l0.201-0.017zM15.979 12.431l-0.018 0.051c-0.093 0.249-0.216 0.525-0.217 0.528-0.443 0.24-0.91 0.408-1.394 0.511l-0.014-0.010-0.018-0.013c-0.11-0.082-0.226-0.162-0.35-0.235l-0.019-0.011-0.022-0.014c1.258-0.172 2.001-0.766 2.009-0.773l0.042-0.034h-0.001zM15.614 12.517c0.015 0.020 0.002 0.055-0.028 0.077s-0.067 0.023-0.082 0.003c-0.014-0.021-0.002-0.056 0.028-0.077 0.032-0.022 0.068-0.023 0.082-0.003v0zM15.543 12.415c0.015 0.020 0.002 0.056-0.028 0.077s-0.068 0.023-0.082 0.003c-0.014-0.020-0.002-0.055 0.028-0.077s0.067-0.023 0.082-0.003v0zM15.472 12.312c0.015 0.020 0.002 0.056-0.028 0.076-0.031 0.023-0.067 0.023-0.082 0.003s-0.002-0.056 0.029-0.076c0.031-0.023 0.067-0.024 0.082-0.003v0zM15.401 12.209c0.015 0.020 0.002 0.056-0.029 0.077s-0.067 0.023-0.082 0.003c-0.014-0.021-0.002-0.055 0.029-0.077s0.067-0.024 0.082-0.003v0zM5.257 8.874c0.043-0.063 0.072-0.092 0.125-0.092 0.070 0 0.182 0.056 0.408 0.179l0.002 0.001 0.163 0.091c0.475 0.263 0.524 0.291 0.448 0.434l-0.002 0.004 0.077 0.079 0.278-0.502 0.050-0.105 0.001-0.005c0.137-0.346-0.079-0.512-0.178-0.568-0.039-0.022-0.087-0.037-0.138-0.043h-0.115c-0.095 0.014-0.181 0.062-0.248 0.141 0.007-0.044 0.005-0.087-0.007-0.13h0.001l-0.002-0.007-0.002-0.004h-0.001c-0.026-0.082-0.087-0.158-0.166-0.201-0.019-0.011-0.092-0.047-0.185-0.047s-0.227 0.039-0.329 0.223l-0.013 0.025-0.031 0.062-0.090 0.174-0.093 0.156-0.033 0.054-0.002 0.004 0.078 0.085 0.005-0.006zM5.726 8.292c0.043 0 0.089 0.013 0.135 0.038l0.037 0.023 0.005 0.003c0.076 0.058 0.146 0.166 0.038 0.358l-0.043 0.074-0.141-0.081c-0.038-0.021-0.175-0.101-0.215-0.129-0.053-0.037-0.058-0.073-0.017-0.149l0.055-0.076 0.002-0.002c0.042-0.041 0.091-0.062 0.146-0.062h-0.001zM6.026 8.864l0.002-0.002 0.031-0.065c0.050-0.092 0.136-0.245 0.294-0.245 0.054 0 0.113 0.017 0.177 0.053 0.216 0.12 0.164 0.291 0.14 0.345l-0.002 0.002-0.014 0.028-0.102 0.155-0.002 0.002-0.365-0.187-0.158-0.086h-0.001z"></path>
<path d="M5.566 10.852c0 0.13-0.106 0.236-0.236 0.236s-0.236-0.106-0.236-0.236c0-0.13 0.106-0.236 0.236-0.236s0.236 0.106 0.236 0.236z"></path>
<path d="M6.143 14.65c0.067-0.025 0.118-0.041 0.153-0.041s0.054 0.016 0.076 0.062l0.002 0.005 0.003 0.008 0.109-0.010-0.183-0.431-0.113 0.007 0.002 0.007c0.041 0.112 0.050 0.136-0.114 0.209l-0.346 0.152-0.107 0.045c-0.225 0.095-0.368 0.152-0.451 0.178l-0.080 0.017c-0.047 0-0.062-0.028-0.087-0.083l-0.002-0.004-0.108 0.010 0.197 0.463 0.108-0.008-0.002-0.007c-0.029-0.106-0.037-0.151 0.052-0.2 0.072-0.040 0.196-0.096 0.388-0.178 0.208-0.088 0.339-0.142 0.438-0.179l0.065-0.025zM6.988 16.244l-0.007 0.005 0.113 0.070 0.307-0.222-0.156-0.215h0.001l-0.507-0.698-0.356 0.259 0.114 0.071 0.003-0.002c0.070-0.046 0.125-0.067 0.173-0.067 0.089 0 0.147 0.077 0.231 0.194-0.062 0.050-0.197 0.151-0.307 0.232l-0.052 0.037-0.051 0.038c-0.156 0.113-0.299 0.213-0.425 0.294-0.085 0.057-0.135 0.085-0.178 0.085-0.041 0-0.077-0.026-0.133-0.095l-0.003-0.003-0.091 0.035 0.378 0.52 0.095-0.030-0.004-0.006c-0.085-0.134-0.12-0.191 0.053-0.324l0.039-0.031c0.086-0.067 0.202-0.16 0.365-0.278l0.434-0.308 0.003 0.003 0.038 0.046 0.017 0.025 0.002 0.002c0.112 0.168 0.073 0.242-0.094 0.362l-0.001-0.001zM4.727 13.587c-0.032-0.181-0.009-0.321 0.072-0.428s0.223-0.178 0.421-0.213l0.149-0.012c0.154 0 0.298 0.034 0.33 0.058 0.083 0.059 0.145 0.179 0.171 0.329 0.014 0.082 0.007 0.143-0.023 0.187-0.044 0.063-0.131 0.078-0.214 0.093l-0.014 0.002 0.074 0.114 0.395-0.073-0.001-0.014c-0.007-0.1-0.013-0.178-0.034-0.3-0.067-0.38-0.343-0.606-0.74-0.606-0.058 0-0.119 0.005-0.178 0.016-0.452 0.080-0.695 0.403-0.622 0.822 0.028 0.158 0.063 0.22 0.107 0.301l0.031 0.057 0.002 0.003 0.196 0.004-0.005-0.009c-0.050-0.095-0.087-0.165-0.116-0.331v0z"></path>
<path d="M18.684 10.853c0 0.131-0.106 0.236-0.236 0.236s-0.236-0.106-0.236-0.236c0-0.13 0.106-0.236 0.236-0.236s0.236 0.106 0.236 0.236z"></path>
<path d="M16.995 8.95l0.284 0.513 0.416-0.23-0.089-0.101-0.005 0.002c-0.077 0.043-0.14 0.063-0.193 0.063-0.097 0-0.157-0.072-0.221-0.187l-0.027-0.049-0.005-0.009-0.049-0.104-0.017-0.039 0.647-0.368 0.152-0.084c0.126-0.069 0.205-0.106 0.256-0.106 0.049 0 0.075 0.031 0.122 0.104l0.012 0.018 0.002 0.003 0.106-0.014-0.304-0.549-0.103 0.018 0.003 0.007c0.075 0.161 0.055 0.181-0.122 0.287-0.079 0.047-0.196 0.114-0.389 0.22l-0.019 0.010h0.001l-0.126 0.070-0.084 0.045-0.062 0.034-0.014 0.007c-0.167 0.083-0.232 0.114-0.295 0.003l-0.002-0.004-0.11 0.019 0.232 0.418-0.001-0.001zM6.712 6.769c0.047-0.040 0.085-0.058 0.118-0.058 0.044 0 0.082 0.031 0.138 0.092 0.065 0.068 0.167 0.181 0.312 0.348l0.161 0.192 0.084 0.1 0.008 0.009 0.001 0.002 0.001 0.001c0.125 0.149 0.14 0.188 0.046 0.28l-0.002 0.002 0.043 0.101 0.487-0.423-0.039-0.108-0.006 0.005c-0.078 0.065-0.139 0.095-0.191 0.095-0.069 0-0.123-0.052-0.193-0.125l-0.203-0.225-0.015-0.017-0.022-0.026c0.058-0.048 0.092-0.071 0.142-0.071 0.063 0 0.157 0.038 0.329 0.11l0.416 0.173 0.242-0.211-0.039-0.105-0.006 0.005c-0.062 0.047-0.098 0.068-0.145 0.068s-0.107-0.021-0.22-0.068l-0.203-0.085c-0.104-0.043-0.17-0.061-0.221-0.061l-0.085 0.018c0.047-0.051 0.094-0.139 0.095-0.245v-0.005c-0.001-0.087-0.035-0.172-0.098-0.245-0.072-0.082-0.166-0.127-0.265-0.127-0.091 0-0.185 0.039-0.27 0.113l-0.258 0.236-0.014 0.013-0.011 0.010-0.002 0.002-0.119 0.095-0.039 0.031-0.003 0.003 0.044 0.107 0.006-0.005h0.001zM7.427 6.853l-0.062 0.046-0.022 0.014-0.111-0.131-0.123-0.149c-0.029-0.038-0.042-0.065-0.042-0.091v-0.003c0.002-0.032 0.021-0.063 0.068-0.104 0.128-0.11 0.251-0.106 0.356 0.016l0.058 0.094c0.058 0.152-0.077 0.269-0.122 0.308v0zM15.451 7.243c0.138 0.108 0.312 0.167 0.488 0.167 0.247 0 0.472-0.112 0.631-0.315 0.146-0.187 0.212-0.371 0.196-0.546h0.001l-0.001-0.006c-0.018-0.178-0.12-0.341-0.303-0.483-0.159-0.125-0.313-0.181-0.487-0.181l-0.108 0.007c-0.192 0.022-0.374 0.121-0.486 0.265-0.103 0.13-0.169 0.261-0.2 0.387l-0.001 0.005c-0.089 0.386 0.184 0.635 0.271 0.702v0.001zM16.532 6.543c0.011 0.146-0.053 0.308-0.188 0.482-0.171 0.22-0.245 0.228-0.316 0.236l-0.046 0.003c-0.107 0-0.223-0.049-0.35-0.149-0.204-0.16-0.275-0.351-0.211-0.568l0.002-0.005c0.039-0.128 0.115-0.235 0.177-0.313 0.123-0.158 0.249-0.199 0.344-0.217 0.098-0.012 0.213 0.035 0.353 0.145 0.145 0.113 0.224 0.24 0.236 0.378l0.001 0.006zM14 6.301l-0.007-0.003c-0.178-0.070-0.231-0.101-0.172-0.301l0.012-0.043 0.091-0.315 0.002-0.007 0.040-0.124 0.13-0.384 0.040-0.119 0.069 0.018c0.244 0.079 0.264 0.166 0.198 0.368l-0.002 0.008 0.145-0.005 0.115-0.355 0.002-0.005-1.191-0.387-0.136 0.418 0.145-0.005 0.002-0.004c0.050-0.128 0.108-0.179 0.199-0.179 0.064 0 0.142 0.025 0.241 0.057-0.029 0.114-0.122 0.403-0.151 0.49l-0.072 0.213-0.101 0.275c-0.053 0.14-0.084 0.188-0.163 0.188l-0.121-0.022-0.056 0.081 0.678 0.221 0.062-0.078h-0.001zM16.695 17.563c-0.097-0.119-0.198-0.241-0.292-0.362-0.159-0.204-0.255-0.326-0.317-0.415l-0.006-0.009c-0.12-0.17-0.099-0.195-0.044-0.259l0.002-0.002-0.039-0.103-0.461 0.361 0.001 0.002h-0.001l0.032 0.098 0.007-0.005c0.058-0.043 0.112-0.070 0.16-0.082h0.001l0.102-0.001v0.001c0.047 0.012 0.092 0.042 0.134 0.089l0.031 0.038 0.152 0.188 0.008 0.010 0.104 0.136 0.166 0.215c-0.313-0.069-0.962-0.277-1.266-0.395l-0.003-0.001-0.215 0.168 0.035 0.096 0.006-0.003c0.043-0.025 0.076-0.040 0.11-0.040 0.080 0 0.16 0.095 0.393 0.395h-0.001l0.008 0.009 0.017 0.022c0.277 0.355 0.373 0.485 0.335 0.572l-0.002 0.003-0.037 0.048-0.003 0.003 0.040 0.101 0.46-0.359-0.038-0.107-0.006 0.005c-0.088 0.057-0.145 0.088-0.2 0.088-0.101 0-0.197-0.115-0.399-0.373h0.001l-0.008-0.009-0.010-0.014-0.111-0.141-0.080-0.102-0.029-0.037 0.677 0.2 0.317 0.102 0.293 0.102 0.057-0.102 0.010-0.017-0.002-0.003-0.088-0.107zM17.983 15.894c-0.032 0.104-0.055 0.18-0.151 0.317-0.12 0.172-0.254 0.254-0.408 0.254-0.118 0-0.25-0.051-0.393-0.152-0.168-0.118-0.299-0.32-0.307-0.37l-0.003-0.064v-0.003c0.006-0.088 0.047-0.19 0.114-0.287 0.056-0.080 0.113-0.118 0.174-0.118 0.067 0 0.131 0.044 0.192 0.088l0.013 0.009 0.028-0.129 0.001-0.004-0.332-0.227-0.010 0.010c-0.065 0.076-0.117 0.134-0.188 0.236-0.095 0.134-0.143 0.274-0.144 0.415h-0.001v0.005c-0.001 0.239 0.14 0.479 0.377 0.645 0.153 0.107 0.317 0.163 0.472 0.163 0.216 0 0.411-0.108 0.55-0.305 0.092-0.132 0.112-0.201 0.136-0.29l0.018-0.061 0.002-0.003-0.136-0.141-0.002 0.010v-0.001zM18.82 12.886l-0.007-0.002 0.008 0.123 0.005 0.001c0.253 0.044 0.282 0.14 0.25 0.326l-0.036 0.157-0.011 0.036-0.734-0.121c-0.485-0.085-0.485-0.085-0.468-0.269l0.001-0.004-0.091-0.052-0.098 0.552-0.001 0.005 0.091 0.047 0.002-0.007c0.030-0.115 0.054-0.141 0.13-0.141l0.142 0.015c0.122 0.018 0.31 0.050 0.605 0.103l0.163 0.031 0.014 0.003c0.179 0.039 0.254 0.055 0.234 0.168l-0.001 0.005 0.098 0.051 0.166-0.945-0.461-0.081zM14.716 18.294l-0.013-0.035-0.172-0.463-0.033-0.113c-0.014-0.073 0.011-0.098 0.065-0.13l0.003-0.002-0.005-0.103-0.417 0.152 0.005 0.11 0.007-0.002 0.065-0.018h0.002l0.049-0.001c0.036 0.008 0.066 0.040 0.098 0.11 0.044 0.095 0.095 0.221 0.159 0.397l0.033 0.092 0.001 0.004c0.143 0.395 0.139 0.406 0.11 0.485l-0.002 0.005c-0.010 0.025-0.037 0.065-0.079 0.103l-0.002 0.001c-0.038 0.033-0.083 0.058-0.132 0.074-0.126 0.046-0.231 0.022-0.311-0.073-0.058-0.068-0.088-0.155-0.104-0.198l-0.142-0.403-0.002-0.004-0.062-0.192c-0.066-0.206-0.053-0.236 0.145-0.322l0.003-0.002-0.001-0.11-0.547 0.2-0.005 0.003 0.010 0.107 0.006-0.002 0.058-0.011c0.065 0 0.089 0.059 0.155 0.243l0.167 0.452c0.032 0.085 0.064 0.169 0.106 0.245l0.002 0.002c0.092 0.164 0.206 0.24 0.36 0.24 0.064 0 0.137-0.014 0.215-0.043 0.112-0.040 0.2-0.109 0.254-0.2 0.067-0.113 0.077-0.254 0.028-0.387l-0.078-0.213zM18.71 14.737c-0.058 0.094-0.084 0.129-0.181 0.098-0.077-0.025-0.207-0.079-0.396-0.163l-0.008-0.003-0.014-0.007c-0.175-0.078-0.353-0.159-0.47-0.22-0.157-0.079-0.175-0.104-0.137-0.191l0.002-0.003-0.081-0.073-0.191 0.428 0.073 0.068 0.001 0.001v0.001l0.008 0.008 0.004-0.006 0.002-0.003 0.008-0.010h-0.002c0.031-0.060 0.048-0.087 0.090-0.087 0.028 0 0.067 0.012 0.134 0.040l0.137 0.058 0.192 0.084c0.293 0.13 0.471 0.215 0.562 0.263 0.11 0.059 0.096 0.093 0.065 0.167l-0.002 0.004 0.081 0.072 0.205-0.46-0.080-0.073-0.004 0.007zM10.773 17.777c-0.062-0.013-0.123-0.019-0.181-0.019-0.309 0-0.561 0.196-0.676 0.525l-0.002 0.004-0.033 0.121c-0.037 0.175-0.028 0.34 0.025 0.479l0.003 0.008c0.082 0.206 0.261 0.347 0.501 0.398 0.074 0.016 0.135 0.023 0.19 0.023l0.129-0.011 0.067-0.008 0.077-0.18-0.010 0.001-0.144 0.011c-0.062 0-0.126-0.008-0.207-0.025-0.174-0.037-0.292-0.107-0.361-0.215-0.077-0.118-0.091-0.276-0.047-0.485l0.034-0.115 0.002-0.007c0.057-0.151 0.149-0.283 0.185-0.305 0.054-0.034 0.128-0.053 0.216-0.053 0.049 0 0.101 0.005 0.153 0.016 0.082 0.017 0.136 0.047 0.164 0.091 0.042 0.064 0.024 0.151 0.006 0.234l-0.003 0.015 0.133-0.026 0.079-0.389 0.001-0.005-0.005-0.001c-0.097-0.032-0.174-0.057-0.299-0.084v0zM11.405 5.328c0.179 0.075 0.349 0.145 0.36 0.31v0.003c0.005 0.109-0.038 0.168-0.056 0.19-0.048 0.055-0.131 0.059-0.187 0.063l-0.066 0.002c-0.177 0-0.253-0.036-0.271-0.259l-0.002-0.041-0.003-0.069-0.145 0.085 0.023 0.446 0.001 0.005 0.006-0.001 0.1-0.001h0.041l0.265-0.003c0.128-0.007 0.275-0.023 0.385-0.131 0.062-0.061 0.127-0.143 0.133-0.293l-0.001-0.053c-0.014-0.247-0.24-0.345-0.441-0.43-0.167-0.072-0.324-0.139-0.332-0.281-0.003-0.059 0.012-0.107 0.044-0.143 0.042-0.046 0.111-0.072 0.208-0.077l0.043-0.002c0.159 0 0.213 0.055 0.222 0.226l0.002 0.042 0.001 0.022 0.136-0.076-0.019-0.365h-0.122l-0.107 0.001-0.156 0.003c-0.463 0.025-0.482 0.334-0.478 0.429 0.012 0.226 0.219 0.312 0.419 0.395v0.001zM8.962 5.242l0.106-0.028c0.044 0 0.071 0.032 0.117 0.139l0.121 0.287 0.002 0.003 0.010 0.029 0.005 0.012c0.119 0.296 0.189 0.481 0.22 0.58 0.036 0.119-0.003 0.137-0.082 0.171l-0.004 0.002 0.005 0.11 0.518-0.209-0.002-0.11-0.007 0.002-0.116 0.022c-0.043 0-0.072-0.019-0.1-0.070-0.039-0.072-0.093-0.196-0.173-0.392l-0.062-0.153c-0.063-0.158-0.104-0.27-0.131-0.353-0.058-0.166-0.052-0.196 0.046-0.237l0.004-0.001-0.005-0.109-0.482 0.193 0.002 0.115 0.008-0.003zM8.438 16.922c-0.145 0.119-0.332 0.219-0.58 0.347l0.027-0.242c0.011-0.107 0.021-0.18 0.052-0.224l0.014-0.017 0.002-0.001c0.031-0.029 0.072-0.029 0.125 0.001h0.001l0.043 0.027 0.047 0.033 0.077-0.059h0.001l0.002-0.002 0.013-0.010h-0.010l-0.538-0.377-0.088 0.069 0.005 0.005c0.086 0.069 0.099 0.116 0.085 0.308l-0.006 0.077-0.034 0.46-0.221 0.316-0.037 0.050-0.008 0.010c-0.034 0.043-0.074 0.082-0.127 0.082-0.032 0-0.065-0.014-0.104-0.041l-0.004-0.002-0.081 0.070 0.473 0.331 0.093-0.069-0.007-0.005c-0.070-0.049-0.11-0.084-0.117-0.127-0.007-0.041 0.014-0.092 0.070-0.172l0.047-0.068 0.188-0.268 0.067-0.033 0.122-0.060c0.172-0.084 0.302-0.138 0.428-0.19l0.244-0.104-0.261-0.115-0.003 0.002h-0.001zM12.367 17.944c-0.216 0-0.381 0.073-0.519 0.229l-0.084 0.112-0.005 0.009c-0.070 0.118-0.109 0.256-0.109 0.388 0 0.072 0.005 0.141 0.014 0.205l0.001 0.006c0.085 0.564 0.512 0.608 0.641 0.608 0.33 0 0.613-0.247 0.69-0.602l0.001-0.005c0.014-0.064 0.020-0.131 0.020-0.198 0-0.16-0.025-0.298-0.076-0.409-0.1-0.223-0.298-0.342-0.575-0.342v0zM11.851 18.611c0-0.128 0.026-0.23 0.080-0.32l0.044-0.062c0.062-0.069 0.17-0.103 0.33-0.103 0.171 0 0.301 0.056 0.385 0.166l0.001 0.002c0.084 0.109 0.126 0.273 0.126 0.487l-0.003 0.111-0.001 0.006c-0.012 0.178-0.052 0.221-0.089 0.263-0.076 0.087-0.195 0.129-0.361 0.129-0.262 0-0.426-0.134-0.487-0.4l-0.001-0.005c-0.022-0.102-0.026-0.2-0.026-0.274l0.001-0.001z"></path>
</symbol>
<symbol id="icon-ents-24" viewBox="0 0 24 24">
<title>ents-24</title>
<path d="M11.645 9.001h0.813c-0.137 0.265-0.328 0.509-0.297 0.837 0.034 0.364 0.060 0.73 0.082 1.096 0.016 0.28 0.157 0.473 0.389 0.618 0.337 0.212 0.677 0.421 0.999 0.654 0.111 0.081 0.227 0.223 0.247 0.35 0.061 0.385 0.082 0.775 0.105 1.165 0.012 0.196-0.132 0.314-0.306 0.242-0.078-0.032-0.156-0.153-0.168-0.243-0.049-0.358-0.073-0.718-0.108-1.114-0.319 0.112-0.599 0.199-0.868 0.314-0.061 0.025-0.115 0.15-0.111 0.226 0.011 0.287 0.035 0.573 0.076 0.857 0.072 0.5 0.485 0.887 0.986 0.92 0.197 0.013 0.398-0.008 0.595-0.034 0.568-0.076 0.984-0.59 0.944-1.163-0.027-0.381-0.082-0.763-0.083-1.144-0.001-0.526-0.201-0.903-0.693-1.115-0.072-0.031-0.136-0.082-0.202-0.126-0.902-0.587-0.747-0.303-0.846-1.37-0.018-0.188 0.018-0.323 0.227-0.34 0.207-0.016 0.248 0.131 0.262 0.295l0.049 0.572c0.294-0.101 0.546-0.193 0.802-0.272 0.15-0.047 0.18-0.138 0.182-0.287 0.005-0.351-0.114-0.654-0.303-0.938h7.557c0.177 0.076 0.374 0.147 0.378 0.377 0.009 0.715 0.003 1.429 0.003 2.139-0.361 0.091-0.539 0.265-0.545 0.536-0.007 0.361 0.225 0.518 0.547 0.594v1.822c0 0.522-0.13 0.653-0.643 0.653h-10.869c0.060-0.034 0.121-0.040 0.182-0.043 0.31-0.018 0.313-0.018 0.29-0.317l-0.278-3.5-0.095-1.285c0.181-0.014 0.331-0.031 0.481-0.034 0.187-0.006 0.267-0.073 0.239-0.279-0.029-0.217-0.014-0.441-0.019-0.662l0.001 0.001zM19.232 10.105c-1.142-0.001-2.060 0.922-2.057 2.068 0.003 1.121 0.942 2.045 2.068 2.037s2.056-0.943 2.050-2.060c-0.006-1.127-0.931-2.044-2.061-2.044v-0.001zM9.732 9.001c-0.148 0.026-0.296 0.060-0.445 0.073-0.145 0.013-0.193 0.081-0.178 0.219 0.021 0.214 0.038 0.428 0.051 0.643 0.008 0.136 0.081 0.177 0.206 0.165l0.544-0.043 0.406 5.053h-1.35l-0.143-1.763c-0.107-1.318-0.217-2.635-0.313-3.955-0.017-0.222-0.107-0.269-0.302-0.239-0.165 0.025-0.333 0.036-0.5 0.040-0.185 0.005-0.246 0.082-0.23 0.268 0.064 0.714 0.117 1.43 0.173 2.144 0.009 0.117 0.017 0.233-0.015 0.361l-0.239-0.558c-0.26-0.625-0.522-1.247-0.775-1.876-0.070-0.173-0.164-0.243-0.361-0.222-0.593 0.063-0.583 0.055-0.533 0.655 0.14 1.675 0.273 3.35 0.408 5.026v0.11h-0.737l-0.022-0.302c-0.019-0.298-0.038-0.312-0.327-0.285-0.261 0.025-0.523 0.042-0.816 0.064l-0.147-1.773c0.272-0.025 0.524-0.056 0.777-0.068 0.158-0.007 0.21-0.074 0.194-0.224-0.023-0.206-0.042-0.413-0.050-0.62-0.006-0.151-0.078-0.19-0.215-0.178l-0.784 0.058-0.102-1.241c0.306-0.026 0.597-0.054 0.889-0.072 0.155-0.010 0.233-0.065 0.211-0.236-0.026-0.205-0.041-0.413-0.050-0.62-0.006-0.151-0.082-0.188-0.217-0.177-0.587 0.050-1.174 0.096-1.762 0.14-0.151 0.011-0.179 0.096-0.168 0.227 0.087 1.039 0.172 2.080 0.255 3.12 0.058 0.722 0.112 1.444 0.17 2.191-0.468 0-0.92 0.014-1.369-0.006-0.208-0.009-0.354-0.211-0.356-0.445-0.006-0.638-0.005-1.275 0.003-1.913 0.001-0.057 0.063-0.136 0.118-0.165 0.212-0.11 0.332-0.276 0.329-0.512-0.002-0.227-0.113-0.404-0.326-0.485-0.132-0.050-0.128-0.137-0.128-0.242 0.002-0.582 0.016-1.164-0.005-1.745-0.011-0.309 0.091-0.505 0.387-0.598 2.615-0.001 5.23-0.001 7.844-0.001l0.001 0.001zM7.005 12.509l1.072 2.601h-0.899l-0.207-2.588 0.034-0.013zM20.199 13.313h-0.363l-0.023-0.464h-0.602c0.049-0.206 0.080-0.372 0.13-0.531 0.141-0.445 0.29-0.887 0.444-1.36h0.441c0 0.334-0.014 0.665 0.005 0.995 0.012 0.201-0.113 0.441 0.143 0.596 0.036 0.022 0.035 0.205 0.003 0.222-0.235 0.122-0.108 0.354-0.177 0.542v0zM19.81 12.479v-0.68l-0.222 0.68h0.222zM18.479 12.953h0.567v0.37c-0.279 0-0.555 0.007-0.83-0.008-0.040-0.002-0.104-0.104-0.11-0.163-0.031-0.367 0.147-0.67 0.365-0.934 0.191-0.232 0.232-0.478 0.201-0.752-0.007-0.061-0.066-0.117-0.101-0.175-0.033 0.053-0.096 0.106-0.092 0.155 0.019 0.287-0.214 0.214-0.391 0.295 0-0.166-0.014-0.307 0.002-0.445 0.029-0.257 0.216-0.389 0.515-0.38 0.271 0.008 0.437 0.161 0.457 0.419 0.031 0.399-0.005 0.774-0.287 1.097-0.115 0.132-0.178 0.309-0.296 0.52h-0.001z"></path>
</symbol>
<symbol id="icon-see-tickets" viewBox="0 0 24 24">
<title>see-tickets</title>
<path d="M18.169 11.834c-0.176-0.265-0.485-0.398-0.881-0.398-0.528 0-1.255 0.421-1.255 1.328 0 0.088 0 0.199 0.023 0.31l2.113-1.24zM17.42 15.75c-1.409 0-2.729-1.085-2.729-2.744 0-1.549 1.057-2.809 2.686-2.809 1.342 0 2.354 1.128 2.354 1.991l-3.191 1.881c0.264 0.309 0.704 0.398 1.123 0.398 0.395 0 1.034-0.2 1.85-0.796l-0.287 1.55c-0.506 0.353-1.167 0.531-1.804 0.531v0zM12.798 11.834c-0.176-0.265-0.485-0.398-0.88-0.398-0.528 0-1.255 0.421-1.255 1.328 0 0.088 0 0.199 0.022 0.31l2.114-1.24zM12.050 15.75c-1.409 0-2.729-1.085-2.729-2.744 0-1.549 1.056-2.809 2.684-2.809 1.342 0 2.354 1.128 2.354 1.991l-3.191 1.881c0.265 0.309 0.704 0.398 1.123 0.398 0.396 0 1.035-0.2 1.849-0.796l-0.287 1.55c-0.506 0.353-1.166 0.531-1.805 0.531v0zM4.193 13.693c0.661 0.509 1.277 0.752 1.871 0.752 0.88 0 1.211-0.376 1.211-0.841 0-0.331-0.197-0.619-1.034-1.195-0.683-0.464-1.387-1.151-1.387-2.080 0-1.083 0.77-2.079 2.465-2.079 0.66 0 1.497 0.243 2.113 0.62l-0.308 1.282c-0.595-0.421-1.211-0.598-1.717-0.598-0.638 0-1.034 0.222-1.034 0.708 0 0.354 0.308 0.641 1.034 1.128 0.901 0.642 1.43 1.261 1.43 2.124 0 1.217-0.99 2.236-2.641 2.236-0.925 0-1.717-0.266-2.311-0.708l0.308-1.349z"></path>
</symbol>
</defs>
</svg>
