<svg aria-hidden="true" style="position: absolute; width: 0; height: 0; overflow: hidden;" version="1.1" xmlns="http://www.w3.org/2000/svg" xmlns:xlink="http://www.w3.org/1999/xlink">
<defs>
<symbol id="icon-arrow_back" viewBox="0 0 24 24">
<title>arrow_back</title>
<path d="M20.016 11.016v1.969h-12.188l5.578 5.625-1.406 1.406-8.016-8.016 8.016-8.016 1.406 1.406-5.578 5.625h12.188z"></path>
</symbol>
<symbol id="icon-arrow_forward" viewBox="0 0 24 24">
<title>arrow_forward</title>
<path d="M12 3.984l8.016 8.016-8.016 8.016-1.406-1.406 5.578-5.625h-12.188v-1.969h12.188l-5.578-5.625z"></path>
</symbol>
<symbol id="icon-info" viewBox="0 0 24 24">
<title>info</title>
<path d="M12.984 9v-2.016h-1.969v2.016h1.969zM12.984 17.016v-6h-1.969v6h1.969zM12 2.016c5.531 0 9.984 4.453 9.984 9.984s-4.453 9.984-9.984 9.984-9.984-4.453-9.984-9.984 4.453-9.984 9.984-9.984z"></path>
</symbol>
<symbol id="icon-website" viewBox="0 0 24 24">
<title>website</title>
<path d="M14.016 3h6.984v6.984h-2.016v-3.563l-9.797 9.797-1.406-1.406 9.797-9.797h-3.563v-2.016zM18.984 18.984v-6.984h2.016v6.984c0 1.078-0.938 2.016-2.016 2.016h-13.969c-1.125 0-2.016-0.938-2.016-2.016v-13.969c0-1.078 0.891-2.016 2.016-2.016h6.984v2.016h-6.984v13.969h13.969z"></path>
</symbol>
<symbol id="icon-sort" viewBox="0 0 24 24">
<title>sort</title>
<path d="M3 12.984v-1.969h12v1.969h-12zM3 6h18v2.016h-18v-2.016zM3 18v-2.016h6v2.016h-6z"></path>
</symbol>
<symbol id="icon-widgets" viewBox="0 0 24 24">
<title>widgets</title>
<path d="M16.641 1.688l5.672 5.672-5.672 5.625h4.359v8.016h-8.016v-8.016h3.656l-5.625-5.625v3.656h-8.016v-8.016h8.016v4.359zM3 21v-8.016h8.016v8.016h-8.016z"></path>
</symbol>
<symbol id="icon-align-right" viewBox="0 0 24 24">
<title>align-right</title>
<path d="M21 9h-14c-0.6 0-1 0.4-1 1s0.4 1 1 1h14c0.6 0 1-0.4 1-1s-0.4-1-1-1z"></path>
<path d="M3 7h18c0.6 0 1-0.4 1-1s-0.4-1-1-1h-18c-0.6 0-1 0.4-1 1s0.4 1 1 1z"></path>
<path d="M21 13h-18c-0.6 0-1 0.4-1 1s0.4 1 1 1h18c0.6 0 1-0.4 1-1s-0.4-1-1-1z"></path>
<path d="M21 17h-14c-0.6 0-1 0.4-1 1s0.4 1 1 1h14c0.6 0 1-0.4 1-1s-0.4-1-1-1z"></path>
</symbol>
<symbol id="icon-facebook" viewBox="0 0 24 24">
<title>facebook</title>
<path d="M18 7c0.6 0 1-0.4 1-1v-4c0-0.6-0.4-1-1-1h-3c-3.3 0-6 2.7-6 6v2h-2c-0.6 0-1 0.4-1 1v4c0 0.6 0.4 1 1 1h2v7c0 0.6 0.4 1 1 1h4c0.6 0 1-0.4 1-1v-7h2c0.5 0 0.9-0.3 1-0.8l1-4c0.1-0.3 0-0.6-0.2-0.9s-0.5-0.3-0.8-0.3h-3v-2h3zM14 11h2.7l-0.5 2h-2.2c-0.6 0-1 0.4-1 1v7h-2v-7c0-0.6-0.4-1-1-1h-2v-2h2c0.6 0 1-0.4 1-1v-3c0-2.2 1.8-4 4-4h2v2h-2c-1.1 0-2 0.9-2 2v3c0 0.6 0.4 1 1 1z"></path>
</symbol>
<symbol id="icon-instagram" viewBox="0 0 24 24">
<title>instagram</title>
<path d="M17 1h-10c-3.3 0-6 2.7-6 6v10c0 3.3 2.7 6 6 6h10c3.3 0 6-2.7 6-6v-10c0-3.3-2.7-6-6-6zM21 17c0 2.2-1.8 4-4 4h-10c-2.2 0-4-1.8-4-4v-10c0-2.2 1.8-4 4-4h10c2.2 0 4 1.8 4 4v10z"></path>
<path d="M12.8 7c-0.5-0.1-1-0.1-1.5 0-2.7 0.4-4.6 3-4.2 5.7 0.2 1.3 0.9 2.5 2 3.3 0.9 0.6 1.9 1 3 1 0.2 0 0.5 0 0.7-0.1 1.3-0.2 2.5-0.9 3.3-2s1.1-2.4 0.9-3.7c-0.3-2.2-2-3.9-4.2-4.2zM14.5 13.7c-0.5 0.6-1.2 1.1-2 1.2-1.6 0.2-3.2-0.9-3.4-2.5-0.3-1.6 0.9-3.2 2.5-3.4 0.1 0 0.3 0 0.4 0s0.3 0 0.4 0c1.3 0.2 2.3 1.2 2.5 2.5 0.2 0.8 0 1.6-0.4 2.2z"></path>
<path d="M16.8 5.8c-0.2 0.2-0.3 0.4-0.3 0.7s0.1 0.5 0.3 0.7c0.2 0.2 0.5 0.3 0.7 0.3 0.3 0 0.5-0.1 0.7-0.3s0.3-0.5 0.3-0.7c0-0.3-0.1-0.5-0.3-0.7-0.4-0.4-1-0.4-1.4 0z"></path>
</symbol>
<symbol id="icon-twitter" viewBox="0 0 24 24">
<title>twitter</title>
<path d="M23.6 2.2c-0.3-0.2-0.8-0.2-1.1 0-0.7 0.5-1.5 0.9-2.3 1.2-2-1.8-5.1-1.9-7.2-0.1-1.3 1.1-2 2.6-2 4.2-2.9-0.2-5.5-1.7-7.2-4.1-0.2-0.3-0.5-0.4-0.9-0.4s-0.7 0.3-0.8 0.6c-0.1 0.1-1.1 2.5-1 5.4 0.1 2.5 1.1 5.7 4.8 8-1.5 0.7-3.2 1-4.9 1-0.4 0-0.9 0.3-1 0.7s0.1 0.9 0.5 1.1c2.5 1.4 5.2 2.1 7.7 2.1s4.9-0.6 7.1-1.9c4.3-2.4 6.7-7 6.7-12.5 0-0.2 0-0.3 0-0.5 1-1.1 1.7-2.4 2-3.8 0.1-0.4-0.1-0.8-0.4-1zM20.2 6c-0.2 0.2-0.3 0.6-0.3 0.9 0.1 0.2 0.1 0.4 0.1 0.6 0 4.8-2.1 8.7-5.7 10.8-2.8 1.6-6.1 2-9.4 1.2 1.3-0.4 2.5-0.9 3.6-1.7 0.4-0.2 0.5-0.5 0.5-0.9s-0.3-0.7-0.6-0.8c-5.8-2.6-5.6-7.5-5-10 2.2 2.2 5.3 3.5 8.6 3.4 0.5 0 1-0.5 1-1v-1c0-1 0.4-2 1.2-2.7 1.4-1.3 3.7-1.1 4.9 0.3 0.3 0.3 0.7 0.4 1 0.3 0.2-0.1 0.5-0.1 0.7-0.2-0.2 0.3-0.4 0.5-0.6 0.8z"></path>
</symbol>
<symbol id="icon-inline-logo" viewBox="0 0 303 32">
<title>inline-logo</title>
<path d="M0 23.392v-22.997l3.613-0.394v8.673c1.019-1.117 2.792-1.905 4.829-1.905 4.895 0 8.147 3.286 8.147 8.411s-3.252 8.411-8.147 8.411c-2.168 0-3.777-0.887-4.829-1.905v1.708h-3.613zM8.278 20.106c2.859 0 4.764-2.103 4.764-4.928s-1.905-4.928-4.764-4.928c-2.858 0-4.731 2.103-4.731 4.928s1.873 4.928 4.731 4.928z"></path>
<path d="M18.646 6.965h3.613v1.708c0.789-1.051 1.938-1.905 4.239-1.905v3.483h-0.329c-2.3 0-3.91 1.642-3.91 4.074v9.068h-3.613v-16.427z"></path>
<path d="M29.597 0.197c1.347 0 2.431 1.084 2.431 2.464s-1.084 2.464-2.431 2.464c-1.346 0-2.43-1.084-2.43-2.464s1.084-2.464 2.43-2.464zM27.791 6.965h3.613v16.427h-3.613v-16.427z"></path>
<path d="M36.674 17.971c0 1.38 1.084 2.202 2.168 2.202 1.248 0 2.103-0.723 2.103-2.037 0-1.84-1.611-1.971-3.22-2.431-1.643-0.46-3.417-1.741-3.417-4.402 0-2.628 2.037-4.533 4.534-4.533 1.708 0 2.989 0.756 3.91 2.103l-2.235 2.201c-0.262-0.657-0.789-1.084-1.445-1.084-0.854 0-1.314 0.657-1.314 1.314 0 1.446 1.839 1.413 3.613 2.070 1.676 0.624 3.187 1.905 3.187 4.698 0 3.285-2.398 5.519-5.716 5.519-3.385 0-5.618-2.497-5.618-5.618h3.45z"></path>
<path d="M47.461 0.394l3.614-0.394v6.965h4.928v3.417h-4.928v13.010h-3.614v-13.010h-3.318v-3.417h3.318v-6.571z"></path>
<path d="M64.643 6.768c4.862 0 8.411 3.614 8.411 8.411s-3.549 8.411-8.411 8.411c-4.863 0-8.411-3.614-8.411-8.411s3.548-8.411 8.411-8.411zM64.643 20.106c2.825 0 4.731-2.069 4.731-4.928s-1.906-4.928-4.731-4.928c-2.826 0-4.732 2.069-4.732 4.928s1.906 4.928 4.732 4.928z"></path>
<path d="M75.076 0.394l3.613-0.394v23.392h-3.613v-22.997z"></path>
<path d="M96.954 20.172c2.792 0 4.764-2.037 4.764-4.994h3.613c0 4.797-3.613 8.411-8.377 8.411-4.829 0-8.411-3.581-8.411-8.411s3.581-8.411 8.411-8.411c2.563 0 4.501 0.952 6.012 2.497l-2.661 2.398c-0.822-0.887-1.906-1.478-3.351-1.478-2.826 0-4.732 2.037-4.732 4.994s1.906 4.994 4.732 4.994z"></path>
<path d="M114.634 6.768c4.862 0 8.411 3.614 8.411 8.411s-3.549 8.411-8.411 8.411c-4.863 0-8.411-3.614-8.411-8.411s3.548-8.411 8.411-8.411zM114.634 20.106c2.825 0 4.731-2.069 4.731-4.928s-1.906-4.928-4.731-4.928c-2.826 0-4.732 2.069-4.732 4.928s1.906 4.928 4.732 4.928z"></path>
<path d="M125.027 6.965h3.613v1.873c0.888-1.216 2.464-2.070 4.271-2.070 2.005 0 3.417 0.821 4.304 2.267 1.249-1.315 2.596-2.267 4.96-2.267 3.351 0 5.388 1.807 5.388 5.848v10.776h-3.613v-9.856c0-2.135-0.986-3.351-2.925-3.351-1.675 0-2.923 1.216-2.923 3.351v9.856h-3.614v-9.856c0-2.135-1.019-3.351-2.923-3.351-1.676 0-2.925 1.216-2.925 3.351v9.856h-3.613v-16.427z"></path>
<path d="M153.19 16.427c0.394 2.070 2.267 3.745 4.632 3.745 1.676 0 3.022-0.526 3.713-1.577h4.303c-1.116 2.989-4.303 4.994-8.016 4.994-4.764 0-8.443-3.745-8.443-8.411s3.679-8.411 8.345-8.411c4.665 0 8.344 3.745 8.344 8.411 0 0.427-0.032 0.854-0.098 1.249h-12.78zM153.355 13.207h8.738c-0.525-1.709-2.299-3.088-4.368-3.088-2.071 0-3.844 1.38-4.37 3.088z"></path>
<path d="M180.066 23.392v-1.708c-1.051 1.019-2.661 1.905-4.829 1.905-4.895 0-8.147-3.286-8.147-8.411s3.252-8.411 8.147-8.411c2.037 0 3.811 0.789 4.829 1.905v-8.279l3.614-0.394v23.392h-3.614zM175.401 10.251c-2.858 0-4.764 2.103-4.764 4.928s1.906 4.928 4.764 4.928 4.731-2.103 4.731-4.928-1.873-4.928-4.731-4.928z"></path>
<path d="M188.364 6.965l4.074 9.56 4.074-9.56h3.745l-6.012 13.535v11.104l-3.614 0.396v-11.5l-6.012-13.535h3.745z"></path>
<path d="M214.91 6.768c1.28 0 2.464 0.295 3.351 0.952v-0.755h3.613v6.472c0 1.905-0.755 3.614-2.202 4.796 1.972 1.38 3.121 3.548 3.121 5.98 0 4.6-3.383 7.589-7.687 7.589-4.041 0-6.966-2.563-7.622-6.275h3.745c0.493 1.61 1.675 2.859 3.876 2.859 2.431 0 4.009-1.708 4.009-4.172s-1.577-4.14-4.009-4.14c-1.577 0-2.957 0.92-3.581 2.169l-2.628-2.596c0.394-0.525 0.886-1.019 1.609-1.413-1.413-1.215-2.202-2.891-2.202-4.796 0-3.713 2.727-6.67 6.605-6.67zM215.106 16.657c1.807 0 3.155-1.281 3.155-3.219 0-1.972-1.347-3.253-3.155-3.253-1.839 0-3.187 1.281-3.187 3.253 0 1.938 1.347 3.219 3.187 3.219z"></path>
<path d="M240.139 6.965v16.427h-3.68v-1.708c-0.69 0.887-2.496 1.905-4.697 1.905-4.698 0-8.246-3.483-8.246-8.411s3.548-8.411 8.246-8.411c2.168 0 4.007 1.019 4.697 1.905v-1.708h3.68zM231.893 10.251c-2.727 0-4.829 2.234-4.829 4.928s2.103 4.928 4.829 4.928c2.661 0 4.699-2.234 4.699-4.928s-2.037-4.928-4.699-4.928z"></path>
<path d="M243.19 6.965h3.613v1.708c0.789-1.051 1.938-1.905 4.239-1.905v3.483h-0.329c-2.3 0-3.91 1.642-3.91 4.074v9.068h-3.613v-16.427z"></path>
<path d="M264.198 23.392v-1.708c-1.051 1.019-2.661 1.905-4.829 1.905-4.895 0-8.147-3.286-8.147-8.411s3.252-8.411 8.147-8.411c2.037 0 3.811 0.789 4.829 1.905v-8.279l3.614-0.394v23.392h-3.614zM259.533 10.251c-2.858 0-4.764 2.103-4.764 4.928s1.906 4.928 4.764 4.928c2.858 0 4.731-2.103 4.731-4.928s-1.873-4.928-4.731-4.928z"></path>
<path d="M273.604 16.427c0.394 2.070 2.267 3.745 4.632 3.745 1.676 0 3.022-0.526 3.713-1.577h4.303c-1.116 2.989-4.303 4.994-8.016 4.994-4.764 0-8.443-3.745-8.443-8.411s3.679-8.411 8.345-8.411c4.665 0 8.344 3.745 8.344 8.411 0 0.427-0.032 0.854-0.098 1.249h-12.78zM273.769 13.207h8.738c-0.525-1.709-2.299-3.088-4.368-3.088-2.071 0-3.844 1.38-4.37 3.088z"></path>
<path d="M288.482 6.965h3.613v1.873c0.755-0.986 2.234-2.070 4.501-2.070 4.074 0 6.308 2.398 6.308 6.768v9.856h-3.613v-9.068c0-2.891-1.216-4.14-3.581-4.14-2.366 0-3.614 1.708-3.614 4.14v9.068h-3.613v-16.427z"></path>
</symbol>
<symbol id="icon-ents-24" viewBox="0 0 32 32">
<title>ents-24</title>
<path d="M15.527 12.001h1.084c-0.183 0.353-0.437 0.679-0.396 1.116 0.045 0.485 0.080 0.973 0.109 1.461 0.021 0.373 0.209 0.631 0.519 0.824 0.449 0.283 0.903 0.561 1.332 0.872 0.148 0.108 0.303 0.297 0.329 0.467 0.081 0.513 0.109 1.033 0.14 1.553 0.016 0.261-0.176 0.419-0.408 0.323-0.104-0.043-0.208-0.204-0.224-0.324-0.065-0.477-0.097-0.957-0.144-1.485-0.425 0.149-0.799 0.265-1.157 0.419-0.081 0.033-0.153 0.2-0.148 0.301 0.015 0.383 0.047 0.764 0.101 1.143 0.096 0.667 0.647 1.183 1.315 1.227 0.263 0.017 0.531-0.011 0.793-0.045 0.757-0.101 1.312-0.787 1.259-1.551-0.036-0.508-0.109-1.017-0.111-1.525-0.001-0.701-0.268-1.204-0.924-1.487-0.096-0.041-0.181-0.109-0.269-0.168-1.203-0.783-0.996-0.404-1.128-1.827-0.024-0.251 0.024-0.431 0.303-0.453 0.276-0.021 0.331 0.175 0.349 0.393l0.065 0.763c0.392-0.135 0.728-0.257 1.069-0.363 0.2-0.063 0.24-0.184 0.243-0.383 0.007-0.468-0.152-0.872-0.404-1.251h10.076c0.236 0.101 0.499 0.196 0.504 0.503 0.012 0.953 0.004 1.905 0.004 2.852-0.481 0.121-0.719 0.353-0.727 0.715-0.009 0.481 0.3 0.691 0.729 0.792v2.429c0 0.696-0.173 0.871-0.857 0.871h-14.492c0.080-0.045 0.161-0.053 0.243-0.057 0.413-0.024 0.417-0.024 0.387-0.423l-0.371-4.667-0.127-1.713c0.241-0.019 0.441-0.041 0.641-0.045 0.249-0.008 0.356-0.097 0.319-0.372-0.039-0.289-0.019-0.588-0.025-0.883l0.001 0.001zM25.643 13.473c-1.523-0.001-2.747 1.229-2.743 2.757 0.004 1.495 1.256 2.727 2.757 2.716s2.741-1.257 2.733-2.747c-0.008-1.503-1.241-2.725-2.748-2.725v-0.001zM12.976 12.001c-0.197 0.035-0.395 0.080-0.593 0.097-0.193 0.017-0.257 0.108-0.237 0.292 0.028 0.285 0.051 0.571 0.068 0.857 0.011 0.181 0.108 0.236 0.275 0.22l0.725-0.057 0.541 6.737h-1.8l-0.191-2.351c-0.143-1.757-0.289-3.513-0.417-5.273-0.023-0.296-0.143-0.359-0.403-0.319-0.22 0.033-0.444 0.048-0.667 0.053-0.247 0.007-0.328 0.109-0.307 0.357 0.085 0.952 0.156 1.907 0.231 2.859 0.012 0.156 0.023 0.311-0.020 0.481l-0.319-0.744c-0.347-0.833-0.696-1.663-1.033-2.501-0.093-0.231-0.219-0.324-0.481-0.296-0.791 0.084-0.777 0.073-0.711 0.873 0.187 2.233 0.364 4.467 0.544 6.701v0.147h-0.983l-0.029-0.403c-0.025-0.397-0.051-0.416-0.436-0.38-0.348 0.033-0.697 0.056-1.088 0.085l-0.196-2.364c0.363-0.033 0.699-0.075 1.036-0.091 0.211-0.009 0.28-0.099 0.259-0.299-0.031-0.275-0.056-0.551-0.067-0.827-0.008-0.201-0.104-0.253-0.287-0.237l-1.045 0.077-0.136-1.655c0.408-0.035 0.796-0.072 1.185-0.096 0.207-0.013 0.311-0.087 0.281-0.315-0.035-0.273-0.055-0.551-0.067-0.827-0.008-0.201-0.109-0.251-0.289-0.236-0.783 0.067-1.565 0.128-2.349 0.187-0.201 0.015-0.239 0.128-0.224 0.303 0.116 1.385 0.229 2.773 0.34 4.16 0.077 0.963 0.149 1.925 0.227 2.921-0.624 0-1.227 0.019-1.825-0.008-0.277-0.012-0.472-0.281-0.475-0.593-0.008-0.851-0.007-1.7 0.004-2.551 0.001-0.076 0.084-0.181 0.157-0.22 0.283-0.147 0.443-0.368 0.439-0.683-0.003-0.303-0.151-0.539-0.435-0.647-0.176-0.067-0.171-0.183-0.171-0.323 0.003-0.776 0.021-1.552-0.007-2.327-0.015-0.412 0.121-0.673 0.516-0.797 3.487-0.001 6.973-0.001 10.459-0.001l0.001 0.001zM9.34 16.679l1.429 3.468h-1.199l-0.276-3.451 0.045-0.017zM26.932 17.751h-0.484l-0.031-0.619h-0.803c0.065-0.275 0.107-0.496 0.173-0.708 0.188-0.593 0.387-1.183 0.592-1.813h0.588c0 0.445-0.019 0.887 0.007 1.327 0.016 0.268-0.151 0.588 0.191 0.795 0.048 0.029 0.047 0.273 0.004 0.296-0.313 0.163-0.144 0.472-0.236 0.723v0zM26.413 16.639v-0.907l-0.296 0.907h0.296zM24.639 17.271h0.756v0.493c-0.372 0-0.74 0.009-1.107-0.011-0.053-0.003-0.139-0.139-0.147-0.217-0.041-0.489 0.196-0.893 0.487-1.245 0.255-0.309 0.309-0.637 0.268-1.003-0.009-0.081-0.088-0.156-0.135-0.233-0.044 0.071-0.128 0.141-0.123 0.207 0.025 0.383-0.285 0.285-0.521 0.393 0-0.221-0.019-0.409 0.003-0.593 0.039-0.343 0.288-0.519 0.687-0.507 0.361 0.011 0.583 0.215 0.609 0.559 0.041 0.532-0.007 1.032-0.383 1.463-0.153 0.176-0.237 0.412-0.395 0.693h-0.001z"></path>
</symbol>
<symbol id="icon-brighton" viewBox="0 0 24 32">
<title>brighton</title>
<path fill="#ff8300" style="fill: var(--color1, #ff8300)" d="M8.777 21.947c-0.126 0-0.227 0.071-0.23 0.166v0.026c0.009 0.777 0.326 1.518 0.881 2.061 0.465 0.453 1.063 0.745 1.706 0.831-0.249 1.457-0.218 2.948 0.093 4.393 0.008 0.026 0.111 0.046 0.238 0.046s0.23-0.020 0.238-0.046v-0.009c0.309-1.436 0.341-2.919 0.094-4.367 0.738-0.058 1.431-0.38 1.953-0.907 0.581-0.589 0.905-1.383 0.901-2.21s-0.335-1.618-0.921-2.202c-0.579-0.577-1.363-0.9-2.18-0.899-0.801 0-1.569 0.318-2.135 0.883-0.548 0.547-0.857 1.29-0.857 2.064 0 0.095 0.098 0.168 0.223 0.168s0.231-0.065 0.239-0.134v-0.022c0.082-0.616 0.397-1.178 0.881-1.57 0.462-0.378 1.051-0.566 1.647-0.523 0.573 0.039 1.11 0.294 1.501 0.714s0.61 0.973 0.609 1.547c-0.005 0.574-0.228 1.124-0.623 1.539-0.396 0.416-0.934 0.665-1.506 0.699-0.595 0.035-1.181-0.157-1.638-0.538-0.479-0.396-0.787-0.96-0.862-1.576-0.013-0.073-0.115-0.135-0.25-0.135v0z"></path>
<path fill="#ff8300" style="fill: var(--color1, #ff8300)" d="M5.886 28.599c-0.25 0.197-0.405 0.49-0.426 0.806 0.016 0.321 0.161 0.622 0.403 0.834 0.179 0.165 0.381 0.305 0.599 0.415 0.813 0.415 1.642 0.601 2.485 0.735 0.835 0.129 1.679 0.193 2.524 0.191 0.844 0.002 1.687-0.062 2.521-0.191 0.837-0.134 1.673-0.326 2.487-0.745 0.217-0.111 0.418-0.251 0.598-0.417 0.239-0.214 0.38-0.515 0.391-0.835-0.026-0.313-0.182-0.602-0.43-0.794-0.182-0.152-0.385-0.277-0.602-0.371-0.821-0.358-1.653-0.484-2.483-0.567-0.114-0.002-0.21 0.088-0.215 0.203-0.025 0.11 0.039 0.222 0.147 0.255h0.027c0.785 0.164 1.579 0.377 2.235 0.737h0.001c0.151 0.081 0.29 0.183 0.413 0.302 0.103 0.109 0.144 0.207 0.124 0.246 0.010 0.090-0.286 0.345-0.611 0.478-0.672 0.297-1.462 0.451-2.242 0.554h-0.001c-0.791 0.102-1.59 0.151-2.388 0.148-0.797 0.001-1.591-0.050-2.381-0.153-0.778-0.106-1.572-0.269-2.232-0.567-0.151-0.067-0.293-0.154-0.422-0.257-0.070-0.055-0.122-0.129-0.149-0.213-0.034-0.097 0.249-0.403 0.575-0.552 0.662-0.353 1.457-0.563 2.243-0.723h-0.001c0.107-0.037 0.171-0.149 0.146-0.261-0.006-0.115-0.1-0.207-0.215-0.21h-0.029c-0.83 0.085-1.663 0.211-2.486 0.571h0.001c-0.218 0.097-0.422 0.225-0.606 0.38v0z"></path>
<path fill="#ff8300" style="fill: var(--color1, #ff8300)" d="M1.829 4.333c0.616 0 1.026-0.453 1.026-1.062s-0.41-1.062-1.026-1.062c-0.616 0-1.019 0.453-1.019 1.062s0.403 1.062 1.019 1.062v0zM0.045 5.040v-4.955l0.779-0.085v1.869c0.219-0.241 0.602-0.41 1.041-0.41 1.055 0 1.755 0.708 1.755 1.812s-0.701 1.813-1.755 1.813c-0.467 0-0.814-0.191-1.041-0.411v0.368h-0.779z"></path>
<path fill="#ff8300" style="fill: var(--color1, #ff8300)" d="M4.027 1.501h0.779v0.368c0.17-0.227 0.418-0.41 0.913-0.41v0.75h-0.071c-0.496 0-0.842 0.354-0.842 0.878v1.954h-0.779v-3.539z"></path>
<path fill="#ff8300" style="fill: var(--color1, #ff8300)" d="M5.962 5.040h0.779v-3.539h-0.779v3.539zM6.351 0.043c0.29 0 0.524 0.234 0.524 0.531s-0.234 0.531-0.524 0.531c-0.29 0-0.523-0.233-0.523-0.531s0.234-0.531 0.523-0.531z"></path>
<path fill="#ff8300" style="fill: var(--color1, #ff8300)" d="M8.643 3.589c0.389 0 0.68-0.277 0.68-0.694 0-0.425-0.29-0.701-0.68-0.701-0.397 0-0.687 0.276-0.687 0.701 0 0.418 0.29 0.694 0.687 0.694v0zM8.601 1.458c0.276 0 0.531 0.063 0.722 0.205v-0.163h0.778v1.394c0 0.41-0.162 0.779-0.474 1.034 0.425 0.298 0.673 0.765 0.673 1.289 0 0.991-0.729 1.635-1.657 1.635-0.871 0-1.501-0.552-1.642-1.352h0.807c0.106 0.347 0.361 0.616 0.835 0.616 0.524 0 0.864-0.368 0.864-0.899s-0.34-0.892-0.864-0.892c-0.34 0-0.637 0.198-0.771 0.467l-0.566-0.559c0.085-0.113 0.191-0.22 0.347-0.305-0.305-0.262-0.474-0.623-0.474-1.034 0-0.799 0.587-1.437 1.423-1.437v0.001z"></path>
<path fill="#ff8300" style="fill: var(--color1, #ff8300)" d="M10.685 0.085l0.779-0.085v1.905c0.212-0.255 0.552-0.446 1.012-0.446 0.843 0 1.359 0.517 1.359 1.458v2.124h-0.779v-1.954c0-0.552-0.234-0.892-0.771-0.892-0.502 0-0.821 0.375-0.821 0.892v1.954h-0.779v-4.956z"></path>
<path fill="#ff8300" style="fill: var(--color1, #ff8300)" d="M14.694 0.085l0.779-0.085v1.501h1.062v0.736h-1.062v2.803h-0.779v-2.803h-0.715v-0.736h0.715z"></path>
<path fill="#ff8300" style="fill: var(--color1, #ff8300)" d="M18.361 4.333c0.609 0 1.019-0.446 1.019-1.062s-0.411-1.062-1.019-1.062c-0.609 0-1.019 0.446-1.019 1.062s0.411 1.062 1.019 1.062v0zM18.361 1.459c1.047 0 1.813 0.779 1.813 1.812s-0.765 1.813-1.813 1.813c-1.048 0-1.813-0.779-1.813-1.813s0.765-1.812 1.813-1.812z"></path>
<path fill="#ff8300" style="fill: var(--color1, #ff8300)" d="M20.565 1.501h0.779v0.403c0.162-0.213 0.481-0.446 0.97-0.446 0.878 0 1.359 0.517 1.359 1.458v2.124h-0.779v-1.954c0-0.623-0.262-0.891-0.771-0.891s-0.779 0.368-0.779 0.891v1.954h-0.779v-3.539l0.001-0.001z"></path>
<path fill="#ff8300" style="fill: var(--color1, #ff8300)" d="M1.812 9.95c0.602 0 1.026-0.439 1.026-1.076h0.779c0 1.033-0.779 1.812-1.805 1.812-1.041 0-1.813-0.772-1.813-1.812 0-1.041 0.772-1.813 1.813-1.813 0.552 0 0.97 0.205 1.295 0.538l-0.574 0.517c-0.177-0.191-0.41-0.318-0.722-0.318-0.609 0-1.019 0.439-1.019 1.076s0.411 1.076 1.019 1.076v0.001z"></path>
<path fill="#ff8300" style="fill: var(--color1, #ff8300)" d="M5.586 9.936c0.609 0 1.019-0.446 1.019-1.062s-0.411-1.062-1.019-1.062c-0.609 0-1.019 0.446-1.019 1.062s0.411 1.062 1.019 1.062zM5.586 7.062c1.047 0 1.813 0.779 1.813 1.812s-0.765 1.813-1.813 1.813c-1.048 0-1.813-0.779-1.813-1.813s0.765-1.812 1.813-1.812v0z"></path>
<path fill="#ff8300" style="fill: var(--color1, #ff8300)" d="M7.79 7.105h0.779v0.403c0.191-0.262 0.531-0.446 0.92-0.446 0.432 0 0.736 0.177 0.927 0.489 0.269-0.283 0.559-0.489 1.069-0.489 0.722 0 1.161 0.39 1.161 1.26v2.322h-0.779v-2.124c0-0.46-0.213-0.722-0.63-0.722-0.361 0-0.63 0.262-0.63 0.722v2.124h-0.779v-2.124c0-0.46-0.219-0.722-0.63-0.722-0.361 0-0.63 0.262-0.63 0.722v2.124h-0.779v-3.539z"></path>
<path fill="#ff8300" style="fill: var(--color1, #ff8300)" d="M13.858 8.45h1.883c-0.113-0.369-0.495-0.666-0.941-0.666s-0.828 0.297-0.941 0.666h-0.001zM13.823 9.143c0.085 0.446 0.489 0.807 0.998 0.807 0.361 0 0.651-0.114 0.8-0.34h0.927c-0.241 0.644-0.927 1.076-1.727 1.076-1.027 0-1.819-0.807-1.819-1.813s0.793-1.812 1.798-1.812c1.005 0 1.798 0.807 1.798 1.812 0 0.092-0.007 0.184-0.021 0.269l-2.754 0.001z"></path>
<path fill="#ff8300" style="fill: var(--color1, #ff8300)" d="M18.573 7.813c-0.616 0-1.026 0.453-1.026 1.062s0.41 1.062 1.026 1.062 1.019-0.453 1.019-1.062c0-0.609-0.403-1.062-1.019-1.062v0zM19.578 10.644v-0.368c-0.226 0.219-0.573 0.41-1.041 0.41-1.055 0-1.755-0.708-1.755-1.812s0.701-1.813 1.755-1.813c0.439 0 0.821 0.17 1.041 0.41v-1.784l0.779-0.085v5.041l-0.779 0.001z"></path>
<path fill="#ff8300" style="fill: var(--color1, #ff8300)" d="M21.331 7.105l0.878 2.060 0.878-2.060h0.807l-1.295 2.917v2.393l-0.779 0.085v-2.478l-1.295-2.917z"></path>
<path fill="#ff8300" style="fill: var(--color1, #ff8300)" d="M3.146 14.797c0.389 0 0.68-0.277 0.68-0.694 0-0.425-0.29-0.701-0.68-0.701-0.397 0-0.687 0.276-0.687 0.701 0 0.418 0.29 0.694 0.687 0.694zM3.104 12.666c0.276 0 0.531 0.063 0.722 0.205v-0.163h0.778v1.394c0 0.41-0.162 0.779-0.474 1.034 0.425 0.298 0.673 0.765 0.673 1.289 0 0.991-0.729 1.635-1.657 1.635-0.871 0-1.501-0.552-1.642-1.352h0.807c0.106 0.347 0.361 0.616 0.835 0.616 0.524 0 0.864-0.368 0.864-0.899s-0.34-0.892-0.864-0.892c-0.34 0-0.637 0.198-0.771 0.467l-0.566-0.559c0.085-0.113 0.191-0.22 0.347-0.305-0.305-0.262-0.474-0.623-0.474-1.034 0-0.799 0.587-1.437 1.423-1.437v0.001z"></path>
<path fill="#ff8300" style="fill: var(--color1, #ff8300)" d="M6.728 13.416c-0.587 0-1.041 0.481-1.041 1.062 0 0.58 0.453 1.062 1.041 1.062 0.573 0 1.013-0.481 1.013-1.062s-0.439-1.062-1.013-1.062zM8.505 12.709v3.539h-0.793v-0.368c-0.149 0.191-0.538 0.41-1.012 0.41-1.012 0-1.777-0.751-1.777-1.812 0-1.062 0.765-1.813 1.777-1.813 0.467 0 0.863 0.219 1.012 0.41v-0.368l0.793 0.001z"></path>
<path fill="#ff8300" style="fill: var(--color1, #ff8300)" d="M9.127 12.708h0.779v0.368c0.17-0.227 0.418-0.41 0.913-0.41v0.75h-0.071c-0.496 0-0.842 0.354-0.842 0.878v1.954h-0.779v-3.539z"></path>
<path fill="#ff8300" style="fill: var(--color1, #ff8300)" d="M12.613 13.416c-0.616 0-1.026 0.453-1.026 1.062s0.41 1.062 1.026 1.062 1.019-0.453 1.019-1.062c0-0.609-0.403-1.062-1.019-1.062zM13.618 16.248v-0.368c-0.226 0.219-0.573 0.41-1.041 0.41-1.055 0-1.755-0.708-1.755-1.812s0.701-1.813 1.755-1.813c0.439 0 0.821 0.17 1.041 0.41v-1.784l0.779-0.085v5.041l-0.779 0.001z"></path>
<path fill="#ff8300" style="fill: var(--color1, #ff8300)" d="M15.645 14.053h1.883c-0.113-0.369-0.495-0.666-0.941-0.666s-0.828 0.297-0.941 0.666h-0.001zM15.61 14.747c0.085 0.446 0.489 0.807 0.998 0.807 0.361 0 0.651-0.114 0.8-0.34h0.927c-0.241 0.644-0.927 1.076-1.727 1.076-1.027 0-1.819-0.807-1.819-1.813s0.793-1.812 1.798-1.812c1.005 0 1.798 0.807 1.798 1.812 0 0.092-0.007 0.184-0.021 0.269l-2.754 0.001z"></path>
<path fill="#ff8300" style="fill: var(--color1, #ff8300)" d="M18.779 12.708h0.779v0.403c0.162-0.213 0.481-0.446 0.97-0.446 0.878 0 1.359 0.517 1.359 1.458v2.124h-0.779v-1.954c0-0.623-0.262-0.891-0.771-0.891s-0.779 0.368-0.779 0.891v1.954h-0.779v-3.539l0.001-0.001z"></path>
</symbol>
<symbol id="icon-heineken" viewBox="0 0 32 32">
<title>heineken</title>
<path d="M13.218 15.417v3.896h0.835v-2.157c0.173 0.127 1.26 2.082 1.461 2.157h0.661c0.143-0.026 0.211-0.144 0.209-0.348v-3.664h-0.87c0 0.46-0.042 1.716 0.035 2.099-0.095-0.034-0.062 0.001-0.207-0.245l-0.573-0.888c-0.542-0.857-0.471-0.954-1.446-0.954-0.080 0-0.104 0.024-0.104 0.104z"></path>
<path d="M28.681 19.301h0.828l-0.028-2.157c0.199 0.134 0.921 1.527 1.496 2.157h0.617c0.159-0.021 0.217-0.093 0.22-0.311 0.007-0.468-0.074-3.195-0.007-3.354 0.039-0.129 0.118-0.143 0.158-0.155l0.009-0.181h-0.997v2.087c-0.096-0.070-1.108-1.696-1.133-1.72-0.14-0.216-0.334-0.351-0.607-0.368h-0.557v4.001z"></path>
<path d="M20.976 15.417v3.687c0 0.128 0.131 0.185 0.311 0.209h0.803v-1.67c0.145 0.039 0.059 0.018 0.222 0.265l0.612 0.953c0.231 0.329 0.369 0.427 0.645 0.452h0.76c0.062 0 0.127 0 0.196 0-0.029-0.124-1.422-2.248-1.496-2.366 0.053-0.035 0.299-0.319 0.348-0.383 0.116-0.153 0.248-0.242 0.368-0.397 0.077-0.1 0.104-0.116 0.178-0.204l0.497-0.651c-1.176 0-0.95-0.153-1.854 0.929-0.117 0.14-0.33 0.356-0.477 0.463v-1.392h-1.009c-0.080 0-0.104 0.024-0.104 0.104z"></path>
<path d="M7.443 18.965c-0.013 0.256 0.113 0.34 0.383 0.348h2.018c0.135-0.002 0.215-0.086 0.244-0.244v-0.487h-1.322c-0.12 0.007-0.194-0.034-0.209-0.139v-0.835h1.218v-0.765h-1.218v-0.765h1.531c0-0.409 0.088-0.689-0.209-0.765h-2.435v3.653z"></path>
<path d="M11.061 19.139c0 0.112 0.126 0.174 0.244 0.174h0.835v-4.001h-1.078v3.827z"></path>
<path d="M17.461 18.965c-0.013 0.256 0.113 0.34 0.383 0.348h2.018c0.135-0.002 0.215-0.086 0.244-0.244v-0.487h-1.322c-0.119 0.007-0.194-0.034-0.209-0.139v-0.835h1.218v-0.765h-1.218v-0.765h1.531c0-0.409 0.088-0.689-0.209-0.765h-2.435v3.653z"></path>
<path d="M25.067 18.965c-0.013 0.256 0.113 0.34 0.383 0.348h2.018c0.135-0.002 0.215-0.086 0.243-0.244v-0.487h-1.322c-0.119 0.007-0.194-0.034-0.209-0.139v-0.835h1.218v-0.765h-1.218v-0.765h1.531c0-0.409 0.088-0.689-0.209-0.765h-2.435v3.653z"></path>
<path d="M3.247 15.684l-0.015 3.57h1.088v-1.728l0.943-0.002-0.004 1.73h1.078v-3.953h-1.078v1.426c0.006 0.067-0.029 0.109-0.104 0.104h-0.731c-0.070 0.002-0.104-0.034-0.104-0.104v-1.426h-1.252c-0.017 0.266 0.188 0.149 0.18 0.383z"></path>
<path d="M1.561 14.571l0.764 0.569-0.3 1.040c-0.297 0.211-0.6 0.422-0.89 0.632-0.111 0.035-0.11-0.057-0.054-0.214l0.504-1.597c-0.504-0.375-1.007-0.75-1.511-1.125-0.051-0.042-0.044-0.106 0.096-0.107l1.833 0.021c0.186-0.568 0.372-1.136 0.557-1.704 0.038-0.107 0.108-0.091 0.139-0.011l0.557 1.736h1.882c0.053-0.001 0.064 0.040 0.024 0.071l-0.92 0.658h-1.040l-0.286-0.882c-0.019-0.051-0.052-0.050-0.069 0.001l-0.299 0.87-0.98 0.005c-0.045-0.001-0.044 0.016-0.009 0.037z"></path>
</symbol>
<symbol id="icon-see-tickets" viewBox="0 0 32 32">
<title>see-tickets</title>
<path d="M24.225 15.779c-0.235-0.353-0.647-0.531-1.175-0.531-0.704 0-1.673 0.561-1.673 1.771 0 0.117 0 0.265 0.031 0.413l2.817-1.653zM23.227 21c-1.879 0-3.639-1.447-3.639-3.659 0-2.065 1.409-3.745 3.581-3.745 1.789 0 3.139 1.504 3.139 2.655l-4.255 2.508c0.352 0.412 0.939 0.531 1.497 0.531 0.527 0 1.379-0.267 2.467-1.061l-0.383 2.067c-0.675 0.471-1.556 0.708-2.405 0.708v0zM17.064 15.779c-0.235-0.353-0.647-0.531-1.173-0.531-0.704 0-1.673 0.561-1.673 1.771 0 0.117 0 0.265 0.029 0.413l2.819-1.653zM16.067 21c-1.879 0-3.639-1.447-3.639-3.659 0-2.065 1.408-3.745 3.579-3.745 1.789 0 3.139 1.504 3.139 2.655l-4.255 2.508c0.353 0.412 0.939 0.531 1.497 0.531 0.528 0 1.38-0.267 2.465-1.061l-0.383 2.067c-0.675 0.471-1.555 0.708-2.407 0.708v0zM5.591 18.257c0.881 0.679 1.703 1.003 2.495 1.003 1.173 0 1.615-0.501 1.615-1.121 0-0.441-0.263-0.825-1.379-1.593-0.911-0.619-1.849-1.535-1.849-2.773 0-1.444 1.027-2.772 3.287-2.772 0.88 0 1.996 0.324 2.817 0.827l-0.411 1.709c-0.793-0.561-1.615-0.797-2.289-0.797-0.851 0-1.379 0.296-1.379 0.944 0 0.472 0.411 0.855 1.379 1.504 1.201 0.856 1.907 1.681 1.907 2.832 0 1.623-1.32 2.981-3.521 2.981-1.233 0-2.289-0.355-3.081-0.944l0.411-1.799z"></path>
</symbol>
<symbol id="icon-57-festivals" viewBox="0 0 32 32">
<title>57-festivals</title>
<path d="M11.743 14.239c0-1.047-0.371-1.94-1.111-2.68s-1.635-1.111-2.681-1.111c0-0.493 0-0.928 0-1.305 0-0.388 0-0.717 0-0.987 0-0.224 0-0.416 0-0.583 0-0.164 0-0.305 0-0.423 0-0.481 0-0.757 0-0.829s0-0.376 0-0.917c0.999 0 2.491 0 4.479 0 0 0.152 0 0.388 0 0.705-0.835 0-2.092 0-3.772 0 0 0.823 0 2.057 0 3.703 1.069 0.165 1.963 0.665 2.68 1.497 0.729 0.835 1.093 1.811 1.093 2.927 0 0.436-0.060 0.852-0.176 1.251-0.117 0.399-0.281 0.769-0.493 1.111-0.4 0.636-0.935 1.147-1.604 1.535-0.671 0.388-1.405 0.583-2.205 0.583v-0.705c1.047 0 1.94-0.364 2.68-1.093 0.741-0.74 1.112-1.633 1.112-2.68z"></path>
<path d="M23.325 11.137c-1.293 2.645-3.227 6.617-5.8 11.917-0.176 0-0.436 0-0.775 0 1.352-2.809 3.391-7.017 6.117-12.623-1.528 0-3.832 0-6.911 0 0-0.152 0-0.381 0-0.688 1.445 0 3.608 0 6.487 0 0.353 0 0.869 0 1.552 0-0.152 0.307-0.376 0.771-0.669 1.393z"></path>
<path d="M8.004 24.419h1.163v0.227h-0.909v0.731h0.849v0.227h-0.849v0.955h-0.253v-2.139z"></path>
<path d="M9.889 24.419h1.163v0.227h-0.909v0.7h0.833v0.227h-0.833v0.76h0.924v0.227h-1.179v-2.14z"></path>
<path d="M12.796 26.013c0-0.085-0.027-0.156-0.077-0.209s-0.115-0.101-0.191-0.144c-0.077-0.043-0.16-0.081-0.248-0.117-0.091-0.036-0.173-0.081-0.248-0.133-0.077-0.052-0.14-0.116-0.191-0.193s-0.077-0.175-0.077-0.292c0-0.167 0.059-0.299 0.175-0.396s0.281-0.147 0.495-0.147c0.125 0 0.236 0.009 0.339 0.028s0.181 0.043 0.239 0.069l-0.077 0.227c-0.047-0.023-0.116-0.045-0.207-0.067-0.091-0.020-0.193-0.032-0.307-0.032-0.135 0-0.235 0.031-0.301 0.091s-0.1 0.131-0.1 0.212c0 0.080 0.027 0.145 0.077 0.199 0.051 0.052 0.115 0.1 0.191 0.143s0.16 0.083 0.248 0.124c0.089 0.040 0.173 0.088 0.248 0.143 0.077 0.053 0.14 0.119 0.191 0.195s0.077 0.168 0.077 0.281c0 0.092-0.016 0.175-0.049 0.247s-0.080 0.136-0.144 0.189c-0.063 0.052-0.14 0.095-0.229 0.121-0.091 0.029-0.192 0.043-0.305 0.043-0.152 0-0.279-0.012-0.379-0.035s-0.177-0.049-0.232-0.079l0.085-0.227c0.047 0.027 0.116 0.051 0.208 0.076s0.195 0.037 0.308 0.037c0.067 0 0.131-0.007 0.189-0.020 0.060-0.013 0.111-0.035 0.152-0.064s0.077-0.067 0.101-0.112c0.028-0.040 0.040-0.095 0.040-0.156z"></path>
<path d="M15.137 24.645h-0.665v1.912h-0.253v-1.912h-0.665v-0.227h1.585v0.227z"></path>
<path d="M15.816 24.419h0.255v2.139h-0.255v-2.139z"></path>
<path d="M17.508 25.888l0.075 0.324h0.003l0.080-0.329 0.513-1.463h0.255l-0.808 2.172h-0.113l-0.824-2.172h0.277l0.544 1.469z"></path>
<path d="M19.869 25.964h-0.784l-0.213 0.592h-0.255l0.808-2.172h0.116l0.813 2.172h-0.268l-0.217-0.592zM19.168 25.744h0.625l-0.236-0.651-0.076-0.324h-0.003l-0.076 0.329-0.235 0.644z"></path>
<path d="M22.209 26.556h-1.264v-2.137h0.255v1.912h1.011v0.225z"></path>
<path d="M23.795 26.013c0-0.085-0.027-0.156-0.077-0.209s-0.115-0.101-0.191-0.144c-0.077-0.043-0.16-0.081-0.248-0.117s-0.173-0.081-0.248-0.133c-0.077-0.052-0.14-0.116-0.191-0.193s-0.077-0.175-0.077-0.292c0-0.167 0.059-0.299 0.175-0.396s0.281-0.147 0.495-0.147c0.125 0 0.236 0.009 0.34 0.028 0.101 0.019 0.181 0.043 0.239 0.069l-0.077 0.227c-0.047-0.023-0.116-0.045-0.207-0.067-0.089-0.020-0.193-0.032-0.307-0.032-0.135 0-0.235 0.031-0.301 0.091s-0.1 0.131-0.1 0.212c0 0.080 0.027 0.145 0.077 0.199 0.051 0.052 0.115 0.1 0.191 0.143 0.077 0.043 0.16 0.083 0.248 0.124 0.089 0.040 0.173 0.088 0.248 0.143 0.077 0.053 0.14 0.119 0.191 0.195s0.077 0.168 0.077 0.281c0 0.092-0.016 0.175-0.049 0.247-0.032 0.072-0.080 0.136-0.144 0.189-0.063 0.052-0.14 0.095-0.229 0.121-0.089 0.029-0.192 0.043-0.305 0.043-0.152 0-0.279-0.012-0.379-0.035s-0.177-0.049-0.232-0.079l0.085-0.227c0.047 0.027 0.116 0.051 0.208 0.076s0.195 0.037 0.308 0.037c0.067 0 0.131-0.007 0.189-0.020 0.060-0.013 0.111-0.035 0.152-0.064s0.077-0.067 0.101-0.112c0.027-0.040 0.039-0.095 0.039-0.156z"></path>
</symbol>
<symbol id="icon-festivals" viewBox="0 0 32 32">
<title>festivals</title>
<path d="M11.743 14.239c0-1.047-0.371-1.94-1.111-2.68s-1.635-1.111-2.681-1.111c0-0.493 0-0.928 0-1.305 0-0.388 0-0.717 0-0.987 0-0.224 0-0.416 0-0.583 0-0.164 0-0.305 0-0.423 0-0.481 0-0.757 0-0.829s0-0.376 0-0.917c0.999 0 2.491 0 4.479 0 0 0.152 0 0.388 0 0.705-0.835 0-2.092 0-3.772 0 0 0.823 0 2.057 0 3.703 1.069 0.165 1.963 0.665 2.68 1.497 0.729 0.835 1.093 1.811 1.093 2.927 0 0.436-0.060 0.852-0.176 1.251-0.117 0.399-0.281 0.769-0.493 1.111-0.4 0.636-0.935 1.147-1.604 1.535-0.671 0.388-1.405 0.583-2.205 0.583v-0.705c1.047 0 1.94-0.364 2.68-1.093 0.741-0.74 1.112-1.633 1.112-2.68z"></path>
<path d="M23.325 11.137c-1.293 2.645-3.227 6.617-5.8 11.917-0.176 0-0.436 0-0.775 0 1.352-2.809 3.391-7.017 6.117-12.623-1.528 0-3.832 0-6.911 0 0-0.152 0-0.381 0-0.688 1.445 0 3.608 0 6.487 0 0.353 0 0.869 0 1.552 0-0.152 0.307-0.376 0.771-0.669 1.393z"></path>
<path d="M8.004 24.419h1.163v0.227h-0.909v0.731h0.849v0.227h-0.849v0.955h-0.253v-2.139z"></path>
<path d="M9.889 24.419h1.163v0.227h-0.909v0.7h0.833v0.227h-0.833v0.76h0.924v0.227h-1.179v-2.14z"></path>
<path d="M12.796 26.013c0-0.085-0.027-0.156-0.077-0.209s-0.115-0.101-0.191-0.144c-0.077-0.043-0.16-0.081-0.248-0.117-0.091-0.036-0.173-0.081-0.248-0.133-0.077-0.052-0.14-0.116-0.191-0.193s-0.077-0.175-0.077-0.292c0-0.167 0.059-0.299 0.175-0.396s0.281-0.147 0.495-0.147c0.125 0 0.236 0.009 0.339 0.028s0.181 0.043 0.239 0.069l-0.077 0.227c-0.047-0.023-0.116-0.045-0.207-0.067-0.091-0.020-0.193-0.032-0.307-0.032-0.135 0-0.235 0.031-0.301 0.091s-0.1 0.131-0.1 0.212c0 0.080 0.027 0.145 0.077 0.199 0.051 0.052 0.115 0.1 0.191 0.143s0.16 0.083 0.248 0.124c0.089 0.040 0.173 0.088 0.248 0.143 0.077 0.053 0.14 0.119 0.191 0.195s0.077 0.168 0.077 0.281c0 0.092-0.016 0.175-0.049 0.247s-0.080 0.136-0.144 0.189c-0.063 0.052-0.14 0.095-0.229 0.121-0.091 0.029-0.192 0.043-0.305 0.043-0.152 0-0.279-0.012-0.379-0.035s-0.177-0.049-0.232-0.079l0.085-0.227c0.047 0.027 0.116 0.051 0.208 0.076s0.195 0.037 0.308 0.037c0.067 0 0.131-0.007 0.189-0.020 0.060-0.013 0.111-0.035 0.152-0.064s0.077-0.067 0.101-0.112c0.028-0.040 0.040-0.095 0.040-0.156z"></path>
<path d="M15.137 24.645h-0.665v1.912h-0.253v-1.912h-0.665v-0.227h1.585v0.227z"></path>
<path d="M15.816 24.419h0.255v2.139h-0.255v-2.139z"></path>
<path d="M17.508 25.888l0.075 0.324h0.003l0.080-0.329 0.513-1.463h0.255l-0.808 2.172h-0.113l-0.824-2.172h0.277l0.544 1.469z"></path>
<path d="M19.869 25.964h-0.784l-0.213 0.592h-0.255l0.808-2.172h0.116l0.813 2.172h-0.268l-0.217-0.592zM19.168 25.744h0.625l-0.236-0.651-0.076-0.324h-0.003l-0.076 0.329-0.235 0.644z"></path>
<path d="M22.209 26.556h-1.264v-2.137h0.255v1.912h1.011v0.225z"></path>
<path d="M23.795 26.013c0-0.085-0.027-0.156-0.077-0.209s-0.115-0.101-0.191-0.144c-0.077-0.043-0.16-0.081-0.248-0.117s-0.173-0.081-0.248-0.133c-0.077-0.052-0.14-0.116-0.191-0.193s-0.077-0.175-0.077-0.292c0-0.167 0.059-0.299 0.175-0.396s0.281-0.147 0.495-0.147c0.125 0 0.236 0.009 0.34 0.028 0.101 0.019 0.181 0.043 0.239 0.069l-0.077 0.227c-0.047-0.023-0.116-0.045-0.207-0.067-0.089-0.020-0.193-0.032-0.307-0.032-0.135 0-0.235 0.031-0.301 0.091s-0.1 0.131-0.1 0.212c0 0.080 0.027 0.145 0.077 0.199 0.051 0.052 0.115 0.1 0.191 0.143 0.077 0.043 0.16 0.083 0.248 0.124 0.089 0.040 0.173 0.088 0.248 0.143 0.077 0.053 0.14 0.119 0.191 0.195s0.077 0.168 0.077 0.281c0 0.092-0.016 0.175-0.049 0.247-0.032 0.072-0.080 0.136-0.144 0.189-0.063 0.052-0.14 0.095-0.229 0.121-0.089 0.029-0.192 0.043-0.305 0.043-0.152 0-0.279-0.012-0.379-0.035s-0.177-0.049-0.232-0.079l0.085-0.227c0.047 0.027 0.116 0.051 0.208 0.076s0.195 0.037 0.308 0.037c0.067 0 0.131-0.007 0.189-0.020 0.060-0.013 0.111-0.035 0.152-0.064s0.077-0.067 0.101-0.112c0.027-0.040 0.039-0.095 0.039-0.156z"></path>
</symbol>
<symbol id="icon-logo" viewBox="0 0 44 32">
<title>logo</title>
<path d="M9.535 7.924c1.13 0 1.883-0.829 1.883-1.942s-0.753-1.942-1.883-1.942c-1.13 0-1.87 0.829-1.87 1.942s0.74 1.942 1.87 1.942zM6.263 9.218v-9.063l1.428-0.156v3.418c0.402-0.44 1.104-0.75 1.909-0.75 1.934 0 3.22 1.295 3.22 3.314s-1.285 3.315-3.22 3.315c-0.857 0-1.493-0.35-1.909-0.751v0.673h-1.428z"></path>
<path d="M13.602 2.72h1.441v0.674c0.314-0.415 0.773-0.751 1.69-0.751v1.373h-0.131c-0.918 0-1.559 0.648-1.559 1.607v3.577h-1.441v-6.479z"></path>
<path d="M17.279 9.199h1.455v-6.446h-1.455v6.446zM18.006 0.098c0.543 0 0.979 0.425 0.979 0.967s-0.436 0.967-0.979 0.967c-0.542 0-0.978-0.425-0.978-0.967s0.436-0.967 0.978-0.967z"></path>
<path d="M20.747 7.074c0 0.546 0.431 0.871 0.861 0.871 0.496 0 0.835-0.286 0.835-0.806 0-0.728-0.64-0.78-1.279-0.962-0.653-0.182-1.357-0.689-1.357-1.741 0-1.040 0.809-1.793 1.801-1.793 0.678 0 1.187 0.299 1.552 0.832l-0.887 0.871c-0.104-0.26-0.314-0.429-0.574-0.429-0.339 0-0.522 0.26-0.522 0.52 0 0.572 0.731 0.559 1.435 0.819 0.665 0.246 1.265 0.753 1.265 1.858 0 1.3-0.952 2.184-2.27 2.184-1.344 0-2.231-0.988-2.231-2.223h1.37z"></path>
<path d="M24.996 0.156l1.432-0.156v2.739h1.952v1.343h-1.952v5.116h-1.432v-5.116h-1.314v-1.343h1.314z"></path>
<path d="M31.804 7.919c1.117 0 1.871-0.819 1.871-1.949s-0.754-1.949-1.871-1.949c-1.118 0-1.872 0.819-1.872 1.949s0.754 1.949 1.872 1.949zM31.804 2.642c1.923 0 3.327 1.43 3.327 3.327s-1.404 3.328-3.327 3.328c-1.924 0-3.327-1.43-3.327-3.328s1.403-3.327 3.327-3.327z"></path>
<path d="M35.914 0.156l1.468-0.156v9.199h-1.468z"></path>
<path d="M3.334 17.633c1.107 0 1.888-0.806 1.888-1.975h1.432c0 1.897-1.432 3.327-3.32 3.327-1.914 0-3.334-1.417-3.334-3.327 0-1.911 1.42-3.328 3.334-3.328 1.016 0 1.784 0.376 2.383 0.988l-1.055 0.949c-0.326-0.351-0.755-0.585-1.328-0.585-1.12 0-1.876 0.806-1.876 1.976s0.756 1.975 1.876 1.975z"></path>
<path d="M10.275 17.607c1.117 0 1.871-0.819 1.871-1.949s-0.754-1.949-1.871-1.949c-1.118 0-1.872 0.819-1.872 1.949s0.754 1.949 1.872 1.949zM10.275 12.33c1.923 0 3.327 1.43 3.327 3.327s-1.404 3.327-3.327 3.327c-1.924 0-3.327-1.43-3.327-3.328s1.403-3.327 3.327-3.327z"></path>
<path d="M14.385 12.506h1.428v0.739c0.35-0.48 0.973-0.816 1.687-0.816 0.792 0 1.35 0.324 1.7 0.895 0.493-0.519 1.026-0.895 1.96-0.895 1.325 0 2.129 0.713 2.129 2.306v4.25h-1.428v-3.888c0-0.842-0.39-1.321-1.156-1.321-0.661 0-1.155 0.479-1.155 1.321v3.888h-1.428v-3.888c0-0.842-0.402-1.321-1.155-1.321-0.662 0-1.155 0.479-1.155 1.321v3.888h-1.428v-6.479z"></path>
<path d="M25.635 14.877h3.433c-0.206-0.676-0.903-1.222-1.717-1.222s-1.51 0.546-1.717 1.222zM25.571 16.152c0.155 0.818 0.891 1.482 1.82 1.482 0.658 0 1.187-0.208 1.459-0.624h1.69c-0.438 1.182-1.69 1.975-3.149 1.975-1.872 0-3.317-1.482-3.317-3.328s1.445-3.327 3.278-3.327 3.278 1.482 3.278 3.327c0 0.169-0.012 0.337-0.038 0.494h-5.021z"></path>
<path d="M34.306 13.728c-1.129 0-1.882 0.829-1.882 1.942 0 1.113 0.753 1.941 1.882 1.941s1.869-0.829 1.869-1.941c0-1.114-0.74-1.942-1.869-1.942zM36.149 18.907v-0.673c-0.415 0.401-1.052 0.751-1.908 0.751-1.934 0-3.22-1.295-3.22-3.314s1.285-3.315 3.22-3.315c0.805 0 1.506 0.311 1.908 0.751v-3.263l1.429-0.156v9.219h-1.429z"></path>
<path d="M39.446 12.428l1.606 3.774 1.606-3.774h1.476l-2.37 5.344v4.384l-1.425 0.156v-4.54l-2.37-5.344z"></path>
<path d="M5.761 26.021c0.716 0 1.25-0.506 1.25-1.272 0-0.778-0.534-1.284-1.25-1.284-0.729 0-1.263 0.506-1.263 1.284 0 0.765 0.534 1.272 1.263 1.272zM5.683 22.116c0.508 0 0.976 0.116 1.329 0.376v-0.298h1.432v2.555c0 0.752-0.299 1.427-0.872 1.894 0.781 0.545 1.237 1.401 1.237 2.361 0 1.816-1.341 2.996-3.047 2.996-1.601 0-2.761-1.012-3.021-2.477h1.484c0.195 0.636 0.664 1.128 1.536 1.128 0.963 0 1.589-0.674 1.589-1.647s-0.625-1.634-1.589-1.634c-0.625 0-1.172 0.363-1.419 0.856l-1.042-1.025c0.156-0.208 0.351-0.403 0.638-0.558-0.56-0.479-0.873-1.141-0.873-1.894 0-1.465 1.081-2.633 2.618-2.633z"></path>
<path d="M12.405 23.494c-1.075 0-1.905 0.884-1.905 1.95 0 1.065 0.829 1.949 1.905 1.949 1.050 0 1.854-0.884 1.854-1.949 0-1.066-0.804-1.95-1.854-1.95zM15.658 22.194v6.498h-1.451v-0.676c-0.272 0.351-0.984 0.754-1.853 0.754-1.853 0-3.252-1.378-3.252-3.327 0-1.95 1.399-3.328 3.252-3.328 0.855 0 1.581 0.403 1.853 0.754v-0.676h1.451z"></path>
<path d="M16.832 22.194h1.441v0.674c0.314-0.415 0.773-0.751 1.69-0.751v1.373h-0.131c-0.918 0-1.559 0.648-1.559 1.607v3.577h-1.441v-6.479z"></path>
<path d="M23.346 23.514c-1.129 0-1.882 0.829-1.882 1.942 0 1.113 0.753 1.941 1.882 1.941s1.869-0.829 1.869-1.941c0-1.114-0.74-1.942-1.869-1.942zM25.189 28.693v-0.673c-0.415 0.401-1.052 0.751-1.908 0.751-1.934 0-3.22-1.295-3.22-3.314s1.285-3.315 3.22-3.315c0.805 0 1.506 0.311 1.908 0.751v-3.262l1.429-0.156v9.219h-1.429z"></path>
<path d="M28.962 24.663h3.433c-0.206-0.676-0.903-1.222-1.717-1.222s-1.51 0.546-1.717 1.222zM28.898 25.938c0.155 0.818 0.891 1.482 1.82 1.482 0.658 0 1.187-0.208 1.459-0.624h1.69c-0.438 1.182-1.69 1.975-3.149 1.975-1.872 0-3.317-1.482-3.317-3.328s1.445-3.327 3.278-3.327 3.278 1.482 3.278 3.327c0 0.169-0.012 0.337-0.038 0.494h-5.021z"></path>
<path d="M34.74 22.194h1.422v0.739c0.297-0.389 0.879-0.816 1.771-0.816 1.603 0 2.482 0.946 2.482 2.669v3.888h-1.422v-3.577c0-1.14-0.478-1.632-1.409-1.632s-1.422 0.674-1.422 1.632v3.577h-1.422v-6.479z"></path>
</symbol>
</defs>
</svg>
