<svg aria-hidden="true" style="position: absolute; width: 0; height: 0; overflow: hidden;" version="1.1" xmlns="http://www.w3.org/2000/svg" xmlns:xlink="http://www.w3.org/1999/xlink">
<defs>
<symbol id="icon-arrow_back" viewBox="0 0 24 24">
<title>arrow_back</title>
<path d="M20.016 11.016v1.969h-12.188l5.578 5.625-1.406 1.406-8.016-8.016 8.016-8.016 1.406 1.406-5.578 5.625h12.188z"></path>
</symbol>
<symbol id="icon-arrow_forward" viewBox="0 0 24 24">
<title>arrow_forward</title>
<path d="M12 3.984l8.016 8.016-8.016 8.016-1.406-1.406 5.578-5.625h-12.188v-1.969h12.188l-5.578-5.625z"></path>
</symbol>
<symbol id="icon-info" viewBox="0 0 24 24">
<title>info</title>
<path d="M12.984 9v-2.016h-1.969v2.016h1.969zM12.984 17.016v-6h-1.969v6h1.969zM12 2.016c5.531 0 9.984 4.453 9.984 9.984s-4.453 9.984-9.984 9.984-9.984-4.453-9.984-9.984 4.453-9.984 9.984-9.984z"></path>
</symbol>
<symbol id="icon-sort" viewBox="0 0 24 24">
<title>sort</title>
<path d="M3 12.984v-1.969h12v1.969h-12zM3 6h18v2.016h-18v-2.016zM3 18v-2.016h6v2.016h-6z"></path>
</symbol>
<symbol id="icon-widgets" viewBox="0 0 24 24">
<title>widgets</title>
<path d="M16.641 1.688l5.672 5.672-5.672 5.625h4.359v8.016h-8.016v-8.016h3.656l-5.625-5.625v3.656h-8.016v-8.016h8.016v4.359zM3 21v-8.016h8.016v8.016h-8.016z"></path>
</symbol>
<symbol id="icon-align-right" viewBox="0 0 24 24">
<title>align-right</title>
<path d="M21 9h-14c-0.6 0-1 0.4-1 1s0.4 1 1 1h14c0.6 0 1-0.4 1-1s-0.4-1-1-1z"></path>
<path d="M3 7h18c0.6 0 1-0.4 1-1s-0.4-1-1-1h-18c-0.6 0-1 0.4-1 1s0.4 1 1 1z"></path>
<path d="M21 13h-18c-0.6 0-1 0.4-1 1s0.4 1 1 1h18c0.6 0 1-0.4 1-1s-0.4-1-1-1z"></path>
<path d="M21 17h-14c-0.6 0-1 0.4-1 1s0.4 1 1 1h14c0.6 0 1-0.4 1-1s-0.4-1-1-1z"></path>
</symbol>
<symbol id="icon-facebook" viewBox="0 0 24 24">
<title>facebook</title>
<path d="M18 7c0.6 0 1-0.4 1-1v-4c0-0.6-0.4-1-1-1h-3c-3.3 0-6 2.7-6 6v2h-2c-0.6 0-1 0.4-1 1v4c0 0.6 0.4 1 1 1h2v7c0 0.6 0.4 1 1 1h4c0.6 0 1-0.4 1-1v-7h2c0.5 0 0.9-0.3 1-0.8l1-4c0.1-0.3 0-0.6-0.2-0.9s-0.5-0.3-0.8-0.3h-3v-2h3zM14 11h2.7l-0.5 2h-2.2c-0.6 0-1 0.4-1 1v7h-2v-7c0-0.6-0.4-1-1-1h-2v-2h2c0.6 0 1-0.4 1-1v-3c0-2.2 1.8-4 4-4h2v2h-2c-1.1 0-2 0.9-2 2v3c0 0.6 0.4 1 1 1z"></path>
</symbol>
<symbol id="icon-instagram" viewBox="0 0 24 24">
<title>instagram</title>
<path d="M17 1h-10c-3.3 0-6 2.7-6 6v10c0 3.3 2.7 6 6 6h10c3.3 0 6-2.7 6-6v-10c0-3.3-2.7-6-6-6zM21 17c0 2.2-1.8 4-4 4h-10c-2.2 0-4-1.8-4-4v-10c0-2.2 1.8-4 4-4h10c2.2 0 4 1.8 4 4v10z"></path>
<path d="M12.8 7c-0.5-0.1-1-0.1-1.5 0-2.7 0.4-4.6 3-4.2 5.7 0.2 1.3 0.9 2.5 2 3.3 0.9 0.6 1.9 1 3 1 0.2 0 0.5 0 0.7-0.1 1.3-0.2 2.5-0.9 3.3-2s1.1-2.4 0.9-3.7c-0.3-2.2-2-3.9-4.2-4.2zM14.5 13.7c-0.5 0.6-1.2 1.1-2 1.2-1.6 0.2-3.2-0.9-3.4-2.5-0.3-1.6 0.9-3.2 2.5-3.4 0.1 0 0.3 0 0.4 0s0.3 0 0.4 0c1.3 0.2 2.3 1.2 2.5 2.5 0.2 0.8 0 1.6-0.4 2.2z"></path>
<path d="M16.8 5.8c-0.2 0.2-0.3 0.4-0.3 0.7s0.1 0.5 0.3 0.7c0.2 0.2 0.5 0.3 0.7 0.3 0.3 0 0.5-0.1 0.7-0.3s0.3-0.5 0.3-0.7c0-0.3-0.1-0.5-0.3-0.7-0.4-0.4-1-0.4-1.4 0z"></path>
</symbol>
<symbol id="icon-twitter" viewBox="0 0 24 24">
<title>twitter</title>
<path d="M23.6 2.2c-0.3-0.2-0.8-0.2-1.1 0-0.7 0.5-1.5 0.9-2.3 1.2-2-1.8-5.1-1.9-7.2-0.1-1.3 1.1-2 2.6-2 4.2-2.9-0.2-5.5-1.7-7.2-4.1-0.2-0.3-0.5-0.4-0.9-0.4s-0.7 0.3-0.8 0.6c-0.1 0.1-1.1 2.5-1 5.4 0.1 2.5 1.1 5.7 4.8 8-1.5 0.7-3.2 1-4.9 1-0.4 0-0.9 0.3-1 0.7s0.1 0.9 0.5 1.1c2.5 1.4 5.2 2.1 7.7 2.1s4.9-0.6 7.1-1.9c4.3-2.4 6.7-7 6.7-12.5 0-0.2 0-0.3 0-0.5 1-1.1 1.7-2.4 2-3.8 0.1-0.4-0.1-0.8-0.4-1zM20.2 6c-0.2 0.2-0.3 0.6-0.3 0.9 0.1 0.2 0.1 0.4 0.1 0.6 0 4.8-2.1 8.7-5.7 10.8-2.8 1.6-6.1 2-9.4 1.2 1.3-0.4 2.5-0.9 3.6-1.7 0.4-0.2 0.5-0.5 0.5-0.9s-0.3-0.7-0.6-0.8c-5.8-2.6-5.6-7.5-5-10 2.2 2.2 5.3 3.5 8.6 3.4 0.5 0 1-0.5 1-1v-1c0-1 0.4-2 1.2-2.7 1.4-1.3 3.7-1.1 4.9 0.3 0.3 0.3 0.7 0.4 1 0.3 0.2-0.1 0.5-0.1 0.7-0.2-0.2 0.3-0.4 0.5-0.6 0.8z"></path>
</symbol>
<symbol id="icon-heineken" viewBox="0 0 32 32">
<title>heineken</title>
<path d="M13.218 15.417v3.896h0.835v-2.157c0.173 0.127 1.26 2.082 1.461 2.157h0.661c0.143-0.026 0.211-0.144 0.209-0.348v-3.664h-0.87c0 0.46-0.042 1.716 0.035 2.099-0.095-0.034-0.062 0.001-0.207-0.245l-0.573-0.888c-0.542-0.857-0.471-0.954-1.446-0.954-0.080 0-0.104 0.024-0.104 0.104z"></path>
<path d="M28.681 19.301h0.828l-0.028-2.157c0.199 0.134 0.921 1.527 1.496 2.157h0.617c0.159-0.021 0.217-0.093 0.22-0.311 0.007-0.468-0.074-3.195-0.007-3.354 0.039-0.129 0.118-0.143 0.158-0.155l0.009-0.181h-0.997v2.087c-0.096-0.070-1.108-1.696-1.133-1.72-0.14-0.216-0.334-0.351-0.607-0.368h-0.557v4.001z"></path>
<path d="M20.976 15.417v3.687c0 0.128 0.131 0.185 0.311 0.209h0.803v-1.67c0.145 0.039 0.059 0.018 0.222 0.265l0.612 0.953c0.231 0.329 0.369 0.427 0.645 0.452h0.76c0.062 0 0.127 0 0.196 0-0.029-0.124-1.422-2.248-1.496-2.366 0.053-0.035 0.299-0.319 0.348-0.383 0.116-0.153 0.248-0.242 0.368-0.397 0.077-0.1 0.104-0.116 0.178-0.204l0.497-0.651c-1.176 0-0.95-0.153-1.854 0.929-0.117 0.14-0.33 0.356-0.477 0.463v-1.392h-1.009c-0.080 0-0.104 0.024-0.104 0.104z"></path>
<path d="M7.443 18.965c-0.013 0.256 0.113 0.34 0.383 0.348h2.018c0.135-0.002 0.215-0.086 0.244-0.244v-0.487h-1.322c-0.12 0.007-0.194-0.034-0.209-0.139v-0.835h1.218v-0.765h-1.218v-0.765h1.531c0-0.409 0.088-0.689-0.209-0.765h-2.435v3.653z"></path>
<path d="M11.061 19.139c0 0.112 0.126 0.174 0.244 0.174h0.835v-4.001h-1.078v3.827z"></path>
<path d="M17.461 18.965c-0.013 0.256 0.113 0.34 0.383 0.348h2.018c0.135-0.002 0.215-0.086 0.244-0.244v-0.487h-1.322c-0.119 0.007-0.194-0.034-0.209-0.139v-0.835h1.218v-0.765h-1.218v-0.765h1.531c0-0.409 0.088-0.689-0.209-0.765h-2.435v3.653z"></path>
<path d="M25.067 18.965c-0.013 0.256 0.113 0.34 0.383 0.348h2.018c0.135-0.002 0.215-0.086 0.243-0.244v-0.487h-1.322c-0.119 0.007-0.194-0.034-0.209-0.139v-0.835h1.218v-0.765h-1.218v-0.765h1.531c0-0.409 0.088-0.689-0.209-0.765h-2.435v3.653z"></path>
<path d="M3.247 15.684l-0.015 3.57h1.088v-1.728l0.943-0.002-0.004 1.73h1.078v-3.953h-1.078v1.426c0.006 0.067-0.029 0.109-0.104 0.104h-0.731c-0.070 0.002-0.104-0.034-0.104-0.104v-1.426h-1.252c-0.017 0.266 0.188 0.149 0.18 0.383z"></path>
<path d="M1.561 14.571l0.764 0.569-0.3 1.040c-0.297 0.211-0.6 0.422-0.89 0.632-0.111 0.035-0.11-0.057-0.054-0.214l0.504-1.597c-0.504-0.375-1.007-0.75-1.511-1.125-0.051-0.042-0.044-0.106 0.096-0.107l1.833 0.021c0.186-0.568 0.372-1.136 0.557-1.704 0.038-0.107 0.108-0.091 0.139-0.011l0.557 1.736h1.882c0.053-0.001 0.064 0.040 0.024 0.071l-0.92 0.658h-1.040l-0.286-0.882c-0.019-0.051-0.052-0.050-0.069 0.001l-0.299 0.87-0.98 0.005c-0.045-0.001-0.044 0.016-0.009 0.037z"></path>
</symbol>
<symbol id="icon-inline-logo" viewBox="0 0 335 32">
<title>inline-logo</title>
<path d="M0 23.392v-22.996l3.614-0.396v8.674c1.191-1.179 2.829-1.908 4.638-1.908 0.067 0 0.134 0.001 0.201 0.003l-0.010-0c4.895 0 8.147 3.285 8.147 8.41s-3.252 8.41-8.147 8.41c-0.030 0-0.064 0.001-0.099 0.001-1.838 0-3.506-0.727-4.732-1.909l0.002 0.002v1.708zM8.278 20.107c0.036 0.001 0.079 0.002 0.122 0.002 2.568 0 4.649-2.082 4.649-4.649 0-0.098-0.003-0.196-0.009-0.293l0.001 0.013c0.005-0.084 0.008-0.182 0.008-0.28 0-2.568-2.082-4.65-4.65-4.65-0.043 0-0.086 0.001-0.128 0.002l0.006-0c-0.035-0.001-0.075-0.001-0.116-0.001-2.554 0-4.624 2.070-4.624 4.624 0 0.107 0.004 0.214 0.011 0.32l-0.001-0.014c-0.006 0.091-0.010 0.198-0.010 0.305 0 2.554 2.070 4.624 4.624 4.624 0.041 0 0.082-0.001 0.123-0.002l-0.006 0z"></path>
<path d="M18.645 6.965h3.613v1.708c0.877-1.172 2.262-1.923 3.823-1.923 0.146 0 0.291 0.007 0.434 0.020l-0.018-0.001v3.482h-0.328c-0.034-0.001-0.074-0.002-0.114-0.002-2.102 0-3.805 1.704-3.805 3.805 0 0.095 0.003 0.189 0.010 0.282l-0.001-0.012v9.068h-3.614z"></path>
<path d="M29.597 0.198c1.343 0.001 2.432 1.090 2.432 2.433 0 0.011-0 0.022-0 0.033l0-0.002c0 0.009 0 0.021 0 0.032 0 1.343-1.088 2.431-2.431 2.431s-2.431-1.088-2.431-2.431c0-0.011 0-0.022 0-0.033l-0 0.002c-0-0.009-0-0.020-0-0.031 0-1.343 1.088-2.431 2.43-2.432h0zM27.791 6.965h3.614v16.427h-3.614z"></path>
<path d="M40.198 6.769c0.066-0.003 0.144-0.004 0.223-0.004 1.167 0 2.251 0.357 3.148 0.969l-0.019-0.012v-0.755h3.614v6.472c0.001 0.038 0.001 0.083 0.001 0.127 0 1.875-0.853 3.551-2.193 4.661l-0.010 0.008c1.896 1.318 3.121 3.484 3.121 5.937 0 0.015-0 0.029-0 0.044v-0.002c0.002 0.072 0.004 0.156 0.004 0.241 0 4.063-3.294 7.357-7.357 7.357-0.118 0-0.235-0.003-0.351-0.008l0.016 0.001c-0.088 0.004-0.191 0.006-0.295 0.006-3.694 0-6.758-2.702-7.321-6.238l-0.006-0.042h3.746c0.42 1.657 1.898 2.864 3.659 2.864 0.077 0 0.153-0.002 0.228-0.007l-0.010 0c0.044 0.002 0.095 0.003 0.146 0.003 2.139 0 3.874-1.734 3.874-3.874 0-0.106-0.004-0.211-0.013-0.315l0.001 0.014c0.007-0.089 0.011-0.192 0.011-0.296 0-2.124-1.722-3.846-3.846-3.846-0.061 0-0.122 0.001-0.182 0.004l0.009-0c-0.002 0-0.004 0-0.006 0-1.545 0-2.888 0.87-3.564 2.146l-0.011 0.022-2.628-2.596c0.427-0.582 0.964-1.056 1.584-1.4l0.025-0.013c-1.35-1.145-2.201-2.842-2.201-4.738 0-0.021 0-0.041 0-0.062l-0 0.003c-0.002-0.057-0.003-0.125-0.003-0.193 0-3.577 2.9-6.477 6.477-6.477 0.046 0 0.092 0 0.137 0.001l-0.007-0zM40.394 16.658c0.031 0.001 0.068 0.002 0.105 0.002 1.687 0 3.054-1.367 3.054-3.054 0-0.059-0.002-0.117-0.005-0.176l0 0.008c0.001-0.023 0.001-0.051 0.001-0.078 0-1.752-1.42-3.172-3.172-3.172s-3.172 1.42-3.172 3.172c0 0.027 0 0.055 0.001 0.082l-0-0.004c-0.003 0.048-0.004 0.104-0.004 0.161 0 1.691 1.371 3.062 3.062 3.062 0.045 0 0.090-0.001 0.135-0.003l-0.006 0z"></path>
<path d="M50.033 0.396l3.613-0.396v8.838c1.095-1.272 2.707-2.072 4.506-2.072 0.068 0 0.135 0.001 0.202 0.003l-0.010-0c3.91 0 6.308 2.398 6.308 6.766v9.857h-3.614v-9.068c0-2.561-1.084-4.138-3.581-4.138-0.013-0-0.029-0-0.044-0-2.089 0-3.783 1.694-3.783 3.783 0 0.125 0.006 0.249 0.018 0.371l-0.001-0.015v9.068h-3.614z"></path>
<path d="M68.807 0.396l3.614-0.396v6.965h4.928v3.417h-4.928v13.010h-3.614v-13.010h-3.318v-3.417h3.318z"></path>
<path d="M85.988 6.769c0.068-0.002 0.148-0.003 0.228-0.003 4.521 0 8.185 3.665 8.185 8.185 0 0.080-0.001 0.161-0.003 0.24l0-0.012c0 0.010 0 0.022 0 0.034 0 4.645-3.766 8.41-8.41 8.41s-8.41-3.765-8.41-8.41c0-0.012 0-0.024 0-0.036v0.002c-0.002-0.068-0.003-0.149-0.003-0.229 0-4.52 3.664-8.184 8.184-8.184 0.081 0 0.161 0.001 0.241 0.003l-0.012-0zM85.988 20.106c0.035 0.001 0.075 0.001 0.116 0.001 2.554 0 4.624-2.070 4.624-4.624 0-0.107-0.004-0.213-0.011-0.319l0.001 0.014c0.002-0.057 0.004-0.125 0.004-0.192 0-2.615-2.12-4.735-4.735-4.735s-4.735 2.12-4.735 4.735c0 0.068 0.001 0.135 0.004 0.202l-0-0.010c-0.006 0.091-0.010 0.198-0.010 0.305 0 2.554 2.071 4.625 4.625 4.625 0.041 0 0.082-0.001 0.123-0.002l-0.006 0z"></path>
<path d="M96.382 6.965h3.614v1.873c1.023-1.268 2.578-2.072 4.319-2.072 0.064 0 0.127 0.001 0.19 0.003l-0.009-0c4.074 0 6.308 2.398 6.308 6.766v9.857h-3.614v-9.068c0-2.89-1.216-4.138-3.581-4.138s-3.614 1.709-3.614 4.138v9.068h-3.614z"></path>
<path d="M128.771 20.173c0.032 0.001 0.069 0.001 0.106 0.001 2.579 0 4.67-2.091 4.67-4.67 0-0.114-0.004-0.228-0.012-0.34l0.001 0.015h3.613c0 4.636-3.758 8.394-8.394 8.394s-8.394-3.758-8.394-8.394v0c-0.002-0.068-0.003-0.149-0.003-0.229 0-4.52 3.664-8.184 8.184-8.184 0.081 0 0.161 0.001 0.241 0.003l-0.012-0c0.054-0.001 0.118-0.002 0.182-0.002 2.292 0 4.36 0.958 5.825 2.496l0.003 0.003-2.66 2.398c-0.809-0.909-1.982-1.479-3.289-1.479-0.022 0-0.044 0-0.066 0l0.003-0c-0.036-0.001-0.078-0.002-0.12-0.002-2.555 0-4.626 2.071-4.626 4.626 0 0.13 0.005 0.258 0.016 0.386l-0.001-0.017c-0.009 0.11-0.015 0.239-0.015 0.368 0 2.555 2.071 4.626 4.626 4.626 0.042 0 0.084-0.001 0.126-0.002l-0.006 0z"></path>
<path d="M146.452 6.769c0.068-0.002 0.148-0.003 0.228-0.003 4.521 0 8.185 3.665 8.185 8.185 0 0.080-0.001 0.16-0.003 0.24l0-0.012c0 4.645-3.765 8.41-8.41 8.41s-8.41-3.765-8.41-8.41v0c-0.002-0.068-0.003-0.149-0.003-0.229 0-4.52 3.664-8.184 8.184-8.184 0.081 0 0.161 0.001 0.241 0.003l-0.012-0zM146.452 20.106c0.035 0.001 0.075 0.001 0.116 0.001 2.554 0 4.624-2.070 4.624-4.624 0-0.107-0.004-0.213-0.011-0.319l0.001 0.014c0.003-0.058 0.004-0.126 0.004-0.194 0-2.615-2.12-4.735-4.735-4.735s-4.735 2.12-4.735 4.735c0 0.068 0.001 0.136 0.004 0.203l-0-0.010c-0.006 0.091-0.010 0.198-0.010 0.305 0 2.554 2.071 4.625 4.625 4.625 0.041 0 0.082-0.001 0.123-0.002l-0.006 0z"></path>
<path d="M156.844 6.965h3.613v1.873c0.977-1.264 2.493-2.070 4.197-2.070 0.026 0 0.052 0 0.078 0.001l-0.004-0c0.081-0.005 0.177-0.008 0.272-0.008 1.702 0 3.192 0.902 4.020 2.254l0.012 0.021c1.157-1.39 2.887-2.269 4.823-2.269 0.048 0 0.097 0.001 0.145 0.002l-0.007-0c3.351 0 5.388 1.807 5.388 5.847v10.777h-3.613v-9.857c0-2.135-0.986-3.35-2.925-3.35-1.63 0.006-2.949 1.329-2.949 2.96 0 0.138 0.009 0.273 0.028 0.405l-0.002-0.015v9.857h-3.614v-9.857c0-2.135-1.019-3.35-2.923-3.35-1.631 0.005-2.95 1.329-2.95 2.96 0 0.137 0.009 0.273 0.028 0.405l-0.002-0.015v9.857h-3.613z"></path>
<path d="M185.005 16.428c0.452 2.152 2.334 3.746 4.589 3.746 0.015 0 0.030-0 0.045-0l-0.002 0c0.12 0.012 0.259 0.019 0.4 0.019 1.338 0 2.53-0.62 3.307-1.588l0.006-0.008h4.303c-1.406 2.975-4.381 4.996-7.829 4.996-4.69 0-8.506-3.74-8.629-8.401l-0-0.011c-0-0.020-0-0.044-0-0.068 0-4.609 3.736-8.344 8.344-8.344s8.344 3.736 8.344 8.344c0 0.024-0 0.047-0 0.071l0-0.004c0 0.007 0 0.016 0 0.024 0 0.432-0.036 0.856-0.104 1.269l0.006-0.045zM185.169 13.208h8.738c-0.655-1.815-2.363-3.089-4.369-3.089s-3.713 1.274-4.359 3.057l-0.010 0.032z"></path>
<path d="M211.88 23.392v-1.708c-1.224 1.18-2.891 1.907-4.729 1.907-0.035 0-0.071-0-0.106-0.001l0.005 0c-4.895 0-8.147-3.285-8.147-8.41s3.252-8.41 8.147-8.41c0.057-0.002 0.124-0.003 0.191-0.003 1.809 0 3.447 0.728 4.639 1.908l-0.001-0.001v-8.278l3.614-0.396v23.392zM207.215 10.252c-0.036-0.001-0.079-0.002-0.121-0.002-2.568 0-4.65 2.082-4.65 4.65 0 0.098 0.003 0.196 0.009 0.293l-0.001-0.013c-0.002 0.053-0.003 0.116-0.003 0.178 0 2.624 2.127 4.751 4.751 4.751s4.751-2.127 4.751-4.751c0-0.063-0.001-0.125-0.004-0.187l0 0.009c0.006-0.092 0.010-0.199 0.010-0.306 0-2.554-2.070-4.624-4.624-4.624-0.041 0-0.082 0.001-0.123 0.002l0.006-0z"></path>
<path d="M220.178 6.965l4.074 9.56 4.074-9.56h3.746l-6.012 13.535v11.104l-3.614 0.396v-11.5l-6.013-13.535z"></path>
<path d="M246.724 6.769c0.066-0.003 0.144-0.004 0.223-0.004 1.167 0 2.251 0.357 3.148 0.969l-0.019-0.012v-0.755h3.613v6.472c0.001 0.038 0.001 0.083 0.001 0.127 0 1.875-0.853 3.551-2.193 4.661l-0.010 0.008c1.896 1.318 3.121 3.484 3.121 5.937 0 0.015-0 0.029-0 0.044v-0.002c-0.075 4.208-3.504 7.59-7.722 7.59-3.753 0-6.881-2.677-7.578-6.226l-0.008-0.049h3.745c0.421 1.657 1.899 2.864 3.66 2.864 0.076 0 0.152-0.002 0.227-0.007l-0.010 0c0.044 0.002 0.095 0.003 0.147 0.003 2.139 0 3.874-1.734 3.874-3.874 0-0.106-0.004-0.212-0.013-0.316l0.001 0.014c0.007-0.089 0.011-0.192 0.011-0.296 0-2.124-1.722-3.846-3.846-3.846-0.061 0-0.122 0.001-0.182 0.004l0.009-0c-0.002 0-0.004 0-0.007 0-1.545 0-2.888 0.87-3.564 2.146l-0.011 0.022-2.628-2.596c0.427-0.582 0.964-1.056 1.584-1.4l0.025-0.013c-1.35-1.145-2.202-2.842-2.202-4.739 0-0.020 0-0.040 0-0.060l-0 0.003c-0.002-0.057-0.003-0.125-0.003-0.193 0-3.577 2.9-6.477 6.477-6.477 0.046 0 0.092 0 0.137 0.001l-0.007-0zM246.92 16.658c0.031 0.001 0.068 0.002 0.105 0.002 1.687 0 3.054-1.367 3.054-3.054 0-0.059-0.002-0.118-0.005-0.176l0 0.008c0.001-0.023 0.001-0.051 0.001-0.078 0-1.752-1.42-3.172-3.172-3.172s-3.172 1.42-3.172 3.172c0 0.027 0 0.055 0.001 0.082l-0-0.004c-0.003 0.048-0.004 0.104-0.004 0.161 0 1.691 1.371 3.062 3.062 3.062 0.045 0 0.090-0.001 0.135-0.003l-0.006 0z"></path>
<path d="M271.952 6.965v16.427h-3.68v-1.708c-1.143 1.178-2.74 1.909-4.509 1.909-0.066 0-0.132-0.001-0.198-0.003l0.010 0c-0.054 0.001-0.118 0.002-0.182 0.002-4.457 0-8.071-3.613-8.071-8.071 0-0.12 0.003-0.24 0.008-0.358l-0.001 0.017c-0.005-0.102-0.007-0.222-0.007-0.342 0-4.457 3.613-8.070 8.070-8.070 0.064 0 0.128 0.001 0.192 0.002l-0.010-0c0.049-0.001 0.106-0.002 0.163-0.002 1.776 0 3.381 0.73 4.533 1.906l0.001 0.001v-1.708zM263.706 10.25c-2.677 0.058-4.825 2.242-4.825 4.928s2.148 4.869 4.819 4.927l0.005 0c2.607-0.051 4.7-2.176 4.7-4.791 0-0.048-0.001-0.096-0.002-0.144l0 0.007c0.001-0.041 0.002-0.088 0.002-0.136 0-2.614-2.094-4.74-4.696-4.791l-0.005-0z"></path>
<path d="M275.003 6.965h3.613v1.708c0.877-1.172 2.262-1.923 3.823-1.923 0.146 0 0.291 0.007 0.434 0.020l-0.018-0.001v3.482h-0.329c-0.034-0.001-0.074-0.002-0.114-0.002-2.102 0-3.805 1.704-3.805 3.805 0 0.095 0.003 0.189 0.010 0.282l-0.001-0.012v9.068h-3.613z"></path>
<path d="M296.011 23.392v-1.708c-1.224 1.18-2.891 1.907-4.729 1.907-0.035 0-0.071-0-0.106-0.001l0.005 0c-4.895 0-8.147-3.285-8.147-8.41s3.252-8.41 8.147-8.41c0.057-0.002 0.124-0.003 0.192-0.003 1.809 0 3.447 0.729 4.638 1.908l-0.001-0.001v-8.278l3.614-0.396v23.392zM291.346 10.252c-0.036-0.001-0.079-0.002-0.122-0.002-2.568 0-4.65 2.082-4.65 4.65 0 0.098 0.003 0.195 0.009 0.292l-0.001-0.013c-0.002 0.053-0.003 0.116-0.003 0.178 0 2.624 2.127 4.751 4.751 4.751s4.751-2.127 4.751-4.751c0-0.063-0.001-0.125-0.004-0.187l0 0.009c0.006-0.091 0.010-0.198 0.010-0.306 0-2.554-2.070-4.624-4.624-4.624-0.041 0-0.082 0.001-0.122 0.002l0.006-0z"></path>
<path d="M305.417 16.428c0.452 2.152 2.334 3.746 4.589 3.746 0.015 0 0.030-0 0.045-0l-0.002 0c0.12 0.012 0.259 0.019 0.4 0.019 1.337 0 2.53-0.62 3.306-1.588l0.006-0.008h4.303c-1.406 2.975-4.381 4.996-7.829 4.996-4.69 0-8.507-3.74-8.629-8.401l-0-0.011c-0-0.020-0-0.044-0-0.068 0-4.609 3.736-8.344 8.344-8.344s8.344 3.736 8.344 8.344c0 0.024-0 0.047-0 0.071l0-0.004c0 0.007 0 0.015 0 0.023 0 0.433-0.036 0.857-0.104 1.271l0.006-0.045zM305.581 13.208h8.738c-0.655-1.815-2.363-3.089-4.369-3.089s-3.713 1.274-4.359 3.057l-0.010 0.032z"></path>
<path d="M320.294 6.965h3.613v1.873c1.023-1.268 2.577-2.072 4.319-2.072 0.064 0 0.127 0.001 0.19 0.003l-0.009-0c4.074 0 6.308 2.398 6.308 6.766v9.857h-3.614v-9.068c0-2.89-1.216-4.138-3.581-4.138s-3.614 1.708-3.614 4.138v9.068h-3.613z"></path>
</symbol>
<symbol id="icon-see-tickets" viewBox="0 0 32 32">
<title>see-tickets</title>
<path d="M24.225 15.779c-0.235-0.353-0.647-0.531-1.175-0.531-0.704 0-1.673 0.561-1.673 1.771 0 0.117 0 0.265 0.031 0.413l2.817-1.653zM23.227 21c-1.879 0-3.639-1.447-3.639-3.659 0-2.065 1.409-3.745 3.581-3.745 1.789 0 3.139 1.504 3.139 2.655l-4.255 2.508c0.352 0.412 0.939 0.531 1.497 0.531 0.527 0 1.379-0.267 2.467-1.061l-0.383 2.067c-0.675 0.471-1.556 0.708-2.405 0.708v0zM17.064 15.779c-0.235-0.353-0.647-0.531-1.173-0.531-0.704 0-1.673 0.561-1.673 1.771 0 0.117 0 0.265 0.029 0.413l2.819-1.653zM16.067 21c-1.879 0-3.639-1.447-3.639-3.659 0-2.065 1.408-3.745 3.579-3.745 1.789 0 3.139 1.504 3.139 2.655l-4.255 2.508c0.353 0.412 0.939 0.531 1.497 0.531 0.528 0 1.38-0.267 2.465-1.061l-0.383 2.067c-0.675 0.471-1.555 0.708-2.407 0.708v0zM5.591 18.257c0.881 0.679 1.703 1.003 2.495 1.003 1.173 0 1.615-0.501 1.615-1.121 0-0.441-0.263-0.825-1.379-1.593-0.911-0.619-1.849-1.535-1.849-2.773 0-1.444 1.027-2.772 3.287-2.772 0.88 0 1.996 0.324 2.817 0.827l-0.411 1.709c-0.793-0.561-1.615-0.797-2.289-0.797-0.851 0-1.379 0.296-1.379 0.944 0 0.472 0.411 0.855 1.379 1.504 1.201 0.856 1.907 1.681 1.907 2.832 0 1.623-1.32 2.981-3.521 2.981-1.233 0-2.289-0.355-3.081-0.944l0.411-1.799z"></path>
</symbol>
<symbol id="icon-57-festivals" viewBox="0 0 32 32">
<title>57-festivals</title>
<path d="M11.743 14.239c0-1.047-0.371-1.94-1.111-2.68s-1.635-1.111-2.681-1.111c0-0.493 0-0.928 0-1.305 0-0.388 0-0.717 0-0.987 0-0.224 0-0.416 0-0.583 0-0.164 0-0.305 0-0.423 0-0.481 0-0.757 0-0.829s0-0.376 0-0.917c0.999 0 2.491 0 4.479 0 0 0.152 0 0.388 0 0.705-0.835 0-2.092 0-3.772 0 0 0.823 0 2.057 0 3.703 1.069 0.165 1.963 0.665 2.68 1.497 0.729 0.835 1.093 1.811 1.093 2.927 0 0.436-0.060 0.852-0.176 1.251-0.117 0.399-0.281 0.769-0.493 1.111-0.4 0.636-0.935 1.147-1.604 1.535-0.671 0.388-1.405 0.583-2.205 0.583v-0.705c1.047 0 1.94-0.364 2.68-1.093 0.741-0.74 1.112-1.633 1.112-2.68z"></path>
<path d="M23.325 11.137c-1.293 2.645-3.227 6.617-5.8 11.917-0.176 0-0.436 0-0.775 0 1.352-2.809 3.391-7.017 6.117-12.623-1.528 0-3.832 0-6.911 0 0-0.152 0-0.381 0-0.688 1.445 0 3.608 0 6.487 0 0.353 0 0.869 0 1.552 0-0.152 0.307-0.376 0.771-0.669 1.393z"></path>
<path d="M8.004 24.419h1.163v0.227h-0.909v0.731h0.849v0.227h-0.849v0.955h-0.253v-2.139z"></path>
<path d="M9.889 24.419h1.163v0.227h-0.909v0.7h0.833v0.227h-0.833v0.76h0.924v0.227h-1.179v-2.14z"></path>
<path d="M12.796 26.013c0-0.085-0.027-0.156-0.077-0.209s-0.115-0.101-0.191-0.144c-0.077-0.043-0.16-0.081-0.248-0.117-0.091-0.036-0.173-0.081-0.248-0.133-0.077-0.052-0.14-0.116-0.191-0.193s-0.077-0.175-0.077-0.292c0-0.167 0.059-0.299 0.175-0.396s0.281-0.147 0.495-0.147c0.125 0 0.236 0.009 0.339 0.028s0.181 0.043 0.239 0.069l-0.077 0.227c-0.047-0.023-0.116-0.045-0.207-0.067-0.091-0.020-0.193-0.032-0.307-0.032-0.135 0-0.235 0.031-0.301 0.091s-0.1 0.131-0.1 0.212c0 0.080 0.027 0.145 0.077 0.199 0.051 0.052 0.115 0.1 0.191 0.143s0.16 0.083 0.248 0.124c0.089 0.040 0.173 0.088 0.248 0.143 0.077 0.053 0.14 0.119 0.191 0.195s0.077 0.168 0.077 0.281c0 0.092-0.016 0.175-0.049 0.247s-0.080 0.136-0.144 0.189c-0.063 0.052-0.14 0.095-0.229 0.121-0.091 0.029-0.192 0.043-0.305 0.043-0.152 0-0.279-0.012-0.379-0.035s-0.177-0.049-0.232-0.079l0.085-0.227c0.047 0.027 0.116 0.051 0.208 0.076s0.195 0.037 0.308 0.037c0.067 0 0.131-0.007 0.189-0.020 0.060-0.013 0.111-0.035 0.152-0.064s0.077-0.067 0.101-0.112c0.028-0.040 0.040-0.095 0.040-0.156z"></path>
<path d="M15.137 24.645h-0.665v1.912h-0.253v-1.912h-0.665v-0.227h1.585v0.227z"></path>
<path d="M15.816 24.419h0.255v2.139h-0.255v-2.139z"></path>
<path d="M17.508 25.888l0.075 0.324h0.003l0.080-0.329 0.513-1.463h0.255l-0.808 2.172h-0.113l-0.824-2.172h0.277l0.544 1.469z"></path>
<path d="M19.869 25.964h-0.784l-0.213 0.592h-0.255l0.808-2.172h0.116l0.813 2.172h-0.268l-0.217-0.592zM19.168 25.744h0.625l-0.236-0.651-0.076-0.324h-0.003l-0.076 0.329-0.235 0.644z"></path>
<path d="M22.209 26.556h-1.264v-2.137h0.255v1.912h1.011v0.225z"></path>
<path d="M23.795 26.013c0-0.085-0.027-0.156-0.077-0.209s-0.115-0.101-0.191-0.144c-0.077-0.043-0.16-0.081-0.248-0.117s-0.173-0.081-0.248-0.133c-0.077-0.052-0.14-0.116-0.191-0.193s-0.077-0.175-0.077-0.292c0-0.167 0.059-0.299 0.175-0.396s0.281-0.147 0.495-0.147c0.125 0 0.236 0.009 0.34 0.028 0.101 0.019 0.181 0.043 0.239 0.069l-0.077 0.227c-0.047-0.023-0.116-0.045-0.207-0.067-0.089-0.020-0.193-0.032-0.307-0.032-0.135 0-0.235 0.031-0.301 0.091s-0.1 0.131-0.1 0.212c0 0.080 0.027 0.145 0.077 0.199 0.051 0.052 0.115 0.1 0.191 0.143 0.077 0.043 0.16 0.083 0.248 0.124 0.089 0.040 0.173 0.088 0.248 0.143 0.077 0.053 0.14 0.119 0.191 0.195s0.077 0.168 0.077 0.281c0 0.092-0.016 0.175-0.049 0.247-0.032 0.072-0.080 0.136-0.144 0.189-0.063 0.052-0.14 0.095-0.229 0.121-0.089 0.029-0.192 0.043-0.305 0.043-0.152 0-0.279-0.012-0.379-0.035s-0.177-0.049-0.232-0.079l0.085-0.227c0.047 0.027 0.116 0.051 0.208 0.076s0.195 0.037 0.308 0.037c0.067 0 0.131-0.007 0.189-0.020 0.060-0.013 0.111-0.035 0.152-0.064s0.077-0.067 0.101-0.112c0.027-0.040 0.039-0.095 0.039-0.156z"></path>
</symbol>
<symbol id="icon-logo" viewBox="0 0 42 32">
<title>logo</title>
<path d="M3.201 7.582c1.078 0 1.796-0.793 1.796-1.858s-0.718-1.858-1.796-1.858c-1.078 0-1.784 0.793-1.784 1.858s0.706 1.858 1.784 1.858zM0.079 8.82v-8.671l1.363-0.149v3.27c0.384-0.421 1.053-0.718 1.821-0.718 1.846 0 3.072 1.239 3.072 3.171s-1.226 3.172-3.072 3.172c-0.818 0-1.425-0.335-1.821-0.719v0.644h-1.363z"></path>
<path d="M7.048 2.627h1.363v0.644c0.297-0.397 0.731-0.718 1.598-0.718v1.313h-0.124c-0.868 0-1.474 0.62-1.474 1.536v3.419h-1.363v-6.194z"></path>
<path d="M10.434 8.82h1.363v-6.194h-1.363v6.194zM11.115 0.075c0.508 0 0.917 0.409 0.917 0.929s-0.409 0.929-0.917 0.929c-0.507 0-0.916-0.408-0.916-0.929s0.409-0.929 0.916-0.929z"></path>
<path d="M15.125 6.281c0.681 0 1.19-0.484 1.19-1.214 0-0.743-0.508-1.226-1.19-1.226-0.694 0-1.202 0.483-1.202 1.226 0 0.731 0.508 1.214 1.202 1.214zM15.051 2.552c0.483 0 0.929 0.111 1.264 0.359v-0.285h1.362v2.44c0 0.718-0.284 1.363-0.83 1.809 0.743 0.521 1.177 1.338 1.177 2.255 0 1.735-1.275 2.861-2.899 2.861-1.524 0-2.627-0.966-2.874-2.366h1.412c0.185 0.607 0.632 1.078 1.462 1.078 0.917 0 1.512-0.644 1.512-1.573s-0.595-1.561-1.512-1.561c-0.595 0-1.115 0.347-1.35 0.818l-0.991-0.979c0.149-0.198 0.334-0.385 0.607-0.533-0.533-0.458-0.83-1.090-0.83-1.809 0-1.399 1.028-2.515 2.49-2.515z"></path>
<path d="M18.698 0.149l1.363-0.149v3.333c0.371-0.446 0.966-0.78 1.771-0.78 1.475 0 2.379 0.904 2.379 2.552v3.717h-1.363v-3.419c0-0.966-0.409-1.561-1.35-1.561-0.879 0-1.437 0.657-1.437 1.561v3.419h-1.363v-8.671z"></path>
<path d="M25.715 0.149l1.363-0.149v2.627h1.858v1.288h-1.858v4.906h-1.363v-4.906h-1.251v-1.288h1.251z"></path>
<path d="M32.132 7.582c1.065 0 1.784-0.78 1.784-1.858s-0.719-1.858-1.784-1.858c-1.065 0-1.784 0.78-1.784 1.858s0.719 1.858 1.784 1.858zM32.132 2.553c1.833 0 3.172 1.363 3.172 3.171s-1.338 3.172-3.172 3.172c-1.834 0-3.172-1.363-3.172-3.172s1.338-3.171 3.172-3.171z"></path>
<path d="M35.989 2.627h1.363v0.706c0.284-0.372 0.842-0.78 1.697-0.78 1.536 0 2.378 0.904 2.378 2.552v3.717h-1.363v-3.419c0-1.090-0.458-1.56-1.35-1.56s-1.363 0.644-1.363 1.56v3.419h-1.363v-6.194z"></path>
<path d="M3.171 17.413c1.053 0 1.796-0.768 1.796-1.883h1.363c0 1.808-1.363 3.171-3.159 3.171-1.821 0-3.172-1.351-3.172-3.171 0-1.822 1.351-3.172 3.172-3.172 0.966 0 1.697 0.359 2.267 0.941l-1.004 0.904c-0.31-0.334-0.718-0.557-1.263-0.557-1.065 0-1.784 0.768-1.784 1.883s0.719 1.883 1.784 1.883z"></path>
<path d="M9.776 17.388c1.065 0 1.784-0.78 1.784-1.858s-0.719-1.858-1.784-1.858c-1.065 0-1.784 0.78-1.784 1.858s0.719 1.858 1.784 1.858zM9.776 12.359c1.833 0 3.172 1.363 3.172 3.171s-1.338 3.172-3.172 3.172c-1.834 0-3.172-1.363-3.172-3.172s1.338-3.171 3.172-3.171z"></path>
<path d="M13.633 12.433h1.363v0.706c0.334-0.459 0.929-0.78 1.61-0.78 0.756 0 1.288 0.31 1.623 0.855 0.471-0.496 0.979-0.855 1.87-0.855 1.264 0 2.032 0.682 2.032 2.205v4.063h-1.363v-3.717c0-0.805-0.372-1.263-1.103-1.263-0.631 0-1.102 0.458-1.102 1.263v3.717h-1.363v-3.717c0-0.805-0.384-1.263-1.102-1.263-0.632 0-1.102 0.458-1.102 1.263v3.717h-1.363v-6.194z"></path>
<path d="M24.252 14.787h3.295c-0.198-0.645-0.867-1.165-1.647-1.165s-1.449 0.52-1.647 1.165zM24.19 16.001c0.149 0.78 0.855 1.412 1.747 1.412 0.632 0 1.14-0.199 1.4-0.595h1.622c-0.421 1.127-1.622 1.883-3.022 1.883-1.797 0-3.183-1.412-3.183-3.172s1.387-3.171 3.146-3.171 3.146 1.412 3.146 3.171c0 0.161-0.012 0.322-0.037 0.471h-4.819z"></path>
<path d="M32.503 13.672c-1.078 0-1.796 0.793-1.796 1.859 0 1.065 0.718 1.858 1.796 1.858s1.784-0.793 1.784-1.858c0-1.066-0.706-1.859-1.784-1.859zM34.262 18.627v-0.644c-0.396 0.384-1.003 0.718-1.821 0.718-1.846 0-3.072-1.239-3.072-3.171s1.226-3.172 3.072-3.172c0.768 0 1.437 0.297 1.821 0.718v-3.122l1.363-0.149v8.821h-1.363z"></path>
<path d="M37.33 12.433l1.537 3.605 1.536-3.605h1.412l-2.267 5.104v4.187l-1.363 0.149v-4.336l-2.267-5.104z"></path>
<path d="M5.506 25.894c0.681 0 1.19-0.484 1.19-1.214 0-0.743-0.508-1.226-1.19-1.226-0.694 0-1.202 0.483-1.202 1.226 0 0.731 0.508 1.214 1.202 1.214zM5.432 22.165c0.483 0 0.929 0.111 1.264 0.359v-0.285h1.362v2.44c0 0.718-0.284 1.363-0.83 1.809 0.743 0.521 1.177 1.338 1.177 2.255 0 1.735-1.275 2.861-2.899 2.861-1.524 0-2.627-0.966-2.874-2.366h1.412c0.185 0.607 0.632 1.078 1.462 1.078 0.917 0 1.512-0.644 1.512-1.573s-0.595-1.561-1.512-1.561c-0.595 0-1.115 0.347-1.35 0.818l-0.991-0.979c0.149-0.198 0.334-0.385 0.607-0.533-0.533-0.458-0.83-1.090-0.83-1.809 0-1.399 1.028-2.515 2.49-2.515z"></path>
<path d="M11.774 23.478c-1.028 0-1.821 0.842-1.821 1.859 0 1.015 0.793 1.858 1.821 1.858 1.003 0 1.772-0.842 1.772-1.858s-0.769-1.859-1.772-1.859zM14.883 22.24v6.194h-1.387v-0.644c-0.26 0.334-0.941 0.718-1.771 0.718-1.771 0-3.109-1.314-3.109-3.171 0-1.859 1.338-3.172 3.109-3.172 0.818 0 1.511 0.384 1.771 0.718v-0.644h1.387z"></path>
<path d="M15.972 22.239h1.363v0.644c0.297-0.397 0.731-0.718 1.598-0.718v1.313h-0.124c-0.868 0-1.474 0.62-1.474 1.536v3.419h-1.363v-6.194z"></path>
<path d="M22.072 23.478c-1.078 0-1.796 0.793-1.796 1.859 0 1.065 0.718 1.858 1.796 1.858s1.784-0.793 1.784-1.858c0-1.066-0.706-1.859-1.784-1.859zM23.831 28.434v-0.644c-0.396 0.384-1.003 0.718-1.821 0.718-1.846 0-3.072-1.239-3.072-3.171s1.226-3.172 3.072-3.172c0.768 0 1.437 0.297 1.821 0.718v-3.122l1.363-0.149v8.821h-1.363z"></path>
<path d="M27.379 24.593h3.295c-0.198-0.645-0.867-1.165-1.647-1.165s-1.449 0.52-1.647 1.165zM27.317 25.808c0.149 0.78 0.855 1.412 1.747 1.412 0.632 0 1.14-0.199 1.4-0.595h1.622c-0.421 1.127-1.622 1.883-3.022 1.883-1.797 0-3.183-1.412-3.183-3.172s1.387-3.171 3.146-3.171 3.146 1.412 3.146 3.171c0 0.161-0.012 0.322-0.037 0.471h-4.819z"></path>
<path d="M32.864 22.239h1.363v0.706c0.284-0.372 0.842-0.78 1.697-0.78 1.536 0 2.378 0.904 2.378 2.552v3.717h-1.363v-3.419c0-1.090-0.458-1.56-1.35-1.56s-1.363 0.644-1.363 1.56v3.419h-1.363v-6.194z"></path>
</symbol>
</defs>
</svg>
