<svg style="position: absolute; width: 0; height: 0; overflow: hidden;" version="1.1" xmlns="http://www.w3.org/2000/svg" xmlns:xlink="http://www.w3.org/1999/xlink">
<defs>
<symbol id="icon-footer-stacked" viewBox="0 0 34 32">
<title>footer-stacked</title>
<path fill="#9b9b9b" style="fill: var(--color1, #9b9b9b)" d="M24.454 7.663c-0.021-0.764-0.825-1.168-1.579-1.025-0.459 0.086-1.044 0.153-1.41-0.056-0.805-0.46-1.634-0.99-2.23-1.684-2.259-2.635-3.76-2.364-6.78-1.481-0.27 0.079-0.602 0.589-0.589 0.885 0.073 1.635 0.245 3.266 0.384 4.898 0.027 0.498 0.075 0.995 0.075 1.493-0.001 1.92-0.011 3.84-0.029 5.76-0.024 2.639-0.059 12.078-0.090 14.719 0.067 0.105 0.118 0.226 0.207 0.305 0.212 0.185 0.441 0.35 0.663 0.523 0.176-0.252 0.403-0.484 0.515-0.762 0.11-0.274 0.104-0.593 0.149-0.893-0.005-3.596-0.009-13.993-0.015-17.59 0.887-0.538 1.83-1.044 2.846-0.475 1.184 0.663 2.325 1.418 3.426 2.213 0.978 0.707 3.143 0.791 4.054 0.011 0.211-0.181 0.405-0.513 0.409-0.779 0.031-2.022 0.047-4.044-0.008-6.064z"></path>
<path fill="#9b9b9b" style="fill: var(--color1, #9b9b9b)" d="M12.611 2.422c0.718-0.093 1.107-0.535 1.11-1.080-0.014-0.885-0.512-1.354-1.216-1.342-0.645 0.010-1.216 0.581-1.197 1.197 0.019 0.651 0.678 1.307 1.303 1.225z"></path>
<path fill="#fff" style="fill: var(--color2, #fff)" d="M4.941 6.938c0.466 0.233 0.932 0.794 0.932 1.528 0 1.105-0.872 1.917-1.934 1.917h-2.011v-6.045h1.969c1.001 0 1.606 0.639 1.606 1.563-0.001 0.484-0.277 0.873-0.562 1.037zM2.894 6.549h1.002c0.414 0 0.656-0.251 0.656-0.648s-0.242-0.648-0.656-0.648h-1.002v1.296zM2.894 9.467h1.002c0.63 0 1.010-0.406 1.010-1.001s-0.38-1.001-1.010-1.001h-1.002v2.002z"></path>
<path fill="#fff" style="fill: var(--color2, #fff)" d="M8.561 4.338c0.959 0 1.736 0.622 1.736 1.727 0 0.967-0.631 1.546-1.373 1.692l1.373 2.624h-1.105l-1.295-2.59h-0.138v2.591h-0.967v-6.045h1.769zM7.759 6.877h0.812c0.517 0 0.777-0.346 0.777-0.812s-0.259-0.812-0.777-0.812h-0.812v1.624z"></path>
<path fill="#fff" style="fill: var(--color2, #fff)" d="M13.683 5.254h-0.916v4.213h0.916v0.916h-2.797v-0.916h0.916v-4.213h-0.916v-0.916h2.797v0.916z"></path>
<path fill="#fff" style="fill: var(--color2, #fff)" d="M16.81 6.756c0.751 0.285 1.235 0.785 1.235 1.71 0 1.122-0.855 1.969-1.943 1.969-1.105 0-1.943-0.872-1.943-1.943h0.968c0 0.561 0.363 1.027 0.976 1.027s0.975-0.423 0.975-1.027c0-0.906-0.795-0.906-1.641-1.234-0.553-0.216-0.949-0.699-0.949-1.364 0-0.942 0.69-1.606 1.589-1.606 0.656 0 1.139 0.276 1.433 0.777l-0.648 0.648c-0.147-0.328-0.448-0.51-0.759-0.51-0.397 0-0.665 0.268-0.665 0.639 0 0.56 0.579 0.612 1.373 0.914z"></path>
<path fill="#fff" style="fill: var(--color2, #fff)" d="M18.186 4.338h3.712v0.916h-1.372v5.129h-0.968v-5.129h-1.373v-0.916z"></path>
<path fill="#fff" style="fill: var(--color2, #fff)" d="M25.155 10.435c-1.709 0-2.987-1.373-2.987-3.074s1.279-3.074 2.987-3.074c1.71 0 2.988 1.373 2.988 3.074s-1.278 3.074-2.988 3.074zM25.155 5.202c-1.174 0-2.003 0.949-2.003 2.159s0.828 2.159 2.003 2.159 2.003-0.949 2.003-2.159-0.829-2.159-2.003-2.159z"></path>
<path fill="#fff" style="fill: var(--color2, #fff)" d="M28.932 4.338h0.967v5.129h2.876v0.916h-3.843v-6.045z"></path>
<path fill="#fff" style="fill: var(--color2, #fff)" d="M2.987 18.159c1.174 0 2.003-0.916 2.003-2.159h0.984c0 1.701-1.279 3.074-2.988 3.074-1.708 0-2.986-1.373-2.986-3.074s1.279-3.074 2.987-3.074c0.976 0 1.753 0.441 2.297 1.105l-0.674 0.674c-0.363-0.527-0.889-0.864-1.623-0.864-1.174 0-2.003 0.949-2.003 2.159s0.829 2.159 2.003 2.159z"></path>
<path fill="#fff" style="fill: var(--color2, #fff)" d="M9.613 19.074c-1.709 0-2.987-1.373-2.987-3.074s1.279-3.074 2.987-3.074c1.71 0 2.988 1.373 2.988 3.074s-1.279 3.074-2.988 3.074zM9.613 13.841c-1.174 0-2.003 0.949-2.003 2.159s0.828 2.159 2.003 2.159 2.003-0.949 2.003-2.159c0-1.209-0.828-2.159-2.003-2.159z"></path>
<path fill="#fff" style="fill: var(--color2, #fff)" d="M13.512 12.978h1.070l1.917 4.662 1.916-4.662h1.070v6.044h-0.967v-3.834l-1.589 3.834h-0.863l-1.589-3.834v3.834h-0.967v-6.044z"></path>
<path fill="#fff" style="fill: var(--color2, #fff)" d="M20.648 12.978h3.79v0.916h-2.823v1.623h1.373v0.915h-1.373v1.675h2.876v0.916h-3.843v-6.045z"></path>
<path fill="#fff" style="fill: var(--color2, #fff)" d="M27.1 12.978c1.728 0 2.979 1.158 2.979 3.022s-1.252 3.022-2.979 3.022h-1.769v-6.044h1.769zM26.297 13.893v4.213h0.829c1.097 0 1.969-0.752 1.969-2.107s-0.872-2.107-1.969-2.107h-0.829z"></path>
<path fill="#fff" style="fill: var(--color2, #fff)" d="M31.213 12.978l1.114 2.47 1.114-2.47h1.019l-1.648 3.453v2.591h-0.968v-2.591l-1.649-3.454h1.019z"></path>
<path fill="#fff" style="fill: var(--color2, #fff)" d="M6.287 26.841c-0.474 0.587-1.191 0.872-1.96 0.872-1.709 0-2.987-1.373-2.987-3.074s1.279-3.074 2.987-3.074c0.976 0 1.753 0.441 2.297 1.105l-0.674 0.674c-0.363-0.527-0.889-0.864-1.623-0.864-1.174 0-2.003 0.949-2.003 2.159s0.828 2.159 2.003 2.159c1.054 0 1.779-0.682 1.96-1.727h-1.995v-0.915h2.892v3.506h-0.898v-0.821z"></path>
<path fill="#fff" style="fill: var(--color2, #fff)" d="M12.17 27.661l-0.363-0.993h-2.694l-0.363 0.993h-1.010l2.237-6.044h0.967l2.237 6.044h-1.011zM9.434 25.753h2.055l-1.028-2.84-1.027 2.84z"></path>
<path fill="#fff" style="fill: var(--color2, #fff)" d="M15.61 21.617c0.959 0 1.736 0.622 1.736 1.727 0 0.967-0.631 1.546-1.373 1.692l1.373 2.624h-1.105l-1.295-2.59h-0.138v2.591h-0.967v-6.044h1.769zM14.807 24.156h0.812c0.517 0 0.777-0.346 0.777-0.812s-0.259-0.812-0.777-0.812h-0.812v1.624z"></path>
<path fill="#fff" style="fill: var(--color2, #fff)" d="M20.007 21.617c1.728 0 2.979 1.158 2.979 3.022s-1.252 3.022-2.979 3.022h-1.769v-6.044h1.769zM19.204 22.532v4.213h0.828c1.097 0 1.969-0.752 1.969-2.107s-0.872-2.107-1.969-2.107h-0.828z"></path>
<path fill="#fff" style="fill: var(--color2, #fff)" d="M23.775 21.617h3.79v0.916h-2.823v1.623h1.373v0.915h-1.373v1.675h2.876v0.916h-3.843v-6.045z"></path>
<path fill="#fff" style="fill: var(--color2, #fff)" d="M28.457 21.617h1.070l1.943 4.161v-4.161h0.967v6.044h-1.070l-1.943-4.161v4.161h-0.967v-6.044z"></path>
</symbol>
<symbol id="icon-footer" viewBox="0 0 148 32">
<title>footer</title>
<path fill="#9b9b9b" style="fill: var(--color1, #9b9b9b)" d="M81.517 7.663c-0.021-0.763-0.825-1.168-1.579-1.025-0.458 0.087-1.044 0.153-1.41-0.056-0.805-0.459-1.634-0.99-2.229-1.684-2.259-2.635-3.76-2.364-6.78-1.481-0.27 0.079-0.603 0.59-0.589 0.885 0.074 1.635 0.246 3.266 0.384 4.898 0.026 0.498 0.076 0.995 0.075 1.493-0.001 1.92-0.011 3.84-0.029 5.76-0.025 2.639-0.059 12.078-0.090 14.719 0.068 0.104 0.118 0.227 0.207 0.305 0.211 0.185 0.441 0.35 0.664 0.523 0.176-0.252 0.403-0.484 0.515-0.762 0.11-0.273 0.104-0.594 0.148-0.893-0.005-3.596-0.010-13.993-0.015-17.59 0.887-0.538 1.83-1.044 2.846-0.475 1.184 0.663 2.325 1.418 3.426 2.213 0.978 0.707 3.143 0.791 4.054 0.011 0.211-0.18 0.405-0.513 0.41-0.779 0.031-2.021 0.047-4.043-0.008-6.062z"></path>
<path fill="#9b9b9b" style="fill: var(--color1, #9b9b9b)" d="M69.674 2.423c0.718-0.094 1.106-0.535 1.11-1.080-0.013-0.885-0.512-1.354-1.215-1.343-0.646 0.011-1.215 0.581-1.197 1.197 0.018 0.651 0.677 1.307 1.302 1.226z"></path>
<path fill="#fff" style="fill: var(--color2, #fff)" d="M7.357 14.946c0.647 0.324 1.295 1.103 1.295 2.122 0 1.535-1.211 2.663-2.687 2.663h-2.794v-8.396h2.734c1.392 0 2.231 0.888 2.231 2.171 0 0.673-0.384 1.212-0.779 1.44zM4.514 14.406h1.391c0.576 0 0.912-0.348 0.912-0.899s-0.335-0.899-0.912-0.899h-1.391v1.798zM4.514 18.46h1.391c0.876 0 1.403-0.563 1.403-1.392 0-0.827-0.527-1.391-1.403-1.391h-1.391v2.783z"></path>
<path fill="#fff" style="fill: var(--color2, #fff)" d="M12.386 11.336c1.331 0 2.411 0.864 2.411 2.399 0 1.343-0.875 2.146-1.907 2.351l1.907 3.646h-1.535l-1.799-3.598h-0.193v3.598h-1.343v-8.396h2.459zM11.27 14.862h1.127c0.72 0 1.080-0.48 1.080-1.127s-0.36-1.127-1.080-1.127h-1.127v2.254z"></path>
<path fill="#fff" style="fill: var(--color2, #fff)" d="M19.501 12.607h-1.271v5.853h1.271v1.271h-3.886v-1.271h1.271v-5.853h-1.271v-1.271h3.886v1.271z"></path>
<path fill="#fff" style="fill: var(--color2, #fff)" d="M23.845 14.694c1.043 0.396 1.715 1.091 1.715 2.374 0 1.56-1.188 2.734-2.699 2.734-1.535 0-2.699-1.211-2.699-2.697h1.344c0 0.779 0.503 1.427 1.355 1.427s1.355-0.588 1.355-1.427c0-1.26-1.104-1.26-2.279-1.716-0.768-0.3-1.319-0.971-1.319-1.895 0-1.308 0.959-2.231 2.207-2.231 0.912 0 1.583 0.384 1.991 1.080l-0.899 0.899c-0.204-0.456-0.624-0.708-1.056-0.708-0.552 0-0.923 0.372-0.923 0.888 0 0.781 0.804 0.852 1.907 1.272z"></path>
<path fill="#fff" style="fill: var(--color2, #fff)" d="M25.756 11.336h5.157v1.271h-1.907v7.124h-1.343v-7.124h-1.907v-1.271z"></path>
<path fill="#fff" style="fill: var(--color2, #fff)" d="M35.438 19.803c-2.375 0-4.15-1.906-4.15-4.269s1.775-4.27 4.15-4.27c2.375 0 4.149 1.907 4.149 4.27s-1.775 4.269-4.149 4.269zM35.438 12.535c-1.631 0-2.783 1.319-2.783 2.999s1.151 2.999 2.783 2.999c1.631 0 2.782-1.319 2.782-2.999s-1.152-2.999-2.782-2.999z"></path>
<path fill="#fff" style="fill: var(--color2, #fff)" d="M40.684 11.336h1.343v7.124h3.994v1.271h-5.337v-8.395z"></path>
<path fill="#fff" style="fill: var(--color2, #fff)" d="M54.289 18.532c1.631 0 2.783-1.271 2.783-2.999h1.367c0 2.363-1.775 4.269-4.15 4.269s-4.149-1.906-4.149-4.269 1.775-4.27 4.149-4.27c1.355 0 2.435 0.612 3.19 1.535l-0.936 0.936c-0.504-0.732-1.235-1.2-2.255-1.2-1.631 0-2.782 1.319-2.782 2.999s1.152 2.999 2.783 2.999z"></path>
<path fill="#fff" style="fill: var(--color2, #fff)" d="M63.494 19.803c-2.374 0-4.149-1.906-4.149-4.269s1.775-4.27 4.149-4.27c2.375 0 4.15 1.907 4.15 4.27s-1.775 4.269-4.15 4.269zM63.494 12.535c-1.631 0-2.782 1.319-2.782 2.999s1.151 2.999 2.782 2.999 2.783-1.319 2.783-2.999-1.152-2.999-2.783-2.999z"></path>
<path fill="#fff" style="fill: var(--color2, #fff)" d="M68.909 11.336h1.487l2.662 6.477 2.662-6.477h1.487v8.396h-1.343v-5.325l-2.207 5.325h-1.199l-2.207-5.325v5.325h-1.343v-8.396z"></path>
<path fill="#fff" style="fill: var(--color2, #fff)" d="M78.82 11.336h5.265v1.271h-3.922v2.255h1.907v1.271h-1.907v2.327h3.994v1.271h-5.337v-8.395z"></path>
<path fill="#fff" style="fill: var(--color2, #fff)" d="M87.782 11.336c2.399 0 4.138 1.607 4.138 4.198s-1.738 4.198-4.138 4.198h-2.458v-8.396h2.458zM86.667 12.607v5.853h1.151c1.523 0 2.734-1.044 2.734-2.926 0-1.883-1.211-2.926-2.734-2.926h-1.151z"></path>
<path fill="#fff" style="fill: var(--color2, #fff)" d="M93.496 11.336l1.547 3.43 1.547-3.43h1.415l-2.29 4.797v3.598h-1.344v-3.598l-2.291-4.797h1.416z"></path>
<path fill="#fff" style="fill: var(--color2, #fff)" d="M108.876 18.592c-0.659 0.816-1.655 1.211-2.723 1.211-2.374 0-4.149-1.906-4.149-4.269s1.775-4.27 4.149-4.27c1.355 0 2.435 0.612 3.19 1.535l-0.936 0.936c-0.504-0.732-1.235-1.2-2.255-1.2-1.631 0-2.782 1.319-2.782 2.999s1.151 2.999 2.782 2.999c1.464 0 2.471-0.948 2.723-2.399h-2.771v-1.271h4.018v4.869h-1.247v-1.14z"></path>
<path fill="#fff" style="fill: var(--color2, #fff)" d="M117.049 19.731l-0.504-1.38h-3.741l-0.504 1.38h-1.403l3.106-8.396h1.343l3.106 8.396h-1.403zM113.247 17.081h2.854l-1.428-3.946-1.426 3.946z"></path>
<path fill="#fff" style="fill: var(--color2, #fff)" d="M121.826 11.336c1.332 0 2.411 0.864 2.411 2.399 0 1.343-0.876 2.146-1.907 2.351l1.907 3.646h-1.535l-1.799-3.598h-0.192v3.598h-1.343v-8.396h2.458zM120.711 14.862h1.128c0.719 0 1.079-0.48 1.079-1.127s-0.36-1.127-1.079-1.127h-1.128v2.254z"></path>
<path fill="#fff" style="fill: var(--color2, #fff)" d="M127.934 11.336c2.399 0 4.138 1.607 4.138 4.198s-1.738 4.198-4.138 4.198h-2.458v-8.396h2.458zM126.818 12.607v5.853h1.151c1.523 0 2.734-1.044 2.734-2.926 0-1.883-1.211-2.926-2.734-2.926h-1.151z"></path>
<path fill="#fff" style="fill: var(--color2, #fff)" d="M133.168 11.336h5.265v1.271h-3.922v2.255h1.907v1.271h-1.907v2.327h3.994v1.271h-5.337v-8.395z"></path>
<path fill="#fff" style="fill: var(--color2, #fff)" d="M139.672 11.336h1.486l2.699 5.781v-5.781h1.343v8.396h-1.487l-2.698-5.781v5.781h-1.343v-8.396z"></path>
</symbol>
<symbol id="icon-flag" viewBox="0 0 32 32">
<title>flag</title>
<path d="M21.64 9.812c-0.015-0.567-0.613-0.867-1.172-0.761-0.34 0.064-0.775 0.113-1.046-0.042-0.598-0.341-1.213-0.735-1.655-1.25-1.677-1.956-2.791-1.755-5.032-1.099-0.2 0.059-0.447 0.438-0.437 0.657 0.055 1.214 0.182 2.424 0.285 3.636 0.020 0.369 0.056 0.739 0.056 1.108 0 1.425-0.008 2.85-0.022 4.275-0.018 1.959-0.044 8.964-0.067 10.925 0.050 0.078 0.088 0.168 0.154 0.226 0.157 0.138 0.327 0.26 0.492 0.388 0.131-0.187 0.299-0.359 0.382-0.566 0.082-0.203 0.077-0.441 0.11-0.663-0.004-2.669-0.007-10.386-0.011-13.055 0.659-0.399 1.358-0.775 2.112-0.353 0.879 0.492 1.726 1.052 2.543 1.643 0.726 0.524 2.333 0.587 3.009 0.008 0.156-0.134 0.301-0.381 0.304-0.578 0.024-1.499 0.035-3-0.005-4.499z"></path>
<path d="M12.85 5.923c0.533-0.070 0.821-0.397 0.824-0.801-0.010-0.657-0.38-1.005-0.902-0.996-0.479 0.008-0.902 0.431-0.889 0.889 0.014 0.482 0.503 0.969 0.967 0.908z"></path>
</symbol>
<symbol id="icon-icon-rev" viewBox="0 0 32 32">
<title>icon-rev</title>
<path d="M19.128 23.173c-0.147-0.154-0.315-0.293-0.436-0.466-0.269-0.386-0.514-0.789-0.768-1.185-0.629-1.133-1.17-2.304-1.515-3.558-0.057-0.207-0.152-0.403-0.229-0.604-0.062-0.245-0.118-0.491-0.189-0.732-0.018-0.062-0.086-0.109-0.132-0.163-0.046 0.049-0.11 0.091-0.136 0.15-0.18 0.402-0.35 0.807-0.528 1.21-0.040 0.091-0.095 0.174-0.143 0.261-0.165 0.379-0.326 0.761-0.497 1.139-0.238 0.525-0.462 1.058-0.731 1.566-0.247 0.466-0.546 0.905-0.823 1.356-0.148 0.468-0.434 0.837-0.811 1.141-0.050 0.062-0.1 0.125-0.151 0.188-0.016 0.014-0.032 0.027-0.047 0.041-0.014 0.002-0.027 0.006-0.039 0.013l0.001-0.005c-0.21 0.268-0.42 0.536-0.63 0.805-0.089 0.11-0.179 0.22-0.262 0.323 3.238 0 6.483 0 9.813 0-0.211-0.148-0.359-0.253-0.508-0.357-0.518-0.26-0.837-0.737-1.239-1.123z"></path>
<path d="M24.527 24.296c-0.458-0.519-0.859-1.075-1.080-1.741l0.006 0.003c-0.013-0.017-0.025-0.033-0.038-0.050-0.31-0.664-0.626-1.325-0.927-1.992-0.184-0.408-0.358-0.822-0.515-1.241-0.223-0.596-0.427-1.2-0.639-1.8-0.017-0.060-0.034-0.121-0.051-0.181l0.004 0.006c-0.050-0.074-0.124-0.143-0.144-0.225-0.054-0.222-0.11-0.397-0.351-0.531-0.24-0.133-0.43-0.073-0.646-0.026-0.083 0.018-0.165 0.073-0.244 0.067-0.105-0.008-0.234-0.030-0.306-0.097-0.2-0.185-0.474-0.223-0.66-0.057-0.293 0.26-0.306 0.259-0.578-0.041-0.094-0.016-0.188-0.031-0.282-0.047-0.057 0.027-0.124 0.042-0.17 0.082-0.325 0.288-0.324 0.29-0.598-0.078-0.103 0.001-0.206 0.001-0.309 0.002-0.3 0.302-0.3 0.302-0.058 0.65 0.069 0.099 0.139 0.197 0.209 0.295 0.013 0.005 0.026 0.011 0.039 0.018l0.017 0.016c0.263 0.199 0.508 0.429 0.792 0.589 0.485 0.273 1.007 0.481 1.488 0.761 0.206 0.12 0.524 0.163 0.55 0.499-0.002 0.113 0 0.226-0.006 0.338-0.019 0.401-0.041 0.801-0.062 1.202 0.058 0.352 0.116 0.704 0.175 1.057 0.161 0.297 0.325 0.594 0.283 0.951 0.11 0.27 0.219 0.541 0.329 0.811 0.042 0.103 0.084 0.206 0.126 0.309 0.096 0.117 0.195 0.232 0.288 0.351 0.253 0.326 0.557 0.495 0.997 0.472 0.672-0.036 1.348-0.010 2.022-0.009 0.094 0 0.188 0.016 0.283 0.018 0.086 0.002 0.172-0.005 0.258-0.007-0.028-0.084-0.049-0.172-0.087-0.251-0.024-0.047-0.077-0.081-0.115-0.123z"></path>
<path d="M10.93 19.466c0.463-0.207 0.926-0.413 1.39-0.62 0.137-0.063 0.275-0.127 0.412-0.19 0.251-0.182 0.502-0.364 0.753-0.546 0.459-0.371 0.931-0.727 1.367-1.123 0.126-0.115 0.156-0.345 0.202-0.528 0.005-0.020-0.175-0.087-0.269-0.131-0.27 0.126-0.521 0.381-0.848 0.128-0.156 0.012-0.317 0.005-0.468 0.039-0.265 0.060-0.523 0.108-0.766-0.063-0.136 0.070-0.272 0.14-0.478 0.245-0.167-0.074-0.407-0.181-0.648-0.288-0.076 0.001-0.152 0.001-0.227 0.002-0.092 0.167-0.168 0.345-0.41 0.344-0.055 0-0.111 0.074-0.166 0.114-0.031 0.128-0.048 0.263-0.095 0.385-0.169 0.434-0.348 0.863-0.524 1.295-0.026 0.203-0.029 0.412-0.084 0.606-0.093 0.327-0.149 0.701-0.35 0.95-0.193 0.239-0.32 0.492-0.438 0.757-0.47 1.063-0.887 2.152-1.637 3.068-0.166 0.203-0.265 0.462-0.426 0.751 0.993 0 1.895 0 2.796 0 0.456 0 0.478-0.029 0.586-0.469 0.080-0.325 0.191-0.643 0.288-0.964 0.011-0.33 0.023-0.659 0.034-0.989-0.133-0.777-0.272-1.554-0.389-2.333-0.015-0.1 0.084-0.217 0.129-0.326 0.090-0.038 0.178-0.076 0.266-0.114z"></path>
<path d="M24.152 12.155c0.512 0.127 1.015 0.288 1.529 0.404 0.356 0.081 0.722 0.123 1.086 0.155 0.178 0.016 0.293-0.078 0.295-0.294 0.004-0.425 0.033-0.849 0.052-1.274 0.011-0.254 0.044-0.51 0.025-0.762-0.017-0.226-0.075-0.464-0.406-0.283-0.042 0.023-0.115 0.007-0.167-0.011-0.397-0.144-0.805-0.268-1.185-0.449-0.442-0.209-0.866-0.386-1.38-0.299-0.488 0.082-0.615 0.214-0.569 0.692 0.044 0.461 0.049 0.926 0.072 1.391 0.021 0.161 0.047 0.32 0.062 0.48 0.009 0.092 0.031 0.168 0.076 0.22s0.115 0.079 0.219 0.073c0.098-0.016 0.203-0.065 0.291-0.043z"></path>
<path d="M6.664 16.487c-0.281 0.269-0.505 0.126-0.755-0.006-0.159-0.003-0.293-0.005-0.452-0.008-0.157 0.076-0.314 0.152-0.447 0.215-0.122-0.035-0.239-0.070-0.357-0.104-0.029 0.122-0.161 0.131-0.168 0.254-0.012 0.227-0.174 0.582-0.178 0.809 0 0.019-0.002 0.038-0.002 0.057-0.016-0.001-0.032-0.002-0.048-0.003-0.026 0.126-0.064 0.251-0.077 0.378-0.036 0.358-0.016 0.729-0.1 1.074-0.289 1.185-0.535 2.376-0.667 3.59-0.059 0.542-0.184 1.077-0.266 1.617-0.015 0.097 0.039 0.205 0.059 0.299 0.339 0 0.634 0.007 0.928-0.005 0.078-0.003 0.153-0.066 0.229-0.101 0-0.529 0-1.058 0-1.587 0-0.278 0-0.556 0-0.835 0.256-0.464 0.615-1.141 0.652-1.172 0.405-0.706 0.801-1.417 1.218-2.117 0.392-0.658 0.817-1.298 1.020-2.049-0.068-0.254-0.424-0.464-0.589-0.306z"></path>
<path d="M28.795 24.438c-0.364-0.569-0.432-1.231-0.592-1.861-0.169-0.666-0.309-1.341-0.438-2.016-0.088-0.463-0.136-0.934-0.202-1.402-0.131-0.372-0.102-0.791-0.322-1.141-0.009 0.034-0.010 0.065-0.015 0.098-0.062-0.322-0.142-0.633-0.249-0.978-0.003-0.295-0.567-0.703-0.853-0.634-0.036 0.009-0.081 0.021-0.101 0.047-0.244 0.335-0.444 0.134-0.646-0.049-0.033-0.012-0.066-0.023-0.099-0.035-0.118-0.013-0.297-0.079-0.341-0.028-0.16 0.183-0.309 0.119-0.485 0.060-0.086-0.029-0.189-0.009-0.285-0.011 0.009 0.099-0.010 0.211 0.030 0.295 0.319 0.674 0.677 1.331 0.966 2.017 0.299 0.707 0.58 1.415 1.103 1.996 0.033 0.037 0.034 0.101 0.050 0.153l-0.004-0.005c0.021 0.032 0.042 0.064 0.063 0.096 0.685 0.685 0.771 2.115 0.857 2.802-0.029 0.082-0.067 0.163-0.093 0.244-0.008 0.104-0.017 0.208-0.025 0.312 0.031 0.033 0.088 0.065 0.088 0.099 0.006 0.25 0.151 0.299 0.369 0.304 0.43 0.010 0.861 0.071 1.283-0.064-0.017-0.101-0.008-0.219-0.059-0.299z"></path>
<path d="M15.632 11.498l0.001 0.003v0.001z"></path>
<path d="M15.633 11.501c-0.226-0.085-0.248 0.090-0.289 0.233-0.21 0.732-0.6 1.377-1.083 1.944-0.412 0.483-0.927 0.879-1.396 1.314-0.006 0.15 0.023 0.253 0.217 0.245 0.755-0.032 1.51-0.054 2.265-0.077 0.245-0.007 0.34-0.128 0.294-0.366 0.007-1.004 0.016-2.008 0.021-3.012 0-0.094-0.019-0.187-0.029-0.281z"></path>
<path d="M4.593 11.515c0 0.581-0.003 1.163-0.009 1.744-0.007 0.799-0.018 1.598-0.027 2.397 0.020 0.032 0.036 0.069 0.063 0.092 0.064 0.056 0.134 0.106 0.201 0.158 0.053-0.076 0.122-0.147 0.156-0.231s0.031-0.18 0.045-0.271c-0.001-1.089-0.003-2.178-0.004-3.267 0.269-0.163 0.554-0.316 0.862-0.144 0.359 0.201 0.704 0.429 1.037 0.67 0.296 0.214 0.952 0.24 1.227 0.003 0.064-0.055 0.123-0.155 0.124-0.236 0.009-0.612 0.014-1.224-0.002-1.835-0.006-0.231-0.25-0.354-0.478-0.31-0.139 0.026-0.316 0.046-0.427-0.017-0.244-0.139-0.495-0.3-0.675-0.51-0.684-0.798-1.138-0.716-2.053-0.448-0.083 0.026-0.183 0.18-0.179 0.27 0.022 0.495 0.074 0.989 0.116 1.483 0.008 0.151 0.023 0.301 0.023 0.452z"></path>
<path d="M3.94 18.198l-0.012 0.005 0.004 0.004z"></path>
<path d="M14.719 3.051c0.030 0.429 0.35 0.655 0.68 0.844 0.209 0.12 0.265 0.244 0.258 0.457-0.010 0.316-0.003 0.633-0.003 0.961 0.004 0 0.006 0 0.010 0-0.006 0.512 0.052 2.622 0.057 2.89 0.002 0.099 0.010 0.165 0.029 0.209-0.010 0.022-0.016 0.049-0.014 0.086 0.012 0.217-0.044 2.337-0.049 2.746 0.074 0.078 0.309 0.221 0.451-0.053 0.007-0.013 0.013-0.025 0.019-0.040 0.054 0.135 0.107 0.269 0.16 0.403 0.348 0.514 0.724 1.011 1.036 1.546 0.329 0.564 0.829 0.938 1.31 1.341 0.061 0.051 0.111 0.116 0.167 0.174 0.021 0.015 0.042 0.031 0.063 0.046 0.069 0.044 0.138 0.088 0.207 0.132 0.196 0.089 0.393 0.177 0.589 0.266 0.084 0.026 0.166 0.070 0.251 0.074 0.439 0.022 0.878 0.041 1.317 0.047 0.587 0.009 1.175 0.006 1.762 0.008 0.181 0.037 0.446-0.117 0.498 0.216 0.101-0.003 0.203-0.007 0.304-0.010 0.019-0.030 0.034-0.083 0.058-0.088 0.294-0.060 0.269-0.156 0.047-0.299-0.043-0.027-0.073-0.108-0.073-0.164-0.002-0.882 0.003-1.763 0.006-2.645-0.104 0.006-0.173-0.021-0.219-0.073s-0.068-0.128-0.076-0.22c-0.015-0.16-0.041-0.319-0.062-0.48 0 1.154 0 2.309 0 3.511-0.336-0.105-0.59-0.175-0.838-0.264-0.782-0.283-1.612-0.484-2.329-0.885-0.892-0.499-1.696-1.158-2.527-1.764-0.404-0.295-0.774-0.635-1.173-0.937-0.164-0.124-0.301-0.206-0.396-0.312-0.093-0.103-0.146-0.228-0.149-0.436-0.004-0.365 0.112-0.375 0.455-0.5 0.337-0.122 2.006-0.619 2.164-0.671 0.273-0.053 0.212-0.145 0.1-0.206-0.019-0.010-1.986-0.553-2.59-0.606 0.935-0.324 4.821-1.375 5.263-1.627 0.138-0.079 0.184-0.285-0.104-0.329-0.513-0.078-4.151-1.166-5.365-1.229 0-0.363 0-0.726 0-1.080 0.153-0.061 0.278-0.102 0.395-0.159 0.276-0.134 0.449-0.415 0.512-0.721 0.218-0.264 0.34-0.607 0.384-0.962 0.028-0.229-0.052-0.622-0.175-0.714-0.149-0.112-0.358-0.066-0.431 0.022-0.141 0.171-0.216 0.364-0.379 0.357-0.139-0.006-0.131-0.231-0.141-0.312-0.026-0.212-0.223-0.453-0.446-0.424-0.194 0.026-0.346 0.248-0.388 0.44-0.021 0.097-0.035 0.226-0.132 0.248-0.027 0.006-0.055 0.001-0.081-0.007-0.122-0.036-0.134-0.125-0.235-0.201s-0.23-0.141-0.352-0.105c-0.115 0.034-0.189 0.153-0.204 0.272s-0.034 0.283 0.010 0.469c0.075 0.302 0.189 0.536 0.369 0.758z"></path>
<path d="M15.165 11.087c-0.344 0.181-1.629 2.624-8.434 3.964-0.145 0.253 1.285 0.471 2.643 0.253 0.432-0.069 2.136-0.018 2.661-0.525s3.384-2.872 3.13-3.692z"></path>
<path d="M18.833 14.615l-0.001-0.001-0.003-0.002z"></path>
</symbol>
<symbol id="icon-arrow-left" viewBox="0 0 32 32">
<title>arrow-left</title>
<path d="M29.333 15.167h-23.475l4.658-4.658-1.183-1.175-6.667 6.667 6.667 6.667 1.175-1.175-4.65-4.658h23.475v-1.667z"></path>
</symbol>
<symbol id="icon-arrow-right" viewBox="0 0 32 32">
<title>arrow-right</title>
<path d="M2.667 16.833h23.475l-4.658 4.658 1.183 1.175 6.667-6.667-6.667-6.667-1.175 1.175 4.65 4.658h-23.475v1.667z"></path>
</symbol>
<symbol id="icon-b24" viewBox="0 0 32 32">
<title>b24</title>
<path d="M3 21h25.932v-10h-25.932v10zM8.624 17.434c0 1.078-0.753 2.237-2.423 2.237h-1.88v-7.35h1.88c1.029 0 1.613 0.446 1.913 0.811 0.324 0.389 0.511 0.916 0.511 1.434 0 0.502-0.162 1.021-0.511 1.434 0.324 0.389 0.511 0.916 0.511 1.434h-0.001zM13.948 19.671h-4.659c0-1.953 0.575-3.169 1.856-4.101 0.786-0.567 1.086-0.956 1.086-1.321 0-0.332-0.251-0.518-0.518-0.518-0.211 0-0.527 0.186-0.624 0.599l-1.508-0.576c0.357-0.948 1.199-1.564 2.132-1.564 1.159 0 2.099 0.924 2.099 2.058 0 1.313-1.078 2.018-1.718 2.48-0.462 0.332-0.818 0.77-1.021 1.474h2.877v1.467zM19.329 18.204h-0.494v1.467h-1.613v-1.467h-2.553v-1.467l2.553-4.416h1.613v4.416h0.494v1.467zM20.828 19.663h-0.851l2.156-7.342h0.851l-2.156 7.342zM27.611 13.796h-0.008c-1.102 2.010-1.532 2.877-1.532 5.867h-1.613c0-2.861 0.591-4.101 1.539-5.867h-2.318v-1.474h3.931v1.474zM17.222 15.108v1.629h-0.94l0.94-1.629zM7.012 17.459v0.024c-0.008 0.406-0.267 0.713-0.794 0.721h-0.283v-1.467h0.283c0.527 0 0.786 0.316 0.794 0.721v0.001zM7.012 14.517v0.024c-0.008 0.405-0.267 0.721-0.794 0.721h-0.283v-1.467h0.283c0.527 0.008 0.786 0.316 0.794 0.721v0z"></path>
</symbol>
<symbol id="icon-bristol-city-council" viewBox="0 0 32 32">
<title>bristol-city-council</title>
<path d="M15.892 9.535c-3.566 0-6.467 2.901-6.467 6.467s2.901 6.467 6.467 6.467c3.566 0 6.467-2.901 6.467-6.467s-2.902-6.467-6.467-6.467v0zM20.44 16.142c0.020 0.027 0.003 0.074-0.037 0.102-0.041 0.029-0.090 0.032-0.109 0.004s-0.003-0.073 0.038-0.102 0.089-0.031 0.109-0.004v0zM20.346 16.005c0.020 0.028 0.003 0.073-0.038 0.103s-0.090 0.031-0.11 0.004c-0.019-0.027-0.002-0.074 0.038-0.103s0.089-0.031 0.109-0.004v0zM20.252 15.868c0.020 0.027 0.003 0.074-0.038 0.103s-0.089 0.031-0.109 0.003c-0.020-0.027-0.003-0.073 0.038-0.102s0.089-0.032 0.109-0.004v0zM20.12 15.834c-0.042 0.030-0.090 0.032-0.109 0.004s-0.004-0.073 0.037-0.102c0.041-0.030 0.089-0.032 0.109-0.004s0.003 0.074-0.037 0.102v0zM19.652 18.473l-0.030-0.030c-0.091-0.084-0.19-0.173-0.296-0.261l-0.017-0.014-0.022-0.018c1.042-0.231 1.624-0.623 1.632-0.629l0.028 0.026-0.285 0.516c-0.329 0.165-0.666 0.301-1.011 0.409v0.001zM20.572 18.229l-0.036 0.057c0 0-0.175 0.278-0.409 0.612l-0.023-0.002-0.043-0.004-0.013-0.014-0.275-0.287-0.016-0.016c0.199-0.071 0.442-0.169 0.753-0.317l0.061-0.029zM19.511 18.477l0.017 0.016 0.016 0.015 0.125 0.119 0.016 0.016 0.229 0.236 0.013 0.014 0.007 0.007 0.014 0.016 0.151 0.172 0.003 0.003v0.001l0.011 0.013c-0.092 0.059-0.348 0.187-0.771 0.142l-0.004-0.007-0.003-0.003-0.002-0.003-0.086-0.128-0.010-0.015-0.003-0.003-0.010-0.015-0.178-0.254-0.025-0.035-0.093-0.128-0.012-0.016-0.014-0.019-0.245-0.321-0.014-0.018-0.016-0.020-0.107-0.131-0.016-0.018-0.015-0.018c-0.111-0.133-0.224-0.257-0.331-0.361l-0.018-0.017-0.019-0.018c-0.078-0.074-0.154-0.137-0.222-0.182 0.027-0.011 0.107-0.011 0.186 0.004 0.109 0.046 0.214 0.097 0.317 0.152l0.033 0.017 0.028 0.015c0.176 0.098 0.342 0.207 0.498 0.321l0.021 0.016 0.020 0.015 0.18 0.139 0.018 0.016c0.113 0.089 0.216 0.179 0.31 0.267l0.001-0.001zM13.363 14.99l0.265-0.018c0.019 2.411 0.952 3.817 0.962 3.832l0.026 0.039-0.249-0.048c-1.117-1.638-1.005-3.782-1.004-3.804h0.001zM15.111 16.377c0.043 0.026 0.064 0.070 0.046 0.099s-0.066 0.032-0.109 0.006c-0.043-0.026-0.064-0.071-0.046-0.099 0.017-0.029 0.066-0.032 0.109-0.006v0zM15.094 16.25c0.017-0.028 0.066-0.031 0.109-0.006s0.064 0.070 0.046 0.099c-0.017 0.029-0.066 0.031-0.109 0.006s-0.063-0.071-0.046-0.099v0zM15.019 16.51c0.042 0.026 0.064 0.070 0.046 0.099s-0.066 0.031-0.109 0.006c-0.042-0.026-0.064-0.070-0.046-0.099s0.066-0.031 0.109-0.006v0zM14.389 16.676c-0.040-0.030-0.056-0.076-0.036-0.103s0.069-0.024 0.109 0.006 0.056 0.076 0.036 0.104c-0.020 0.026-0.069 0.023-0.109-0.007v0zM14.393 16.805c-0.020 0.027-0.069 0.024-0.109-0.006s-0.056-0.076-0.036-0.103c0.020-0.027 0.068-0.024 0.108 0.006s0.056 0.076 0.036 0.103v0zM14.494 16.554c-0.040-0.031-0.057-0.076-0.036-0.103 0.020-0.027 0.068-0.024 0.109 0.006 0.040 0.031 0.056 0.077 0.036 0.104s-0.068 0.024-0.109-0.006v0zM14.599 16.43c-0.040-0.030-0.056-0.076-0.036-0.103s0.069-0.024 0.109 0.006c0.040 0.030 0.056 0.076 0.036 0.103s-0.069 0.024-0.109-0.007v0zM14.635 16.914c0.017-0.029 0.066-0.031 0.109-0.006 0.042 0.026 0.064 0.070 0.046 0.099s-0.066 0.031-0.109 0.006c-0.043-0.026-0.064-0.071-0.046-0.099v0zM14.773 16.88c-0.043-0.026-0.064-0.070-0.047-0.098 0.018-0.029 0.066-0.032 0.109-0.006s0.064 0.070 0.046 0.099c-0.017 0.029-0.066 0.032-0.109 0.005v0zM14.865 16.748c-0.043-0.026-0.064-0.070-0.046-0.099s0.066-0.031 0.109-0.006c0.043 0.026 0.063 0.070 0.046 0.099-0.018 0.028-0.066 0.031-0.109 0.005v0zM14.919 16.192c-0.020 0.027-0.069 0.024-0.109-0.006s-0.056-0.076-0.036-0.103 0.069-0.024 0.109 0.006c0.040 0.029 0.056 0.076 0.036 0.103v0zM14.778 16.212c0.040 0.030 0.056 0.076 0.036 0.103s-0.069 0.024-0.109-0.006c-0.040-0.030-0.056-0.076-0.036-0.103s0.069-0.023 0.109 0.007v0zM14.744 15.795c-0.022 0.026-0.070 0.022-0.109-0.010s-0.053-0.078-0.032-0.105c0.021-0.026 0.070-0.022 0.108 0.009s0.053 0.079 0.032 0.105v0.001zM14.602 15.809c0.039 0.031 0.053 0.078 0.033 0.104s-0.070 0.022-0.109-0.009c-0.039-0.032-0.053-0.078-0.032-0.105 0.021-0.026 0.069-0.021 0.108 0.010v0zM14.493 15.929c0.039 0.031 0.053 0.078 0.033 0.104s-0.070 0.022-0.109-0.010c-0.039-0.031-0.053-0.078-0.032-0.104s0.070-0.022 0.108 0.010v0zM14.384 16.048c0.038 0.031 0.053 0.078 0.032 0.104s-0.070 0.022-0.109-0.010c-0.038-0.032-0.053-0.078-0.032-0.104 0.020-0.026 0.069-0.022 0.108 0.010v0zM14.274 16.166c0.038 0.032 0.053 0.078 0.032 0.104s-0.070 0.022-0.108-0.010c-0.039-0.031-0.053-0.078-0.032-0.104s0.069-0.022 0.108 0.010v0zM14.165 16.285c0.039 0.032 0.053 0.078 0.032 0.105s-0.070 0.022-0.108-0.010c-0.039-0.032-0.053-0.078-0.032-0.105 0.020-0.025 0.069-0.022 0.108 0.010v0zM14.055 16.404c0.039 0.032 0.053 0.078 0.032 0.104s-0.070 0.022-0.109-0.009c-0.039-0.031-0.053-0.078-0.033-0.104 0.022-0.026 0.071-0.022 0.109 0.009v0zM13.937 16.766c1.258 0.629 2.512 0.949 3.726 0.949l0.32-0.009 0.023 0.019 0.022 0.019c0.108 0.098 0.225 0.224 0.343 0.361l0.017 0.020 0.014 0.016c-0.246 0.025-0.494 0.041-0.746 0.041-2.021 0-3.556-0.818-3.572-0.827l-0.186-0.609 0.039 0.021h-0.001zM17.414 17.248l-0.271-0.388 0.074-3.019 0.31-0.387 0.003 0.051c0.064 1.285 0.094 2.853 0.081 4.093v0.019l-0.019-0.001c-0.241-0.004-0.434-0.030-0.442-0.032-0.017-0.028-0.007-0.282-0.007-0.282l0.29 0.003v-0.004l-0.019-0.053zM19.647 15.149c-0.041 0.029-0.090 0.031-0.109 0.004s-0.003-0.074 0.038-0.103c0.041-0.029 0.089-0.032 0.109-0.004s0.003 0.074-0.037 0.102v0zM19.778 15.184c0.019 0.028 0.003 0.074-0.037 0.103s-0.090 0.031-0.109 0.004c-0.019-0.028-0.003-0.073 0.037-0.103 0.042-0.029 0.091-0.031 0.109-0.004v0zM19.552 15.013c-0.041 0.029-0.090 0.031-0.109 0.004s-0.003-0.073 0.037-0.103c0.042-0.029 0.089-0.031 0.109-0.004s0.003 0.073-0.037 0.103v0zM19.457 14.876c-0.041 0.029-0.090 0.032-0.109 0.004-0.019-0.027-0.003-0.073 0.038-0.102s0.090-0.031 0.109-0.004c0.020 0.027 0.003 0.073-0.037 0.103v0zM19.363 14.739c-0.041 0.030-0.090 0.031-0.109 0.004s-0.003-0.073 0.038-0.102c0.041-0.030 0.089-0.032 0.109-0.004s0.003 0.073-0.037 0.102v0zM19.268 14.602c-0.041 0.029-0.090 0.031-0.109 0.004s-0.003-0.073 0.037-0.103 0.090-0.031 0.109-0.004c0.019 0.028 0.003 0.074-0.038 0.103v0zM19.173 14.465c-0.041 0.029-0.090 0.031-0.109 0.004s-0.003-0.073 0.038-0.103 0.089-0.031 0.109-0.004c0.020 0.027 0.004 0.073-0.038 0.103v0zM19.079 14.328c-0.041 0.030-0.090 0.031-0.109 0.004s-0.003-0.074 0.037-0.103c0.041-0.030 0.090-0.031 0.109-0.004s0.003 0.074-0.037 0.103v0zM18.985 14.191c-0.041 0.030-0.089 0.031-0.109 0.004-0.019-0.028-0.003-0.073 0.037-0.103s0.090-0.031 0.109-0.004c0.019 0.028 0.003 0.073-0.037 0.103v0zM18.89 14.055c-0.041 0.029-0.090 0.031-0.109 0.003-0.020-0.027-0.003-0.073 0.037-0.102s0.089-0.031 0.109-0.004c0.019 0.027 0.003 0.074-0.037 0.103v0zM18.795 13.918c-0.041 0.029-0.089 0.031-0.109 0.004-0.019-0.028-0.003-0.074 0.037-0.103s0.089-0.031 0.109-0.004c0.020 0.028 0.003 0.074-0.037 0.103v0zM18.701 13.781c-0.041 0.029-0.090 0.031-0.109 0.004s-0.003-0.073 0.037-0.103c0.041-0.030 0.089-0.031 0.109-0.004s0.003 0.073-0.037 0.103v0zM18.048 13.562c0.046-0.020 0.093-0.013 0.107 0.016s-0.011 0.068-0.056 0.088-0.093 0.013-0.107-0.016c-0.013-0.029 0.011-0.068 0.056-0.088v0zM17.922 13.495c-0.014-0.029 0.011-0.068 0.056-0.088s0.093-0.013 0.107 0.016c0.014 0.029-0.011 0.069-0.056 0.088-0.044 0.021-0.093 0.013-0.106-0.016v0zM18.12 13.716c0.045-0.020 0.092-0.013 0.107 0.016s-0.011 0.068-0.056 0.088c-0.045 0.019-0.093 0.013-0.107-0.017-0.014-0.028 0.011-0.068 0.056-0.088v0zM18.191 13.871c0.045-0.020 0.093-0.013 0.107 0.016s-0.011 0.068-0.056 0.088-0.093 0.013-0.107-0.016c-0.014-0.029 0.011-0.068 0.056-0.088v0zM18.262 14.026c0.045-0.020 0.093-0.013 0.107 0.016s-0.011 0.068-0.056 0.088-0.093 0.013-0.107-0.016c-0.015-0.028 0.011-0.068 0.056-0.088v0zM18.333 14.18c0.045-0.020 0.093-0.013 0.107 0.016s-0.012 0.068-0.057 0.088c-0.044 0.020-0.093 0.013-0.107-0.016s0.012-0.068 0.057-0.088v0zM18.405 14.335c0.044-0.020 0.092-0.013 0.107 0.016 0.014 0.028-0.011 0.068-0.056 0.088s-0.093 0.013-0.107-0.016c-0.014-0.029 0.012-0.068 0.057-0.088v0zM18.475 14.49c0.045-0.020 0.093-0.013 0.107 0.016s-0.011 0.068-0.056 0.088-0.093 0.013-0.107-0.016c-0.014-0.029 0.011-0.068 0.056-0.088v0zM18.547 14.644c0.045-0.020 0.093-0.013 0.107 0.017 0.014 0.028-0.011 0.068-0.056 0.088s-0.092 0.013-0.107-0.016c-0.013-0.029 0.012-0.068 0.057-0.089v0zM18.607 13.644c-0.041 0.030-0.090 0.032-0.11 0.004s-0.003-0.073 0.038-0.103c0.041-0.029 0.089-0.032 0.109-0.004s0.003 0.073-0.037 0.102v0zM18.512 13.507c-0.041 0.029-0.090 0.031-0.109 0.004s-0.003-0.073 0.038-0.103c0.041-0.029 0.089-0.031 0.109-0.004s0.003 0.073-0.037 0.103v0zM18.417 13.37c-0.041 0.029-0.089 0.032-0.109 0.005-0.020-0.028-0.003-0.074 0.038-0.103s0.089-0.031 0.109-0.004c0.020 0.028 0.003 0.074-0.038 0.103v0zM18.323 13.233c-0.041 0.030-0.090 0.032-0.109 0.004s-0.003-0.074 0.038-0.103c0.041-0.030 0.089-0.032 0.109-0.004s0.003 0.073-0.038 0.103v0zM18.228 13.097c-0.041 0.030-0.090 0.032-0.109 0.004s-0.004-0.074 0.037-0.103 0.089-0.031 0.109-0.004c0.019 0.028 0.003 0.074-0.038 0.103v0zM18.133 12.959c-0.041 0.029-0.089 0.032-0.109 0.004s-0.003-0.073 0.038-0.102c0.041-0.030 0.090-0.032 0.11-0.004s0.003 0.074-0.038 0.103v0zM17.957 13.356c-0.045 0.020-0.093 0.012-0.107-0.016s0.011-0.069 0.056-0.088 0.093-0.013 0.107 0.016c0.014 0.029-0.011 0.068-0.056 0.088v0zM17.886 13.201c-0.045 0.020-0.093 0.013-0.107-0.016s0.011-0.069 0.056-0.089 0.093-0.013 0.107 0.016c0.014 0.029-0.011 0.068-0.056 0.088v0zM14.704 18.906l-0.021-0.006-0.028-0.099-0.006-0.036 0.033 0.016c0.004 0.002 0.454 0.209 1.359 0.432v0.011l-0.021 0.004c-0.091 0.021-0.194 0.033-0.292 0.020-0.002 0-0.22-0.029-0.436-0.121l-0.072-0.031c-0.104-0.046-0.289-0.126-0.516-0.189v-0.001zM14.632 18.668l-0.259-0.479 0.054 0.026c0.009 0.005 0.983 0.466 2.485 0.674l0.001 0.014-0.015 0.004c-0.129 0.031-0.318 0.093-0.584 0.221l-0.058 0.026-0.031 0.012c-0.208-0.051-1.053-0.263-1.592-0.497v0zM14.334 18.035l-0.193-0.497 0.041 0.017c1.22 0.506 2.421 0.762 3.568 0.762 0.27 0 0.523-0.016 0.762-0.040l0.028 0.036 0.268 0.348 0.013 0.018c-0.392 0.069-0.792 0.104-1.2 0.104-1.871 0-3.273-0.739-3.287-0.747v0zM17.586 18.939c0.009-0.001 0.844-0.054 1.327-0.136l0.013 0.017 0.012 0.017 0.191 0.271 0.008 0.012-0.095 0.038-0.023 0.010-0.134 0.046c-0.080 0.022-0.185 0.042-0.303 0.043l-0.029-0.002-0.162-0.014-0.011-0.002-0.174-0.050-0.621-0.239v-0.012h0.001zM18.618 14.799c0.044-0.020 0.093-0.013 0.107 0.016s-0.012 0.068-0.056 0.088-0.093 0.012-0.107-0.016c-0.014-0.029 0.011-0.068 0.056-0.088v0zM18.689 14.954c0.044-0.020 0.093-0.013 0.107 0.016s-0.011 0.068-0.056 0.088-0.093 0.013-0.107-0.016c-0.013-0.029 0.012-0.068 0.057-0.088v0zM18.76 15.109c0.045-0.020 0.092-0.013 0.107 0.016s-0.011 0.068-0.056 0.088c-0.045 0.020-0.093 0.012-0.107-0.016s0.011-0.068 0.056-0.088v0zM18.832 15.264c0.044-0.020 0.093-0.013 0.106 0.016s-0.011 0.068-0.056 0.088-0.093 0.013-0.107-0.016c-0.014-0.029 0.011-0.069 0.056-0.088v0zM18.903 15.419c0.045-0.020 0.093-0.013 0.107 0.016s-0.011 0.069-0.056 0.089-0.093 0.012-0.107-0.016c-0.015-0.029 0.011-0.068 0.056-0.088v0zM18.974 15.574c0.045-0.020 0.093-0.013 0.107 0.016s-0.012 0.068-0.056 0.088c-0.045 0.020-0.093 0.012-0.107-0.016s0.011-0.068 0.056-0.088v0zM19.045 15.729c0.044-0.020 0.093-0.013 0.107 0.016s-0.011 0.068-0.056 0.088-0.093 0.012-0.107-0.016c-0.014-0.029 0.011-0.069 0.056-0.088v0zM19.116 15.883c0.045-0.020 0.092-0.013 0.107 0.016s-0.011 0.068-0.056 0.088-0.093 0.013-0.107-0.016c-0.014-0.028 0.011-0.068 0.056-0.088v0zM19.187 16.038c0.044-0.020 0.093-0.013 0.107 0.016s-0.011 0.068-0.056 0.089c-0.045 0.020-0.093 0.012-0.107-0.017s0.011-0.068 0.056-0.088v0zM19.258 16.193c0.046-0.020 0.093-0.013 0.108 0.016s-0.012 0.068-0.056 0.088c-0.045 0.020-0.093 0.012-0.107-0.016s0.011-0.068 0.056-0.088v0zM19.33 16.348c0.045-0.020 0.093-0.013 0.107 0.016s-0.011 0.068-0.056 0.088c-0.045 0.019-0.093 0.013-0.107-0.016s0.011-0.068 0.056-0.088v0zM19.401 16.503c0.044-0.020 0.093-0.013 0.107 0.016s-0.011 0.068-0.056 0.088c-0.044 0.020-0.093 0.012-0.107-0.016-0.013-0.029 0.012-0.069 0.057-0.088v0zM19.472 16.658c0.045-0.020 0.093-0.013 0.106 0.016s-0.011 0.068-0.056 0.088-0.093 0.013-0.107-0.016c-0.014-0.028 0.011-0.068 0.056-0.088v0zM19.543 16.813c0.045-0.020 0.093-0.013 0.107 0.016 0.014 0.028-0.011 0.068-0.056 0.088s-0.093 0.013-0.107-0.016c-0.015-0.028 0.011-0.068 0.056-0.088v0zM19.615 16.967c0.044-0.020 0.092-0.013 0.107 0.016 0.014 0.028-0.012 0.068-0.056 0.088s-0.093 0.013-0.107-0.016c-0.014-0.028 0.011-0.068 0.057-0.088v0zM19.685 17.122c0.044-0.020 0.093-0.013 0.107 0.016s-0.011 0.068-0.056 0.088c-0.045 0.020-0.093 0.013-0.107-0.016-0.014-0.028 0.011-0.068 0.056-0.088v0zM19.727 15.428c-0.020-0.027-0.003-0.073 0.037-0.103 0.042-0.030 0.090-0.031 0.109-0.004s0.003 0.073-0.037 0.103c-0.042 0.029-0.090 0.031-0.109 0.004v0zM19.858 15.462c0.041-0.030 0.089-0.032 0.109-0.004s0.003 0.073-0.037 0.102c-0.042 0.029-0.090 0.032-0.109 0.004s-0.004-0.073 0.037-0.102v0zM19.953 15.598c0.041-0.029 0.089-0.031 0.109-0.004s0.003 0.073-0.038 0.103c-0.041 0.029-0.089 0.031-0.109 0.003-0.020-0.027-0.003-0.072 0.037-0.102v0zM20.122 11.492c-0.333 0.149-0.634 0.301-0.909 0.456l-0.047 0.026c-0.132 0.074-0.258 0.149-0.378 0.225l-0.063 0.042-0.253 0.17-0.142 0.103-0.146 0.111-0.147 0.117-0.107 0.093-0.149 0.133-0.023 0.022c-0.198 0.189-0.371 0.383-0.518 0.583l-0.019 0.026-0.134 0.199-0.011 0.016c-0.178 0.288-0.303 0.587-0.376 0.896-0.321 1.369 0.551 2.451 0.561 2.462l0.006 0.007-0.009-0.001c-0.468-0.054-0.881-0.174-1.242-0.354l-0.016-0.007-0.222-0.125-0.036-0.023-0.197-0.137-0.031-0.024c-0.184-0.146-0.348-0.313-0.492-0.502l0.002 0.064c-0.020 0.027-0.069 0.025-0.109-0.006s-0.056-0.076-0.036-0.103c0.020-0.027 0.069-0.024 0.109 0.006l0.014 0.012-0.039-0.052-0.116-0.189-0.028-0.048-0.073-0.022c-0.039-0.031-0.053-0.078-0.032-0.104l0.031-0.011-0.006-0.013c-0.068-0.136-0.126-0.275-0.175-0.417l-0.017-0.047-0.060-0.196-0.021-0.078c-0.032-0.123-0.058-0.246-0.080-0.37l-0.009-0.052-0.025-0.178-0.013-0.106-0.017-0.17-0.005-0.074-0.014-0.337-0.001-0.061c-0.005-0.846 0.147-1.507 0.15-1.519l5.668-0.443zM17.323 10.041l0.098-0.008 0.048 1.575h-0.178l0.032-1.567zM13.262 10.751c0 0 0.364-0.119 0.617 0.167 0.353 0.236 0.353-0.185 0.37-0.353 0.387-1.228 2.945-0.372 2.945-0.372v0.561c0 0-2.709-1.046-2.754 0.352-0.006 0.639-0.461 0.369-0.461 0.369s-0.758-0.606-1.768 0.337c0.387-0.96 1.050-1.060 1.050-1.060v0.001zM10.465 14.847l-0.004-0.122 2.679-0.004 0.004 0.125-2.678 0.001zM13.031 16.479h-0.293c-0.123-0.864-0.926-0.909-0.933-0.91-0.861 0.054-0.928 0.897-0.929 0.906l-0.297 0.004-0.004-1.519 2.452-0.004 0.004 1.523zM9.817 14.299l0.512-0.003 0.004 0.621 0.094-0.004 0.004 0.109h-0.769c0.039-0.246 0.090-0.488 0.156-0.724v0zM9.645 15.124l0.781-0.003 0.004 0.601h-0.838c0.008-0.203 0.026-0.401 0.054-0.598h-0.001zM9.585 15.823l0.841-0.004 0.004 0.172h-0.852l0.008-0.168zM9.581 16.088l0.845-0.004 0.004 0.082h-0.845l-0.004-0.078zM9.591 16.276h0.012l0.823-0.004 0.004 0.199-0.122 0.004 0.004 0.297 0.029 0.082h-0.7c-0.026-0.19-0.042-0.383-0.051-0.578v0zM9.659 16.975h0.028l0.707-0.003 0.058 0.123 0.001 0.541h-0.654c-0.058-0.216-0.104-0.436-0.139-0.66v0zM10.091 18.494h0.046l0.313-0.004 0.003 0.705c-0.133-0.226-0.257-0.459-0.362-0.701v0zM10.044 18.377c-0.083-0.202-0.153-0.409-0.214-0.621h0.113l0.507-0.004 0.004 0.624h-0.409zM10.572 19.39l-0.001-2.22 0.641-0.004 0.004 3.064c-0.237-0.262-0.452-0.542-0.643-0.841v0zM11.214 17.061h-0.639l-0.121-0.237-0.001-0.232 0.879-0.004 0.003 0.234-0.122 0.238zM11.804 15.898c-0.575 0-0.582 0.572-0.582 0.578l-0.176 0.004 0.001-0.004 0.012-0.085 0.006-0.047 0.009-0.036 0.022-0.082 0.002-0.004c0.173-0.501 0.701-0.508 0.706-0.508 0.749 0.054 0.758 0.754 0.758 0.762v0.003h-0.177c-0.058-0.575-0.577-0.582-0.582-0.582v0zM12.384 21.25l-0.002-4.080 0.641-0.004 0.003 4.456c-0.221-0.113-0.437-0.235-0.642-0.372v0zM13.025 17.061h-0.639l-0.121-0.237-0.001-0.232 0.879-0.004 0.004 0.234-0.123 0.238zM10.465 14.613l-0.004-1.109 0.563-0.003 0.004 0.527 0.484-0.004-0.004-0.519 0.589-0.004 0.004 0.527 0.484-0.004-0.004-0.519 0.562-0.004 0.004 1.112-2.683 0.001zM15.892 22.317c-0.863 0-1.684-0.174-2.434-0.489 0.361-0.077 0.624-0.088 0.627-0.089 0.122 0.002 0.242 0.016 0.354 0.036l0.159 0.033 0.039 0.009c0.172 0.044 0.322 0.098 0.435 0.142l0.128 0.052 0.091 0.036c0.184 0.080 0.324 0.108 0.392 0.119l0.014 0.002 0.006 0.001 0.027 0.003 0.097 0.006 0.009-0.001 0.038-0.002 0.065-0.005 0.039-0.006 0.056-0.011 0.038-0.010 0.047-0.014 0.035-0.011 0.037-0.014 0.032-0.013 0.023-0.010 0.030-0.014 0.002-0.001 0.039-0.020c0.499-0.236 0.711-0.241 0.807-0.246 0.285 0 0.431 0.062 0.432 0.063l0.017 0.007 0.289 0.127c-0.622 0.204-1.282 0.318-1.97 0.318h0.001zM18.373 21.807l-0.168-0.045-0.648-0.249-0.136-0.036c-0.136-0.026-0.264-0.028-0.305-0.028-0.291 0-0.799 0.248-0.804 0.251l-0.067 0.032c-0.083 0.037-0.232 0.090-0.403 0.098l-0.112-0.002-0.036-0.008c-0.052-0.009-0.158-0.029-0.402-0.117-0.319-0.153-0.619-0.231-0.841-0.271s-0.364-0.042-0.367-0.042l-0.131 0.008-0.012 0.001-0.114 0.014-0.102 0.016-0.014 0.002c-0.241 0.041-0.473 0.099-0.521 0.113l-0.003-0.548c0.262-0.067 0.455-0.104 0.598-0.127l0.299-0.031c0.434 0.014 0.812 0.149 1.025 0.236l0.112 0.048 0.068 0.028 0.119 0.046 0.016 0.005 0.126 0.037 0.094 0.021 0.084 0.014 0.1 0.007h0.006l0.098-0.007 0.053-0.008 0.038-0.008 0.056-0.014 0.026-0.007 0.054-0.018 0.017-0.006 0.049-0.019 0.009-0.004 0.039-0.018 0.002-0.002 0.039-0.020c0.126-0.058 0.23-0.1 0.322-0.134 0.368-0.137 0.482-0.111 0.485-0.111l0.041-0.001c0.238 0 0.389 0.062 0.391 0.063l0.648 0.246c0.112 0.045 0.235 0.067 0.364 0.067h0.001c0.267 0 0.476-0.098 0.477-0.099l0.491-0.183 0.055-0.019 0.166-0.044 0.078-0.016 0.004-0.001 0.010-0.001c-0.447 0.361-0.941 0.663-1.475 0.892v0zM20.224 20.584l-0.026-0.006-0.009-0.002-0.018-0.002c-0.131-0.026-0.246-0.021-0.321-0.009l-0.058 0.011h-0.001l-0.038 0.007c-0.267 0.071-0.608 0.208-0.692 0.242l-0.019 0.008c-0.15 0.066-0.306 0.098-0.464 0.098-0.222 0-0.371-0.067-0.372-0.067l-0.648-0.25c-0.155-0.062-0.447-0.063-0.451-0.063-0.325 0.012-0.789 0.248-0.794 0.251-0.328 0.161-0.582 0.124-0.584 0.124-0.162-0.013-0.372-0.098-0.424-0.119l-0.012-0.005c-0.683-0.303-1.148-0.313-1.208-0.313h-0.001l-0.234 0.025-0.034 0.004c-0.352 0.047-0.605 0.117-0.626 0.126l-0.003-0.581 0.004-0.001v0.001c0.44-0.119 0.893-0.156 0.897-0.156l0.252 0.027c0.562 0.083 0.944 0.29 0.949 0.293l0.123 0.043c0.149 0.046 0.296 0.075 0.311 0.078l0.004 0.001 0.077 0.003 0.014-0.001 0.066-0.003 0.034-0.003 0.071-0.011 0.021-0.004 0.071-0.016 0.012-0.003 0.070-0.021 0.152-0.062c0.501-0.254 0.793-0.257 0.806-0.257l0.112 0.005c0.237 0.016 0.319 0.060 0.321 0.061l0.648 0.25c0.108 0.044 0.228 0.066 0.354 0.066 0.269 0 0.486-0.099 0.488-0.1 0.543-0.22 0.708-0.249 0.71-0.249 0.071-0.014 0.144-0.022 0.218-0.022 0.248 0 0.429 0.083 0.432 0.084l0.242 0.079c-0.132 0.152-0.274 0.298-0.422 0.439l-0.001 0.001zM20.893 19.841c-0.26-0.077-0.486-0.156-0.486-0.156l-0.144-0.042h-0.002l-0.068-0.012h-0.001l-0.093-0.016h-0.003l-0.014-0.001-0.115-0.011h-0.007l-0.202 0.016c-0.024 0-0.455 0.14-0.713 0.254-0.094 0.042-0.192 0.066-0.29 0.082l-0.154 0.016-0.053-0.001-0.057-0.004c-0.093-0.008-0.17-0.024-0.229-0.044l-0.103-0.037c-0.011-0.007-0.541-0.208-0.601-0.231l-0.042-0.016c-0.137-0.047-0.377-0.056-0.392-0.047h-0.001l-0.040 0.001-0.073 0.006c-0.273 0.031-0.694 0.242-0.697 0.244-0.316 0.132-0.483 0.135-0.549 0.127l-0.034-0.007c-0.002 0-0.221-0.029-0.436-0.121-0.301-0.145-0.584-0.223-0.801-0.265-0.13-0.025-0.236-0.037-0.307-0.043l-0.102-0.005-0.12 0.006-0.047 0.006-0.086 0.010-0.071 0.012-0.066 0.011-0.105 0.020-0.024 0.005c-0.19 0.038-0.351 0.081-0.375 0.088l-0.003-0.521c0.578-0.154 0.894-0.156 0.897-0.156l0.185 0.009 0.156 0.021c0.357 0.060 0.659 0.194 0.793 0.253l0.072 0.030c0.217 0.093 0.436 0.121 0.438 0.121h0.003c0.276 0.035 0.583-0.12 0.586-0.121 0.488-0.233 0.72-0.247 0.806-0.25 0.304 0 0.431 0.062 0.432 0.062l0.648 0.25c0.116 0.046 0.241 0.069 0.371 0.069 0.267 0 0.47-0.1 0.472-0.101l0.198-0.078 0.030 0.044 0.012 0.019 0.023 0.003 0.213 0.013c0.461 0 0.687-0.196 0.697-0.204l0.036-0.032-0.003-0.003 0.094 0.031 0.060 0.017 0.233 0.079 0.080 0.025 0.112 0.034 0.067 0.018 0.089 0.023 0.046 0.011 0.080 0.016 0.021 0.004 0.073 0.011h0.001l0.006 0.001c-0.099 0.156-0.206 0.308-0.32 0.455v0zM22.015 14.722l-0.001 0.019h0.001l-0.002 0.076c0.016 2.341-1.491 4.117-1.506 4.134l-0.007 0.008-0.258-0.043 0.019-0.025c1.339-1.783 1.483-4.124 1.484-4.148l0.268-0.022zM21.305 16.575l-0.024 0.068c-0.124 0.332-0.288 0.7-0.289 0.704-0.591 0.32-1.213 0.544-1.859 0.681l-0.018-0.013-0.024-0.017c-0.146-0.109-0.302-0.216-0.466-0.313l-0.025-0.015-0.029-0.018c1.677-0.229 2.668-1.021 2.679-1.031l0.056-0.046h-0.001zM20.818 16.689c0.020 0.027 0.003 0.073-0.037 0.103s-0.089 0.031-0.109 0.004c-0.019-0.028-0.003-0.074 0.037-0.103 0.042-0.029 0.090-0.031 0.109-0.004v0zM20.724 16.553c0.020 0.027 0.003 0.074-0.037 0.103s-0.090 0.031-0.11 0.004c-0.019-0.027-0.003-0.073 0.038-0.103s0.089-0.031 0.109-0.004v0zM20.629 16.416c0.020 0.027 0.003 0.074-0.037 0.102-0.041 0.030-0.089 0.031-0.109 0.004s-0.003-0.074 0.038-0.102c0.041-0.030 0.090-0.032 0.109-0.004v0zM20.535 16.279c0.020 0.027 0.003 0.074-0.038 0.103s-0.090 0.031-0.11 0.004c-0.019-0.028-0.003-0.073 0.038-0.103s0.089-0.032 0.109-0.004v0zM7.009 11.832c0.057-0.084 0.096-0.123 0.166-0.123 0.093 0 0.243 0.074 0.544 0.239l0.003 0.001 0.218 0.121c0.633 0.351 0.699 0.388 0.597 0.579l-0.002 0.005 0.102 0.105 0.371-0.669 0.067-0.14 0.001-0.006c0.183-0.462-0.105-0.683-0.237-0.757-0.052-0.029-0.116-0.049-0.184-0.058h-0.153c-0.127 0.018-0.241 0.083-0.331 0.188 0.009-0.059 0.006-0.116-0.009-0.173h0.001l-0.003-0.010-0.002-0.005h-0.001c-0.034-0.11-0.116-0.21-0.221-0.268-0.026-0.015-0.123-0.063-0.247-0.063-0.125 0-0.303 0.052-0.439 0.298l-0.017 0.033-0.041 0.082-0.12 0.232-0.124 0.208-0.044 0.072-0.002 0.005 0.104 0.113 0.006-0.008zM7.635 11.056c0.057 0 0.119 0.017 0.18 0.051l0.049 0.031 0.006 0.004c0.101 0.077 0.194 0.222 0.051 0.478l-0.057 0.099-0.188-0.108c-0.051-0.028-0.234-0.134-0.287-0.172-0.071-0.049-0.077-0.098-0.023-0.198l0.074-0.101 0.002-0.002c0.056-0.055 0.121-0.083 0.194-0.083h-0.001zM8.035 11.819l0.002-0.002 0.041-0.086c0.067-0.123 0.181-0.327 0.392-0.327 0.072 0 0.151 0.023 0.236 0.071 0.288 0.16 0.218 0.388 0.187 0.46l-0.002 0.003-0.018 0.037-0.136 0.206-0.002 0.002-0.487-0.249-0.211-0.115h-0.001z"></path>
<path d="M7.422 14.469c0 0.174-0.141 0.315-0.315 0.315s-0.315-0.141-0.315-0.315c0-0.174 0.141-0.315 0.315-0.315s0.315 0.141 0.315 0.315z"></path>
<path d="M8.19 19.534c0.089-0.033 0.157-0.055 0.204-0.055s0.072 0.021 0.101 0.083l0.003 0.007 0.004 0.011 0.145-0.013-0.244-0.574-0.151 0.009 0.003 0.009c0.054 0.15 0.067 0.182-0.152 0.279l-0.461 0.202-0.143 0.060c-0.3 0.126-0.491 0.202-0.601 0.238l-0.107 0.023c-0.063 0-0.083-0.038-0.116-0.111l-0.003-0.005-0.144 0.013 0.263 0.617 0.144-0.010-0.003-0.009c-0.038-0.141-0.049-0.201 0.069-0.267 0.096-0.053 0.261-0.128 0.518-0.237 0.277-0.118 0.452-0.189 0.584-0.239l0.086-0.033zM9.317 21.658l-0.009 0.007 0.151 0.093 0.409-0.296-0.208-0.286h0.001l-0.676-0.931-0.475 0.345 0.152 0.094 0.004-0.003c0.094-0.061 0.167-0.089 0.231-0.089 0.119 0 0.196 0.103 0.308 0.259-0.083 0.067-0.262 0.201-0.409 0.309l-0.069 0.050-0.068 0.050c-0.208 0.151-0.399 0.284-0.567 0.392-0.113 0.076-0.18 0.113-0.237 0.113-0.055 0-0.103-0.034-0.178-0.126l-0.004-0.004-0.121 0.047 0.504 0.694 0.126-0.040-0.005-0.008c-0.113-0.179-0.16-0.254 0.070-0.432l0.052-0.041c0.114-0.089 0.269-0.213 0.487-0.371l0.579-0.411 0.004 0.004 0.050 0.061 0.023 0.034 0.003 0.003c0.149 0.224 0.097 0.322-0.126 0.483l-0.001-0.001zM6.303 18.116c-0.043-0.242-0.012-0.428 0.096-0.57s0.297-0.237 0.561-0.284l0.198-0.016c0.205 0 0.398 0.046 0.44 0.077 0.111 0.078 0.193 0.239 0.228 0.439 0.019 0.11 0.009 0.191-0.031 0.249-0.059 0.084-0.174 0.104-0.286 0.124l-0.019 0.003 0.098 0.152 0.527-0.098-0.001-0.018c-0.009-0.133-0.017-0.238-0.046-0.4-0.089-0.506-0.458-0.808-0.987-0.808-0.078 0-0.158 0.007-0.237 0.021-0.602 0.106-0.927 0.537-0.829 1.096 0.037 0.211 0.084 0.294 0.143 0.401l0.041 0.076 0.002 0.004 0.261 0.005-0.006-0.012c-0.067-0.127-0.116-0.22-0.155-0.441v0z"></path>
<path d="M24.912 14.471c0 0.174-0.141 0.315-0.315 0.315s-0.315-0.141-0.315-0.315c0-0.174 0.141-0.315 0.315-0.315s0.315 0.141 0.315 0.315z"></path>
<path d="M22.66 11.933l0.379 0.684 0.555-0.307-0.119-0.135-0.006 0.003c-0.103 0.057-0.187 0.084-0.257 0.084-0.13 0-0.209-0.096-0.294-0.249l-0.036-0.065-0.006-0.012-0.065-0.139-0.023-0.052 0.863-0.491 0.203-0.112c0.168-0.092 0.273-0.141 0.341-0.141 0.066 0 0.1 0.042 0.163 0.138l0.016 0.024 0.003 0.004 0.141-0.018-0.405-0.732-0.137 0.024 0.004 0.009c0.1 0.215 0.074 0.241-0.163 0.382-0.106 0.063-0.261 0.152-0.519 0.294l-0.026 0.014h0.001l-0.168 0.093-0.112 0.060-0.083 0.045-0.019 0.009c-0.223 0.111-0.309 0.152-0.393 0.004l-0.002-0.005-0.147 0.026 0.309 0.557-0.001-0.001zM8.95 9.026c0.063-0.053 0.113-0.078 0.157-0.078 0.059 0 0.109 0.042 0.184 0.123 0.087 0.091 0.223 0.242 0.416 0.464l0.215 0.256 0.112 0.133 0.011 0.012 0.001 0.002 0.001 0.001c0.166 0.199 0.187 0.25 0.061 0.374l-0.003 0.003 0.057 0.135 0.649-0.564-0.052-0.144-0.008 0.007c-0.104 0.086-0.186 0.126-0.254 0.126-0.092 0-0.164-0.069-0.257-0.166l-0.271-0.3-0.020-0.023-0.030-0.035c0.077-0.064 0.123-0.094 0.19-0.094 0.084 0 0.209 0.051 0.439 0.147l0.554 0.23 0.323-0.281-0.052-0.14-0.008 0.006c-0.083 0.063-0.131 0.091-0.193 0.091-0.063 0-0.142-0.028-0.293-0.091l-0.271-0.113c-0.139-0.057-0.227-0.081-0.295-0.081l-0.114 0.024c0.063-0.068 0.126-0.185 0.127-0.326v-0.007c-0.001-0.116-0.047-0.229-0.131-0.326-0.096-0.109-0.221-0.169-0.354-0.169-0.122 0-0.247 0.052-0.36 0.151l-0.344 0.315-0.019 0.017-0.015 0.013-0.002 0.002-0.158 0.127-0.052 0.041-0.004 0.004 0.059 0.143 0.008-0.007h0.001zM9.903 9.137l-0.083 0.061-0.029 0.019-0.148-0.175-0.164-0.198c-0.038-0.051-0.056-0.087-0.056-0.121v-0.004c0.002-0.043 0.028-0.084 0.091-0.139 0.17-0.147 0.334-0.141 0.475 0.021l0.078 0.126c0.077 0.203-0.103 0.359-0.163 0.411v0zM20.601 9.657c0.184 0.144 0.416 0.222 0.651 0.222 0.33 0 0.629-0.149 0.841-0.42 0.195-0.249 0.282-0.495 0.261-0.728h0.001l-0.001-0.008c-0.024-0.237-0.16-0.454-0.404-0.644-0.212-0.166-0.418-0.242-0.649-0.242l-0.144 0.009c-0.256 0.029-0.499 0.162-0.648 0.353-0.137 0.174-0.226 0.348-0.267 0.516l-0.002 0.006c-0.119 0.514 0.246 0.847 0.361 0.936v0.001zM22.042 8.724c0.014 0.194-0.070 0.411-0.251 0.643-0.228 0.293-0.326 0.304-0.421 0.315l-0.062 0.004c-0.143 0-0.297-0.065-0.467-0.198-0.272-0.213-0.367-0.468-0.281-0.758l0.002-0.006c0.052-0.17 0.153-0.313 0.236-0.418 0.164-0.211 0.332-0.265 0.459-0.289 0.131-0.016 0.284 0.047 0.471 0.193 0.193 0.151 0.298 0.32 0.314 0.504l0.001 0.008zM18.666 8.401l-0.009-0.004c-0.237-0.093-0.308-0.135-0.229-0.401l0.016-0.057 0.122-0.42 0.002-0.009 0.053-0.165 0.173-0.512 0.054-0.159 0.092 0.024c0.325 0.106 0.352 0.221 0.264 0.491l-0.003 0.011 0.193-0.007 0.153-0.473 0.003-0.007-1.588-0.516-0.182 0.557 0.193-0.007 0.002-0.005c0.067-0.17 0.144-0.239 0.266-0.239 0.086 0 0.189 0.033 0.321 0.076-0.039 0.152-0.163 0.537-0.201 0.653l-0.096 0.284-0.134 0.367c-0.071 0.187-0.112 0.25-0.217 0.25l-0.161-0.029-0.074 0.108 0.904 0.294 0.083-0.104h-0.001zM22.26 23.417c-0.129-0.158-0.264-0.322-0.389-0.483-0.212-0.272-0.34-0.434-0.423-0.553l-0.008-0.012c-0.16-0.227-0.132-0.26-0.059-0.346l0.003-0.003-0.052-0.137-0.615 0.481 0.001 0.003h-0.001l0.043 0.131 0.009-0.006c0.077-0.057 0.149-0.094 0.213-0.109h0.002l0.136-0.001v0.001c0.063 0.016 0.123 0.056 0.178 0.119l0.041 0.050 0.203 0.251 0.011 0.014 0.138 0.181 0.221 0.286c-0.417-0.092-1.283-0.369-1.688-0.527l-0.004-0.002-0.286 0.224 0.047 0.128 0.008-0.004c0.057-0.033 0.102-0.054 0.146-0.054 0.107 0 0.213 0.127 0.524 0.526h-0.001l0.010 0.012 0.023 0.029c0.37 0.473 0.498 0.646 0.447 0.763l-0.002 0.004-0.049 0.064-0.004 0.004 0.053 0.134 0.613-0.479-0.051-0.142-0.008 0.006c-0.117 0.076-0.194 0.118-0.266 0.118-0.134 0-0.262-0.153-0.532-0.498h0.001l-0.010-0.012-0.014-0.018-0.148-0.188-0.106-0.136-0.039-0.049 0.903 0.267 0.423 0.136 0.391 0.136 0.076-0.136 0.013-0.023-0.003-0.004-0.118-0.143zM23.977 21.192c-0.042 0.139-0.073 0.24-0.201 0.423-0.16 0.229-0.338 0.339-0.544 0.339-0.157 0-0.334-0.068-0.524-0.202-0.224-0.157-0.398-0.427-0.409-0.494l-0.004-0.086v-0.004c0.008-0.117 0.063-0.253 0.152-0.382 0.074-0.106 0.15-0.157 0.232-0.157 0.089 0 0.174 0.059 0.256 0.117l0.017 0.012 0.037-0.172 0.001-0.005-0.442-0.303-0.013 0.014c-0.087 0.101-0.156 0.179-0.25 0.314-0.126 0.179-0.191 0.366-0.192 0.554h-0.001v0.007c-0.001 0.318 0.186 0.639 0.502 0.86 0.204 0.143 0.422 0.218 0.629 0.218 0.288 0 0.548-0.144 0.733-0.407 0.123-0.176 0.149-0.268 0.182-0.386l0.024-0.082 0.002-0.004-0.181-0.188-0.003 0.013v-0.001zM25.093 17.181l-0.009-0.002 0.011 0.164 0.006 0.001c0.337 0.059 0.376 0.187 0.333 0.434l-0.048 0.209-0.014 0.048-0.979-0.162c-0.647-0.114-0.647-0.114-0.624-0.359l0.001-0.005-0.121-0.069-0.13 0.736-0.001 0.006 0.122 0.063 0.003-0.009c0.040-0.153 0.072-0.188 0.174-0.188l0.189 0.020c0.163 0.024 0.413 0.067 0.807 0.137l0.217 0.041 0.019 0.004c0.239 0.052 0.338 0.073 0.312 0.224l-0.001 0.006 0.13 0.068 0.222-1.26-0.615-0.108zM19.621 24.392l-0.017-0.046-0.23-0.617-0.044-0.151c-0.018-0.098 0.015-0.13 0.087-0.173l0.004-0.003-0.006-0.137-0.556 0.202 0.006 0.147 0.009-0.003 0.087-0.024h0.003l0.065-0.001c0.048 0.011 0.088 0.054 0.131 0.146 0.059 0.127 0.127 0.295 0.212 0.529l0.044 0.123 0.002 0.005c0.191 0.527 0.186 0.541 0.147 0.646l-0.002 0.006c-0.014 0.034-0.049 0.087-0.106 0.137l-0.003 0.002c-0.051 0.044-0.111 0.077-0.176 0.098-0.168 0.062-0.308 0.029-0.414-0.097-0.077-0.091-0.118-0.207-0.138-0.264l-0.189-0.538-0.002-0.005-0.083-0.256c-0.088-0.274-0.071-0.314 0.194-0.429l0.004-0.002-0.002-0.146-0.729 0.266-0.007 0.004 0.014 0.143 0.008-0.003 0.078-0.014c0.087 0 0.119 0.078 0.206 0.324l0.222 0.602c0.043 0.114 0.085 0.226 0.141 0.327l0.003 0.003c0.123 0.219 0.275 0.32 0.48 0.32 0.086 0 0.183-0.019 0.287-0.057 0.149-0.054 0.266-0.146 0.338-0.267 0.089-0.15 0.103-0.338 0.038-0.516l-0.104-0.284zM24.947 19.649c-0.078 0.125-0.112 0.172-0.242 0.131-0.103-0.034-0.276-0.105-0.528-0.217l-0.010-0.004-0.018-0.009c-0.234-0.104-0.471-0.212-0.626-0.293-0.21-0.105-0.234-0.138-0.183-0.254l0.003-0.004-0.108-0.097-0.254 0.571 0.098 0.091 0.001 0.002v0.001l0.011 0.010 0.005-0.008 0.003-0.004 0.010-0.013h-0.003c0.041-0.080 0.064-0.116 0.12-0.116 0.037 0 0.089 0.016 0.179 0.053l0.182 0.077 0.256 0.112c0.391 0.174 0.628 0.286 0.749 0.351 0.147 0.079 0.128 0.124 0.087 0.223l-0.002 0.005 0.108 0.096 0.273-0.613-0.106-0.098-0.005 0.009zM14.364 23.703c-0.083-0.017-0.164-0.026-0.242-0.026-0.412 0-0.748 0.261-0.901 0.7l-0.002 0.005-0.044 0.161c-0.049 0.233-0.037 0.453 0.034 0.639l0.004 0.011c0.11 0.274 0.348 0.463 0.668 0.531 0.099 0.021 0.18 0.031 0.253 0.031l0.172-0.014 0.089-0.011 0.103-0.24-0.013 0.001-0.192 0.014c-0.083 0-0.168-0.010-0.276-0.033-0.232-0.049-0.389-0.143-0.482-0.286-0.102-0.157-0.122-0.368-0.063-0.646l0.046-0.153 0.003-0.009c0.076-0.201 0.198-0.377 0.247-0.407 0.072-0.046 0.171-0.071 0.288-0.071 0.065 0 0.134 0.007 0.204 0.022 0.109 0.023 0.181 0.063 0.219 0.122 0.056 0.086 0.032 0.201 0.008 0.312l-0.004 0.020 0.178-0.034 0.105-0.519 0.001-0.007-0.006-0.002c-0.129-0.043-0.232-0.076-0.398-0.112v0zM15.207 7.104c0.239 0.1 0.465 0.194 0.48 0.414v0.004c0.007 0.145-0.050 0.224-0.075 0.253-0.064 0.074-0.175 0.079-0.249 0.084l-0.088 0.003c-0.236 0-0.338-0.048-0.362-0.345l-0.003-0.055-0.004-0.092-0.193 0.114 0.031 0.595 0.001 0.007 0.008-0.001 0.133-0.001h0.055l0.354-0.004c0.171-0.009 0.367-0.031 0.513-0.174 0.083-0.081 0.17-0.191 0.177-0.391l-0.001-0.071c-0.018-0.33-0.32-0.46-0.588-0.574-0.222-0.096-0.432-0.186-0.442-0.375-0.004-0.079 0.016-0.143 0.059-0.191 0.056-0.062 0.148-0.096 0.277-0.103l0.057-0.002c0.212 0 0.284 0.074 0.296 0.302l0.003 0.056 0.001 0.029 0.182-0.101-0.025-0.487h-0.163l-0.143 0.001-0.208 0.004c-0.617 0.033-0.643 0.446-0.637 0.572 0.016 0.301 0.292 0.416 0.559 0.527v0.001zM11.949 6.989l0.141-0.037c0.058 0 0.095 0.043 0.156 0.186l0.161 0.383 0.002 0.004 0.014 0.038 0.007 0.016c0.159 0.394 0.252 0.641 0.294 0.773 0.048 0.159-0.004 0.183-0.11 0.228l-0.005 0.002 0.006 0.146 0.69-0.279-0.003-0.146-0.009 0.003-0.155 0.029c-0.058 0-0.096-0.026-0.133-0.094-0.052-0.096-0.124-0.261-0.23-0.523l-0.082-0.204c-0.084-0.211-0.139-0.36-0.175-0.471-0.077-0.221-0.069-0.262 0.062-0.316l0.005-0.002-0.007-0.146-0.642 0.258 0.002 0.154 0.011-0.004zM11.25 22.563c-0.193 0.158-0.443 0.292-0.773 0.463l0.036-0.323c0.015-0.142 0.028-0.24 0.069-0.299l0.019-0.022 0.002-0.002c0.042-0.038 0.096-0.038 0.167 0.001h0.001l0.057 0.036 0.063 0.044 0.103-0.079h0.001l0.002-0.002 0.017-0.013h-0.013l-0.717-0.502-0.117 0.092 0.007 0.006c0.115 0.092 0.132 0.154 0.113 0.411l-0.008 0.102-0.046 0.613-0.294 0.421-0.049 0.067-0.010 0.013c-0.046 0.058-0.099 0.11-0.169 0.11-0.042 0-0.087-0.018-0.139-0.054l-0.005-0.003-0.108 0.093 0.631 0.442 0.124-0.092-0.009-0.006c-0.093-0.065-0.146-0.112-0.156-0.169-0.009-0.054 0.018-0.123 0.093-0.229l0.063-0.091 0.251-0.358 0.090-0.044 0.162-0.080c0.229-0.112 0.403-0.184 0.571-0.253l0.326-0.139-0.348-0.153-0.004 0.003h-0.001zM16.49 23.926c-0.288 0-0.508 0.097-0.692 0.305l-0.112 0.149-0.007 0.012c-0.094 0.157-0.145 0.341-0.145 0.517 0 0.096 0.006 0.188 0.019 0.273l0.001 0.008c0.113 0.752 0.683 0.811 0.855 0.811 0.44 0 0.817-0.33 0.92-0.803l0.002-0.006c0.018-0.086 0.027-0.174 0.027-0.264 0-0.213-0.034-0.397-0.101-0.545-0.133-0.298-0.398-0.456-0.767-0.456v0zM15.801 24.815c0-0.17 0.034-0.306 0.107-0.427l0.059-0.083c0.082-0.092 0.227-0.137 0.44-0.137 0.228 0 0.401 0.074 0.514 0.221l0.002 0.003c0.112 0.146 0.168 0.364 0.168 0.649l-0.004 0.148-0.001 0.008c-0.016 0.237-0.069 0.294-0.119 0.351-0.102 0.116-0.26 0.172-0.482 0.172-0.35 0-0.568-0.179-0.649-0.533l-0.001-0.006c-0.030-0.136-0.034-0.267-0.034-0.366l0.001-0.001z"></path>
</symbol>
<symbol id="icon-ents-24" viewBox="0 0 32 32">
<title>ents-24</title>
<path d="M15.526 12.001h1.084c-0.183 0.354-0.437 0.679-0.396 1.116 0.046 0.486 0.080 0.973 0.109 1.461 0.022 0.373 0.209 0.631 0.519 0.824 0.449 0.283 0.903 0.561 1.332 0.872 0.148 0.108 0.303 0.297 0.33 0.467 0.081 0.513 0.109 1.034 0.14 1.554 0.016 0.261-0.176 0.418-0.408 0.323-0.104-0.043-0.208-0.204-0.224-0.324-0.065-0.477-0.097-0.958-0.144-1.485-0.426 0.149-0.799 0.266-1.157 0.419-0.081 0.034-0.153 0.2-0.148 0.302 0.014 0.382 0.047 0.764 0.101 1.142 0.096 0.667 0.646 1.183 1.315 1.227 0.262 0.017 0.531-0.011 0.793-0.046 0.758-0.101 1.312-0.787 1.259-1.55-0.036-0.508-0.109-1.017-0.111-1.525-0.002-0.702-0.268-1.204-0.924-1.487-0.096-0.042-0.181-0.11-0.269-0.168-1.203-0.782-0.996-0.404-1.128-1.827-0.024-0.25 0.024-0.431 0.303-0.453 0.276-0.022 0.331 0.174 0.349 0.393l0.065 0.763c0.392-0.135 0.728-0.257 1.069-0.363 0.2-0.063 0.24-0.184 0.243-0.382 0.006-0.468-0.152-0.872-0.404-1.251h10.076c0.236 0.101 0.499 0.196 0.504 0.503 0.012 0.953 0.004 1.906 0.004 2.852-0.481 0.121-0.719 0.353-0.727 0.714-0.009 0.481 0.3 0.691 0.73 0.792v2.429c0 0.696-0.173 0.87-0.858 0.87h-14.492c0.080-0.046 0.161-0.053 0.243-0.058 0.413-0.024 0.418-0.024 0.387-0.423l-0.371-4.666-0.126-1.713c0.242-0.018 0.441-0.041 0.641-0.046 0.249-0.008 0.356-0.097 0.319-0.372-0.039-0.289-0.019-0.588-0.025-0.883l0.001 0.001zM25.642 13.473c-1.523-0.001-2.747 1.229-2.742 2.757 0.004 1.495 1.256 2.727 2.757 2.716s2.742-1.257 2.733-2.747c-0.008-1.502-1.241-2.725-2.748-2.726v-0.001zM12.976 12.001c-0.197 0.034-0.394 0.080-0.593 0.098-0.193 0.017-0.257 0.108-0.238 0.292 0.028 0.285 0.050 0.571 0.068 0.858 0.011 0.181 0.108 0.236 0.274 0.22l0.725-0.058 0.542 6.738h-1.8l-0.191-2.35c-0.142-1.757-0.289-3.514-0.418-5.273-0.022-0.296-0.143-0.358-0.403-0.318-0.22 0.034-0.444 0.048-0.667 0.053-0.246 0.006-0.328 0.109-0.307 0.357 0.086 0.952 0.156 1.906 0.23 2.858 0.012 0.156 0.023 0.311-0.020 0.482l-0.319-0.744c-0.347-0.833-0.696-1.663-1.033-2.501-0.093-0.231-0.219-0.324-0.481-0.296-0.79 0.084-0.777 0.073-0.71 0.873 0.187 2.233 0.364 4.467 0.544 6.702v0.147h-0.983l-0.029-0.402c-0.025-0.397-0.051-0.416-0.436-0.38-0.348 0.033-0.697 0.056-1.088 0.086l-0.196-2.364c0.363-0.033 0.699-0.074 1.036-0.090 0.211-0.009 0.28-0.099 0.258-0.299-0.031-0.274-0.056-0.55-0.066-0.826-0.008-0.201-0.104-0.253-0.286-0.237l-1.046 0.077-0.136-1.655c0.408-0.034 0.796-0.072 1.186-0.096 0.207-0.013 0.311-0.086 0.281-0.314-0.035-0.274-0.054-0.55-0.066-0.826-0.008-0.201-0.109-0.25-0.289-0.236-0.783 0.066-1.566 0.128-2.35 0.187-0.201 0.014-0.239 0.128-0.224 0.303 0.116 1.386 0.229 2.773 0.34 4.16 0.077 0.962 0.149 1.926 0.227 2.921-0.624 0-1.226 0.018-1.826-0.008-0.277-0.012-0.472-0.281-0.475-0.593-0.008-0.85-0.007-1.7 0.004-2.55 0.001-0.076 0.084-0.182 0.157-0.22 0.283-0.147 0.442-0.368 0.439-0.683-0.002-0.302-0.15-0.538-0.434-0.646-0.176-0.067-0.171-0.182-0.171-0.323 0.003-0.776 0.021-1.552-0.007-2.327-0.015-0.412 0.121-0.674 0.516-0.797 3.487-0.001 6.973-0.001 10.458-0.001l0.001 0.001zM9.34 16.678l1.429 3.468h-1.199l-0.276-3.451 0.046-0.017zM26.932 17.751h-0.484l-0.031-0.619h-0.803c0.066-0.275 0.106-0.496 0.173-0.708 0.188-0.593 0.386-1.183 0.592-1.813h0.588c0 0.445-0.018 0.887 0.007 1.327 0.016 0.268-0.151 0.588 0.19 0.794 0.048 0.029 0.047 0.273 0.004 0.296-0.313 0.163-0.144 0.472-0.236 0.723v0zM26.413 16.638v-0.907l-0.296 0.907h0.296zM24.639 17.27h0.756v0.494c-0.372 0-0.74 0.009-1.106-0.011-0.054-0.003-0.139-0.138-0.146-0.217-0.041-0.489 0.196-0.893 0.486-1.246 0.254-0.309 0.309-0.638 0.268-1.003-0.009-0.082-0.088-0.156-0.134-0.233-0.044 0.070-0.128 0.141-0.123 0.207 0.025 0.382-0.285 0.285-0.522 0.393 0-0.222-0.018-0.41 0.003-0.593 0.039-0.343 0.288-0.519 0.687-0.507 0.362 0.011 0.583 0.215 0.61 0.559 0.041 0.532-0.007 1.032-0.383 1.463-0.153 0.176-0.238 0.412-0.394 0.693h-0.001z"></path>
</symbol>
<symbol id="icon-see-tickets" viewBox="0 0 32 32">
<title>see-tickets</title>
<path d="M24.225 15.778c-0.235-0.354-0.646-0.531-1.174-0.531-0.704 0-1.673 0.562-1.673 1.771 0 0.117 0 0.265 0.031 0.413l2.817-1.653zM23.227 21c-1.878 0-3.639-1.446-3.639-3.658 0-2.065 1.409-3.746 3.581-3.746 1.79 0 3.139 1.504 3.139 2.654l-4.254 2.508c0.352 0.412 0.939 0.531 1.497 0.531 0.527 0 1.379-0.266 2.466-1.062l-0.382 2.066c-0.675 0.471-1.556 0.708-2.406 0.708v0zM17.064 15.778c-0.234-0.354-0.646-0.531-1.173-0.531-0.704 0-1.673 0.562-1.673 1.771 0 0.117 0 0.265 0.029 0.413l2.818-1.653zM16.067 21c-1.878 0-3.638-1.446-3.638-3.658 0-2.065 1.408-3.746 3.579-3.746 1.79 0 3.139 1.504 3.139 2.654l-4.255 2.508c0.353 0.412 0.939 0.531 1.497 0.531 0.528 0 1.38-0.266 2.465-1.062l-0.382 2.066c-0.675 0.471-1.555 0.708-2.406 0.708v0zM5.591 18.257c0.881 0.678 1.702 1.002 2.494 1.002 1.174 0 1.614-0.501 1.614-1.121 0-0.442-0.263-0.826-1.378-1.593-0.91-0.619-1.849-1.534-1.849-2.773 0-1.444 1.027-2.772 3.287-2.772 0.88 0 1.996 0.324 2.817 0.826l-0.411 1.71c-0.793-0.561-1.614-0.797-2.289-0.797-0.851 0-1.379 0.296-1.379 0.944 0 0.472 0.411 0.855 1.379 1.504 1.202 0.856 1.907 1.682 1.907 2.832 0 1.623-1.32 2.981-3.521 2.981-1.233 0-2.289-0.355-3.082-0.944l0.411-1.799z"></path>
</symbol>
<symbol id="icon-stand-up-to-cancer" viewBox="0 0 32 32">
<title>stand-up-to-cancer</title>
<path d="M10.705 10.589c0 0-2.581-2.578-2.591-2.589l-0.006 0.007-0.007-0.007c-0.010 0.011-2.591 2.589-2.591 2.589l0.939 0.939 0.998-0.998c-0.001 0.174-0.002 0.474-0.002 0.503v12.632h1.327v-12.632c0-0.032-0.001-0.324-0.002-0.503l0.997 0.998 0.939-0.939z"></path>
<path d="M6.266 13.046c0 0-1.933-1.931-1.941-1.938l-0.004 0.004-0.005-0.004c-0.008 0.008-1.94 1.938-1.94 1.938l0.703 0.703 0.747-0.747c-0.001 0.13-0.002 0.355-0.002 0.377v8.472h0.994v-8.472c0-0.024-0.001-0.243-0.002-0.377l0.747 0.747 0.703-0.703z"></path>
<path d="M7.317 14.897c0 0-1.146-1.144-1.15-1.148l-0.002 0.002-0.003-0.002c-0.004 0.004-1.149 1.148-1.149 1.148l0.417 0.417 0.442-0.443c-0.001 0.077-0.001 0.211-0.001 0.223l-0.001 5.877h0.581l0.008-5.877c0-0.014-0.001-0.144-0.001-0.223l0.442 0.443 0.417-0.417z"></path>
<path d="M11.199 14.21v0.041c0 0.299 0.113 0.444 0.335 0.444 0.217 0 0.346-0.113 0.346-0.304 0-0.336-0.253-0.361-0.655-0.542-0.547-0.248-0.825-0.603-0.825-1.047 0-0.655 0.506-1.124 1.248-1.124 0.661 0 1.114 0.423 1.114 1.078v0.057h-0.826c0-0.227-0.123-0.356-0.335-0.356-0.165 0-0.284 0.114-0.284 0.274 0 0.273 0.268 0.329 0.738 0.572 0.5 0.258 0.743 0.583 0.743 1.021 0 0.64-0.526 1.166-1.207 1.166-0.815 0-1.248-0.413-1.248-1.197v-0.082h0.857z"></path>
<path d="M13.323 15.417v-2.817h-0.681v-0.851h2.275v0.851h-0.697v2.817z"></path>
<path d="M16.026 12.951l-0.366 1.176h0.727l-0.361-1.176zM15.232 15.417h-0.98l1.408-3.668h0.733l1.408 3.668h-0.991l-0.181-0.532h-1.212l-0.186 0.532z"></path>
<path d="M17.697 15.417v-3.668h0.809l1.347 2.037v-2.037h0.898v3.668h-0.789l-1.367-2.043v2.043z"></path>
<path d="M23.193 13.57c0-0.661-0.356-1.032-1.016-1.032h-0.357v2.074h0.362c0.686 0 1.011-0.32 1.011-1.042v0zM20.923 15.417v-3.668h1.254c0.582 0 0.989 0.078 1.372 0.438 0.351 0.33 0.536 0.811 0.536 1.414 0 0.557-0.181 1.016-0.531 1.362-0.392 0.382-0.737 0.454-1.253 0.454h-1.377z"></path>
<path d="M11.436 15.564v2.259c0 0.413 0.129 0.624 0.433 0.624 0.314 0 0.464-0.207 0.464-0.624v-2.259h0.898v2.296c0 0.898-0.547 1.429-1.367 1.429-0.831 0-1.331-0.511-1.331-1.429v-2.296h0.903z"></path>
<path d="M14.413 17.256c0.444 0 0.661-0.113 0.661-0.444 0-0.304-0.191-0.428-0.588-0.428h-0.237v0.872h0.165zM13.34 19.231v-3.668h1.217c0.387 0 0.681 0.026 0.928 0.202 0.325 0.227 0.496 0.572 0.496 1.031 0 0.475-0.217 0.867-0.583 1.088-0.232 0.139-0.521 0.166-0.903 0.166h-0.258v1.181h-0.898z"></path>
<path d="M16.775 19.231v-2.816h-0.681v-0.852h2.274v0.852h-0.696v2.816z"></path>
<path d="M19.858 18.391c0.526 0 0.954-0.423 0.954-1.022 0-0.536-0.428-0.964-0.944-0.964-0.547 0-0.975 0.428-0.975 0.964 0 0.578 0.459 1.022 0.964 1.022zM18.527 16.033c0.361-0.356 0.815-0.536 1.336-0.536 0.491 0 0.954 0.191 1.311 0.542 0.372 0.366 0.567 0.835 0.567 1.336 0 0.527-0.186 0.996-0.531 1.352-0.356 0.372-0.841 0.573-1.352 0.573-0.542 0-1.006-0.196-1.367-0.578-0.346-0.366-0.522-0.82-0.522-1.362 0-0.506 0.197-0.969 0.558-1.326z"></path>
<path d="M12.027 23.147c-0.542 0-1.001-0.201-1.362-0.583-0.346-0.366-0.521-0.82-0.521-1.362 0-0.506 0.191-0.969 0.557-1.326 0.361-0.356 0.815-0.542 1.336-0.542 0.856 0 1.589 0.562 1.826 1.465h-0.97c-0.196-0.361-0.49-0.552-0.851-0.552-0.547 0-0.975 0.423-0.975 0.96 0 0.583 0.454 1.032 0.959 1.032 0.346 0 0.65-0.186 0.846-0.526h0.974c-0.242 0.892-0.938 1.434-1.821 1.434z"></path>
<path d="M15.11 20.609l-0.367 1.176h0.728l-0.361-1.176zM14.315 23.074h-0.98l1.408-3.667h0.733l1.408 3.667h-0.991l-0.181-0.531h-1.212l-0.186 0.531z"></path>
<path d="M16.779 23.074v-3.668h0.81l1.346 2.038v-2.038h0.898v3.668h-0.789l-1.367-2.043v2.043z"></path>
<path d="M21.693 23.147c-0.542 0-1.001-0.201-1.362-0.583-0.346-0.366-0.521-0.82-0.521-1.362 0-0.506 0.191-0.969 0.558-1.326 0.361-0.356 0.815-0.542 1.336-0.542 0.856 0 1.588 0.562 1.826 1.465h-0.969c-0.196-0.361-0.491-0.552-0.851-0.552-0.547 0-0.975 0.423-0.975 0.96 0 0.583 0.454 1.032 0.959 1.032 0.346 0 0.65-0.186 0.846-0.526h0.974c-0.242 0.892-0.938 1.434-1.821 1.434z"></path>
<path d="M23.564 23.074v-3.668h1.992v0.81h-1.094v0.593h1.094v0.815h-1.094v0.639h1.094v0.81z"></path>
<path d="M26.761 21.099c0.443 0 0.661-0.113 0.661-0.444 0-0.304-0.191-0.428-0.588-0.428h-0.248v0.872h0.176zM25.687 23.074v-3.668h1.218c0.387 0 0.681 0.026 0.928 0.202 0.326 0.227 0.496 0.573 0.496 1.026 0 0.593-0.309 1.037-0.831 1.181l0.898 1.259h-1.109l-0.702-1.181v1.181h-0.898z"></path>
<path d="M28.866 19.416h0.119l0.258 0.552 0.258-0.552h0.118v0.68h-0.087v-0.568l-0.259 0.568h-0.059l-0.259-0.566v0.566h-0.087v-0.68zM28.508 19.494h-0.173v-0.078h0.438v0.078h-0.174v0.602h-0.091v-0.602z"></path>
</symbol>
<symbol id="icon-facebook" viewBox="0 0 32 32">
<title>facebook</title>
<path d="M19 6h5v-6h-5c-3.86 0-7 3.14-7 7v3h-4v6h4v16h6v-16h5l1-6h-6v-3c0-0.542 0.458-1 1-1z"></path>
</symbol>
<symbol id="icon-instagram" viewBox="0 0 32 32">
<title>instagram</title>
<path d="M16 2.881c4.275 0 4.781 0.019 6.462 0.094 1.563 0.069 2.406 0.331 2.969 0.55 0.744 0.288 1.281 0.638 1.837 1.194 0.563 0.563 0.906 1.094 1.2 1.838 0.219 0.563 0.481 1.412 0.55 2.969 0.075 1.688 0.094 2.194 0.094 6.463s-0.019 4.781-0.094 6.463c-0.069 1.563-0.331 2.406-0.55 2.969-0.288 0.744-0.637 1.281-1.194 1.837-0.563 0.563-1.094 0.906-1.837 1.2-0.563 0.219-1.413 0.481-2.969 0.55-1.688 0.075-2.194 0.094-6.463 0.094s-4.781-0.019-6.463-0.094c-1.563-0.069-2.406-0.331-2.969-0.55-0.744-0.288-1.281-0.637-1.838-1.194-0.563-0.563-0.906-1.094-1.2-1.837-0.219-0.563-0.481-1.413-0.55-2.969-0.075-1.688-0.094-2.194-0.094-6.463s0.019-4.781 0.094-6.463c0.069-1.563 0.331-2.406 0.55-2.969 0.288-0.744 0.638-1.281 1.194-1.838 0.563-0.563 1.094-0.906 1.838-1.2 0.563-0.219 1.412-0.481 2.969-0.55 1.681-0.075 2.188-0.094 6.463-0.094zM16 0c-4.344 0-4.887 0.019-6.594 0.094-1.7 0.075-2.869 0.35-3.881 0.744-1.056 0.412-1.95 0.956-2.837 1.85-0.894 0.888-1.438 1.781-1.85 2.831-0.394 1.019-0.669 2.181-0.744 3.881-0.075 1.713-0.094 2.256-0.094 6.6s0.019 4.887 0.094 6.594c0.075 1.7 0.35 2.869 0.744 3.881 0.413 1.056 0.956 1.95 1.85 2.837 0.887 0.887 1.781 1.438 2.831 1.844 1.019 0.394 2.181 0.669 3.881 0.744 1.706 0.075 2.25 0.094 6.594 0.094s4.888-0.019 6.594-0.094c1.7-0.075 2.869-0.35 3.881-0.744 1.050-0.406 1.944-0.956 2.831-1.844s1.438-1.781 1.844-2.831c0.394-1.019 0.669-2.181 0.744-3.881 0.075-1.706 0.094-2.25 0.094-6.594s-0.019-4.887-0.094-6.594c-0.075-1.7-0.35-2.869-0.744-3.881-0.394-1.063-0.938-1.956-1.831-2.844-0.887-0.887-1.781-1.438-2.831-1.844-1.019-0.394-2.181-0.669-3.881-0.744-1.712-0.081-2.256-0.1-6.6-0.1v0z"></path>
<path d="M16 7.781c-4.537 0-8.219 3.681-8.219 8.219s3.681 8.219 8.219 8.219 8.219-3.681 8.219-8.219c0-4.537-3.681-8.219-8.219-8.219zM16 21.331c-2.944 0-5.331-2.387-5.331-5.331s2.387-5.331 5.331-5.331c2.944 0 5.331 2.387 5.331 5.331s-2.387 5.331-5.331 5.331z"></path>
<path d="M26.462 7.456c0 1.060-0.859 1.919-1.919 1.919s-1.919-0.859-1.919-1.919c0-1.060 0.859-1.919 1.919-1.919s1.919 0.859 1.919 1.919z"></path>
</symbol>
<symbol id="icon-twitter" viewBox="0 0 32 32">
<title>twitter</title>
<path d="M32 7.075c-1.175 0.525-2.444 0.875-3.769 1.031 1.356-0.813 2.394-2.1 2.887-3.631-1.269 0.75-2.675 1.3-4.169 1.594-1.2-1.275-2.906-2.069-4.794-2.069-3.625 0-6.563 2.938-6.563 6.563 0 0.512 0.056 1.012 0.169 1.494-5.456-0.275-10.294-2.888-13.531-6.862-0.563 0.969-0.887 2.1-0.887 3.3 0 2.275 1.156 4.287 2.919 5.463-1.075-0.031-2.087-0.331-2.975-0.819 0 0.025 0 0.056 0 0.081 0 3.181 2.263 5.838 5.269 6.437-0.55 0.15-1.131 0.231-1.731 0.231-0.425 0-0.831-0.044-1.237-0.119 0.838 2.606 3.263 4.506 6.131 4.563-2.25 1.762-5.075 2.813-8.156 2.813-0.531 0-1.050-0.031-1.569-0.094 2.913 1.869 6.362 2.95 10.069 2.95 12.075 0 18.681-10.006 18.681-18.681 0-0.287-0.006-0.569-0.019-0.85 1.281-0.919 2.394-2.075 3.275-3.394z"></path>
</symbol>
</defs>
</svg>
