<svg aria-hidden="true" style="position: absolute; width: 0; height: 0; overflow: hidden;" version="1.1" xmlns="http://www.w3.org/2000/svg" xmlns:xlink="http://www.w3.org/1999/xlink">
<defs>
<symbol id="icon-a-collected-man" viewBox="0 0 565 32">
<title>a-collected-man</title>
<path d="M111.964 12.191c0.094 3.76 1.203 6.948 2.891 9.961 1.391 2.487 3.164 4.628 5.619 6.145 4.346 2.679 10.080 1.876 13.301-1.912 2.447-2.888 2.936-6.3 2.382-9.909-0.514-3.365-1.847-6.427-3.764-9.219-2.051-2.993-4.657-5.281-8.359-5.892-3.266-0.538-6.235 0.253-8.698 2.508-2.504 2.297-3.345 5.298-3.372 8.318zM126.206 0c1.105 0.274 2.246 0.445 3.311 0.836 5.138 1.892 8.213 5.688 9.537 10.879 1.395 5.46 0.053 10.329-3.784 14.455-2.313 2.483-5.228 3.955-8.526 4.641-4.363 0.901-8.428 0.212-11.98-2.602-3.041-2.41-4.833-5.639-5.68-9.382-1.57-6.924 1.876-14.022 8.257-17.117 1.594-0.774 3.279-1.284 5.040-1.541 0.233-0.034 0.461-0.111 0.694-0.168h3.131z"></path>
<path d="M14.548 6.071c-0.057 0.008-0.119 0.012-0.175 0.021-1.774 4.371-3.543 8.738-5.358 13.203h10.911c-1.822-4.477-3.601-8.853-5.379-13.224zM0 30.467c0.937-0.057 1.876-0.126 2.813-0.163 0.6-0.025 0.933-0.314 1.162-0.864 2.712-6.529 5.452-13.044 8.163-19.573 1.223-2.94 2.41-5.896 3.612-8.844 0.057-0.142 0.13-0.282 0.249-0.534 0.123 0.232 0.213 0.375 0.274 0.525 3.869 9.386 7.744 18.777 11.58 28.176 0.314 0.763 0.77 1.125 1.558 1.146 0.763 0.021 1.521 0.029 2.284 0.077 0.159 0.008 0.31 0.163 0.465 0.249-0.151 0.086-0.301 0.241-0.448 0.241-3.532 0.012-7.063 0.012-10.593 0-0.155 0-0.314-0.138-0.473-0.216 0.171-0.094 0.339-0.257 0.514-0.274 0.82-0.065 1.644-0.090 2.463-0.13 0.485-0.029 0.604-0.216 0.408-0.705-1.223-3.026-2.426-6.059-3.625-9.097-0.134-0.351-0.326-0.485-0.709-0.481-3.49 0.012-6.977 0-10.467 0.021-0.203 0.004-0.518 0.184-0.587 0.355-1.207 3.014-2.39 6.034-3.556 9.060-0.274 0.709-0.216 0.778 0.554 0.853 0.738 0.065 1.48 0.061 2.219 0.126 0.213 0.021 0.412 0.18 0.619 0.274-0.22 0.069-0.437 0.199-0.657 0.199-2.605 0.033-5.215 0.044-7.82 0.061v-0.482z"></path>
<path d="M468.25 4.513c-4.005 8.547-8.012 17.093-12.078 25.775-3.869-8.245-7.699-16.4-11.528-24.559-0.040 0.012-0.082 0.021-0.123 0.029-0.012 0.167-0.033 0.334-0.033 0.502-0.004 5.66-0.017 11.319 0.004 16.98 0.008 2.104 0.094 4.208 0.13 6.312 0.004 0.477 0.216 0.705 0.677 0.726 0.983 0.044 1.966 0.073 2.944 0.138 0.184 0.012 0.358 0.188 0.538 0.285-0.184 0.069-0.362 0.203-0.542 0.203-2.732 0.017-5.46 0.017-8.188 0-0.18 0-0.358-0.13-0.542-0.199 0.18-0.102 0.351-0.278 0.534-0.289 0.937-0.065 1.88-0.098 2.822-0.123 0.579-0.017 0.795-0.278 0.799-0.864 0.033-7.605 0.086-15.205 0.126-22.811 0.004-0.763 0.021-1.529-0.033-2.288-0.090-1.382-0.726-2.027-2.104-2.148-0.6-0.053-1.203-0.037-1.803-0.086-0.142-0.008-0.278-0.155-0.416-0.241 0.13-0.086 0.257-0.245 0.383-0.245 2.169-0.004 4.338-0.004 6.504 0.044 0.216 0.004 0.51 0.293 0.619 0.521 1.105 2.313 2.177 4.645 3.258 6.969 2.41 5.178 4.82 10.353 7.23 15.531 0.050 0.102 0.123 0.196 0.249 0.395 0.355-0.722 0.68-1.349 0.979-1.995 2.895-6.235 5.785-12.465 8.673-18.704 0.347-0.746 0.657-1.504 0.958-2.271 0.138-0.351 0.347-0.481 0.722-0.481 2.328 0.004 4.657-0.021 6.985-0.017 0.184 0 0.368 0.13 0.546 0.203-0.18 0.098-0.355 0.278-0.538 0.286-1.002 0.050-2.006 0.044-3.009 0.082-0.926 0.037-1.040 0.163-1.040 1.069 0 8.673 0 17.342 0 26.011 0 0.91 0.061 0.999 0.979 1.060 0.943 0.057 1.884 0.044 2.826 0.098 0.167 0.012 0.326 0.188 0.485 0.285-0.163 0.069-0.322 0.203-0.485 0.209-3.71 0.012-7.425 0.012-11.136-0.004-0.151 0-0.297-0.159-0.445-0.245 0.155-0.086 0.301-0.236 0.456-0.245 1.044-0.061 2.083-0.098 3.127-0.13 0.502-0.017 0.709-0.265 0.709-0.763-0.008-8.286-0.008-16.576-0.012-24.865 0-0.017-0.017-0.037-0.021-0.057-0.064-0.026-0.125-0.055-0.19-0.083z"></path>
<path d="M380.255 16.252c0 4.314 0 8.629 0 12.946 0 0.84 0.11 0.975 0.97 1.003 1.382 0.040 2.765 0.073 4.147 0.073 5.101 0 9.48-3.005 11.319-7.776 1.418-3.678 1.659-7.466 0.868-11.299-1.096-5.304-4.595-8.433-10.018-8.889-2.071-0.175-4.164-0.040-6.247-0.017-0.914 0.008-1.040 0.171-1.040 1.077 0.001 4.295 0.001 8.588 0.001 12.882zM381.27 1.671c2.769 0 5.542-0.106 8.301 0.029 2.777 0.134 5.402 0.918 7.698 2.589 2.606 1.895 3.955 4.542 4.396 7.657 0.498 3.491 0.192 6.927-1.178 10.206-1.836 4.396-5.195 7.010-9.742 8.188-2.116 0.55-4.273 0.592-6.446 0.567-3.691-0.044-7.385-0.012-11.074-0.012-0.021 0-0.040 0.008-0.061 0.004-0.249-0.077-0.498-0.155-0.751-0.236 0.241-0.086 0.477-0.232 0.722-0.249 0.937-0.061 1.88-0.086 2.822-0.115 0.546-0.017 0.755-0.257 0.755-0.828-0.012-8.807-0.012-17.616 0.004-26.423 0-0.604-0.236-0.843-0.795-0.86-0.983-0.029-1.966-0.037-2.944-0.094-0.192-0.008-0.372-0.184-0.558-0.285 0.184-0.069 0.362-0.203 0.546-0.203 2.769-0.012 5.538-0.008 8.307-0.008-0.001 0.023-0.001 0.048-0.001 0.073z"></path>
<path d="M560.040 24.987c0.012-0.188 0.037-0.375 0.037-0.563 0.004-4.877 0.017-9.754-0.004-14.631-0.008-2.263-0.086-4.53-0.115-6.793-0.008-0.498-0.209-0.759-0.701-0.778-0.979-0.040-1.962-0.061-2.944-0.123-0.175-0.012-0.347-0.167-0.521-0.257 0.175-0.082 0.347-0.232 0.521-0.236 2.728-0.012 5.456-0.012 8.184 0 0.184 0 0.368 0.138 0.546 0.212-0.188 0.098-0.368 0.269-0.559 0.278-0.881 0.053-1.765 0.040-2.646 0.094-0.836 0.050-0.954 0.192-0.958 1.035-0.021 6.781-0.044 13.562-0.065 20.347-0.008 2.569 0 5.134 0 7.703v0.64c-0.061 0.029-0.123 0.057-0.184 0.086-7.046-8.792-14.088-17.578-21.228-26.488-0.033 0.306-0.065 0.469-0.065 0.632-0.004 6.904-0.004 13.807 0 20.711 0 0.881 0.050 1.761 0.057 2.646 0.004 0.481 0.203 0.759 0.701 0.783 0.983 0.037 1.966 0.065 2.944 0.13 0.18 0.012 0.347 0.163 0.518 0.253-0.171 0.082-0.343 0.236-0.514 0.236-2.748 0.012-5.496 0.012-8.245 0-0.163 0-0.322-0.138-0.481-0.212 0.167-0.094 0.326-0.265 0.498-0.278 0.983-0.065 1.962-0.094 2.944-0.13 0.531-0.021 0.709-0.301 0.713-0.82 0.029-7.983 0.077-15.972 0.11-23.955 0.008-1.721-1.19-3.070-2.903-3.275-0.713-0.086-1.439-0.073-2.161-0.134-0.159-0.017-0.31-0.159-0.469-0.245 0.151-0.086 0.301-0.245 0.452-0.245 2.466-0.004 4.934 0.004 7.401 0.033 0.203 0.004 0.46 0.155 0.592 0.314 4.331 5.423 8.652 10.854 12.975 16.282 1.713 2.154 3.425 4.298 5.134 6.45 0.098 0.123 0.159 0.274 0.236 0.412 0.069-0.037 0.138-0.078 0.203-0.115z"></path>
<path d="M354.58 11.418c0 1.036-0.004 2.071 0 3.107 0.008 2.108 0.025 4.212 0.021 6.316-0.004 0.297-0.138 0.864-0.188 0.86-0.55-0.037-0.257-0.506-0.322-0.787-0.13-0.563-0.155-1.154-0.301-1.713-0.408-1.583-1.085-2.169-2.704-2.23-2.083-0.077-4.172-0.065-6.259-0.106-0.395-0.008-0.514 0.134-0.514 0.521 0.012 3.996 0.004 7.989 0.008 11.984 0.004 0.816 0.18 0.983 1.008 0.966 2.606-0.053 5.211-0.102 7.817-0.192 1.008-0.033 1.989-0.249 2.859-0.816 0.746-0.489 1.215-1.162 1.33-2.051 0.134-1.052 0.228-2.112 0.368-3.164 0.025-0.175 0.184-0.334 0.282-0.502 0.061 0.171 0.167 0.343 0.171 0.514 0.073 2.144 0.126 4.29 0.192 6.435 0.008 0.326-0.090 0.469-0.445 0.46-2.083-0.057-4.172-0.126-6.255-0.134-4.576-0.021-9.15-0.008-13.73-0.004-0.339 0-0.68 0.040-1.019 0.021-0.123-0.008-0.236-0.138-0.351-0.216 0.119-0.094 0.236-0.269 0.358-0.274 0.901-0.044 1.807-0.044 2.708-0.082 1.154-0.040 1.219-0.119 1.219-1.265 0-8.567 0-17.139 0-25.709 0-1.044-0.098-1.15-1.171-1.186-0.843-0.033-1.688-0.029-2.528-0.077-0.199-0.008-0.391-0.159-0.587-0.245 0.207-0.086 0.412-0.245 0.619-0.245 3.193-0.004 6.381 0.025 9.574 0.017 2.968-0.008 5.937-0.044 8.905-0.077 1.345-0.012 1.341-0.021 1.301 1.309-0.050 1.847-0.094 3.691-0.147 5.534-0.004 0.18-0.050 0.355-0.073 0.534-0.065 0.004-0.13 0.008-0.196 0.017-0.057-0.188-0.147-0.372-0.171-0.563-0.094-0.856-0.184-1.713-0.249-2.569-0.151-2.079-1.525-3.022-3.185-3.286-1.186-0.188-2.393-0.228-3.593-0.282-1.345-0.057-2.687-0.053-4.032-0.065-0.816-0.008-0.975 0.142-0.979 0.983-0.008 2.21 0 4.417 0 6.626-0.004 1.966 0.012 3.93-0.012 5.9-0.004 0.489 0.138 0.669 0.648 0.652 2.104-0.065 4.212-0.061 6.312-0.155 1.46-0.065 2.148-0.665 2.487-2.083 0.18-0.738 0.224-1.504 0.355-2.255 0.033-0.184 0.159-0.351 0.245-0.525 0.073 0.034 0.15 0.070 0.223 0.103z"></path>
<path d="M241.59 8.955c-0.077-0.171-0.199-0.343-0.22-0.521-0.094-0.836-0.147-1.676-0.241-2.512-0.228-2.018-1.261-3.135-3.262-3.413-1.167-0.163-2.353-0.216-3.531-0.265-1.362-0.057-2.728-0.057-4.089-0.069-0.738-0.004-0.905 0.151-0.905 0.868-0.004 4.233 0.004 8.47-0.008 12.701-0.004 0.441 0.123 0.604 0.579 0.592 2.064-0.057 4.131-0.057 6.194-0.134 1.594-0.057 2.369-0.734 2.712-2.292 0.147-0.684 0.192-1.391 0.314-2.079 0.029-0.159 0.188-0.297 0.282-0.448 0.069 0.159 0.196 0.314 0.199 0.469 0.008 3.148 0.004 6.295-0.004 9.443 0 0.151-0.102 0.297-0.155 0.445-0.109-0.126-0.293-0.245-0.322-0.387-0.126-0.709-0.184-1.431-0.322-2.137-0.274-1.353-0.991-2.096-2.353-2.177-2.336-0.138-4.681-0.155-7.083-0.224-0.016 0.326-0.033 0.538-0.033 0.755-0.004 3.915-0.004 7.824 0 11.739 0 0.914 0.123 1.048 1.048 1.031 2.585-0.053 5.17-0.086 7.755-0.199 0.746-0.033 1.504-0.241 2.214-0.485 1.211-0.42 1.868-1.341 2.031-2.602 0.13-0.995 0.224-1.989 0.347-2.985 0.021-0.155 0.126-0.301 0.192-0.448 0.082 0.151 0.232 0.301 0.236 0.46 0.061 2.181 0.094 4.367 0.155 6.553 0.012 0.355-0.142 0.395-0.428 0.395-6.94-0.040-13.88-0.073-20.82-0.123-0.188 0-0.375-0.123-0.563-0.184 0.18-0.106 0.355-0.293 0.538-0.306 1.023-0.065 2.043-0.090 3.066-0.123 0.502-0.017 0.69-0.257 0.69-0.763-0.012-8.853-0.012-17.701 0-26.553 0-0.506-0.184-0.751-0.68-0.77-0.943-0.033-1.884-0.065-2.826-0.098-0.159-0.004-0.334 0.037-0.477-0.017-0.123-0.044-0.209-0.192-0.31-0.289 0.106-0.069 0.209-0.192 0.314-0.192 0.46-0.012 0.926 0.017 1.387 0.017 5.174-0.008 10.353-0.017 15.531-0.036 0.86 0 1.721-0.053 2.581-0.109 0.485-0.033 0.709 0.044 0.68 0.64-0.098 2.022-0.119 4.049-0.163 6.076-0.008 0.228-0.004 0.46-0.004 0.69-0.082 0.023-0.163 0.043-0.245 0.068z"></path>
<path d="M283.639 25.684c0 1.162 0.021 2.324-0.021 3.486-0.004 0.184-0.232 0.437-0.42 0.521-1.79 0.795-3.678 1.248-5.611 1.5-2.451 0.322-4.909 0.485-7.368 0.077-6.757-1.121-11.992-6.141-12.457-13.489-0.241-3.788 0.448-7.36 2.618-10.537 2.353-3.449 5.705-5.436 9.769-6.113 4.371-0.726 8.665-0.249 12.82 1.358 0.534 0.209 0.701 0.465 0.673 1.056-0.090 2.043-0.094 4.086-0.13 6.132-0.004 0.18 0.025 0.368-0.012 0.538-0.025 0.134-0.13 0.249-0.199 0.375-0.094-0.123-0.253-0.236-0.274-0.372-0.115-0.77-0.192-1.55-0.293-2.324-0.452-3.298-2.418-5.231-5.566-6.019-2.794-0.694-5.574-0.632-8.265 0.46-3.242 1.317-5.354 3.748-6.353 7.034-1.696 5.607-1.358 11.103 1.688 16.188 2.459 4.099 6.276 5.709 11.009 5.216 1.635-0.171 3.196-0.559 4.587-1.476 1.619-1.064 2.516-2.606 2.826-4.494 0.147-0.889 0.228-1.786 0.362-2.679 0.021-0.142 0.163-0.261 0.249-0.395 0.077 0.134 0.224 0.269 0.228 0.404 0.016 1.182 0.008 2.365 0.008 3.547 0.046 0.001 0.086 0.001 0.132 0.001z"></path>
<path d="M94.829 6.675c0 1.162 0.008 2.328-0.008 3.491-0.004 0.142-0.13 0.286-0.196 0.428-0.094-0.142-0.241-0.274-0.269-0.428-0.285-1.431-0.368-2.932-0.856-4.285-0.824-2.279-2.719-3.457-4.999-3.992-3.616-0.849-7.1-0.579-10.271 1.537-2.378 1.587-3.84 3.865-4.551 6.586-1.366 5.264-1.008 10.398 1.671 15.209 2.3 4.135 6.475 6.124 11.185 5.566 1.431-0.167 2.805-0.469 4.082-1.146 2.34-1.244 3.286-3.344 3.556-5.852 0.061-0.554 0.106-1.117 0.188-1.671 0.021-0.138 0.163-0.257 0.249-0.383 0.073 0.134 0.209 0.274 0.213 0.412 0.037 1.704 0.050 3.409 0.077 5.113 0.012 0.563 0.012 1.129 0.094 1.68 0.065 0.456-0.098 0.69-0.506 0.799-1.757 0.473-3.49 1.073-5.277 1.386-2.895 0.502-5.814 0.575-8.726-0.053-6.561-1.414-11.218-7.034-11.413-13.721-0.094-3.148 0.391-6.153 1.928-8.93 2.112-3.825 5.39-6.174 9.61-7.1 4.66-1.023 9.244-0.521 13.701 1.175 0.527 0.199 0.726 0.441 0.673 1.056-0.093 1.030-0.027 2.078-0.027 3.122-0.042 0-0.086 0-0.126 0z"></path>
<path d="M498.096 19.292h10.911c-1.822-4.482-3.601-8.853-5.375-13.224l-0.18 0.029c-1.769 4.359-3.538 8.717-5.357 13.195zM505.121 0.478c0.445 1.060 0.849 2.010 1.24 2.964 3.2 7.784 6.398 15.564 9.599 23.348 0.343 0.832 0.722 1.656 1.019 2.504 0.232 0.657 0.648 0.991 1.321 1.019 0.803 0.037 1.606 0.044 2.405 0.102 0.18 0.012 0.351 0.159 0.527 0.249-0.171 0.082-0.343 0.236-0.514 0.236-3.49 0.017-6.981 0.017-10.472 0.004-0.175 0-0.347-0.147-0.521-0.224 0.171-0.094 0.343-0.253 0.521-0.265 0.836-0.069 1.68-0.090 2.52-0.142 0.428-0.029 0.531-0.22 0.359-0.644-1.232-3.050-2.439-6.104-3.649-9.158-0.123-0.314-0.282-0.473-0.657-0.473-3.511 0.017-7.017 0.004-10.528 0.025-0.199 0.004-0.51 0.192-0.583 0.366-1.19 2.997-2.365 6.002-3.524 9.012-0.289 0.759-0.249 0.816 0.554 0.889 0.774 0.069 1.562 0.065 2.34 0.123 0.163 0.012 0.314 0.159 0.473 0.241-0.167 0.086-0.335 0.249-0.502 0.249-2.487 0.017-4.975 0.017-7.462 0-0.175-0.004-0.347-0.147-0.521-0.224 0.171-0.090 0.335-0.249 0.51-0.261 0.799-0.065 1.602-0.098 2.401-0.126 0.534-0.017 0.84-0.289 1.040-0.763 1.97-4.689 3.972-9.37 5.917-14.071 1.995-4.812 3.934-9.644 5.904-14.468 0.059-0.142 0.145-0.269 0.283-0.512z"></path>
<path d="M298.025 8.879v-7.332c0.701 0 1.476-0.008 2.246 0.004 1.464 0.021 2.928 0.073 4.392 0.073 5.097 0 10.19-0.012 15.288-0.033 0.881-0.004 1.761-0.061 2.642-0.109 0.46-0.029 0.661 0.050 0.636 0.619-0.098 1.966-0.106 3.93-0.151 5.892 0 0.163 0.029 0.33-0.008 0.481s-0.134 0.286-0.209 0.424c-0.086-0.13-0.228-0.253-0.245-0.391-0.086-0.759-0.138-1.517-0.209-2.275-0.012-0.138-0.033-0.278-0.057-0.416-0.4-2.165-1.297-3.144-3.568-3.405-1.924-0.224-3.878-0.175-5.823-0.232-0.375-0.012-0.6 0.192-0.611 0.583-0.004 0.163-0.008 0.322-0.008 0.481 0 8.69 0 17.379 0 26.065 0 0.877 0.029 0.937 0.889 0.995 0.958 0.065 1.92 0.057 2.882 0.115 0.171 0.008 0.334 0.184 0.502 0.282-0.163 0.073-0.322 0.209-0.485 0.209-3.71 0.012-7.422 0.012-11.132 0-0.155 0-0.306-0.151-0.456-0.232 0.142-0.090 0.286-0.249 0.433-0.261 1.040-0.061 2.083-0.094 3.123-0.13 0.489-0.017 0.697-0.232 0.697-0.751-0.008-8.828-0.008-17.656-0.004-26.488 0-0.437-0.073-0.876-0.608-0.856-2.121 0.073-4.252 0.061-6.353 0.339-1.953 0.257-2.846 1.414-3.066 3.38-0.094 0.836-0.167 1.676-0.269 2.512-0.021 0.18-0.119 0.351-0.184 0.531-0.095-0.026-0.193-0.047-0.287-0.072z"></path>
<path d="M171.832 23.629c0.017 0.192 0.036 0.383 0.040 0.575 0.053 2.002 0.106 4.009 0.147 6.011 0.017 0.694 0.199 0.828-0.783 0.774-1.962-0.106-3.93-0.098-5.896-0.102-4.576-0.012-9.15-0.004-13.726-0.004-0.343 0-0.686 0.040-1.023 0.021-0.126-0.004-0.249-0.123-0.375-0.188 0.119-0.106 0.228-0.285 0.355-0.297 0.538-0.044 1.085-0.037 1.623-0.053 0.481-0.012 0.966-0.012 1.443-0.057 0.828-0.082 0.868-0.138 0.868-0.958 0-4.453 0-8.91 0-13.366 0-4.273 0-8.547 0-12.824 0-0.82-0.094-0.943-0.914-0.979-0.937-0.044-1.884-0.037-2.826-0.086-0.188-0.008-0.368-0.184-0.55-0.285 0.18-0.069 0.362-0.203 0.542-0.203 3.131-0.004 6.263 0.012 9.391 0.021 0.583 0 1.167-0.036 1.746-0.017 0.151 0.004 0.297 0.151 0.448 0.236-0.155 0.086-0.31 0.241-0.465 0.249-0.943 0.044-1.888 0.044-2.83 0.082-0.889 0.033-0.983 0.138-0.983 1.023 0 8.69 0 17.379 0 26.072 0 0.991 0.073 1.085 1.056 1.064 2.585-0.053 5.174-0.061 7.755-0.212 0.929-0.057 1.884-0.375 2.744-0.763 1.016-0.456 1.391-1.447 1.508-2.516 0.106-0.914 0.192-1.835 0.297-2.748 0.025-0.184 0.119-0.358 0.18-0.535 0.077 0.021 0.154 0.046 0.228 0.065z"></path>
<path d="M207.436 23.593c0.040 0.579 0.102 1.154 0.119 1.732 0.050 1.746 0.082 3.491 0.126 5.231 0.004 0.31-0.053 0.481-0.433 0.473-2.064-0.061-4.126-0.13-6.19-0.138-4.616-0.021-9.232-0.008-13.847-0.008-0.322 0-0.644 0.040-0.962 0.021-0.126-0.008-0.245-0.13-0.372-0.199 0.123-0.098 0.236-0.282 0.362-0.285 0.84-0.050 1.684-0.057 2.528-0.077 0.040 0 0.077 0 0.119 0 1.248-0.044 1.276-0.073 1.276-1.309 0-8.567 0-17.134 0-25.705 0-1.027-0.086-1.117-1.129-1.154-0.84-0.029-1.684-0.025-2.524-0.077-0.216-0.012-0.42-0.18-0.628-0.278 0.199-0.073 0.395-0.212 0.596-0.212 3.091-0.004 6.182 0.012 9.273 0.021 0.6 0 1.203-0.033 1.803-0.021 0.142 0.004 0.282 0.134 0.42 0.203-0.138 0.102-0.274 0.278-0.416 0.285-0.962 0.044-1.924 0.044-2.888 0.082-0.876 0.037-0.991 0.171-0.991 1.048 0 8.648 0 17.298 0 25.946 0 1.073 0.102 1.186 1.167 1.167 2.549-0.050 5.093-0.098 7.638-0.196 0.652-0.025 1.317-0.159 1.941-0.362 1.353-0.441 2.181-1.374 2.34-2.834 0.098-0.933 0.184-1.872 0.293-2.809 0.021-0.188 0.115-0.372 0.171-0.559 0.069 0.001 0.138 0.009 0.207 0.013z"></path>
</symbol>
<symbol id="icon-the-collectors-index" viewBox="0 0 32 32">
<title>the-collectors-index</title>
<path d="M16 0c-8.823 0-16 7.178-16 16s7.177 16 16 16c8.822 0 15.999-7.177 15.999-16s-7.177-16-15.999-16zM16 31.249c-8.408 0-15.248-6.841-15.248-15.249s6.84-15.248 15.248-15.248 15.248 6.84 15.248 15.248c0 8.408-6.84 15.249-15.248 15.249zM15.045 16.433c-0.103 0.112-0.3 0.25-0.546 0.25-0.308 0-0.555-0.21-0.586-0.514h1.503c0.008-0.049 0.014-0.108 0.014-0.166 0-0.604-0.425-1.11-1.024-1.11-0.644 0-1.056 0.528-1.056 1.132 0 0.68 0.488 1.128 1.136 1.128 0.336 0 0.68-0.139 0.89-0.389l-0.331-0.331zM14.405 15.364c0.237 0 0.411 0.188 0.429 0.38h-0.894c0.026-0.196 0.223-0.38 0.465-0.38zM10.71 17.109h-0.582v-3.176h0.582v3.176zM5.772 16.183l0.416 0.372c-0.277 0.352-0.742 0.599-1.315 0.599-0.974 0-1.659-0.712-1.659-1.611s0.675-1.61 1.651-1.61c0.465 0 0.863 0.175 1.145 0.447l-0.39 0.412c-0.188-0.188-0.452-0.322-0.76-0.322-0.595 0-1.042 0.478-1.042 1.073 0 0.609 0.465 1.074 1.069 1.074 0.407 0 0.702-0.196 0.886-0.434zM11.829 13.932h0.582v3.176h-0.582v-3.176zM9.19 16.026c0-0.626-0.497-1.132-1.154-1.132-0.658 0-1.155 0.506-1.155 1.132 0 0.627 0.496 1.128 1.155 1.128 0.657 0 1.154-0.501 1.154-1.128zM7.463 16.026c0-0.326 0.232-0.595 0.573-0.595 0.339 0 0.572 0.269 0.572 0.595 0 0.327-0.233 0.591-0.572 0.591-0.341-0-0.573-0.264-0.573-0.591zM19.634 15.431h-0.604v-0.492h0.604v-0.604h0.582v0.604h0.716v0.492h-0.716v0.827c0 0.134 0.022 0.214 0.072 0.273 0.058 0.067 0.152 0.107 0.295 0.107 0.085 0 0.197-0.014 0.238-0.022l0.089 0.492c-0.076 0.028-0.251 0.045-0.363 0.045-0.349 0-0.604-0.117-0.752-0.314-0.111-0.148-0.16-0.34-0.16-0.649v-0.76zM28.719 16.482c0 0.416-0.407 0.671-0.863 0.671-0.3 0-0.617-0.103-0.872-0.291l0.282-0.416c0.147 0.134 0.375 0.215 0.594 0.215 0.157 0 0.277-0.076 0.277-0.184 0-0.326-1.051-0.21-1.051-0.908 0-0.416 0.402-0.676 0.832-0.676 0.282 0 0.59 0.107 0.733 0.219l-0.272 0.421c-0.112-0.080-0.259-0.148-0.416-0.148-0.161 0-0.295 0.062-0.295 0.174 0 0.282 1.051 0.17 1.051 0.922zM22.846 17.154c0.657 0 1.153-0.501 1.153-1.128s-0.496-1.132-1.153-1.132c-0.658 0-1.154 0.506-1.154 1.132s0.496 1.128 1.154 1.128zM22.846 15.431c0.34 0 0.572 0.268 0.572 0.595s-0.232 0.59-0.572 0.59c-0.34 0-0.573-0.264-0.573-0.59s0.233-0.595 0.573-0.595zM26.129 14.894c0.085 0 0.134 0.009 0.196 0.018l-0.067 0.542c-0.040-0.014-0.125-0.023-0.21-0.023-0.255 0-0.456 0.184-0.528 0.313v1.364h-0.582v-2.169h0.559v0.219c0.13-0.162 0.367-0.264 0.631-0.264zM17.934 16.33l0.447 0.336c-0.254 0.339-0.577 0.488-0.983 0.488-0.671 0-1.163-0.501-1.163-1.128 0-0.63 0.505-1.132 1.167-1.132 0.376 0 0.712 0.175 0.912 0.434l-0.411 0.363c-0.117-0.152-0.291-0.26-0.501-0.26-0.335 0-0.585 0.264-0.585 0.594 0 0.341 0.246 0.591 0.6 0.591 0.236-0 0.424-0.144 0.518-0.286zM23.288 23.161l1.332 0.29-0.25 0.246-1.044-0.222 0.21 1.045-0.25 0.246-0.274-1.334-1.107-0.236 0.26-0.258 0.809 0.179-0.166-0.813 0.262-0.258 0.218 1.113zM16.487 25.497c-0.178-0.114-0.397-0.172-0.727-0.151l-0.624 0.040 0.133 2.083 0.625-0.040c0.33-0.021 0.543-0.107 0.705-0.242 0.244-0.207 0.382-0.527 0.359-0.872s-0.202-0.645-0.47-0.819zM16.444 26.934c-0.123 0.122-0.292 0.195-0.584 0.214l-0.313 0.020-0.097-1.518 0.313-0.021c0.292-0.019 0.468 0.033 0.606 0.137 0.167 0.13 0.276 0.336 0.29 0.568 0.016 0.232-0.066 0.45-0.215 0.599zM9.119 22.259l0.217 0.205-1.43 1.519-0.217-0.204 1.43-1.521zM12.463 24.604l0.276 0.113-0.796 1.929-0.193-0.080-0.573-1.894-0.585 1.416-0.274-0.114 0.796-1.929 0.193 0.079 0.573 1.895 0.584-1.417zM20.998 25.913l0.126 0.253-1.092 0.548-0.936-1.865 1.065-0.535 0.127 0.253-0.799 0.402 0.24 0.48 0.614-0.308 0.126 0.253-0.612 0.307 0.314 0.627 0.827-0.414zM15.321 7.331l-0.297-0.019 0.132-2.083 0.297 0.019-0.052 0.819 1.161 0.074 0.052-0.819 0.297 0.019-0.132 2.084-0.297-0.019 0.062-0.982-1.161-0.074-0.062 0.982zM20.020 8.361l-1.119-0.491 0.836-1.912 1.093 0.478-0.113 0.259-0.82-0.359-0.215 0.492 0.629 0.275-0.113 0.259-0.628-0.275-0.281 0.643 0.847 0.37-0.114 0.259zM11.145 6.668l-0.093-0.267 1.349-0.475 0.094 0.267-0.534 0.188 0.598 1.702-0.28 0.099-0.599-1.701-0.535 0.188z"></path>
</symbol>
<symbol id="icon-smythson" viewBox="0 0 103 32">
<title>smythson</title>
<path d="M22.328 19.205l0.893-0.224-1.666-6.893c0 0-3.16 4.768-3.773 5.674-0.606-0.923-3.776-5.674-3.776-5.674l-0.249 0.963-1.453 5.942 0.891 0.218c0.425-1.725 0.988-4.042 1.213-4.968 0.816 1.231 3.364 5.168 3.364 5.168s2.548-3.85 3.366-5.049c0.214 0.865 0.76 3.079 1.191 4.843z"></path>
<path d="M81.237 15.721c0-1.514 1.433-2.818 3.208-2.818s3.21 1.305 3.21 2.818c0 1.513-1.436 2.818-3.21 2.818s-3.208-1.305-3.208-2.817zM80.314 15.721c0 2.023 1.852 3.665 4.131 3.665s4.132-1.642 4.132-3.665c0-2.018-1.855-3.666-4.132-3.666s-4.131 1.648-4.131 3.666z"></path>
<path d="M70.809 12.163l-0.054 0.002c-1.522 0.026-2.661 0.808-2.661 1.84 0 1.552 1.786 1.856 2.749 2.019l0.113 0.019c1.563 0.252 2.117 0.584 2.117 1.258 0 0.8-1.225 1.165-2.266 1.165-1.244 0-2.169-0.612-2.608-1.11l-0.669 0.593c0.74 0.819 1.992 1.329 3.277 1.329 1.951 0 3.161-0.761 3.161-1.977 0-1.671-1.871-1.879-2.868-2.040 0-0.001-0.109-0.019-0.109-0.019-1.055-0.18-2.006-0.502-2.006-1.237 0-0.498 0.831-1.005 1.794-1.010 0.851 0.004 1.625 0.339 2.021 0.77l0.66-0.604c-0.562-0.61-1.551-0.982-2.649-0.99v-0.008h-0.003z"></path>
<path d="M3.28 12.163l-0.056 0.002c-1.521 0.026-2.666 0.808-2.666 1.84 0 1.552 1.793 1.856 2.754 2.019l0.113 0.019c1.564 0.252 2.114 0.584 2.114 1.258 0 0.8-1.215 1.165-2.259 1.165-1.248 0-2.172-0.612-2.618-1.11l-0.662 0.593c0.732 0.819 1.992 1.329 3.28 1.329 1.944 0 3.152-0.761 3.152-1.977 0-1.671-1.856-1.879-2.854-2.040 0-0.001-0.114-0.019-0.114-0.019-1.060-0.18-2.016-0.502-2.016-1.237 0-0.498 0.844-1.005 1.809-1.010 0.845 0.004 1.616 0.339 2.014 0.77l0.658-0.604c-0.566-0.61-1.549-0.982-2.643-0.99v-0.008h-0.007z"></path>
<path d="M56.959 0.828c0 0.237 0.136 0.455 0.359 0.613-0.336 0.185-0.544 0.482-0.544 0.813 0 0.537 0.564 0.982 1.251 0.982 0.7 0 1.25-0.444 1.25-0.982 0-0.331-0.195-0.629-0.542-0.813 0.224-0.158 0.359-0.377 0.359-0.613 0-0.455-0.473-0.825-1.067-0.825-0.58 0-1.066 0.371-1.066 0.825zM57.372 0.828c0-0.262 0.292-0.473 0.652-0.473 0.361 0 0.665 0.211 0.665 0.473 0 0.258-0.304 0.47-0.665 0.47-0.359 0-0.652-0.211-0.652-0.47zM57.176 2.255c0-0.351 0.383-0.636 0.849-0.636s0.851 0.284 0.851 0.636c0 0.345-0.384 0.63-0.851 0.63s-0.849-0.285-0.849-0.63z"></path>
<path d="M61.607 0.828c0 0.237 0.124 0.455 0.359 0.613-0.348 0.185-0.554 0.482-0.554 0.813 0 0.537 0.563 0.982 1.249 0.982 0.701 0 1.264-0.444 1.264-0.982 0-0.331-0.207-0.629-0.556-0.813 0.237-0.158 0.359-0.377 0.359-0.613 0-0.455-0.471-0.825-1.067-0.825-0.58 0-1.054 0.371-1.054 0.825zM62.009 0.828c0-0.262 0.292-0.473 0.651-0.473 0.373 0 0.665 0.211 0.665 0.473 0 0.258-0.292 0.47-0.665 0.47-0.359 0-0.651-0.211-0.651-0.47zM61.824 2.255c0-0.351 0.372-0.636 0.836-0.636 0.48 0 0.851 0.284 0.851 0.636 0 0.345-0.371 0.63-0.851 0.63-0.464 0-0.836-0.285-0.836-0.63z"></path>
<path d="M68.425 0.137h-2.212v0.363h1.596c-0.063 0.092-1.67 2.54-1.67 2.54l0.314 0.181 2.033-3.084c0 0-0.060 0-0.060 0z"></path>
<path d="M18.506 29.822c0-0.665 0.634-1.245 1.418-1.245 0.78 0 1.415 0.58 1.415 1.245 0 0.668-0.636 1.245-1.415 1.245-0.784 0-1.418-0.577-1.418-1.245zM18.101 29.822c0 0.891 0.818 1.617 1.823 1.617 0.999 0 1.818-0.726 1.818-1.617s-0.819-1.617-1.818-1.617c-1.005 0-1.823 0.726-1.823 1.617z"></path>
<path d="M37.736 29.822c0-0.665 0.632-1.245 1.412-1.245 0.782 0 1.42 0.58 1.42 1.245 0 0.668-0.638 1.245-1.42 1.245-0.78 0-1.412-0.577-1.412-1.245zM37.329 29.822c0 0.891 0.818 1.617 1.819 1.617 1.005 0 1.82-0.726 1.82-1.617s-0.816-1.617-1.82-1.617c-1.001 0-1.819 0.726-1.819 1.617z"></path>
<path d="M43.499 28.657v2.65h0.406v-2.304c0.525 0.383 3.184 2.382 3.184 2.382v-3.044h-0.408v2.263c-0.519-0.381-3.183-2.349-3.183-2.349v0.401z"></path>
<path d="M59.83 28.205h-0.031c-0.7 0.013-1.212 0.369-1.212 0.834 0 0.708 0.818 0.848 1.252 0.922l0.046 0.007c0.708 0.118 0.96 0.265 0.96 0.569 0 0.367-0.545 0.532-1.017 0.532-0.568 0-0.988-0.278-1.197-0.503l-0.295 0.269c0.33 0.373 0.9 0.604 1.493 0.604 0.874 0 1.43-0.345 1.43-0.902 0-0.754-0.848-0.848-1.304-0.925 0-0.001-0.046-0.006-0.046-0.006-0.488-0.084-0.92-0.23-0.92-0.567 0-0.223 0.386-0.449 0.82-0.456 0.388 0.005 0.741 0.154 0.919 0.35l0.295-0.271c-0.255-0.281-0.694-0.446-1.193-0.457z"></path>
<path d="M59.952 12.357v2.912h-4.489v-2.912h-0.923v6.73h0.923v-2.977h4.489v2.977h0.921v-6.73z"></path>
<path d="M47.996 12.357h-6.334v0.839h2.707v5.891h0.921v-5.891h2.706z"></path>
<path d="M95.226 13.081v6.007h0.92v-5.22c1.181 0.867 7.22 5.514 7.22 5.514v-7.024h-0.92v5.218c-1.188-0.861-7.22-5.488-7.22-5.488v0.993z"></path>
<path d="M35.769 12.621l-0.749-0.536-2.847 3.989-2.847-3.986-0.749 0.534 3.132 4.385v2.081h0.923v-2.070z"></path>
<path d="M41.698 0l-0.024 0.001c-0.694 0.013-1.212 0.369-1.212 0.835 0 0.708 0.813 0.847 1.251 0.922l0.052 0.005c0.709 0.119 0.96 0.266 0.96 0.571 0 0.366-0.551 0.531-1.029 0.531-0.569 0-0.982-0.28-1.187-0.502l-0.298 0.269c0.328 0.372 0.899 0.604 1.485 0.604 0.887 0 1.437-0.35 1.437-0.902 0-0.755-0.848-0.851-1.3-0.926l-0.051-0.006c-0.481-0.085-0.916-0.23-0.916-0.566 0-0.226 0.382-0.45 0.822-0.457 0.383 0.004 0.733 0.153 0.915 0.351l0.3-0.272c-0.26-0.281-0.708-0.446-1.206-0.455 0 0 0-0.002 0-0.002z"></path>
<path d="M48.053 0.137h-2.794v0.371h1.195v2.592h0.405v-2.592h1.194z"></path>
<path d="M37.836 2.73h-1.986v-0.938h1.699v-0.373h-1.699v-0.915h1.913v-0.367h-2.32v2.963h2.393z"></path>
<path d="M54.28 0.137h-0.75l-0.203 0.367h0.592v2.596h0.393v-2.963z"></path>
<path d="M65.816 28.342h-2.8v0.373h1.2v2.589h0.399v-2.589h1.201z"></path>
<path d="M85.827 28.342h-2.8v0.373h1.2v2.589h0.401v-2.589h1.199z"></path>
<path d="M75.832 30.939h-1.994v-0.944h1.707v-0.373h-1.707v-0.912h1.921v-0.37h-2.32v2.966h2.393z"></path>
<path d="M80.782 30.939h-1.991v-0.944h1.705v-0.373h-1.705v-0.912h1.917v-0.37h-2.32v2.966h2.395z"></path>
<path d="M24.529 31.303v-1.307h1.656v-0.373h-1.656v-0.912h1.869v-0.37h-2.294v2.966h0.406z"></path>
<path d="M69.798 30.066c0.292-0.016 0.507-0.106 0.651-0.26 0.071-0.074 0.135-0.162 0.175-0.26 0.036-0.098 0.059-0.206 0.059-0.335v-0.011c0-0.129-0.022-0.237-0.059-0.337-0.040-0.098-0.104-0.184-0.175-0.259-0.17-0.171-0.4-0.264-0.752-0.264h-1.35v2.963h0.394v-1.233l1.056-0.004zM68.739 29.709v-1.007h0.959c0.333 0 0.579 0.139 0.579 0.5 0 0.369-0.246 0.507-0.579 0.507h-0.959z"></path>
<path d="M34.944 30.162c-0.047-0.1-0.103-0.188-0.173-0.266-0.041-0.040-0.090-0.078-0.144-0.112 0.025-0.018 0.049-0.035 0.070-0.054 0.071-0.077 0.13-0.163 0.174-0.265 0.038-0.095 0.058-0.144 0.060-0.281v-0.004c-0.002-0.13-0.022-0.215-0.060-0.311-0.045-0.1-0.103-0.187-0.174-0.262-0.161-0.171-0.408-0.266-0.752-0.266h-1.35v2.97h1.425c0.344 0 0.589-0.1 0.752-0.264 0.069-0.078 0.126-0.162 0.173-0.264 0.039-0.095 0.058-0.204 0.060-0.338v-0.005c-0.002-0.134-0.021-0.182-0.060-0.278zM32.993 28.714h0.952c0.336 0 0.576 0.126 0.576 0.463 0 0.321-0.22 0.446-0.533 0.459h-0.995c0 0 0-0.922 0-0.922zM34.018 30.942h-1.026v-0.944h1.026c0.337 0 0.575 0.128 0.575 0.468 0 0.349-0.237 0.476-0.575 0.476z"></path>
<path d="M51.041 28.342h-0.002c-0.004 0-0.005-0.001-0.007-0.001v0.001c-0.051 0-0.087-0.001-0.124-0.001h-1.369v2.963h1.494v0.008c0.909 0 1.674-0.669 1.674-1.488 0-0.812-0.747-1.476-1.666-1.482zM51.038 30.905h-1.098v-2.169h1.1c0.711 0.006 1.25 0.479 1.25 1.088 0 0.613-0.54 1.078-1.252 1.081z"></path>
<path d="M70.732 31.307l-1.587-1.558-0.258 0.266 1.314 1.293z"></path>
</symbol>
<symbol id="icon-barbour" viewBox="0 0 160 32">
<title>barbour</title>
<path d="M0 0.016h12.208c1.424 0 2.848 0.096 4.272 0.288 1.44 0.192 2.72 0.576 3.856 1.152s2.064 1.392 2.768 2.416c0.704 1.040 1.056 2.416 1.056 4.128 0 1.776-0.512 3.248-1.552 4.416s-2.4 2-4.096 2.512v0.096c1.072 0.144 2.064 0.432 2.944 0.864s1.632 0.976 2.272 1.648c0.624 0.672 1.12 1.44 1.456 2.336 0.336 0.88 0.512 1.84 0.512 2.848 0 1.664-0.368 3.040-1.104 4.144s-1.696 2-2.864 2.688c-1.168 0.688-2.496 1.168-3.952 1.472-1.472 0.304-2.928 0.448-4.368 0.448h-13.408v-31.456zM7.216 12.592h5.232c0.56 0 1.104-0.064 1.648-0.176s1.024-0.304 1.456-0.576 0.784-0.624 1.040-1.072c0.256-0.448 0.4-0.976 0.4-1.6 0-0.656-0.144-1.184-0.432-1.616s-0.672-0.768-1.136-0.992c-0.464-0.24-0.992-0.4-1.568-0.512-0.592-0.096-1.152-0.16-1.712-0.16h-4.928v6.704zM7.216 25.6h6.48c0.56 0 1.12-0.064 1.68-0.176 0.576-0.112 1.088-0.32 1.552-0.624 0.464-0.288 0.832-0.688 1.136-1.152 0.288-0.48 0.432-1.056 0.432-1.728 0-0.736-0.192-1.344-0.576-1.792-0.384-0.464-0.864-0.8-1.456-1.040s-1.216-0.4-1.888-0.496c-0.672-0.096-1.312-0.128-1.888-0.128h-5.472v7.136z"></path>
<path d="M42.384 28.784h-0.096c-0.752 1.136-1.744 1.952-2.992 2.448s-2.56 0.752-3.952 0.752c-1.024 0-2-0.144-2.96-0.416-0.944-0.272-1.776-0.688-2.496-1.248s-1.296-1.248-1.712-2.064c-0.416-0.816-0.624-1.776-0.624-2.848 0-1.232 0.24-2.272 0.704-3.12s1.104-1.552 1.888-2.112c0.8-0.56 1.712-0.992 2.736-1.296s2.080-0.528 3.184-0.672c1.104-0.144 2.192-0.24 3.296-0.256 1.104-0.032 2.112-0.048 3.040-0.048 0-1.168-0.432-2.096-1.28-2.784-0.864-0.688-1.872-1.024-3.040-1.024-1.12 0-2.128 0.224-3.040 0.672s-1.744 1.072-2.464 1.856l-3.616-3.6c1.264-1.136 2.736-2 4.416-2.56 1.68-0.576 3.424-0.848 5.232-0.848 1.984 0 3.616 0.24 4.896 0.72s2.304 1.184 3.072 2.128c0.768 0.928 1.296 2.080 1.6 3.44s0.448 2.928 0.448 4.72v10.832h-6.224v-2.672h-0.016zM40.72 22.112c-0.512 0-1.152 0.016-1.92 0.064s-1.504 0.176-2.208 0.368c-0.704 0.208-1.312 0.512-1.808 0.928s-0.752 0.976-0.752 1.712c0 0.784 0.352 1.376 1.040 1.76s1.408 0.576 2.16 0.576c0.656 0 1.296-0.080 1.92-0.256 0.608-0.176 1.168-0.416 1.648-0.752 0.48-0.32 0.864-0.736 1.152-1.232s0.432-1.088 0.432-1.76v-1.408h-1.664z"></path>
<path d="M93.984 20.656c0-1.712 0.32-3.264 0.944-4.656s1.488-2.576 2.592-3.568 2.384-1.76 3.872-2.288 3.072-0.8 4.752-0.8 3.264 0.272 4.752 0.8 2.784 1.296 3.872 2.288c1.104 0.992 1.968 2.176 2.592 3.568s0.944 2.944 0.944 4.656-0.32 3.264-0.944 4.656c-0.624 1.392-1.504 2.576-2.592 3.568-1.104 0.992-2.384 1.76-3.872 2.288s-3.072 0.8-4.752 0.8-3.264-0.272-4.752-0.8-2.784-1.296-3.872-2.288c-1.104-0.992-1.968-2.176-2.592-3.568s-0.944-2.944-0.944-4.656zM100.752 20.656c0 1.632 0.48 2.944 1.424 3.952s2.272 1.504 3.984 1.504 3.040-0.496 3.984-1.504c0.944-1.008 1.424-2.32 1.424-3.952s-0.48-2.944-1.424-3.952c-0.944-1.008-2.272-1.504-3.984-1.504s-3.040 0.496-3.984 1.504c-0.944 1.008-1.424 2.32-1.424 3.952z"></path>
<path d="M141.872 31.456h-6.496v-2.864h-0.096c-0.24 0.4-0.544 0.816-0.928 1.216s-0.832 0.768-1.376 1.088c-0.544 0.32-1.152 0.576-1.856 0.784-0.688 0.208-1.44 0.304-2.256 0.304-1.712 0-3.104-0.256-4.176-0.768s-1.888-1.216-2.48-2.112c-0.592-0.896-0.976-1.952-1.168-3.168s-0.288-2.544-0.288-3.952v-11.664h6.768v10.352c0 0.608 0.016 1.232 0.064 1.888s0.176 1.248 0.4 1.808c0.224 0.544 0.576 1.008 1.040 1.344 0.464 0.352 1.136 0.528 2 0.528s1.584-0.16 2.112-0.464c0.544-0.304 0.96-0.704 1.248-1.216s0.48-1.072 0.56-1.712c0.096-0.64 0.128-1.312 0.128-2v-10.528h6.768v21.136h0.032z"></path>
<path d="M58.256 13.664v-3.584h-6.72v21.296h6.72v-11.488c1.024-6.4 7.184-4.336 7.184-4.336l0.864-5.712c-5.424-1.392-8.048 3.824-8.048 3.824z"></path>
<path d="M151.952 13.728v-3.568h-6.72v21.296h6.72v-11.488c1.024-6.4 7.184-4.336 7.184-4.336l0.864-5.712c-5.44-1.392-8.048 3.808-8.048 3.808z"></path>
<path d="M91.632 16.816c-0.48-1.344-1.152-2.544-2.032-3.584s-1.952-1.872-3.216-2.496c-1.264-0.624-2.688-0.928-4.288-0.928-1.44 0-2.8 0.208-4.048 0.624-1.184 0.4-2.176 1.072-2.96 2.016v-12.208h-6.96v31.040h6.416v-2.48c0.256 0.336 0.592 0.672 0.976 1.024 0.448 0.384 0.976 0.752 1.568 1.072 0.608 0.32 1.248 0.576 1.968 0.784 0.704 0.208 1.456 0.304 2.256 0.304 1.664 0 3.168-0.272 4.528-0.8 1.36-0.544 2.512-1.296 3.488-2.256 0.976-0.976 1.712-2.128 2.24-3.456s0.784-2.8 0.784-4.4c0-1.488-0.24-2.896-0.72-4.256zM84.016 24.864c-0.944 1.008-2.272 1.504-3.984 1.504s-3.040-0.496-3.984-1.504c-0.944-1.008-1.424-2.32-1.424-3.952s0.48-2.944 1.424-3.952c0.944-1.008 2.272-1.504 3.984-1.504s3.040 0.496 3.984 1.504 1.424 2.32 1.424 3.952-0.464 2.96-1.424 3.952z"></path>
</symbol>
<symbol id="icon-galvan" viewBox="0 0 98 32">
<title>galvan</title>
<path d="M11.71 6.215v4.87h-1.094l-0.351-0.949c-0.701 0.454-1.672 1.094-3.488 1.094-2.373 0-5.263-1.156-5.263-4.87 0-2.477 1.506-4.892 5.201-4.892 2.146 0 4.478 0.784 4.932 3.137h-1.857c-0.227-0.474-0.722-1.568-2.848-1.568-2.909 0-3.611 1.961-3.611 3.261 0 2.208 1.486 3.322 3.447 3.322 1.795 0 2.786-0.619 3.219-1.94h-3.26v-1.465h4.973z"></path>
<path d="M22.816 1.705l-4.603 9.288h1.94l0.991-2.148h5.366l0.97 2.148h1.919l-4.52-9.288-2.063 0zM23.848 3.15l1.94 4.149h-3.88l1.94-4.149z"></path>
<path d="M61.227 1.744l-3.55 7.429-3.488-7.429h-1.94l4.459 9.308 1.899-0 4.561-9.308z"></path>
<path d="M73.695 1.705l-4.602 9.308h1.94l0.991-2.146h5.366l0.971 2.146h1.918l-4.52-9.308h-2.064zM74.748 3.149l1.94 4.149h-3.881l1.941-4.149z"></path>
<path d="M95.058 1.705v6.707l-6.212-6.707h-1.92l-0.020 9.266h1.733l-0-6.934 6.481 6.956 1.671 0v-9.288z"></path>
<path d="M37.325 1.705v9.308h8.565l0-1.61h-6.749l-0-7.698z"></path>
<path d="M3.145 20.843v9.309l8.565-0v-1.61h-6.748l-0-7.699z"></path>
<path d="M23.828 20.616c4.086 0 5.531 2.415 5.531 4.953 0 1.94-1.135 4.809-5.531 4.809s-5.531-2.869-5.531-4.809c-0.021-2.538 1.424-4.953 5.531-4.953zM27.542 25.465c0-2.229-1.589-3.281-3.714-3.281s-3.715 1.052-3.715 3.281c0 2.642 1.982 3.344 3.715 3.344s3.714-0.703 3.714-3.344z"></path>
<path d="M44.59 20.842v6.708l-6.212-6.708h-1.92v9.288h1.714v-6.956l6.481 6.976h1.671v-9.309z"></path>
<path d="M53.241 20.842h4.478c2.952 0 5.305 1.239 5.304 4.602 0 3.178-2.147 4.706-5.222 4.706h-4.561v-9.308zM56.894 28.582c3.096 0 4.292-0.95 4.292-3.117 0-2.27-1.258-3.054-4.292-3.054h-1.837v6.171h1.837z"></path>
<path d="M74.706 20.615c4.087 0 5.531 2.415 5.531 4.953 0 1.94-1.135 4.809-5.531 4.809s-5.531-2.869-5.531-4.809c0-2.538 1.445-4.953 5.531-4.953zM78.441 25.465c0-2.229-1.589-3.281-3.715-3.281s-3.715 1.052-3.715 3.281c0 2.642 1.981 3.344 3.715 3.344 1.713 0 3.715-0.703 3.715-3.344z"></path>
<path d="M95.058 20.842l0 6.708-6.212-6.708h-1.92l-0.020 9.309h1.733l-0-6.955 6.481 6.955h1.671l-0-9.309z"></path>
</symbol>
<symbol id="icon-omega" viewBox="0 0 64 32">
<title>omega</title>
<path d="M6.505 19.165c-3.516 0-6.33 2.901-6.242 6.418v0c0 3.516 2.725 6.33 6.242 6.418v0c3.516-0.176 6.242-3.165 6.066-6.769-0.176-3.253-2.725-5.89-6.066-6.066zM10.901 25.582v0c0.088 2.462-1.846 4.571-4.308 4.571 0 0 0 0-0.088 0-2.549 0-4.571-2.11-4.571-4.571s2.11-4.571 4.571-4.571c2.462 0 4.484 2.022 4.396 4.571 0-0.088 0-0.088 0 0z"></path>
<path d="M20.484 27.516l-3.516-8.44-3.868 12.571h1.934v0.088l2.198-7.473 3.253 7.824 3.253-7.824 2.286 7.473h1.846l-3.868-12.659z"></path>
<path d="M57.143 18.725l-6.418 12.923h2.022l1.319-2.549h6.33l1.231 2.549h2.022l-6.505-12.923zM54.857 27.429l2.198-4.659 2.286 4.659h-4.484z"></path>
<path d="M50.901 25.143h-6.066v1.758h4.22c-0.527 1.934-2.286 3.253-4.308 3.253-2.549 0-4.571-2.022-4.571-4.571s2.022-4.571 4.571-4.571v0c1.495 0 2.813 0.791 3.692 1.934l1.407-1.055c-1.143-1.67-3.077-2.725-5.099-2.725-3.341 0-6.154 2.725-6.242 6.066-0.088 3.429 2.637 6.33 6.066 6.418s6.33-2.637 6.418-6.066c-0.088-0.176-0.088-0.264-0.088-0.44z"></path>
<path d="M25.143 7.648c0-3.253 2.286-6.505 5.89-6.505 3.692 0 5.89 3.077 5.89 6.505 0 3.341-1.758 5.978-4.308 7.912l0.088 0.264h5.802l1.231-2.462h-0.615l-0.791 1.231h-2.989c2.286-1.495 3.692-4.044 3.78-6.769 0-4.659-4.044-7.385-8.176-7.385s-8.176 2.725-8.176 7.385c0.088 2.725 1.494 5.275 3.78 6.769h-2.989l-0.791-1.231h-0.615l1.231 2.462h5.802l0.176-0.264c-2.462-1.934-4.22-4.659-4.22-7.912z"></path>
<path d="M29.363 31.648h7.297v-1.758h-5.451v-3.429h5.275v-1.758h-5.275v-3.516h5.451v-1.758h-7.297z"></path>
</symbol>
<symbol id="icon-toni-and-guy" viewBox="0 0 213 32">
<title>toni-and-guy</title>
<path d="M138.209 13.185v7.233h5.036c-0.549 1.877-2.793 2.701-4.486 2.701-3.617 0-5.722-3.205-5.722-6.547 0-3.708 2.197-7.142 6.18-7.142 1.831 0 3.388 0.824 4.257 2.381l8.744-3.205v4.624h-13.963v-0.046h-0.046zM107.765 11.262c-0.732-0.412-1.511-1.556-1.511-2.381 0-1.099 0.824-2.014 1.969-2.014 0.87 0 1.648 0.87 1.648 1.831 0 1.099-1.19 2.014-2.106 2.564zM104.698 24.217c-1.465 0-2.793-0.732-2.793-2.289 0-1.145 0.961-1.831 1.831-2.335l3.891 3.891c-0.961 0.366-1.785 0.732-2.93 0.732zM195.571 0.046l-2.197 5.127c-0.412 0.916-0.687 1.923-1.007 2.884h-0.32l-3.433-8.057h-19.227v17.167c0 2.381-0.092 4.486-3.021 4.486-2.976 0-3.021-2.106-3.021-4.486v-17.167h-11.17v5.356c-3.25-3.525-8.973-5.356-13.322-5.356-9.66 0-17.030 6.043-17.030 16.069 0 0.046 0 0.046 0 0.092l-1.465-1.648c-1.419 1.648-2.838 3.433-4.715 4.67l-2.747-2.793c3.388-1.007 5.997-4.074 5.997-7.691 0-5.722-6.318-8.515-11.216-8.515-5.265 0-11.353 2.564-11.353 8.561 0 2.518 1.282 4.12 3.021 5.722-2.243 0.458-4.349 1.373-5.814 2.838v-17.305h-11.17l-0.046 31.908h11.079v-4.12c2.289 2.838 6.409 4.074 10.438 4.074 3.708 0 6.592-0.778 9.705-2.793l2.564 2.838h12.773l-7.554-7.187 2.014-1.511c2.701 5.539 8.561 8.744 15.382 8.744 4.761 0 9.797-2.106 13.047-5.631 0.595-0.641 1.099-1.282 1.465-1.923 2.014 4.99 6.775 7.599 13.139 7.599 8.561 0 14.192-4.807 14.192-13.78v-10.667l6.134 9.98v14.421h10.941v-14.421l10.529-17.488c-0.046 0-12.589 0-12.589 0z"></path>
<path d="M212.692 2.335h-0.549v-1.694l-0.641 1.785h-0.32l-0.641-1.785v1.785h-0.549v-2.289h0.87l0.504 1.328 0.504-1.328h0.87l-0.046 2.197zM209.808 0.641h-0.641v1.785h-0.687v-1.785h-0.641v-0.549h1.923l0.046 0.549z"></path>
<path d="M73.614 0.046h-3.25v16.023l-9.385-16.023h-10.712v6.913c-3.021-4.258-8.24-6.775-14.1-6.775-4.99 0-9.522 1.831-12.589 4.944v-5.036h-23.577v10.667l6.18-0.275-0.046 21.471h11.17l0.046-21.471 2.701 0.137c-0.595 1.648-0.916 3.525-0.916 5.494 0 9.843 7.645 15.794 16.984 15.794 5.951 0 11.124-2.335 14.146-6.546v6.592h10.712v-16.664l9.385 16.664h10.667v-31.908h-7.416zM36.12 22.157c-3.388 0-5.722-2.381-5.722-5.951 0-3.296 2.197-5.997 5.722-5.997s5.722 2.747 5.722 5.997c0 3.571-2.381 5.951-5.722 5.951z"></path>
</symbol>
<symbol id="icon-twitter" viewBox="0 0 26 28">
<title>twitter</title>
<path d="M25.312 6.375c-0.688 1-1.547 1.891-2.531 2.609 0.016 0.219 0.016 0.438 0.016 0.656 0 6.672-5.078 14.359-14.359 14.359-2.859 0-5.516-0.828-7.75-2.266 0.406 0.047 0.797 0.063 1.219 0.063 2.359 0 4.531-0.797 6.266-2.156-2.219-0.047-4.078-1.5-4.719-3.5 0.313 0.047 0.625 0.078 0.953 0.078 0.453 0 0.906-0.063 1.328-0.172-2.312-0.469-4.047-2.5-4.047-4.953v-0.063c0.672 0.375 1.453 0.609 2.281 0.641-1.359-0.906-2.25-2.453-2.25-4.203 0-0.938 0.25-1.797 0.688-2.547 2.484 3.062 6.219 5.063 10.406 5.281-0.078-0.375-0.125-0.766-0.125-1.156 0-2.781 2.25-5.047 5.047-5.047 1.453 0 2.766 0.609 3.687 1.594 1.141-0.219 2.234-0.641 3.203-1.219-0.375 1.172-1.172 2.156-2.219 2.781 1.016-0.109 2-0.391 2.906-0.781z"></path>
</symbol>
<symbol id="icon-facebook" viewBox="0 0 16 28">
<title>facebook</title>
<path d="M14.984 0.187v4.125h-2.453c-1.922 0-2.281 0.922-2.281 2.25v2.953h4.578l-0.609 4.625h-3.969v11.859h-4.781v-11.859h-3.984v-4.625h3.984v-3.406c0-3.953 2.422-6.109 5.953-6.109 1.687 0 3.141 0.125 3.563 0.187z"></path>
</symbol>
<symbol id="icon-instagram" viewBox="0 0 24 28">
<title>instagram</title>
<path d="M16 14c0-2.203-1.797-4-4-4s-4 1.797-4 4 1.797 4 4 4 4-1.797 4-4zM18.156 14c0 3.406-2.75 6.156-6.156 6.156s-6.156-2.75-6.156-6.156 2.75-6.156 6.156-6.156 6.156 2.75 6.156 6.156zM19.844 7.594c0 0.797-0.641 1.437-1.437 1.437s-1.437-0.641-1.437-1.437 0.641-1.437 1.437-1.437 1.437 0.641 1.437 1.437zM12 4.156c-1.75 0-5.5-0.141-7.078 0.484-0.547 0.219-0.953 0.484-1.375 0.906s-0.688 0.828-0.906 1.375c-0.625 1.578-0.484 5.328-0.484 7.078s-0.141 5.5 0.484 7.078c0.219 0.547 0.484 0.953 0.906 1.375s0.828 0.688 1.375 0.906c1.578 0.625 5.328 0.484 7.078 0.484s5.5 0.141 7.078-0.484c0.547-0.219 0.953-0.484 1.375-0.906s0.688-0.828 0.906-1.375c0.625-1.578 0.484-5.328 0.484-7.078s0.141-5.5-0.484-7.078c-0.219-0.547-0.484-0.953-0.906-1.375s-0.828-0.688-1.375-0.906c-1.578-0.625-5.328-0.484-7.078-0.484zM24 14c0 1.656 0.016 3.297-0.078 4.953-0.094 1.922-0.531 3.625-1.937 5.031s-3.109 1.844-5.031 1.937c-1.656 0.094-3.297 0.078-4.953 0.078s-3.297 0.016-4.953-0.078c-1.922-0.094-3.625-0.531-5.031-1.937s-1.844-3.109-1.937-5.031c-0.094-1.656-0.078-3.297-0.078-4.953s-0.016-3.297 0.078-4.953c0.094-1.922 0.531-3.625 1.937-5.031s3.109-1.844 5.031-1.937c1.656-0.094 3.297-0.078 4.953-0.078s3.297-0.016 4.953 0.078c1.922 0.094 3.625 0.531 5.031 1.937s1.844 3.109 1.937 5.031c0.094 1.656 0.078 3.297 0.078 4.953z"></path>
</symbol>
<symbol id="icon-brightness_1" viewBox="0 0 32 32">
<title>brightness_1</title>
<path d="M2.688 16c0-7.375 5.938-13.313 13.313-13.313s13.313 5.938 13.313 13.313-5.938 13.313-13.313 13.313-13.313-5.938-13.313-13.313z"></path>
</symbol>
<symbol id="icon-call_made" viewBox="0 0 32 32">
<title>call_made</title>
<path d="M12 6.688h13.313v13.313h-2.625v-8.813l-15.5 15.5-1.875-1.875 15.5-15.5h-8.813v-2.625z"></path>
</symbol>
<symbol id="icon-dehaze" viewBox="0 0 32 32">
<title>dehaze</title>
<path d="M2.688 7.313h26.625v2.688h-26.625v-2.688zM2.688 14h26.625v2.688h-26.625v-2.688zM2.688 20.688h26.625v2.625h-26.625v-2.625z"></path>
</symbol>
<symbol id="icon-play_arrow" viewBox="0 0 32 32">
<title>play_arrow</title>
<path d="M10.688 6.688l14.625 9.313-14.625 9.313v-18.625z"></path>
</symbol>
<symbol id="icon-sort" viewBox="0 0 32 32">
<title>sort</title>
<path d="M4 17.313v-2.625h16v2.625h-16zM4 8h24v2.688h-24v-2.688zM4 24v-2.688h8v2.688h-8z"></path>
</symbol>
<symbol id="icon-clock" viewBox="0 0 32 32">
<title>clock</title>
<path d="M16 1.333c-8.133 0-14.667 6.533-14.667 14.667s6.533 14.667 14.667 14.667 14.667-6.533 14.667-14.667-6.533-14.667-14.667-14.667zM16 28c-6.667 0-12-5.333-12-12s5.333-12 12-12c6.667 0 12 5.333 12 12s-5.333 12-12 12z"></path>
<path d="M21.867 17.467l-4.533-2.267v-7.2c0-0.8-0.533-1.333-1.333-1.333s-1.333 0.533-1.333 1.333v8c0 0.533 0.267 0.933 0.8 1.2l5.333 2.667c0.133 0.133 0.267 0.133 0.533 0.133 0.533 0 0.933-0.267 1.2-0.8s0-1.333-0.667-1.733z"></path>
</symbol>
<symbol id="icon-logo" viewBox="0 0 32 32">
<title>logo</title>
<path d="M5.465 22.695c-0.703-0.484-1.157-1.201-1.157-2.257 0-1.758 1.275-2.872 3.047-2.872 1.774 0 3.048 1.128 3.048 2.843 0 0.967-0.41 1.714-1.216 2.286 0.806 0.571 1.216 1.319 1.216 2.286 0 1.714-1.274 2.842-3.048 2.842-1.772 0-3.047-1.113-3.047-2.871 0-0.997 0.41-1.744 1.157-2.257zM9.084 20.438c0-0.938-0.689-1.553-1.714-1.553s-1.744 0.615-1.744 1.553c0 1.026 0.85 1.597 1.744 1.597s1.714-0.571 1.714-1.597zM5.626 24.952c0 0.937 0.718 1.553 1.744 1.553s1.714-0.615 1.714-1.553c0-1.026-0.82-1.597-1.714-1.597s-1.744 0.571-1.744 1.597z"></path>
<path d="M18.438 5.058l-3.443 3.443 0.909 0.938 2.432-2.433v8.308h1.319v-10.257z"></path>
<path d="M24.849 14.354c-0.982 0-1.73 0.82-1.978 1.875l-1.129-0.909c0.396-1.245 1.539-2.285 3.063-2.285 1.627 0 2.974 1.187 2.974 2.901 0 0.997-0.454 1.759-1.083 2.213 0.688 0.483 1.083 1.259 1.083 2.256 0 1.817-1.319 2.887-2.945 2.887-1.568 0-2.726-0.997-3.107-2.374l1.144-0.879c0.219 1.143 0.952 1.935 1.978 1.935 0.893 0 1.611-0.601 1.611-1.597 0-0.982-0.703-1.524-1.524-1.567h-0.615v-1.319h0.615c0.82-0.044 1.524-0.615 1.524-1.553 0-0.967-0.762-1.582-1.611-1.582z"></path>
</symbol>
</defs>
</svg>
