<?xml version="1.0" encoding="UTF-8"?>
<svg width="81px" height="62px" viewBox="0 0 81 62" version="1.1" xmlns="http://www.w3.org/2000/svg" xmlns:xlink="http://www.w3.org/1999/xlink">
    <!-- Generator: Sketch 52.6 (67491) - http://www.bohemiancoding.com/sketch -->
    <title>logo</title>
    <desc>Created with Sketch.</desc>
    <g id="Symbols" stroke="none" stroke-width="1" fill="none" fill-rule="evenodd">
        <g id="logo" transform="translate(-185.000000, -133.000000)" fill="#000000">
            <g transform="translate(184.000000, 133.000000)">
                <path d="M7.2012,14.6895 C9.2892,14.6895 10.6812,13.1535 10.6812,11.0895 C10.6812,9.0255 9.2892,7.4895 7.2012,7.4895 C5.1132,7.4895 3.7452,9.0255 3.7452,11.0895 C3.7452,13.1535 5.1132,14.6895 7.2012,14.6895 Z M1.1532,17.0895 L1.1532,0.2895 L3.7932,0.0005 L3.7932,6.3365 C4.5372,5.5215 5.8332,4.9455 7.3212,4.9455 C10.8972,4.9455 13.2732,7.3455 13.2732,11.0895 C13.2732,14.8345 10.8972,17.2345 7.3212,17.2345 C5.7372,17.2345 4.5612,16.5855 3.7932,15.8415 L3.7932,17.0895 L1.1532,17.0895 Z" id="Fill-1"></path>
                <path d="M14.6553,5.0889 L17.2953,5.0889 L17.2953,6.3369 C17.8713,5.5679 18.7113,4.9449 20.3913,4.9449 L20.3913,7.4889 L20.1513,7.4889 C18.4703,7.4889 17.2953,8.6899 17.2953,10.4649 L17.2953,17.0899 L14.6553,17.0899 L14.6553,5.0889 Z" id="Fill-3"></path>
                <path d="M21.216,17.0894 L23.856,17.0894 L23.856,5.0884 L21.216,5.0884 L21.216,17.0894 Z M22.535,0.1444 C23.52,0.1444 24.312,0.9364 24.312,1.9444 C24.312,2.9534 23.52,3.7444 22.535,3.7444 C21.552,3.7444 20.76,2.9534 20.76,1.9444 C20.76,0.9364 21.552,0.1444 22.535,0.1444 Z" id="Fill-5"></path>
                <path d="M30.3047,12.1699 C31.6247,12.1699 32.6097,11.2329 32.6097,9.8169 C32.6097,8.3769 31.6247,7.4409 30.3047,7.4409 C28.9607,7.4409 27.9767,8.3769 27.9767,9.8169 C27.9767,11.2329 28.9607,12.1699 30.3047,12.1699 M30.1607,4.9449 C31.0967,4.9449 31.9607,5.1599 32.6097,5.6409 L32.6097,5.0889 L35.2487,5.0889 L35.2487,9.8169 C35.2487,11.2089 34.6977,12.4569 33.6407,13.3209 C35.0807,14.3299 35.9207,15.9139 35.9207,17.6899 C35.9207,21.0509 33.4497,23.2339 30.3047,23.2339 C27.3527,23.2339 25.2157,21.3619 24.7367,18.6499 L27.4727,18.6499 C27.8317,19.8259 28.6967,20.7379 30.3047,20.7379 C32.0807,20.7379 33.2337,19.4899 33.2337,17.6899 C33.2337,15.8899 32.0807,14.6659 30.3047,14.6659 C29.1527,14.6659 28.1447,15.3379 27.6887,16.2499 L25.7687,14.3539 C26.0567,13.9699 26.4157,13.6089 26.9447,13.3209 C25.9117,12.4339 25.3357,11.2089 25.3357,9.8169 C25.3357,7.1059 27.3277,4.9449 30.1607,4.9449" id="Fill-7"></path>
                <path d="M37.2266,0.2891 L39.8666,0.0001 L39.8666,6.4571 C40.5856,5.5931 41.7386,4.9451 43.2986,4.9451 C46.1556,4.9451 47.9076,6.6971 47.9076,9.8891 L47.9076,17.0901 L45.2666,17.0901 L45.2666,10.4651 C45.2666,8.5941 44.4746,7.4411 42.6506,7.4411 C40.9466,7.4411 39.8666,8.7131 39.8666,10.4651 L39.8666,17.0901 L37.2266,17.0901 L37.2266,0.2891 Z" id="Fill-8"></path>
                <polygon id="Fill-9" points="50.8223 0.2891 53.4633 0.0001 53.4633 5.0891 57.0633 5.0891 57.0633 7.5851 53.4633 7.5851 53.4633 17.0901 50.8223 17.0901 50.8223 7.5851 48.3983 7.5851 48.3983 5.0891 50.8223 5.0891"></polygon>
                <path d="M63.2549,14.6895 C65.3179,14.6895 66.7109,13.1775 66.7109,11.0895 C66.7109,9.0015 65.3179,7.4895 63.2549,7.4895 C61.1909,7.4895 59.7979,9.0015 59.7979,11.0895 C59.7979,13.1775 61.1909,14.6895 63.2549,14.6895 M63.2549,4.9455 C66.8069,4.9455 69.3999,7.5855 69.3999,11.0895 C69.3999,14.5935 66.8069,17.2345 63.2549,17.2345 C59.7019,17.2345 57.1099,14.5935 57.1099,11.0895 C57.1099,7.5855 59.7019,4.9455 63.2549,4.9455" id="Fill-10"></path>
                <path d="M70.7285,5.0889 L73.3685,5.0889 L73.3685,6.4569 C73.9195,5.7359 74.9995,4.9449 76.6565,4.9449 C79.6325,4.9449 81.2645,6.6969 81.2645,9.8889 L81.2645,17.0899 L78.6245,17.0899 L78.6245,10.4649 C78.6245,8.3539 77.7365,7.4419 76.0085,7.4419 C74.2805,7.4419 73.3685,8.6899 73.3685,10.4649 L73.3685,17.0899 L70.7285,17.0899 L70.7285,5.0889 Z" id="Fill-11"></path>
                <path d="M7.1445,33.7383 C9.1845,33.7383 10.6245,32.2503 10.6245,30.0903 L13.2645,30.0903 C13.2645,33.5933 10.6245,36.2343 7.1445,36.2343 C3.6165,36.2343 0.9995,33.6173 0.9995,30.0903 C0.9995,26.5603 3.6165,23.9453 7.1445,23.9453 C9.0165,23.9453 10.4325,24.6403 11.5375,25.7693 L9.5925,27.5213 C8.9925,26.8733 8.2005,26.4413 7.1445,26.4413 C5.0805,26.4413 3.6875,27.9293 3.6875,30.0903 C3.6875,32.2503 5.0805,33.7383 7.1445,33.7383" id="Fill-12"></path>
                <path d="M19.9414,33.6895 C22.0044,33.6895 23.3974,32.1775 23.3974,30.0895 C23.3974,28.0015 22.0044,26.4895 19.9414,26.4895 C17.8774,26.4895 16.4844,28.0015 16.4844,30.0895 C16.4844,32.1775 17.8774,33.6895 19.9414,33.6895 M19.9414,23.9455 C23.4934,23.9455 26.0864,26.5855 26.0864,30.0895 C26.0864,33.5935 23.4934,36.2345 19.9414,36.2345 C16.3884,36.2345 13.7964,33.5935 13.7964,30.0895 C13.7964,26.5855 16.3884,23.9455 19.9414,23.9455" id="Fill-13"></path>
                <path d="M27.4141,24.0889 L30.0541,24.0889 L30.0541,25.4569 C30.7021,24.5679 31.8531,23.9449 33.1741,23.9449 C34.6391,23.9449 35.6701,24.5449 36.3181,25.6019 C37.2301,24.6409 38.2151,23.9449 39.9421,23.9449 C42.3911,23.9449 43.8791,25.2659 43.8791,28.2169 L43.8791,36.0899 L41.2391,36.0899 L41.2391,28.8889 C41.2391,27.3289 40.5181,26.4419 39.1021,26.4419 C37.8791,26.4419 36.9671,27.3289 36.9671,28.8889 L36.9671,36.0899 L34.3261,36.0899 L34.3261,28.8889 C34.3261,27.3289 33.5821,26.4419 32.1901,26.4419 C30.9661,26.4419 30.0541,27.3289 30.0541,28.8889 L30.0541,36.0899 L27.4141,36.0899 L27.4141,24.0889 Z" id="Fill-14"></path>
                <path d="M47.9883,28.6494 L54.3723,28.6494 C53.9883,27.4004 52.6923,26.3924 51.1803,26.3924 C49.6683,26.3924 48.3723,27.4004 47.9883,28.6494 Z M47.8683,31.0024 C48.1563,32.5134 49.5243,33.7384 51.2523,33.7384 C52.4763,33.7384 53.4603,33.3534 53.9653,32.5864 L57.1083,32.5864 C56.2933,34.7694 53.9653,36.2344 51.2523,36.2344 C47.7713,36.2344 45.0843,33.4984 45.0843,30.0894 C45.0843,26.6814 47.7713,23.9454 51.1803,23.9454 C54.5893,23.9454 57.2763,26.6814 57.2763,30.0894 C57.2763,30.4014 57.2533,30.7124 57.2053,31.0024 L47.8683,31.0024 Z" id="Fill-15"></path>
                <path d="M63.9746,26.4893 C61.8866,26.4893 60.4946,28.0253 60.4946,30.0903 C60.4946,32.1533 61.8866,33.6893 63.9746,33.6893 C66.0626,33.6893 67.4306,32.1533 67.4306,30.0903 C67.4306,28.0253 66.0626,26.4893 63.9746,26.4893 Z M67.3826,36.0903 L67.3826,34.8423 C66.6156,35.5863 65.4386,36.2343 63.8546,36.2343 C60.2786,36.2343 57.9026,33.8343 57.9026,30.0903 C57.9026,26.3453 60.2786,23.9453 63.8546,23.9453 C65.3426,23.9453 66.6386,24.5213 67.3826,25.3373 L67.3826,19.2893 L70.0236,19.0003 L70.0236,36.0903 L67.3826,36.0903 Z" id="Fill-16"></path>
                <polygon id="Fill-17" points="73.3262 24.0889 76.3032 31.0729 79.2792 24.0889 82.0152 24.0889 77.6232 33.9779 77.6232 42.0899 74.9822 42.3789 74.9822 33.9779 70.5902 24.0889"></polygon>
                <path d="M11.668,50.1699 C12.988,50.1699 13.973,49.2329 13.973,47.8169 C13.973,46.3769 12.988,45.4409 11.668,45.4409 C10.324,45.4409 9.34,46.3769 9.34,47.8169 C9.34,49.2329 10.324,50.1699 11.668,50.1699 M11.524,42.9449 C12.46,42.9449 13.324,43.1599 13.973,43.6409 L13.973,43.0889 L16.612,43.0889 L16.612,47.8169 C16.612,49.2089 16.061,50.4569 15.004,51.3209 C16.444,52.3299 17.284,53.9139 17.284,55.6899 C17.284,59.0509 14.813,61.2339 11.668,61.2339 C8.716,61.2339 6.579,59.3619 6.1,56.6499 L8.836,56.6499 C9.195,57.8259 10.06,58.7379 11.668,58.7379 C13.444,58.7379 14.597,57.4899 14.597,55.6899 C14.597,53.8899 13.444,52.6659 11.668,52.6659 C10.516,52.6659 9.508,53.3379 9.052,54.2499 L7.132,52.3539 C7.42,51.9699 7.779,51.6089 8.308,51.3209 C7.275,50.4339 6.699,49.2089 6.699,47.8169 C6.699,45.1059 8.691,42.9449 11.524,42.9449" id="Fill-18"></path>
                <path d="M23.8125,45.4893 C21.8205,45.4893 20.2845,47.1213 20.2845,49.0903 C20.2845,51.0573 21.8205,52.6893 23.8125,52.6893 C25.7565,52.6893 27.2455,51.0573 27.2455,49.0903 C27.2455,47.1213 25.7565,45.4893 23.8125,45.4893 Z M29.8365,43.0893 L29.8365,55.0903 L27.1485,55.0903 L27.1485,53.8423 C26.6445,54.4903 25.3255,55.2343 23.7165,55.2343 C20.2845,55.2343 17.6925,52.6893 17.6925,49.0903 C17.6925,45.4893 20.2845,42.9453 23.7165,42.9453 C25.3005,42.9453 26.6445,43.6893 27.1485,44.3373 L27.1485,43.0893 L29.8365,43.0893 Z" id="Fill-19"></path>
                <path d="M31.9453,43.0889 L34.5853,43.0889 L34.5853,44.3369 C35.1613,43.5679 36.0013,42.9449 37.6813,42.9449 L37.6813,45.4889 L37.4413,45.4889 C35.7603,45.4889 34.5853,46.6899 34.5853,48.4649 L34.5853,55.0899 L31.9453,55.0899 L31.9453,43.0889 Z" id="Fill-20"></path>
                <path d="M43.7646,45.4893 C41.6766,45.4893 40.2846,47.0253 40.2846,49.0903 C40.2846,51.1533 41.6766,52.6893 43.7646,52.6893 C45.8526,52.6893 47.2206,51.1533 47.2206,49.0903 C47.2206,47.0253 45.8526,45.4893 43.7646,45.4893 Z M47.1726,55.0903 L47.1726,53.8423 C46.4056,54.5863 45.2286,55.2343 43.6446,55.2343 C40.0686,55.2343 37.6926,52.8343 37.6926,49.0903 C37.6926,45.3453 40.0686,42.9453 43.6446,42.9453 C45.1326,42.9453 46.4286,43.5213 47.1726,44.3373 L47.1726,38.2893 L49.8136,38.0003 L49.8136,55.0903 L47.1726,55.0903 Z" id="Fill-21"></path>
                <path d="M54.0459,47.6494 L60.4299,47.6494 C60.0459,46.4004 58.7499,45.3924 57.2379,45.3924 C55.7259,45.3924 54.4299,46.4004 54.0459,47.6494 Z M53.9259,50.0024 C54.2139,51.5134 55.5819,52.7384 57.3099,52.7384 C58.5339,52.7384 59.5179,52.3534 60.0229,51.5864 L63.1659,51.5864 C62.3509,53.7694 60.0229,55.2344 57.3099,55.2344 C53.8289,55.2344 51.1419,52.4984 51.1419,49.0894 C51.1419,45.6814 53.8289,42.9454 57.2379,42.9454 C60.6469,42.9454 63.3339,45.6814 63.3339,49.0894 C63.3339,49.4014 63.3109,49.7124 63.2629,50.0024 L53.9259,50.0024 Z" id="Fill-22"></path>
                <path d="M64.6748,43.0889 L67.3148,43.0889 L67.3148,44.4569 C67.8658,43.7359 68.9458,42.9449 70.6028,42.9449 C73.5788,42.9449 75.2108,44.6969 75.2108,47.8889 L75.2108,55.0899 L72.5708,55.0899 L72.5708,48.4649 C72.5708,46.3539 71.6828,45.4419 69.9548,45.4419 C68.2268,45.4419 67.3148,46.6899 67.3148,48.4649 L67.3148,55.0899 L64.6748,55.0899 L64.6748,43.0889 Z" id="Fill-23"></path>
            </g>
        </g>
    </g>
</svg>