<?xml version="1.0" encoding="UTF-8"?>
<svg width="218px" height="146px" viewBox="0 0 218 146" version="1.1" xmlns="http://www.w3.org/2000/svg" xmlns:xlink="http://www.w3.org/1999/xlink">
    <!-- Generator: Sketch 49 (51002) - http://www.bohemiancoding.com/sketch -->
    <title>Group</title>
    <desc>Created with Sketch.</desc>
    <defs></defs>
    <g id="Page-1" stroke="none" stroke-width="1" fill="none" fill-rule="evenodd">
        <g id="FAvicon" transform="translate(-22.000000, -58.000000)">
            <g id="Group" transform="translate(22.000000, 59.000000)">
                <path d="M29.5608756,43.369307 L29.5608756,1.13496634 L36.1979,0.410499818 L36.1979,16.3392114 C38.0685813,14.2877809 41.3272111,12.8395826 45.0671042,12.8395826 C54.0568079,12.8395826 60.0303503,18.8733747 60.0303503,28.2848267 C60.0303503,37.6977481 54.0568079,43.7308055 45.0671042,43.7308055 C41.0854774,43.7308055 38.128831,42.1025927 36.1979,40.2319114 L36.1979,43.369307 L29.5608756,43.369307 Z M44.7651207,37.3362496 C50.0141966,37.3362496 53.5145601,33.4743875 53.5145601,28.2848267 C53.5145601,23.0967353 50.0141966,19.2348732 44.7651207,19.2348732 C39.5160448,19.2348732 36.0774005,23.0967353 36.0774005,28.2848267 C36.0774005,33.4743875 39.5160448,37.3362496 44.7651207,37.3362496 Z" id="Fill-1" fill="#1C1C1C"></path>
                <path d="M29.5608756,43.369307 L29.5608756,1.13496634 L36.1979,0.410499818 L36.1979,16.3392114 C38.0685813,14.2877809 41.3272111,12.8395826 45.0671042,12.8395826 C54.0568079,12.8395826 60.0303503,18.8733747 60.0303503,28.2848267 C60.0303503,37.6977481 54.0568079,43.7308055 45.0671042,43.7308055 C41.0854774,43.7308055 38.128831,42.1025927 36.1979,40.2319114 L36.1979,43.369307 L29.5608756,43.369307 Z M44.7651207,37.3362496 C50.0141966,37.3362496 53.5145601,33.4743875 53.5145601,28.2848267 C53.5145601,23.0967353 50.0141966,19.2348732 44.7651207,19.2348732 C39.5160448,19.2348732 36.0774005,23.0967353 36.0774005,28.2848267 C36.0774005,33.4743875 39.5160448,37.3362496 44.7651207,37.3362496 Z" id="Stroke-3" stroke="#1D1D1B"></path>
                <path d="M65.2753115,13.2018893 L71.9123359,13.2018893 L71.9123359,16.3392849 C73.3605342,14.4090886 75.4714798,12.8396561 79.6955751,12.8396561 L79.6955751,19.2349467 L79.0916081,19.2349467 C74.8689822,19.2349467 71.9123359,22.2518428 71.9123359,26.7162024 L71.9123359,43.3693805 L65.2753115,43.3693805 L65.2753115,13.2018893 Z" id="Fill-5" fill="#1C1C1C"></path>
                <path d="M65.2753115,13.2018893 L71.9123359,13.2018893 L71.9123359,16.3392849 C73.3605342,14.4090886 75.4714798,12.8396561 79.6955751,12.8396561 L79.6955751,19.2349467 L79.0916081,19.2349467 C74.8689822,19.2349467 71.9123359,22.2518428 71.9123359,26.7162024 L71.9123359,43.3693805 L65.2753115,43.3693805 L65.2753115,13.2018893 Z" id="Stroke-7" stroke="#1D1D1B"></path>
                <path d="M87.5969626,0.773173929 C90.0708761,0.773173929 92.0613222,2.76435472 92.0613222,5.29851803 C92.0613222,7.83194658 90.0708761,9.82312738 87.5969626,9.82312738 C85.123049,9.82312738 83.1318682,7.83194658 83.1318682,5.29851803 C83.1318682,2.76435472 85.123049,0.773173929 87.5969626,0.773173929 Z M84.278083,43.3697479 L90.9151074,43.3697479 L90.9151074,13.2022567 L84.278083,13.2022567 L84.278083,43.3697479 Z" id="Fill-9" fill="#1C1C1C"></path>
                <path d="M87.5969626,0.773173929 C90.0708761,0.773173929 92.0613222,2.76435472 92.0613222,5.29851803 C92.0613222,7.83194658 90.0708761,9.82312738 87.5969626,9.82312738 C85.123049,9.82312738 83.1318682,7.83194658 83.1318682,5.29851803 C83.1318682,2.76435472 85.123049,0.773173929 87.5969626,0.773173929 Z M84.278083,43.3697479 L90.9151074,43.3697479 L90.9151074,13.2022567 L84.278083,13.2022567 L84.278083,43.3697479 Z" id="Stroke-11" stroke="#1D1D1B"></path>
                <path d="M101.955286,33.4141378 C101.955286,35.9483011 103.945732,37.4567491 105.936913,37.4567491 C108.230078,37.4567491 109.798041,36.1290504 109.798041,33.7153866 C109.798041,30.336992 106.842129,30.0952582 103.885483,29.251027 C100.869321,28.4060609 97.6106916,26.0526469 97.6106916,21.166539 C97.6106916,16.3392114 101.351319,12.8395826 105.936913,12.8395826 C109.074309,12.8395826 111.427723,14.2275311 113.11692,16.7007099 L109.014794,20.744056 C108.532061,19.5368567 107.565861,18.7521405 106.359396,18.7521405 C104.790699,18.7521405 103.945732,19.9593397 103.945732,21.166539 C103.945732,23.8204671 107.324862,23.7602173 110.582757,24.9674166 C113.659903,26.1136314 116.4358,28.4670454 116.4358,33.594887 C116.4358,39.6279444 112.030955,43.7308055 105.936913,43.7308055 C99.7231066,43.7308055 95.6202456,39.1459464 95.6202456,33.4141378 L101.955286,33.4141378 Z" id="Fill-13" fill="#1C1C1C"></path>
                <path d="M101.955286,33.4141378 C101.955286,35.9483011 103.945732,37.4567491 105.936913,37.4567491 C108.230078,37.4567491 109.798041,36.1290504 109.798041,33.7153866 C109.798041,30.336992 106.842129,30.0952582 103.885483,29.251027 C100.869321,28.4060609 97.6106916,26.0526469 97.6106916,21.166539 C97.6106916,16.3392114 101.351319,12.8395826 105.936913,12.8395826 C109.074309,12.8395826 111.427723,14.2275311 113.11692,16.7007099 L109.014794,20.744056 C108.532061,19.5368567 107.565861,18.7521405 106.359396,18.7521405 C104.790699,18.7521405 103.945732,19.9593397 103.945732,21.166539 C103.945732,23.8204671 107.324862,23.7602173 110.582757,24.9674166 C113.659903,26.1136314 116.4358,28.4670454 116.4358,33.594887 C116.4358,39.6279444 112.030955,43.7308055 105.936913,43.7308055 C99.7231066,43.7308055 95.6202456,39.1459464 95.6202456,33.4141378 L101.955286,33.4141378 Z" id="Stroke-15" stroke="#1D1D1B"></path>
                <polygon id="Fill-18" fill="#1C1C1C" points="123.492515 1.13489286 123.492515 13.2017424 117.398473 13.2017424 117.398473 19.4765335 123.492515 19.4765335 123.492515 43.3692335 130.128805 43.3692335 130.128805 19.4765335 139.179493 19.4765335 139.179493 13.2017424 130.128805 13.2017424 130.128805 0.410426343"></polygon>
                <polygon id="Stroke-19" stroke="#1D1D1B" points="123.492295 1.13489286 130.129319 0.410426343 130.129319 13.2017424 139.179273 13.2017424 139.179273 19.4765335 130.129319 19.4765335 130.129319 43.3692335 123.492295 43.3692335 123.492295 19.4765335 117.398253 19.4765335 117.398253 13.2017424 123.492295 13.2017424"></polygon>
                <path d="M156.311583,12.8394356 C165.241772,12.8394356 171.757562,19.47646 171.757562,28.2854145 C171.757562,37.0951037 165.241772,43.7306586 156.311583,43.7306586 C147.382864,43.7306586 140.865604,37.0951037 140.865604,28.2854145 C140.865604,19.47646 147.382864,12.8394356 156.311583,12.8394356 M156.311583,37.3361027 C161.501144,37.3361027 165.000038,33.5344903 165.000038,28.2854145 C165.000038,23.0370734 161.501144,19.2347263 156.311583,19.2347263 C151.122757,19.2347263 147.623863,23.0370734 147.623863,28.2854145 C147.623863,33.5344903 151.122757,37.3361027 156.311583,37.3361027" id="Fill-21" fill="#1C1C1C"></path>
                <path d="M156.311583,12.8394356 C165.241772,12.8394356 171.757562,19.47646 171.757562,28.2854145 C171.757562,37.0951037 165.241772,43.7306586 156.311583,43.7306586 C147.382864,43.7306586 140.865604,37.0951037 140.865604,28.2854145 C140.865604,19.47646 147.382864,12.8394356 156.311583,12.8394356 Z M156.311583,37.3361027 C161.501144,37.3361027 165.000038,33.5344903 165.000038,28.2854145 C165.000038,23.0370734 161.501144,19.2347263 156.311583,19.2347263 C151.122757,19.2347263 147.623863,23.0370734 147.623863,28.2854145 C147.623863,33.5344903 151.122757,37.3361027 156.311583,37.3361027 Z" id="Stroke-23" stroke="#1D1D1B"></path>
                <polygon id="Fill-26" fill="#1C1C1C" points="177.667034 1.13489286 177.667034 43.3692335 184.304058 43.3692335 184.304058 0.410426343"></polygon>
                <polygon id="Stroke-27" stroke="#1D1D1B" points="177.66696 1.13489286 184.303985 0.410426343 184.303985 43.3692335 177.66696 43.3692335"></polygon>
                <path d="M15.9628007,80.415042 C21.0906423,80.415042 24.7107707,76.6744142 24.7107707,71.2438543 L31.3477951,71.2438543 C31.3477951,80.0535435 24.7107707,86.6898331 15.9628007,86.6898331 C7.09286177,86.6898331 0.516821875,80.1130585 0.516821875,71.2438543 C0.516821875,62.3746501 7.09286177,55.7978755 15.9628007,55.7978755 C20.6688941,55.7978755 24.2280379,57.5480573 27.003935,60.3834693 L22.1163576,64.7883139 C20.6079096,63.1593664 18.6174635,62.0734014 15.9628007,62.0734014 C10.7732398,62.0734014 7.27434577,65.8140292 7.27434577,71.2438543 C7.27434577,76.6744142 10.7732398,80.415042 15.9628007,80.415042" id="Fill-29" fill="#1C1C1C"></path>
                <path d="M15.9628007,80.415042 C21.0906423,80.415042 24.7107707,76.6744142 24.7107707,71.2438543 L31.3477951,71.2438543 C31.3477951,80.0535435 24.7107707,86.6898331 15.9628007,86.6898331 C7.09286177,86.6898331 0.516821875,80.1130585 0.516821875,71.2438543 C0.516821875,62.3746501 7.09286177,55.7978755 15.9628007,55.7978755 C20.6688941,55.7978755 24.2280379,57.5480573 27.003935,60.3834693 L22.1163576,64.7883139 C20.6079096,63.1593664 18.6174635,62.0734014 15.9628007,62.0734014 C10.7732398,62.0734014 7.27434577,65.8140292 7.27434577,71.2438543 C7.27434577,76.6744142 10.7732398,80.415042 15.9628007,80.415042 Z" id="Stroke-31" stroke="#1D1D1B"></path>
                <path d="M50.7116242,55.7980959 C59.6410781,55.7980959 66.157603,62.4351203 66.157603,71.2440747 C66.157603,80.0530292 59.6410781,86.6893188 50.7116242,86.6893188 C41.782905,86.6893188 35.2656453,80.0530292 35.2656453,71.2440747 C35.2656453,62.4351203 41.782905,55.7980959 50.7116242,55.7980959 M50.7116242,80.2947629 C55.901185,80.2947629 59.4000791,76.4931506 59.4000791,71.2440747 C59.4000791,65.9957336 55.901185,62.1933865 50.7116242,62.1933865 C45.522798,62.1933865 42.0231692,65.9957336 42.0231692,71.2440747 C42.0231692,76.4931506 45.522798,80.2947629 50.7116242,80.2947629" id="Fill-33" fill="#1C1C1C"></path>
                <path d="M50.7116242,55.7980959 C59.6410781,55.7980959 66.157603,62.4351203 66.157603,71.2440747 C66.157603,80.0530292 59.6410781,86.6893188 50.7116242,86.6893188 C41.782905,86.6893188 35.2656453,80.0530292 35.2656453,71.2440747 C35.2656453,62.4351203 41.782905,55.7980959 50.7116242,55.7980959 Z M50.7116242,80.2947629 C55.901185,80.2947629 59.4000791,76.4931506 59.4000791,71.2440747 C59.4000791,65.9957336 55.901185,62.1933865 50.7116242,62.1933865 C45.522798,62.1933865 42.0231692,65.9957336 42.0231692,71.2440747 C42.0231692,76.4931506 45.522798,80.2947629 50.7116242,80.2947629 Z" id="Stroke-35" stroke="#1D1D1B"></path>
                <path d="M72.3681032,56.1605496 L79.0058624,56.1605496 L79.0058624,59.5999286 C80.6340752,57.3670141 83.5312065,55.7983163 86.8493513,55.7983163 C90.5289946,55.7983163 93.1234077,57.3067643 94.75309,59.9614272 C97.0455195,57.5484981 99.5194331,55.7983163 103.863293,55.7983163 C110.017585,55.7983163 113.758213,59.1171959 113.758213,66.5382018 L113.758213,86.3280407 L107.121923,86.3280407 L107.121923,68.2273991 C107.121923,64.306022 105.311491,62.0731075 101.751613,62.0731075 C98.6737323,62.0731075 96.3820375,64.306022 96.3820375,68.2273991 L96.3820375,86.3280407 L89.7450131,86.3280407 L89.7450131,68.2273991 C89.7450131,64.306022 87.8743318,62.0731075 84.3754378,62.0731075 C81.2975572,62.0731075 79.0058624,64.306022 79.0058624,68.2273991 L79.0058624,86.3280407 L72.3681032,86.3280407 L72.3681032,56.1605496 Z" id="Fill-37" fill="#1C1C1C"></path>
                <path d="M72.3681032,56.1605496 L79.0058624,56.1605496 L79.0058624,59.5999286 C80.6340752,57.3670141 83.5312065,55.7983163 86.8493513,55.7983163 C90.5289946,55.7983163 93.1234077,57.3067643 94.75309,59.9614272 C97.0455195,57.5484981 99.5194331,55.7983163 103.863293,55.7983163 C110.017585,55.7983163 113.758213,59.1171959 113.758213,66.5382018 L113.758213,86.3280407 L107.121923,86.3280407 L107.121923,68.2273991 C107.121923,64.306022 105.311491,62.0731075 101.751613,62.0731075 C98.6737323,62.0731075 96.3820375,64.306022 96.3820375,68.2273991 L96.3820375,86.3280407 L89.7450131,86.3280407 L89.7450131,68.2273991 C89.7450131,64.306022 87.8743318,62.0731075 84.3754378,62.0731075 C81.2975572,62.0731075 79.0058624,64.306022 79.0058624,68.2273991 L79.0058624,86.3280407 L72.3681032,86.3280407 L72.3681032,56.1605496 Z" id="Stroke-39" stroke="#1D1D1B"></path>
                <path d="M125.881638,73.5365778 C126.604635,77.3381901 130.044014,80.4153359 134.388609,80.4153359 C137.46502,80.4153359 139.939668,79.4491356 141.206383,77.5189393 L149.110121,77.5189393 C147.058691,83.009749 141.206383,86.6893923 134.388609,86.6893923 C125.63917,86.6893923 118.882381,79.8121036 118.882381,71.2441482 C118.882381,62.6761928 125.63917,55.7981694 134.207125,55.7981694 C142.775081,55.7981694 149.53187,62.6761928 149.53187,71.2441482 C149.53187,72.0281297 149.472355,72.8121112 149.35112,73.5365778 L125.881638,73.5365778 Z M126.182887,67.6240199 L142.232098,67.6240199 C141.266632,64.4866243 138.008737,61.952461 134.207125,61.952461 C130.406982,61.952461 127.148352,64.4866243 126.182887,67.6240199 Z" id="Fill-41" fill="#1C1C1C"></path>
                <path d="M125.881638,73.5365778 C126.604635,77.3381901 130.044014,80.4153359 134.388609,80.4153359 C137.46502,80.4153359 139.939668,79.4491356 141.206383,77.5189393 L149.110121,77.5189393 C147.058691,83.009749 141.206383,86.6893923 134.388609,86.6893923 C125.63917,86.6893923 118.882381,79.8121036 118.882381,71.2441482 C118.882381,62.6761928 125.63917,55.7981694 134.207125,55.7981694 C142.775081,55.7981694 149.53187,62.6761928 149.53187,71.2441482 C149.53187,72.0281297 149.472355,72.8121112 149.35112,73.5365778 L125.881638,73.5365778 Z M126.182887,67.6240199 L142.232098,67.6240199 C141.266632,64.4866243 138.008737,61.952461 134.207125,61.952461 C130.406982,61.952461 127.148352,64.4866243 126.182887,67.6240199 Z" id="Stroke-43" stroke="#1D1D1B"></path>
                <path d="M177.644036,86.3278938 L177.644036,83.1904982 C175.71384,85.0611795 172.757193,86.6893923 168.775567,86.6893923 C159.785863,86.6893923 153.812321,80.6563349 153.812321,71.2441482 C153.812321,61.8319615 159.785863,55.7981694 168.775567,55.7981694 C172.516929,55.7981694 175.77409,57.2463676 177.644036,59.2977982 L177.644036,46.6071433 L184.281795,43.3690866 L184.281795,86.3278938 L177.644036,86.3278938 Z M169.076815,62.19346 C163.828474,62.19346 160.328845,66.0553221 160.328845,71.2441482 C160.328845,76.4329743 163.828474,80.2948364 169.076815,80.2948364 C174.326626,80.2948364 177.76527,76.4329743 177.76527,71.2441482 C177.76527,66.0553221 174.326626,62.19346 169.076815,62.19346 Z" id="Fill-45" fill="#1C1C1C"></path>
                <path d="M177.644036,86.3278938 L177.644036,83.1904982 C175.71384,85.0611795 172.757193,86.6893923 168.775567,86.6893923 C159.785863,86.6893923 153.812321,80.6563349 153.812321,71.2441482 C153.812321,61.8319615 159.785863,55.7981694 168.775567,55.7981694 C172.516929,55.7981694 175.77409,57.2463676 177.644036,59.2977982 L177.644036,46.6071433 L184.281795,43.3690866 L184.281795,86.3278938 L177.644036,86.3278938 Z M169.076815,62.19346 C163.828474,62.19346 160.328845,66.0553221 160.328845,71.2441482 C160.328845,76.4329743 163.828474,80.2948364 169.076815,80.2948364 C174.326626,80.2948364 177.76527,76.4329743 177.76527,71.2441482 C177.76527,66.0553221 174.326626,62.19346 169.076815,62.19346 Z" id="Stroke-47" stroke="#1D1D1B"></path>
                <path d="M27.0283288,97.6669704 C29.3817428,97.6669704 31.5536729,98.2099529 33.1826204,99.4171522 L33.1826204,98.0292037 L39.8196448,98.0292037 L39.8196448,109.914569 C39.8196448,113.414933 38.4316963,116.551594 35.7762987,118.724258 C39.3971618,121.258422 41.5088421,125.240049 41.5088421,129.705143 C41.5088421,138.151864 35.2943007,143.642674 27.3898273,143.642674 C19.9688214,143.642674 14.599246,138.93658 13.3927815,132.118807 L20.2708049,132.118807 C21.1760206,135.075453 23.3479507,137.367883 27.3898273,137.367883 C31.8556564,137.367883 34.7513182,134.229752 34.7513182,129.705143 C34.7513182,125.179799 31.8556564,122.103388 27.3898273,122.103388 C24.4941655,122.103388 21.9600021,123.79185 20.8137874,126.085015 L15.9871945,121.318671 C16.7109263,120.353941 17.6154073,119.448725 18.9438408,118.724258 C16.348693,116.492079 14.9004947,113.414933 14.9004947,109.914569 C14.9004947,103.096796 19.9085716,97.6669704 27.0283288,97.6669704 M27.3898273,115.827862 C30.7087068,115.827862 33.1826204,113.475182 33.1826204,109.914569 C33.1826204,106.295176 30.7087068,103.942496 27.3898273,103.942496 C24.0114327,103.942496 21.5375191,106.295176 21.5375191,109.914569 C21.5375191,113.475182 24.0114327,115.827862 27.3898273,115.827862" id="Fill-52" fill="#1C1C1C"></path>
                <path d="M27.0283288,97.6669704 C29.3817428,97.6669704 31.5536729,98.2099529 33.1826204,99.4171522 L33.1826204,98.0292037 L39.8196448,98.0292037 L39.8196448,109.914569 C39.8196448,113.414933 38.4316963,116.551594 35.7762987,118.724258 C39.3971618,121.258422 41.5088421,125.240049 41.5088421,129.705143 C41.5088421,138.151864 35.2943007,143.642674 27.3898273,143.642674 C19.9688214,143.642674 14.599246,138.93658 13.3927815,132.118807 L20.2708049,132.118807 C21.1760206,135.075453 23.3479507,137.367883 27.3898273,137.367883 C31.8556564,137.367883 34.7513182,134.229752 34.7513182,129.705143 C34.7513182,125.179799 31.8556564,122.103388 27.3898273,122.103388 C24.4941655,122.103388 21.9600021,123.79185 20.8137874,126.085015 L15.9871945,121.318671 C16.7109263,120.353941 17.6154073,119.448725 18.9438408,118.724258 C16.348693,116.492079 14.9004947,113.414933 14.9004947,109.914569 C14.9004947,103.096796 19.9085716,97.6669704 27.0283288,97.6669704 Z M27.3898273,115.827862 C30.7087068,115.827862 33.1826204,113.475182 33.1826204,109.914569 C33.1826204,106.295176 30.7087068,103.942496 27.3898273,103.942496 C24.0114327,103.942496 21.5375191,106.295176 21.5375191,109.914569 C21.5375191,113.475182 24.0114327,115.827862 27.3898273,115.827862 Z" id="Stroke-54" stroke="#1D1D1B"></path>
                <path d="M75.5945509,98.0294976 L75.5945509,128.196989 L68.837027,128.196989 L68.837027,125.059593 C67.5703127,126.688541 64.2514331,128.558487 60.2095566,128.558487 C51.5813514,128.558487 45.0655612,122.163931 45.0655612,113.112508 C45.0655612,104.062555 51.5813514,97.6672643 60.2095566,97.6672643 C64.1919181,97.6672643 67.5703127,99.5379456 68.837027,101.166893 L68.837027,98.0294976 L75.5945509,98.0294976 Z M60.4505556,104.062555 C55.4432134,104.062555 51.5813514,108.165416 51.5813514,113.112508 C51.5813514,118.06107 55.4432134,122.163931 60.4505556,122.163931 C65.3381329,122.163931 69.0787607,118.06107 69.0787607,113.112508 C69.0787607,108.165416 65.3381329,104.062555 60.4505556,104.062555 Z" id="Fill-56" fill="#1C1C1C"></path>
                <path d="M75.5945509,98.0294976 L75.5945509,128.196989 L68.837027,128.196989 L68.837027,125.059593 C67.5703127,126.688541 64.2514331,128.558487 60.2095566,128.558487 C51.5813514,128.558487 45.0655612,122.163931 45.0655612,113.112508 C45.0655612,104.062555 51.5813514,97.6672643 60.2095566,97.6672643 C64.1919181,97.6672643 67.5703127,99.5379456 68.837027,101.166893 L68.837027,98.0294976 L75.5945509,98.0294976 Z M60.4505556,104.062555 C55.4432134,104.062555 51.5813514,108.165416 51.5813514,113.112508 C51.5813514,118.06107 55.4432134,122.163931 60.4505556,122.163931 C65.3381329,122.163931 69.0787607,118.06107 69.0787607,113.112508 C69.0787607,108.165416 65.3381329,104.062555 60.4505556,104.062555 Z" id="Stroke-58" stroke="#1D1D1B"></path>
                <path d="M82.2888125,98.0294976 L88.9258369,98.0294976 L88.9258369,101.166893 C90.3733005,99.2366968 92.4857155,97.6672643 96.7083414,97.6672643 L96.7083414,104.062555 L96.1051091,104.062555 C91.8824833,104.062555 88.9258369,107.079451 88.9258369,111.543811 L88.9258369,128.196989 L82.2888125,128.196989 L82.2888125,98.0294976 Z" id="Fill-60" fill="#1C1C1C"></path>
                <path d="M82.2888125,98.0294976 L88.9258369,98.0294976 L88.9258369,101.166893 C90.3733005,99.2366968 92.4857155,97.6672643 96.7083414,97.6672643 L96.7083414,104.062555 L96.1051091,104.062555 C91.8824833,104.062555 88.9258369,107.079451 88.9258369,111.543811 L88.9258369,128.196989 L82.2888125,128.196989 L82.2888125,98.0294976 Z" id="Stroke-62" stroke="#1D1D1B"></path>
                <path d="M123.253353,128.196768 L123.253353,125.059373 C121.323157,126.930054 118.36651,128.558267 114.384149,128.558267 C105.394445,128.558267 99.4209027,122.525209 99.4209027,113.113023 C99.4209027,103.700836 105.394445,97.6670439 114.384149,97.6670439 C118.125511,97.6670439 121.383406,99.1152422 123.253353,101.166673 L123.253353,85.9624276 L129.890377,85.2379611 L129.890377,128.196768 L123.253353,128.196768 Z M114.686132,104.062335 C109.437056,104.062335 105.938162,107.924197 105.938162,113.113023 C105.938162,118.301849 109.437056,122.163711 114.686132,122.163711 C119.935208,122.163711 123.374587,118.301849 123.374587,113.113023 C123.374587,107.924197 119.935208,104.062335 114.686132,104.062335 Z" id="Fill-64" fill="#1C1C1C"></path>
                <path d="M123.253353,128.196768 L123.253353,125.059373 C121.323157,126.930054 118.36651,128.558267 114.384149,128.558267 C105.394445,128.558267 99.4209027,122.525209 99.4209027,113.113023 C99.4209027,103.700836 105.394445,97.6670439 114.384149,97.6670439 C118.125511,97.6670439 121.383406,99.1152422 123.253353,101.166673 L123.253353,85.9624276 L129.890377,85.2379611 L129.890377,128.196768 L123.253353,128.196768 Z M114.686132,104.062335 C109.437056,104.062335 105.938162,107.924197 105.938162,113.113023 C105.938162,118.301849 109.437056,122.163711 114.686132,122.163711 C119.935208,122.163711 123.374587,118.301849 123.374587,113.113023 C123.374587,107.924197 119.935208,104.062335 114.686132,104.062335 Z" id="Stroke-66" stroke="#1D1D1B"></path>
                <path d="M142.858402,115.405526 C143.582868,119.207138 147.021512,122.284284 151.366107,122.284284 C154.442518,122.284284 156.916432,121.318084 158.183881,119.387887 L166.08762,119.387887 C164.036189,124.878697 158.183881,128.55834 151.366107,128.55834 C142.616668,128.55834 135.859879,121.681052 135.859879,113.113096 C135.859879,104.545141 142.616668,97.6671173 151.184623,97.6671173 C159.752579,97.6671173 166.510103,104.545141 166.510103,113.113096 C166.510103,113.897812 166.449118,114.682529 166.328619,115.405526 L142.858402,115.405526 Z M143.160385,109.492968 L159.208861,109.492968 C158.243396,106.355572 154.986236,103.821409 151.184623,103.821409 C147.383746,103.821409 144.125116,106.355572 143.160385,109.492968 Z" id="Fill-68" fill="#1C1C1C"></path>
                <path d="M142.858402,115.405526 C143.582868,119.207138 147.021512,122.284284 151.366107,122.284284 C154.442518,122.284284 156.916432,121.318084 158.183881,119.387887 L166.08762,119.387887 C164.036189,124.878697 158.183881,128.55834 151.366107,128.55834 C142.616668,128.55834 135.859879,121.681052 135.859879,113.113096 C135.859879,104.545141 142.616668,97.6671173 151.184623,97.6671173 C159.752579,97.6671173 166.510103,104.545141 166.510103,113.113096 C166.510103,113.897812 166.449118,114.682529 166.328619,115.405526 L142.858402,115.405526 Z M143.160385,109.492968 L159.208861,109.492968 C158.243396,106.355572 154.986236,103.821409 151.184623,103.821409 C147.383746,103.821409 144.125116,106.355572 143.160385,109.492968 Z" id="Stroke-70" stroke="#1D1D1B"></path>
                <path d="M171.754917,98.0294976 L178.391941,98.0294976 L178.391941,101.468877 C179.77989,99.6584451 182.494802,97.6672643 186.657913,97.6672643 C194.139904,97.6672643 198.242765,102.071374 198.242765,110.096347 L198.242765,128.196989 L191.60574,128.196989 L191.60574,111.543811 C191.60574,106.23522 189.37356,103.942055 185.028966,103.942055 C180.684371,103.942055 178.391941,107.079451 178.391941,111.543811 L178.391941,128.196989 L171.754917,128.196989 L171.754917,98.0294976 Z" id="Fill-72" fill="#1C1C1C"></path>
                <path d="M171.754917,98.0294976 L178.391941,98.0294976 L178.391941,101.468877 C179.77989,99.6584451 182.494802,97.6672643 186.657913,97.6672643 C194.139904,97.6672643 198.242765,102.071374 198.242765,110.096347 L198.242765,128.196989 L191.60574,128.196989 L191.60574,111.543811 C191.60574,106.23522 189.37356,103.942055 185.028966,103.942055 C180.684371,103.942055 178.391941,107.079451 178.391941,111.543811 L178.391941,128.196989 L171.754917,128.196989 L171.754917,98.0294976 Z" id="Stroke-74" stroke="#1D1D1B"></path>
                <polygon id="Fill-50" fill="#1C1C1C" points="194.836009 56.1605496 202.317264 73.7182087 209.799255 56.1605496 216.677278 56.1605496 205.635409 81.0179804 205.635409 101.411786 198.999119 102.135518 198.999119 81.0179804 187.95725 56.1605496"></polygon>
                <polygon id="Stroke-51" stroke="#1D1D1B" points="194.836009 56.1605496 202.317264 73.7182087 209.799255 56.1605496 216.677278 56.1605496 205.635409 81.0179804 205.635409 101.411786 198.999119 102.135518 198.999119 81.0179804 187.95725 56.1605496"></polygon>
            </g>
        </g>
    </g>
</svg>