<svg aria-hidden="true" style="position: absolute; width: 0; height: 0; overflow: hidden;" version="1.1" xmlns="http://www.w3.org/2000/svg" xmlns:xlink="http://www.w3.org/1999/xlink">
<defs>
<symbol id="icon-arrow_back" viewBox="0 0 24 24">
<title>arrow_back</title>
<path d="M20.016 11.016v1.969h-12.188l5.578 5.625-1.406 1.406-8.016-8.016 8.016-8.016 1.406 1.406-5.578 5.625h12.188z"></path>
</symbol>
<symbol id="icon-arrow_forward" viewBox="0 0 24 24">
<title>arrow_forward</title>
<path d="M12 3.984l8.016 8.016-8.016 8.016-1.406-1.406 5.578-5.625h-12.188v-1.969h12.188l-5.578-5.625z"></path>
</symbol>
<symbol id="icon-info" viewBox="0 0 24 24">
<title>info</title>
<path d="M12.984 9v-2.016h-1.969v2.016h1.969zM12.984 17.016v-6h-1.969v6h1.969zM12 2.016c5.531 0 9.984 4.453 9.984 9.984s-4.453 9.984-9.984 9.984-9.984-4.453-9.984-9.984 4.453-9.984 9.984-9.984z"></path>
</symbol>
<symbol id="icon-website" viewBox="0 0 24 24">
<title>website</title>
<path d="M14.016 3h6.984v6.984h-2.016v-3.563l-9.797 9.797-1.406-1.406 9.797-9.797h-3.563v-2.016zM18.984 18.984v-6.984h2.016v6.984c0 1.078-0.938 2.016-2.016 2.016h-13.969c-1.125 0-2.016-0.938-2.016-2.016v-13.969c0-1.078 0.891-2.016 2.016-2.016h6.984v2.016h-6.984v13.969h13.969z"></path>
</symbol>
<symbol id="icon-sort" viewBox="0 0 24 24">
<title>sort</title>
<path d="M3 12.984v-1.969h12v1.969h-12zM3 6h18v2.016h-18v-2.016zM3 18v-2.016h6v2.016h-6z"></path>
</symbol>
<symbol id="icon-widgets" viewBox="0 0 24 24">
<title>widgets</title>
<path d="M16.641 1.688l5.672 5.672-5.672 5.625h4.359v8.016h-8.016v-8.016h3.656l-5.625-5.625v3.656h-8.016v-8.016h8.016v4.359zM3 21v-8.016h8.016v8.016h-8.016z"></path>
</symbol>
<symbol id="icon-align-right" viewBox="0 0 24 24">
<title>align-right</title>
<path d="M21 9h-14c-0.6 0-1 0.4-1 1s0.4 1 1 1h14c0.6 0 1-0.4 1-1s-0.4-1-1-1z"></path>
<path d="M3 7h18c0.6 0 1-0.4 1-1s-0.4-1-1-1h-18c-0.6 0-1 0.4-1 1s0.4 1 1 1z"></path>
<path d="M21 13h-18c-0.6 0-1 0.4-1 1s0.4 1 1 1h18c0.6 0 1-0.4 1-1s-0.4-1-1-1z"></path>
<path d="M21 17h-14c-0.6 0-1 0.4-1 1s0.4 1 1 1h14c0.6 0 1-0.4 1-1s-0.4-1-1-1z"></path>
</symbol>
<symbol id="icon-facebook" viewBox="0 0 24 24">
<title>facebook</title>
<path d="M18 7c0.6 0 1-0.4 1-1v-4c0-0.6-0.4-1-1-1h-3c-3.3 0-6 2.7-6 6v2h-2c-0.6 0-1 0.4-1 1v4c0 0.6 0.4 1 1 1h2v7c0 0.6 0.4 1 1 1h4c0.6 0 1-0.4 1-1v-7h2c0.5 0 0.9-0.3 1-0.8l1-4c0.1-0.3 0-0.6-0.2-0.9s-0.5-0.3-0.8-0.3h-3v-2h3zM14 11h2.7l-0.5 2h-2.2c-0.6 0-1 0.4-1 1v7h-2v-7c0-0.6-0.4-1-1-1h-2v-2h2c0.6 0 1-0.4 1-1v-3c0-2.2 1.8-4 4-4h2v2h-2c-1.1 0-2 0.9-2 2v3c0 0.6 0.4 1 1 1z"></path>
</symbol>
<symbol id="icon-instagram" viewBox="0 0 24 24">
<title>instagram</title>
<path d="M17 1h-10c-3.3 0-6 2.7-6 6v10c0 3.3 2.7 6 6 6h10c3.3 0 6-2.7 6-6v-10c0-3.3-2.7-6-6-6zM21 17c0 2.2-1.8 4-4 4h-10c-2.2 0-4-1.8-4-4v-10c0-2.2 1.8-4 4-4h10c2.2 0 4 1.8 4 4v10z"></path>
<path d="M12.8 7c-0.5-0.1-1-0.1-1.5 0-2.7 0.4-4.6 3-4.2 5.7 0.2 1.3 0.9 2.5 2 3.3 0.9 0.6 1.9 1 3 1 0.2 0 0.5 0 0.7-0.1 1.3-0.2 2.5-0.9 3.3-2s1.1-2.4 0.9-3.7c-0.3-2.2-2-3.9-4.2-4.2zM14.5 13.7c-0.5 0.6-1.2 1.1-2 1.2-1.6 0.2-3.2-0.9-3.4-2.5-0.3-1.6 0.9-3.2 2.5-3.4 0.1 0 0.3 0 0.4 0s0.3 0 0.4 0c1.3 0.2 2.3 1.2 2.5 2.5 0.2 0.8 0 1.6-0.4 2.2z"></path>
<path d="M16.8 5.8c-0.2 0.2-0.3 0.4-0.3 0.7s0.1 0.5 0.3 0.7c0.2 0.2 0.5 0.3 0.7 0.3 0.3 0 0.5-0.1 0.7-0.3s0.3-0.5 0.3-0.7c0-0.3-0.1-0.5-0.3-0.7-0.4-0.4-1-0.4-1.4 0z"></path>
</symbol>
<symbol id="icon-twitter" viewBox="0 0 24 24">
<title>twitter</title>
<path d="M23.6 2.2c-0.3-0.2-0.8-0.2-1.1 0-0.7 0.5-1.5 0.9-2.3 1.2-2-1.8-5.1-1.9-7.2-0.1-1.3 1.1-2 2.6-2 4.2-2.9-0.2-5.5-1.7-7.2-4.1-0.2-0.3-0.5-0.4-0.9-0.4s-0.7 0.3-0.8 0.6c-0.1 0.1-1.1 2.5-1 5.4 0.1 2.5 1.1 5.7 4.8 8-1.5 0.7-3.2 1-4.9 1-0.4 0-0.9 0.3-1 0.7s0.1 0.9 0.5 1.1c2.5 1.4 5.2 2.1 7.7 2.1s4.9-0.6 7.1-1.9c4.3-2.4 6.7-7 6.7-12.5 0-0.2 0-0.3 0-0.5 1-1.1 1.7-2.4 2-3.8 0.1-0.4-0.1-0.8-0.4-1zM20.2 6c-0.2 0.2-0.3 0.6-0.3 0.9 0.1 0.2 0.1 0.4 0.1 0.6 0 4.8-2.1 8.7-5.7 10.8-2.8 1.6-6.1 2-9.4 1.2 1.3-0.4 2.5-0.9 3.6-1.7 0.4-0.2 0.5-0.5 0.5-0.9s-0.3-0.7-0.6-0.8c-5.8-2.6-5.6-7.5-5-10 2.2 2.2 5.3 3.5 8.6 3.4 0.5 0 1-0.5 1-1v-1c0-1 0.4-2 1.2-2.7 1.4-1.3 3.7-1.1 4.9 0.3 0.3 0.3 0.7 0.4 1 0.3 0.2-0.1 0.5-0.1 0.7-0.2-0.2 0.3-0.4 0.5-0.6 0.8z"></path>
</symbol>
<symbol id="icon-festivals" viewBox="0 0 32 32">
<title>festivals</title>
<path d="M11.743 14.239c0-1.047-0.371-1.94-1.111-2.68s-1.635-1.111-2.681-1.111c0-0.493 0-0.928 0-1.305 0-0.388 0-0.717 0-0.987 0-0.224 0-0.416 0-0.583 0-0.164 0-0.305 0-0.423 0-0.481 0-0.757 0-0.829s0-0.376 0-0.917c0.999 0 2.491 0 4.479 0 0 0.152 0 0.388 0 0.705-0.835 0-2.092 0-3.772 0 0 0.823 0 2.057 0 3.703 1.069 0.165 1.963 0.665 2.68 1.497 0.729 0.835 1.093 1.811 1.093 2.927 0 0.436-0.060 0.852-0.176 1.251-0.117 0.399-0.281 0.769-0.493 1.111-0.4 0.636-0.935 1.147-1.604 1.535-0.671 0.388-1.405 0.583-2.205 0.583v-0.705c1.047 0 1.94-0.364 2.68-1.093 0.741-0.74 1.112-1.633 1.112-2.68z"></path>
<path d="M23.325 11.137c-1.293 2.645-3.227 6.617-5.8 11.917-0.176 0-0.436 0-0.775 0 1.352-2.809 3.391-7.017 6.117-12.623-1.528 0-3.832 0-6.911 0 0-0.152 0-0.381 0-0.688 1.445 0 3.608 0 6.487 0 0.353 0 0.869 0 1.552 0-0.152 0.307-0.376 0.771-0.669 1.393z"></path>
<path d="M8.004 24.419h1.163v0.227h-0.909v0.731h0.849v0.227h-0.849v0.955h-0.253v-2.139z"></path>
<path d="M9.889 24.419h1.163v0.227h-0.909v0.7h0.833v0.227h-0.833v0.76h0.924v0.227h-1.179v-2.14z"></path>
<path d="M12.796 26.013c0-0.085-0.027-0.156-0.077-0.209s-0.115-0.101-0.191-0.144c-0.077-0.043-0.16-0.081-0.248-0.117-0.091-0.036-0.173-0.081-0.248-0.133-0.077-0.052-0.14-0.116-0.191-0.193s-0.077-0.175-0.077-0.292c0-0.167 0.059-0.299 0.175-0.396s0.281-0.147 0.495-0.147c0.125 0 0.236 0.009 0.339 0.028s0.181 0.043 0.239 0.069l-0.077 0.227c-0.047-0.023-0.116-0.045-0.207-0.067-0.091-0.020-0.193-0.032-0.307-0.032-0.135 0-0.235 0.031-0.301 0.091s-0.1 0.131-0.1 0.212c0 0.080 0.027 0.145 0.077 0.199 0.051 0.052 0.115 0.1 0.191 0.143s0.16 0.083 0.248 0.124c0.089 0.040 0.173 0.088 0.248 0.143 0.077 0.053 0.14 0.119 0.191 0.195s0.077 0.168 0.077 0.281c0 0.092-0.016 0.175-0.049 0.247s-0.080 0.136-0.144 0.189c-0.063 0.052-0.14 0.095-0.229 0.121-0.091 0.029-0.192 0.043-0.305 0.043-0.152 0-0.279-0.012-0.379-0.035s-0.177-0.049-0.232-0.079l0.085-0.227c0.047 0.027 0.116 0.051 0.208 0.076s0.195 0.037 0.308 0.037c0.067 0 0.131-0.007 0.189-0.020 0.060-0.013 0.111-0.035 0.152-0.064s0.077-0.067 0.101-0.112c0.028-0.040 0.040-0.095 0.040-0.156z"></path>
<path d="M15.137 24.645h-0.665v1.912h-0.253v-1.912h-0.665v-0.227h1.585v0.227z"></path>
<path d="M15.816 24.419h0.255v2.139h-0.255v-2.139z"></path>
<path d="M17.508 25.888l0.075 0.324h0.003l0.080-0.329 0.513-1.463h0.255l-0.808 2.172h-0.113l-0.824-2.172h0.277l0.544 1.469z"></path>
<path d="M19.869 25.964h-0.784l-0.213 0.592h-0.255l0.808-2.172h0.116l0.813 2.172h-0.268l-0.217-0.592zM19.168 25.744h0.625l-0.236-0.651-0.076-0.324h-0.003l-0.076 0.329-0.235 0.644z"></path>
<path d="M22.209 26.556h-1.264v-2.137h0.255v1.912h1.011v0.225z"></path>
<path d="M23.795 26.013c0-0.085-0.027-0.156-0.077-0.209s-0.115-0.101-0.191-0.144c-0.077-0.043-0.16-0.081-0.248-0.117s-0.173-0.081-0.248-0.133c-0.077-0.052-0.14-0.116-0.191-0.193s-0.077-0.175-0.077-0.292c0-0.167 0.059-0.299 0.175-0.396s0.281-0.147 0.495-0.147c0.125 0 0.236 0.009 0.34 0.028 0.101 0.019 0.181 0.043 0.239 0.069l-0.077 0.227c-0.047-0.023-0.116-0.045-0.207-0.067-0.089-0.020-0.193-0.032-0.307-0.032-0.135 0-0.235 0.031-0.301 0.091s-0.1 0.131-0.1 0.212c0 0.080 0.027 0.145 0.077 0.199 0.051 0.052 0.115 0.1 0.191 0.143 0.077 0.043 0.16 0.083 0.248 0.124 0.089 0.040 0.173 0.088 0.248 0.143 0.077 0.053 0.14 0.119 0.191 0.195s0.077 0.168 0.077 0.281c0 0.092-0.016 0.175-0.049 0.247-0.032 0.072-0.080 0.136-0.144 0.189-0.063 0.052-0.14 0.095-0.229 0.121-0.089 0.029-0.192 0.043-0.305 0.043-0.152 0-0.279-0.012-0.379-0.035s-0.177-0.049-0.232-0.079l0.085-0.227c0.047 0.027 0.116 0.051 0.208 0.076s0.195 0.037 0.308 0.037c0.067 0 0.131-0.007 0.189-0.020 0.060-0.013 0.111-0.035 0.152-0.064s0.077-0.067 0.101-0.112c0.027-0.040 0.039-0.095 0.039-0.156z"></path>
</symbol>
<symbol id="icon-logo" viewBox="0 0 44 32">
<title>logo</title>
<path d="M9.535 7.924c1.13 0 1.883-0.829 1.883-1.942s-0.753-1.942-1.883-1.942c-1.13 0-1.87 0.829-1.87 1.942s0.74 1.942 1.87 1.942zM6.263 9.218v-9.063l1.428-0.156v3.418c0.402-0.44 1.104-0.75 1.909-0.75 1.934 0 3.22 1.295 3.22 3.314s-1.285 3.315-3.22 3.315c-0.857 0-1.493-0.35-1.909-0.751v0.673h-1.428z"></path>
<path d="M13.602 2.72h1.441v0.674c0.314-0.415 0.773-0.751 1.69-0.751v1.373h-0.131c-0.918 0-1.559 0.648-1.559 1.607v3.577h-1.441v-6.479z"></path>
<path d="M17.279 9.199h1.455v-6.446h-1.455v6.446zM18.006 0.098c0.543 0 0.979 0.425 0.979 0.967s-0.436 0.967-0.979 0.967c-0.542 0-0.978-0.425-0.978-0.967s0.436-0.967 0.978-0.967z"></path>
<path d="M20.747 7.074c0 0.546 0.431 0.871 0.861 0.871 0.496 0 0.835-0.286 0.835-0.806 0-0.728-0.64-0.78-1.279-0.962-0.653-0.182-1.357-0.689-1.357-1.741 0-1.040 0.809-1.793 1.801-1.793 0.678 0 1.187 0.299 1.552 0.832l-0.887 0.871c-0.104-0.26-0.314-0.429-0.574-0.429-0.339 0-0.522 0.26-0.522 0.52 0 0.572 0.731 0.559 1.435 0.819 0.665 0.246 1.265 0.753 1.265 1.858 0 1.3-0.952 2.184-2.27 2.184-1.344 0-2.231-0.988-2.231-2.223h1.37z"></path>
<path d="M24.996 0.156l1.432-0.156v2.739h1.952v1.343h-1.952v5.116h-1.432v-5.116h-1.314v-1.343h1.314z"></path>
<path d="M31.804 7.919c1.117 0 1.871-0.819 1.871-1.949s-0.754-1.949-1.871-1.949c-1.118 0-1.872 0.819-1.872 1.949s0.754 1.949 1.872 1.949zM31.804 2.642c1.923 0 3.327 1.43 3.327 3.327s-1.404 3.328-3.327 3.328c-1.924 0-3.327-1.43-3.327-3.328s1.403-3.327 3.327-3.327z"></path>
<path d="M35.914 0.156l1.468-0.156v9.199h-1.468z"></path>
<path d="M3.334 17.633c1.107 0 1.888-0.806 1.888-1.975h1.432c0 1.897-1.432 3.327-3.32 3.327-1.914 0-3.334-1.417-3.334-3.327 0-1.911 1.42-3.328 3.334-3.328 1.016 0 1.784 0.376 2.383 0.988l-1.055 0.949c-0.326-0.351-0.755-0.585-1.328-0.585-1.12 0-1.876 0.806-1.876 1.976s0.756 1.975 1.876 1.975z"></path>
<path d="M10.275 17.607c1.117 0 1.871-0.819 1.871-1.949s-0.754-1.949-1.871-1.949c-1.118 0-1.872 0.819-1.872 1.949s0.754 1.949 1.872 1.949zM10.275 12.33c1.923 0 3.327 1.43 3.327 3.327s-1.404 3.327-3.327 3.327c-1.924 0-3.327-1.43-3.327-3.328s1.403-3.327 3.327-3.327z"></path>
<path d="M14.385 12.506h1.428v0.739c0.35-0.48 0.973-0.816 1.687-0.816 0.792 0 1.35 0.324 1.7 0.895 0.493-0.519 1.026-0.895 1.96-0.895 1.325 0 2.129 0.713 2.129 2.306v4.25h-1.428v-3.888c0-0.842-0.39-1.321-1.156-1.321-0.661 0-1.155 0.479-1.155 1.321v3.888h-1.428v-3.888c0-0.842-0.402-1.321-1.155-1.321-0.662 0-1.155 0.479-1.155 1.321v3.888h-1.428v-6.479z"></path>
<path d="M25.635 14.877h3.433c-0.206-0.676-0.903-1.222-1.717-1.222s-1.51 0.546-1.717 1.222zM25.571 16.152c0.155 0.818 0.891 1.482 1.82 1.482 0.658 0 1.187-0.208 1.459-0.624h1.69c-0.438 1.182-1.69 1.975-3.149 1.975-1.872 0-3.317-1.482-3.317-3.328s1.445-3.327 3.278-3.327 3.278 1.482 3.278 3.327c0 0.169-0.012 0.337-0.038 0.494h-5.021z"></path>
<path d="M34.306 13.728c-1.129 0-1.882 0.829-1.882 1.942 0 1.113 0.753 1.941 1.882 1.941s1.869-0.829 1.869-1.941c0-1.114-0.74-1.942-1.869-1.942zM36.149 18.907v-0.673c-0.415 0.401-1.052 0.751-1.908 0.751-1.934 0-3.22-1.295-3.22-3.314s1.285-3.315 3.22-3.315c0.805 0 1.506 0.311 1.908 0.751v-3.263l1.429-0.156v9.219h-1.429z"></path>
<path d="M39.446 12.428l1.606 3.774 1.606-3.774h1.476l-2.37 5.344v4.384l-1.425 0.156v-4.54l-2.37-5.344z"></path>
<path d="M5.761 26.021c0.716 0 1.25-0.506 1.25-1.272 0-0.778-0.534-1.284-1.25-1.284-0.729 0-1.263 0.506-1.263 1.284 0 0.765 0.534 1.272 1.263 1.272zM5.683 22.116c0.508 0 0.976 0.116 1.329 0.376v-0.298h1.432v2.555c0 0.752-0.299 1.427-0.872 1.894 0.781 0.545 1.237 1.401 1.237 2.361 0 1.816-1.341 2.996-3.047 2.996-1.601 0-2.761-1.012-3.021-2.477h1.484c0.195 0.636 0.664 1.128 1.536 1.128 0.963 0 1.589-0.674 1.589-1.647s-0.625-1.634-1.589-1.634c-0.625 0-1.172 0.363-1.419 0.856l-1.042-1.025c0.156-0.208 0.351-0.403 0.638-0.558-0.56-0.479-0.873-1.141-0.873-1.894 0-1.465 1.081-2.633 2.618-2.633z"></path>
<path d="M12.405 23.494c-1.075 0-1.905 0.884-1.905 1.95 0 1.065 0.829 1.949 1.905 1.949 1.050 0 1.854-0.884 1.854-1.949 0-1.066-0.804-1.95-1.854-1.95zM15.658 22.194v6.498h-1.451v-0.676c-0.272 0.351-0.984 0.754-1.853 0.754-1.853 0-3.252-1.378-3.252-3.327 0-1.95 1.399-3.328 3.252-3.328 0.855 0 1.581 0.403 1.853 0.754v-0.676h1.451z"></path>
<path d="M16.832 22.194h1.441v0.674c0.314-0.415 0.773-0.751 1.69-0.751v1.373h-0.131c-0.918 0-1.559 0.648-1.559 1.607v3.577h-1.441v-6.479z"></path>
<path d="M23.346 23.514c-1.129 0-1.882 0.829-1.882 1.942 0 1.113 0.753 1.941 1.882 1.941s1.869-0.829 1.869-1.941c0-1.114-0.74-1.942-1.869-1.942zM25.189 28.693v-0.673c-0.415 0.401-1.052 0.751-1.908 0.751-1.934 0-3.22-1.295-3.22-3.314s1.285-3.315 3.22-3.315c0.805 0 1.506 0.311 1.908 0.751v-3.262l1.429-0.156v9.219h-1.429z"></path>
<path d="M28.962 24.663h3.433c-0.206-0.676-0.903-1.222-1.717-1.222s-1.51 0.546-1.717 1.222zM28.898 25.938c0.155 0.818 0.891 1.482 1.82 1.482 0.658 0 1.187-0.208 1.459-0.624h1.69c-0.438 1.182-1.69 1.975-3.149 1.975-1.872 0-3.317-1.482-3.317-3.328s1.445-3.327 3.278-3.327 3.278 1.482 3.278 3.327c0 0.169-0.012 0.337-0.038 0.494h-5.021z"></path>
<path d="M34.74 22.194h1.422v0.739c0.297-0.389 0.879-0.816 1.771-0.816 1.603 0 2.482 0.946 2.482 2.669v3.888h-1.422v-3.577c0-1.14-0.478-1.632-1.409-1.632s-1.422 0.674-1.422 1.632v3.577h-1.422v-6.479z"></path>
</symbol>
</defs>
</svg>
