<svg aria-hidden="true" style="position: absolute; width: 0; height: 0; overflow: hidden;" version="1.1" xmlns="http://www.w3.org/2000/svg" xmlns:xlink="http://www.w3.org/1999/xlink">
<defs>
<symbol id="icon-facebook" viewBox="0 0 24 24">
<title>facebook</title>
<path d="M18 7c0.6 0 1-0.4 1-1v-4c0-0.6-0.4-1-1-1h-3c-3.3 0-6 2.7-6 6v2h-2c-0.6 0-1 0.4-1 1v4c0 0.6 0.4 1 1 1h2v7c0 0.6 0.4 1 1 1h4c0.6 0 1-0.4 1-1v-7h2c0.5 0 0.9-0.3 1-0.8l1-4c0.1-0.3 0-0.6-0.2-0.9s-0.5-0.3-0.8-0.3h-3v-2h3zM14 11h2.7l-0.5 2h-2.2c-0.6 0-1 0.4-1 1v7h-2v-7c0-0.6-0.4-1-1-1h-2v-2h2c0.6 0 1-0.4 1-1v-3c0-2.2 1.8-4 4-4h2v2h-2c-1.1 0-2 0.9-2 2v3c0 0.6 0.4 1 1 1z"></path>
</symbol>
<symbol id="icon-instagram" viewBox="0 0 24 24">
<title>instagram</title>
<path d="M17 1h-10c-3.3 0-6 2.7-6 6v10c0 3.3 2.7 6 6 6h10c3.3 0 6-2.7 6-6v-10c0-3.3-2.7-6-6-6zM21 17c0 2.2-1.8 4-4 4h-10c-2.2 0-4-1.8-4-4v-10c0-2.2 1.8-4 4-4h10c2.2 0 4 1.8 4 4v10z"></path>
<path d="M12.8 7c-0.5-0.1-1-0.1-1.5 0-2.7 0.4-4.6 3-4.2 5.7 0.2 1.3 0.9 2.5 2 3.3 0.9 0.6 1.9 1 3 1 0.2 0 0.5 0 0.7-0.1 1.3-0.2 2.5-0.9 3.3-2s1.1-2.4 0.9-3.7c-0.3-2.2-2-3.9-4.2-4.2zM14.5 13.7c-0.5 0.6-1.2 1.1-2 1.2-1.6 0.2-3.2-0.9-3.4-2.5-0.3-1.6 0.9-3.2 2.5-3.4 0.1 0 0.3 0 0.4 0s0.3 0 0.4 0c1.3 0.2 2.3 1.2 2.5 2.5 0.2 0.8 0 1.6-0.4 2.2z"></path>
<path d="M16.8 5.8c-0.2 0.2-0.3 0.4-0.3 0.7s0.1 0.5 0.3 0.7c0.2 0.2 0.5 0.3 0.7 0.3 0.3 0 0.5-0.1 0.7-0.3s0.3-0.5 0.3-0.7c0-0.3-0.1-0.5-0.3-0.7-0.4-0.4-1-0.4-1.4 0z"></path>
</symbol>
<symbol id="icon-twitter" viewBox="0 0 24 24">
<title>twitter</title>
<path d="M23.6 2.2c-0.3-0.2-0.8-0.2-1.1 0-0.7 0.5-1.5 0.9-2.3 1.2-2-1.8-5.1-1.9-7.2-0.1-1.3 1.1-2 2.6-2 4.2-2.9-0.2-5.5-1.7-7.2-4.1-0.2-0.3-0.5-0.4-0.9-0.4s-0.7 0.3-0.8 0.6c-0.1 0.1-1.1 2.5-1 5.4 0.1 2.5 1.1 5.7 4.8 8-1.5 0.7-3.2 1-4.9 1-0.4 0-0.9 0.3-1 0.7s0.1 0.9 0.5 1.1c2.5 1.4 5.2 2.1 7.7 2.1s4.9-0.6 7.1-1.9c4.3-2.4 6.7-7 6.7-12.5 0-0.2 0-0.3 0-0.5 1-1.1 1.7-2.4 2-3.8 0.1-0.4-0.1-0.8-0.4-1zM20.2 6c-0.2 0.2-0.3 0.6-0.3 0.9 0.1 0.2 0.1 0.4 0.1 0.6 0 4.8-2.1 8.7-5.7 10.8-2.8 1.6-6.1 2-9.4 1.2 1.3-0.4 2.5-0.9 3.6-1.7 0.4-0.2 0.5-0.5 0.5-0.9s-0.3-0.7-0.6-0.8c-5.8-2.6-5.6-7.5-5-10 2.2 2.2 5.3 3.5 8.6 3.4 0.5 0 1-0.5 1-1v-1c0-1 0.4-2 1.2-2.7 1.4-1.3 3.7-1.1 4.9 0.3 0.3 0.3 0.7 0.4 1 0.3 0.2-0.1 0.5-0.1 0.7-0.2-0.2 0.3-0.4 0.5-0.6 0.8z"></path>
</symbol>
<symbol id="icon-logo" viewBox="0 0 44 32">
<title>logo</title>
<path d="M9.535 7.924c1.13 0 1.883-0.829 1.883-1.942s-0.753-1.942-1.883-1.942c-1.13 0-1.87 0.829-1.87 1.942s0.74 1.942 1.87 1.942zM6.263 9.218v-9.063l1.428-0.156v3.418c0.402-0.44 1.104-0.75 1.909-0.75 1.934 0 3.22 1.295 3.22 3.314s-1.285 3.315-3.22 3.315c-0.857 0-1.493-0.35-1.909-0.751v0.673h-1.428z"></path>
<path d="M13.602 2.72h1.441v0.674c0.314-0.415 0.773-0.751 1.69-0.751v1.373h-0.131c-0.918 0-1.559 0.648-1.559 1.607v3.577h-1.441v-6.479z"></path>
<path d="M17.279 9.199h1.455v-6.446h-1.455v6.446zM18.006 0.098c0.543 0 0.979 0.425 0.979 0.967s-0.436 0.967-0.979 0.967c-0.542 0-0.978-0.425-0.978-0.967s0.436-0.967 0.978-0.967z"></path>
<path d="M20.747 7.074c0 0.546 0.431 0.871 0.861 0.871 0.496 0 0.835-0.286 0.835-0.806 0-0.728-0.64-0.78-1.279-0.962-0.653-0.182-1.357-0.689-1.357-1.741 0-1.040 0.809-1.793 1.801-1.793 0.678 0 1.187 0.299 1.552 0.832l-0.887 0.871c-0.104-0.26-0.314-0.429-0.574-0.429-0.339 0-0.522 0.26-0.522 0.52 0 0.572 0.731 0.559 1.435 0.819 0.665 0.246 1.265 0.753 1.265 1.858 0 1.3-0.952 2.184-2.27 2.184-1.344 0-2.231-0.988-2.231-2.223h1.37z"></path>
<path d="M24.996 0.156l1.432-0.156v2.739h1.952v1.343h-1.952v5.116h-1.432v-5.116h-1.314v-1.343h1.314z"></path>
<path d="M31.804 7.919c1.117 0 1.871-0.819 1.871-1.949s-0.754-1.949-1.871-1.949c-1.118 0-1.872 0.819-1.872 1.949s0.754 1.949 1.872 1.949zM31.804 2.642c1.923 0 3.327 1.43 3.327 3.327s-1.404 3.328-3.327 3.328c-1.924 0-3.327-1.43-3.327-3.328s1.403-3.327 3.327-3.327z"></path>
<path d="M35.914 0.156l1.468-0.156v9.199h-1.468z"></path>
<path d="M3.334 17.633c1.107 0 1.888-0.806 1.888-1.975h1.432c0 1.897-1.432 3.327-3.32 3.327-1.914 0-3.334-1.417-3.334-3.327 0-1.911 1.42-3.328 3.334-3.328 1.016 0 1.784 0.376 2.383 0.988l-1.055 0.949c-0.326-0.351-0.755-0.585-1.328-0.585-1.12 0-1.876 0.806-1.876 1.976s0.756 1.975 1.876 1.975z"></path>
<path d="M10.275 17.607c1.117 0 1.871-0.819 1.871-1.949s-0.754-1.949-1.871-1.949c-1.118 0-1.872 0.819-1.872 1.949s0.754 1.949 1.872 1.949zM10.275 12.33c1.923 0 3.327 1.43 3.327 3.327s-1.404 3.327-3.327 3.327c-1.924 0-3.327-1.43-3.327-3.328s1.403-3.327 3.327-3.327z"></path>
<path d="M14.385 12.506h1.428v0.739c0.35-0.48 0.973-0.816 1.687-0.816 0.792 0 1.35 0.324 1.7 0.895 0.493-0.519 1.026-0.895 1.96-0.895 1.325 0 2.129 0.713 2.129 2.306v4.25h-1.428v-3.888c0-0.842-0.39-1.321-1.156-1.321-0.661 0-1.155 0.479-1.155 1.321v3.888h-1.428v-3.888c0-0.842-0.402-1.321-1.155-1.321-0.662 0-1.155 0.479-1.155 1.321v3.888h-1.428v-6.479z"></path>
<path d="M25.635 14.877h3.433c-0.206-0.676-0.903-1.222-1.717-1.222s-1.51 0.546-1.717 1.222zM25.571 16.152c0.155 0.818 0.891 1.482 1.82 1.482 0.658 0 1.187-0.208 1.459-0.624h1.69c-0.438 1.182-1.69 1.975-3.149 1.975-1.872 0-3.317-1.482-3.317-3.328s1.445-3.327 3.278-3.327 3.278 1.482 3.278 3.327c0 0.169-0.012 0.337-0.038 0.494h-5.021z"></path>
<path d="M34.306 13.728c-1.129 0-1.882 0.829-1.882 1.942 0 1.113 0.753 1.941 1.882 1.941s1.869-0.829 1.869-1.941c0-1.114-0.74-1.942-1.869-1.942zM36.149 18.907v-0.673c-0.415 0.401-1.052 0.751-1.908 0.751-1.934 0-3.22-1.295-3.22-3.314s1.285-3.315 3.22-3.315c0.805 0 1.506 0.311 1.908 0.751v-3.263l1.429-0.156v9.219h-1.429z"></path>
<path d="M39.446 12.428l1.606 3.774 1.606-3.774h1.476l-2.37 5.344v4.384l-1.425 0.156v-4.54l-2.37-5.344z"></path>
<path d="M5.761 26.021c0.716 0 1.25-0.506 1.25-1.272 0-0.778-0.534-1.284-1.25-1.284-0.729 0-1.263 0.506-1.263 1.284 0 0.765 0.534 1.272 1.263 1.272zM5.683 22.116c0.508 0 0.976 0.116 1.329 0.376v-0.298h1.432v2.555c0 0.752-0.299 1.427-0.872 1.894 0.781 0.545 1.237 1.401 1.237 2.361 0 1.816-1.341 2.996-3.047 2.996-1.601 0-2.761-1.012-3.021-2.477h1.484c0.195 0.636 0.664 1.128 1.536 1.128 0.963 0 1.589-0.674 1.589-1.647s-0.625-1.634-1.589-1.634c-0.625 0-1.172 0.363-1.419 0.856l-1.042-1.025c0.156-0.208 0.351-0.403 0.638-0.558-0.56-0.479-0.873-1.141-0.873-1.894 0-1.465 1.081-2.633 2.618-2.633z"></path>
<path d="M12.405 23.494c-1.075 0-1.905 0.884-1.905 1.95 0 1.065 0.829 1.949 1.905 1.949 1.050 0 1.854-0.884 1.854-1.949 0-1.066-0.804-1.95-1.854-1.95zM15.658 22.194v6.498h-1.451v-0.676c-0.272 0.351-0.984 0.754-1.853 0.754-1.853 0-3.252-1.378-3.252-3.327 0-1.95 1.399-3.328 3.252-3.328 0.855 0 1.581 0.403 1.853 0.754v-0.676h1.451z"></path>
<path d="M16.832 22.194h1.441v0.674c0.314-0.415 0.773-0.751 1.69-0.751v1.373h-0.131c-0.918 0-1.559 0.648-1.559 1.607v3.577h-1.441v-6.479z"></path>
<path d="M23.346 23.514c-1.129 0-1.882 0.829-1.882 1.942 0 1.113 0.753 1.941 1.882 1.941s1.869-0.829 1.869-1.941c0-1.114-0.74-1.942-1.869-1.942zM25.189 28.693v-0.673c-0.415 0.401-1.052 0.751-1.908 0.751-1.934 0-3.22-1.295-3.22-3.314s1.285-3.315 3.22-3.315c0.805 0 1.506 0.311 1.908 0.751v-3.262l1.429-0.156v9.219h-1.429z"></path>
<path d="M28.962 24.663h3.433c-0.206-0.676-0.903-1.222-1.717-1.222s-1.51 0.546-1.717 1.222zM28.898 25.938c0.155 0.818 0.891 1.482 1.82 1.482 0.658 0 1.187-0.208 1.459-0.624h1.69c-0.438 1.182-1.69 1.975-3.149 1.975-1.872 0-3.317-1.482-3.317-3.328s1.445-3.327 3.278-3.327 3.278 1.482 3.278 3.327c0 0.169-0.012 0.337-0.038 0.494h-5.021z"></path>
<path d="M34.74 22.194h1.422v0.739c0.297-0.389 0.879-0.816 1.771-0.816 1.603 0 2.482 0.946 2.482 2.669v3.888h-1.422v-3.577c0-1.14-0.478-1.632-1.409-1.632s-1.422 0.674-1.422 1.632v3.577h-1.422v-6.479z"></path>
</symbol>
</defs>
</svg>
